<svg width="60" height="60" viewBox="0 0 60 60" fill="none" xmlns="http://www.w3.org/2000/svg">
<g clip-path="url(#clip0_6_14)">
<path d="M43.74 35.9569C42.9881 35.5763 39.3262 33.7894 38.6419 33.5344C37.9575 33.2906 37.4606 33.1631 36.9619 33.915C36.4744 34.6481 35.0381 36.3263 34.5994 36.8156C34.1606 37.305 33.7294 37.3425 32.9887 37.0106C32.2369 36.63 29.835 35.8481 26.9831 33.2906C24.7556 31.3087 23.2725 28.8675 22.8319 28.1156C22.3931 27.3731 22.7831 26.9531 23.1544 26.5819C23.4956 26.2406 23.9063 25.7231 24.2869 25.2731C24.6488 24.8231 24.765 24.5212 25.0294 24.0337C25.2731 23.5069 25.1475 23.0962 24.9619 22.725C24.7762 22.3537 23.2819 18.6731 22.6575 17.2069C22.0612 15.7519 21.4369 15.9375 20.9775 15.9375C20.5481 15.8981 20.0494 15.8981 19.5525 15.8981C19.0556 15.8981 18.2437 16.0838 17.5594 16.7963C16.875 17.5481 14.9419 19.3444 14.9419 22.9781C14.9419 26.6213 17.6175 30.1462 17.9887 30.6731C18.3694 31.1606 23.2519 38.6606 30.7425 41.8837C32.5294 42.6356 33.9169 43.0856 35.0006 43.4569C36.7875 44.0231 38.4188 43.9444 39.7069 43.7587C41.1319 43.5244 44.1206 41.9513 44.7469 40.1944C45.3825 38.4263 45.3825 36.9619 45.1969 36.63C45.0112 36.2887 44.5237 36.1031 43.7719 35.7712L43.74 35.9569ZM30.1556 54.375H30.1163C25.6819 54.375 21.2981 53.1731 17.4694 50.9269L16.5713 50.3906L7.19625 52.8319L9.71625 43.71L9.11063 42.7725C6.63462 38.8357 5.32106 34.2795 5.32125 29.6288C5.32125 16.0162 16.4644 4.9125 30.1744 4.9125C36.8156 4.9125 43.0463 7.5 47.7338 12.1875C50.0461 14.4724 51.8804 17.1948 53.1294 20.1961C54.3785 23.1974 55.0173 26.4173 55.0087 29.6681C54.99 43.2713 43.8562 54.375 30.165 54.375H30.1556ZM51.2981 8.62312C45.5944 3.11438 38.0944 0 30.1163 0C13.6613 0 0.2625 13.3406 0.253125 29.7356C0.253125 34.9706 1.62 40.0781 4.2375 44.5987L0 60L15.84 55.8694C20.2281 58.2352 25.1329 59.4796 30.1181 59.4919H30.1275C46.5919 59.4919 59.9906 46.1513 60 29.745C60 21.8063 56.9044 14.3344 51.2606 8.71875L51.2981 8.62312Z" fill="#3977BC"/>
</g>
<defs>
<clipPath id="clip0_6_14">
<rect width="60" height="60" fill="white"/>
</clipPath>
</defs>
</svg>
