<svg width="273" height="112" viewBox="0 0 273 112" fill="none" xmlns="http://www.w3.org/2000/svg">
<path d="M170.891 83.226C170.869 83.5883 170.791 83.9697 170.657 84.3702C170.545 84.7515 170.4 85.1043 170.222 85.4285C170.043 85.7336 169.854 85.9911 169.653 86.2009C169.452 86.4106 169.262 86.5155 169.084 86.5155C168.839 86.4964 168.694 86.3534 168.649 86.0864C168.649 86.0292 168.671 85.9434 168.716 85.829C168.783 85.6955 168.85 85.5525 168.917 85.3999C168.984 85.2474 169.039 85.0948 169.084 84.9422C169.151 84.7897 169.184 84.6562 169.184 84.5418C169.184 84.2748 169.106 84.0555 168.95 83.8839C168.816 83.6932 168.627 83.5978 168.381 83.5978C167.489 83.5978 166.809 84.0746 166.34 85.0281C165.872 85.9816 165.637 87.3832 165.637 89.233C165.637 89.4237 165.648 89.5381 165.671 89.5762C166.139 89.5571 166.552 89.5476 166.909 89.5476C167.288 89.5285 167.656 89.519 168.013 89.519C168.035 89.5571 168.047 89.6334 168.047 89.7478C168.047 89.9195 168.002 90.0434 167.913 90.1197C167.4 90.2151 166.987 90.3009 166.675 90.3771C166.385 90.4344 166.162 90.4916 166.005 90.5488C165.849 90.606 165.749 90.6727 165.704 90.749C165.682 90.8062 165.671 90.892 165.671 91.0064C165.671 91.159 165.671 91.3116 165.671 91.4641C165.693 91.6167 165.704 91.8074 165.704 92.0362C165.704 93.6381 165.191 94.9253 164.165 95.8979C163.161 96.8704 161.756 97.433 159.949 97.5855C159.636 97.5665 159.313 97.4902 158.978 97.3567C158.643 97.2232 158.32 97.0516 158.008 96.8418C157.718 96.632 157.461 96.3937 157.238 96.1267C157.015 95.8788 156.859 95.6213 156.77 95.3544C156.77 94.6297 156.948 93.9432 157.305 93.2948C157.662 92.6274 158.142 92.0458 158.744 91.5499C159.369 91.0351 160.094 90.6251 160.919 90.3199C161.767 89.9957 162.681 89.8051 163.663 89.7478C163.663 89.2711 163.607 88.8039 163.496 88.3462C163.384 87.8885 163.261 87.4499 163.128 87.0304C163.016 86.5918 162.904 86.1723 162.793 85.7718C162.681 85.3522 162.626 84.9422 162.626 84.5418C162.626 84.0269 162.748 83.5215 162.994 83.0257C163.239 82.5108 163.563 82.0436 163.964 81.6241C164.366 81.1855 164.834 80.8136 165.37 80.5085C165.905 80.2034 166.463 79.9936 167.043 79.8792C167.288 79.9364 167.612 80.108 168.013 80.3941C168.437 80.6611 168.85 80.9662 169.251 81.3094C169.653 81.6527 170.01 82.0055 170.322 82.3678C170.634 82.7111 170.824 82.9971 170.891 83.226ZM159.848 96.2697C160.384 96.079 160.886 95.8025 161.354 95.4402C161.845 95.0779 162.269 94.6679 162.626 94.2102C162.983 93.7525 163.261 93.2662 163.462 92.7513C163.685 92.2365 163.797 91.7311 163.797 91.2353C163.351 91.2925 162.86 91.4737 162.324 91.7788C161.789 92.0648 161.287 92.4176 160.819 92.8372C160.35 93.2376 159.96 93.6572 159.647 94.0958C159.335 94.5344 159.179 94.9158 159.179 95.2399C159.179 95.6595 159.402 96.0027 159.848 96.2697Z" fill="black"/>
<path d="M155.172 83.0544C155.395 83.0544 155.652 83.0925 155.942 83.1688C156.254 83.226 156.533 83.3118 156.778 83.4262C157.024 83.5216 157.225 83.6265 157.381 83.7409C157.559 83.8553 157.649 83.9602 157.649 84.0555C157.202 84.8565 156.79 85.6669 156.41 86.4869C156.031 87.2879 155.708 88.0602 155.44 88.8039C155.172 89.5476 154.96 90.2437 154.804 90.8921C154.67 91.5404 154.603 92.103 154.603 92.5797C154.603 93.1137 154.67 93.5618 154.804 93.9242C154.938 94.2674 155.161 94.5153 155.473 94.6679C155.206 94.8204 154.86 94.9444 154.436 95.0397C154.012 95.1351 153.633 95.1828 153.298 95.1828C152.094 95.1828 151.491 94.4772 151.491 93.066C151.491 91.979 151.915 90.4916 152.763 88.6037C152.317 89.4809 151.804 90.3104 151.224 91.0923C150.644 91.8551 150.052 92.5321 149.45 93.1232C148.848 93.7144 148.234 94.2007 147.61 94.5821C147.007 94.9444 146.449 95.1637 145.936 95.24C145.111 95.2018 144.442 94.8681 143.929 94.2388C143.415 93.5904 143.159 92.7704 143.159 91.7788C143.159 90.7109 143.427 89.5858 143.962 88.4034C144.497 87.2211 145.178 86.1246 146.003 85.1139C146.851 84.1032 147.766 83.2641 148.747 82.5967C149.729 81.9102 150.677 81.5478 151.592 81.5097C151.815 81.5669 152.06 81.6813 152.328 81.853C152.618 82.0246 152.886 82.2248 153.131 82.4537C153.399 82.6825 153.622 82.9209 153.8 83.1688C153.979 83.3976 154.079 83.5978 154.101 83.7695C153.209 83.8839 152.283 84.2558 151.324 84.8851C150.387 85.5144 149.528 86.2772 148.747 87.1734C147.989 88.0506 147.364 88.9946 146.873 90.0053C146.383 91.016 146.137 91.96 146.137 92.8372C146.137 93.1995 146.293 93.4283 146.606 93.5237C147.253 93.4093 148 92.9421 148.848 92.1221C149.695 91.283 150.722 89.9958 151.926 88.2604C152.149 87.9172 152.395 87.5358 152.663 87.1162C152.953 86.6967 153.243 86.2581 153.533 85.8004C153.823 85.3427 154.101 84.8851 154.369 84.4274C154.659 83.9506 154.927 83.493 155.172 83.0544Z" fill="black"/>
<path d="M137.382 85.8291C137.025 85.8481 136.59 86.0484 136.077 86.4298C135.564 86.7921 135.006 87.2688 134.404 87.86C133.823 88.4321 133.21 89.0709 132.563 89.7765C131.938 90.4821 131.325 91.1877 130.723 91.8933C130.143 92.5798 129.596 93.2282 129.083 93.8384C128.57 94.4486 128.135 94.9349 127.778 95.2972C127.287 95.1256 126.863 94.8777 126.506 94.5535C126.149 94.2103 125.893 93.7907 125.737 93.2949C125.848 92.7037 126.004 92.0935 126.205 91.4642C126.406 90.8158 126.662 90.1484 126.975 89.4619C127.309 88.7754 127.711 88.0602 128.179 87.3165C128.67 86.5537 129.261 85.7528 129.953 84.9137C129.618 84.9328 129.161 85.1426 128.581 85.543C128.001 85.9244 127.376 86.4298 126.707 87.0591C126.038 87.6693 125.346 88.3654 124.632 89.1472C123.918 89.91 123.249 90.6633 122.624 91.407C121.799 92.3986 121.107 93.2663 120.55 94.01C120.014 94.7537 119.624 95.1923 119.379 95.3258C118.798 94.9635 118.397 94.5726 118.174 94.153C117.951 93.7335 117.783 93.2663 117.672 92.7514C117.694 92.2937 117.772 91.7216 117.906 91.0351C118.062 90.3486 118.274 89.643 118.542 88.9184C119.055 87.5263 119.713 86.1437 120.516 84.7707C121.342 83.3977 122.134 82.1391 122.892 80.9949C123.517 81.1093 124.075 81.2905 124.565 81.5384C125.078 81.7863 125.614 82.1486 126.172 82.6253C125.948 83.2165 125.603 83.8458 125.134 84.5133C124.666 85.1616 124.175 85.8481 123.662 86.5728C123.149 87.2974 122.68 88.0412 122.256 88.804C121.832 89.5668 121.554 90.3391 121.42 91.1209C122.044 90.3582 122.781 89.4809 123.628 88.4893C124.498 87.4977 125.38 86.5633 126.272 85.686C127.187 84.8088 128.09 84.0651 128.982 83.4549C129.875 82.8446 130.678 82.5395 131.392 82.5395C131.66 82.5395 131.95 82.5777 132.262 82.6539C132.574 82.7302 132.864 82.8256 133.132 82.94C133.4 83.0544 133.623 83.1688 133.801 83.2833C133.98 83.3786 134.08 83.4549 134.102 83.5121C133.991 83.8935 133.723 84.4179 133.299 85.0853C132.898 85.7337 132.463 86.4202 131.994 87.1449C131.526 87.8695 131.091 88.5751 130.689 89.2616C130.288 89.9291 130.053 90.463 129.986 90.8635C131.079 89.5858 132.106 88.4321 133.065 87.4023C134.024 86.3535 134.928 85.4572 135.776 84.7135C136.623 83.9698 137.404 83.3977 138.118 82.9972C138.854 82.5967 139.546 82.3965 140.193 82.3965C140.639 82.3965 141.052 82.5014 141.431 82.7112C141.832 82.9019 142.111 83.1879 142.267 83.5693C142.067 84.1414 141.732 84.8279 141.263 85.6288C140.817 86.4298 140.36 87.2784 139.891 88.1747C139.423 89.0519 138.999 89.9195 138.62 90.7777C138.263 91.6358 138.084 92.4082 138.084 93.0947C138.084 93.4951 138.151 93.7621 138.285 93.8956C138.419 94.01 138.609 94.0672 138.854 94.0672C139.122 94.0672 139.367 94.0291 139.59 93.9528C139.836 93.8575 140.014 93.8098 140.126 93.8098C140.26 93.8861 140.338 93.9814 140.36 94.0958C140.382 94.2103 140.393 94.3151 140.393 94.4105C139.947 94.7156 139.49 94.9635 139.021 95.1542C138.553 95.364 138.029 95.4689 137.449 95.4689C136.913 95.4689 136.467 95.3926 136.11 95.24C135.776 95.0875 135.497 94.8777 135.274 94.6107C135.05 94.3437 134.894 94.0386 134.805 93.6954C134.716 93.3521 134.671 92.9803 134.671 92.5798C134.671 91.9314 134.772 91.2926 134.972 90.6633C135.173 90.0149 135.407 89.4047 135.675 88.8326C135.965 88.2414 136.266 87.6979 136.579 87.2021C136.891 86.6872 137.159 86.2295 137.382 85.8291Z" fill="black"/>
<path d="M107.218 95.6118C105.946 95.4974 104.931 95.0207 104.172 94.1816C103.414 93.3425 103.035 92.2746 103.035 90.9779C103.035 90.2151 103.169 89.4237 103.436 88.6037C103.704 87.7837 104.083 86.9923 104.574 86.2295C105.065 85.4476 105.645 84.7134 106.314 84.0269C106.983 83.3404 107.708 82.7492 108.489 82.2534C109.716 81.4716 110.865 81.0806 111.936 81.0806C112.65 81.4048 113.353 82.0818 114.044 83.1116C114.156 83.1116 114.256 83.1116 114.345 83.1116C114.434 83.0925 114.535 83.083 114.646 83.083C115.829 83.083 116.42 83.9792 116.42 85.7718C116.42 86.9732 116.186 88.1174 115.717 89.2044C115.271 90.2723 114.635 91.2448 113.81 92.122C113.007 92.9993 112.036 93.743 110.899 94.3532C109.783 94.9444 108.556 95.3639 107.218 95.6118ZM108.924 86.6013C108.545 87.0399 108.188 87.5167 107.853 88.0316C107.519 88.5465 107.229 89.0709 106.983 89.6048C106.738 90.1197 106.548 90.6251 106.414 91.1209C106.281 91.5976 106.214 92.0267 106.214 92.4081C106.214 92.8658 106.303 93.3044 106.481 93.7239C106.66 94.1434 106.861 94.3818 107.084 94.439C108.088 94.2483 109.002 93.8955 109.828 93.3807C110.675 92.8467 111.4 92.1888 112.003 91.4069C112.627 90.6251 113.107 89.7383 113.442 88.7467C113.799 87.7551 113.977 86.6967 113.977 85.5716C113.977 85.0758 113.944 84.6848 113.877 84.3988C113.81 84.1127 113.698 83.8648 113.542 83.6551C112.561 83.903 111.679 84.3034 110.899 84.8564C110.14 85.4095 109.482 85.9911 108.924 86.6013Z" fill="black"/>
<path d="M180.709 70.2623C180.709 69.5911 180.896 68.6528 181.271 67.4476C181.646 66.2271 182.172 64.8083 182.851 63.1912C183.957 60.613 184.992 58.4695 185.956 56.7609C186.938 55.037 187.892 53.6945 188.82 52.7333C189.035 52.7638 189.293 52.8401 189.597 52.9622C189.918 53.0842 190.23 53.2215 190.534 53.3741C190.837 53.5114 191.105 53.6563 191.337 53.8089C191.587 53.9614 191.747 54.0835 191.819 54.175C190.427 55.5786 189.204 57.0889 188.151 58.706C187.098 60.3231 186.134 62.1767 185.26 64.2668C184.51 66.067 183.939 67.6917 183.547 69.141C183.154 70.5751 182.958 71.7726 182.958 72.7338C182.958 72.9931 182.958 73.1533 182.958 73.2143C182.958 73.2753 182.967 73.3364 182.984 73.3974C182.735 73.3669 182.52 73.3135 182.342 73.2372C182.164 73.1609 182.048 73.0694 181.994 72.9626C181.958 72.8863 181.86 72.7719 181.699 72.6193C181.539 72.482 181.396 72.3752 181.271 72.299C181.111 72.2074 180.977 71.971 180.87 71.5896C180.763 71.1929 180.709 70.7505 180.709 70.2623Z" fill="black"/>
<path d="M177.397 62.4818C177.575 62.4818 177.781 62.5123 178.013 62.5734C178.262 62.6191 178.485 62.6878 178.682 62.7793C178.878 62.8556 179.039 62.9395 179.164 63.031C179.306 63.1226 179.378 63.2065 179.378 63.2828C179.021 63.9235 178.691 64.5719 178.387 65.2279C178.084 65.8686 177.825 66.4865 177.611 67.0815C177.397 67.6764 177.227 68.2333 177.102 68.752C176.995 69.2707 176.942 69.7207 176.942 70.1021C176.942 70.5293 176.995 70.8878 177.102 71.1777C177.209 71.4523 177.388 71.6506 177.638 71.7726C177.424 71.8947 177.147 71.9938 176.808 72.0701C176.469 72.1464 176.165 72.1845 175.898 72.1845C174.934 72.1845 174.452 71.6201 174.452 70.4911C174.452 69.6216 174.791 68.4316 175.469 66.9213C175.112 67.623 174.702 68.2867 174.238 68.9122C173.774 69.5224 173.301 70.064 172.819 70.5369C172.337 71.0098 171.846 71.3989 171.347 71.704C170.865 71.9938 170.419 72.1693 170.008 72.2303C169.348 72.1998 168.812 71.9328 168.402 71.4294C167.991 70.9107 167.786 70.2547 167.786 69.4614C167.786 68.607 168 67.7069 168.429 66.7611C168.857 65.8152 169.401 64.938 170.062 64.1295C170.74 63.3209 171.472 62.6496 172.257 62.1157C173.042 61.5665 173.801 61.2766 174.532 61.2461C174.711 61.2919 174.907 61.3834 175.121 61.5207C175.353 61.658 175.567 61.8182 175.764 62.0013C175.978 62.1843 176.156 62.375 176.299 62.5734C176.442 62.7564 176.522 62.9166 176.54 63.0539C175.826 63.1454 175.086 63.4429 174.318 63.9464C173.569 64.4498 172.881 65.0601 172.257 65.7771C171.65 66.4789 171.15 67.234 170.758 68.0426C170.365 68.8511 170.169 69.6063 170.169 70.3081C170.169 70.5979 170.294 70.781 170.544 70.8573C171.061 70.7657 171.659 70.392 172.337 69.736C173.015 69.0647 173.836 68.0349 174.8 66.6467C174.979 66.3721 175.175 66.0669 175.389 65.7313C175.621 65.3957 175.853 65.0448 176.085 64.6787C176.317 64.3125 176.54 63.9464 176.754 63.5802C176.986 63.1988 177.2 62.8327 177.397 62.4818Z" fill="black"/>
<path d="M156.721 71.2692C156.81 70.8268 156.962 70.2471 157.176 69.53C157.408 68.7978 157.676 68.0273 157.979 67.2188C158.283 66.395 158.604 65.5712 158.943 64.7473C159.282 63.9235 159.612 63.1836 159.934 62.5276C160.166 62.0547 160.371 61.6885 160.549 61.4292C160.728 61.1546 160.924 60.9257 161.138 60.7427C161.388 60.7732 161.647 60.8266 161.915 60.9029C162.182 60.9791 162.441 61.0707 162.691 61.1775C162.941 61.2843 163.164 61.3987 163.36 61.5207C163.557 61.6275 163.708 61.7343 163.815 61.8411C163.334 62.3293 162.905 62.8861 162.53 63.5116C162.173 64.1371 161.808 64.938 161.433 65.9144C162.397 65.1821 163.244 64.4804 163.976 63.8091C164.726 63.1378 165.422 62.3903 166.064 61.5665C166.171 61.4902 166.359 61.4521 166.626 61.4521C166.876 61.4521 167.117 61.4902 167.349 61.5665C167.581 61.6275 167.742 61.719 167.831 61.8411C167.51 62.5734 167.349 63.298 167.349 64.0151C167.349 64.6863 167.465 65.1898 167.697 65.5254C167.679 65.6169 167.554 65.7924 167.322 66.0517C167.108 66.3111 166.867 66.5552 166.6 66.784C166.118 66.5704 165.689 66.2805 165.315 65.9144C164.94 65.533 164.663 65.1211 164.485 64.6787C163.646 65.1821 162.932 65.6779 162.343 66.1661C161.754 66.6391 161.245 67.173 160.817 67.768C160.407 68.3477 160.05 69.019 159.746 69.7818C159.461 70.5446 159.184 71.4523 158.916 72.5049C158.756 72.4897 158.559 72.4363 158.327 72.3447C158.113 72.2685 157.89 72.1693 157.658 72.0473C157.444 71.9252 157.248 71.7955 157.069 71.6582C156.891 71.5209 156.775 71.3913 156.721 71.2692Z" fill="black"/>
<path d="M139.904 78.5463C139.904 78.4547 139.94 78.3708 140.011 78.2945C140.083 78.2183 140.163 78.142 140.252 78.0657C140.466 78.2335 140.654 78.3632 140.814 78.4547C140.957 78.5463 141.1 78.6225 141.243 78.6836C141.368 78.7446 141.501 78.7827 141.644 78.798C141.787 78.8132 141.956 78.8209 142.153 78.8209C143.081 78.8209 143.964 78.6073 144.803 78.1801C145.642 77.7682 146.427 77.1656 147.159 76.3723C147.908 75.579 148.587 74.6102 149.193 73.4661C149.8 72.3219 150.336 71.0251 150.8 69.5758C150.586 69.7589 150.318 69.9648 149.997 70.1937C149.693 70.4073 149.372 70.6132 149.033 70.8115C148.694 71.0099 148.355 71.1929 148.016 71.3607C147.694 71.5286 147.418 71.6506 147.186 71.7269C146.882 71.6811 146.597 71.5743 146.329 71.4065C146.079 71.2234 145.856 71.0022 145.66 70.7429C145.463 70.4835 145.312 70.1937 145.205 69.8733C145.098 69.5377 145.044 69.1868 145.044 68.8206C145.044 68.2257 145.169 67.6154 145.419 66.9899C145.687 66.3645 146.035 65.7542 146.463 65.1592C146.891 64.549 147.391 63.9769 147.962 63.443C148.551 62.909 149.167 62.4437 149.809 62.0471C150.47 61.6504 151.13 61.3377 151.79 61.1088C152.468 60.8647 153.129 60.7427 153.771 60.7427C154.396 60.7427 154.86 60.8571 155.163 61.0859C155.485 61.2995 155.717 61.6733 155.859 62.2072C155.663 62.1157 155.413 62.0699 155.11 62.0699C154.681 62.0699 154.182 62.2149 153.611 62.5047C153.057 62.7946 152.486 63.176 151.897 63.6489C151.326 64.1066 150.755 64.6405 150.184 65.2508C149.613 65.8458 149.104 66.456 148.658 67.0815C148.23 67.707 147.873 68.3172 147.587 68.9122C147.32 69.5072 147.186 70.0411 147.186 70.514C147.186 70.6208 147.195 70.6895 147.212 70.72C147.23 70.7353 147.257 70.7429 147.293 70.7429C147.453 70.7429 147.668 70.6666 147.935 70.514C148.221 70.3615 148.533 70.1708 148.872 69.942C149.229 69.6979 149.595 69.4233 149.97 69.1181C150.345 68.7978 150.702 68.4774 151.041 68.157C151.808 67.4247 152.504 66.6085 153.129 65.7085C153.771 64.7931 154.28 63.9083 154.655 63.0539C155.137 63.0844 155.565 63.1531 155.94 63.2599C156.314 63.3667 156.573 63.4811 156.716 63.6031C156.109 64.7931 155.618 65.7924 155.244 66.6009C154.887 67.4095 154.574 68.1265 154.307 68.752C153.825 69.8504 153.37 70.8497 152.941 71.7498C152.531 72.6651 152.103 73.5042 151.656 74.267C151.228 75.045 150.755 75.7621 150.238 76.4181C149.738 77.0893 149.167 77.7301 148.524 78.3403C148.221 78.6302 147.873 78.8819 147.48 79.0955C147.105 79.3243 146.713 79.515 146.302 79.6676C145.91 79.8201 145.517 79.9345 145.124 80.0108C144.75 80.0871 144.402 80.1252 144.08 80.1252C143.652 80.1252 143.215 80.0795 142.769 79.9879C142.322 79.9117 141.912 79.7972 141.537 79.6447C141.144 79.5074 140.805 79.3396 140.52 79.1412C140.234 78.9582 140.029 78.7598 139.904 78.5463Z" fill="black"/>
<path d="M144.072 62.2529C144.001 63.1988 143.805 64.015 143.483 64.7015C143.162 65.3727 142.698 65.9677 142.091 66.4864C141.502 66.9899 140.78 67.4475 139.923 67.8594C139.066 68.2714 138.067 68.668 136.925 69.0494C136.925 69.1409 136.916 69.2401 136.898 69.3469C136.898 69.4384 136.898 69.5376 136.898 69.6444C136.898 69.8427 136.916 70.0487 136.951 70.2622C136.987 70.4758 137.049 70.6742 137.139 70.8572C137.228 71.0403 137.353 71.1929 137.513 71.3149C137.674 71.4217 137.879 71.4751 138.129 71.4751C138.611 71.4751 139.084 71.3835 139.548 71.2005C140.012 71.0174 140.449 70.7962 140.86 70.5368C141.288 70.2622 141.681 69.9724 142.038 69.6673C142.413 69.3469 142.743 69.057 143.028 68.7977C143.207 68.935 143.358 69.0647 143.483 69.1867C142.68 70.1021 141.797 70.8648 140.833 71.4751C139.887 72.0701 138.986 72.4515 138.129 72.6193C136.898 72.4972 135.934 72.1158 135.238 71.4751C134.56 70.8191 134.221 70.0334 134.221 69.1181C134.221 68.4926 134.319 67.8594 134.515 67.2187C134.729 66.5627 135.015 65.9372 135.372 65.3422C135.747 64.732 136.175 64.1599 136.657 63.6259C137.157 63.092 137.683 62.6267 138.236 62.23C138.807 61.8334 139.387 61.5206 139.976 61.2918C140.583 61.063 141.181 60.9485 141.77 60.9485C142.591 61.0401 143.358 61.4749 144.072 62.2529ZM142.225 63.0081C141.743 63.0691 141.244 63.2369 140.726 63.5115C140.208 63.7861 139.718 64.1523 139.254 64.61C138.807 65.0676 138.397 65.6016 138.022 66.2118C137.647 66.822 137.353 67.4781 137.139 68.1798C138.566 67.5696 139.753 66.822 140.699 65.9372C141.645 65.0371 142.154 64.0607 142.225 63.0081Z" fill="black"/>
<path d="M126.656 62.9624C126.567 62.8709 126.487 62.6802 126.415 62.3903C126.344 62.0852 126.308 61.8259 126.308 61.6123C126.772 61.6428 127.218 61.6733 127.647 61.7038C128.075 61.7191 128.468 61.7343 128.825 61.7496C129.092 61.2919 129.378 60.8419 129.681 60.3994C130.003 59.9418 130.306 59.5299 130.592 59.1637C130.895 58.7823 131.172 58.462 131.421 58.2026C131.689 57.9433 131.894 57.7754 132.037 57.6992C132.216 57.6992 132.439 57.7297 132.706 57.7907C132.992 57.8365 133.278 57.9051 133.563 57.9966C133.849 58.0729 134.107 58.1568 134.339 58.2484C134.571 58.3399 134.732 58.4314 134.821 58.523C134.286 59.1027 133.822 59.6443 133.429 60.1477C133.054 60.6359 132.644 61.2004 132.198 61.8411C132.555 61.8411 132.912 61.8335 133.269 61.8182C133.643 61.803 134.018 61.7801 134.393 61.7496C134.482 61.8259 134.554 61.925 134.607 62.0471C134.661 62.1539 134.687 62.2683 134.687 62.3903C133.813 62.6649 132.751 62.8175 131.502 62.848C131.056 63.5803 130.654 64.3126 130.297 65.0448C129.958 65.7619 129.664 66.456 129.414 67.1273C129.182 67.7985 128.994 68.4316 128.851 69.0266C128.727 69.6216 128.664 70.1556 128.664 70.6285C128.664 71.2997 128.959 71.6735 129.548 71.7498C130.083 71.6888 130.592 71.5744 131.073 71.4065C131.555 71.2387 131.984 71.0251 132.358 70.7658C132.466 70.9031 132.528 71.0175 132.546 71.109C132.439 71.2464 132.251 71.4065 131.984 71.5896C131.734 71.7727 131.457 71.9481 131.154 72.1159C130.85 72.299 130.556 72.4516 130.27 72.5736C129.985 72.6957 129.771 72.7643 129.628 72.7796C129.182 72.7643 128.735 72.6804 128.289 72.5278C127.843 72.3753 127.433 72.1846 127.058 71.9557C126.701 71.7269 126.406 71.4752 126.174 71.2006C125.942 70.9107 125.826 70.6285 125.826 70.3539C125.826 69.9877 125.88 69.5301 125.987 68.9809C126.112 68.4164 126.282 67.8062 126.496 67.1502C126.71 66.4942 126.96 65.8076 127.245 65.0906C127.531 64.3736 127.843 63.6642 128.182 62.9624H126.656Z" fill="black"/>
<path d="M114.956 60.6282C115.42 60.7503 115.858 61.0249 116.268 61.4521C116.679 61.864 116.982 62.3216 117.178 62.8251C116.982 63.237 116.679 63.7328 116.268 64.3125C115.858 64.8922 115.447 65.4872 115.037 66.0975C114.626 66.6924 114.251 67.2645 113.912 67.8137C113.591 68.3477 113.404 68.7901 113.35 69.141C113.636 68.8816 113.948 68.5842 114.287 68.2485C114.644 67.8976 114.983 67.5544 115.304 67.2188C115.643 66.8679 115.956 66.5551 116.241 66.2805C116.527 65.9907 116.75 65.7771 116.911 65.6398C117.25 65.3347 117.651 64.9838 118.115 64.5871C118.579 64.1752 119.061 63.7938 119.561 63.4429C120.078 63.0768 120.596 62.7717 121.114 62.5276C121.631 62.2682 122.104 62.1386 122.532 62.1386C122.996 62.1386 123.38 62.2759 123.684 62.5505C124.005 62.8098 124.255 63.0844 124.433 63.3743C124.433 63.4048 124.362 63.4506 124.219 63.5116C124.094 63.5574 123.907 63.7023 123.657 63.9464C123.407 64.221 123.121 64.6024 122.8 65.0906C122.497 65.5635 122.193 66.0822 121.89 66.6467C121.604 67.1959 121.363 67.7603 121.167 68.3401C120.971 68.9198 120.873 69.4461 120.873 69.919C120.873 70.3004 120.926 70.5445 121.033 70.6513C121.158 70.7581 121.328 70.8115 121.542 70.8115C121.738 70.8115 121.943 70.7734 122.158 70.6971C122.372 70.6208 122.541 70.5827 122.666 70.5827C122.738 70.6132 122.791 70.6818 122.827 70.7886C122.88 70.8802 122.907 70.9641 122.907 71.0404C122.764 71.1471 122.595 71.2539 122.399 71.3607C122.202 71.4675 121.997 71.5667 121.783 71.6582C121.569 71.7497 121.354 71.826 121.14 71.8871C120.944 71.9481 120.766 71.9786 120.605 71.9786C120.087 71.9786 119.659 71.9099 119.32 71.7726C118.999 71.6506 118.74 71.4828 118.544 71.2692C118.365 71.0556 118.24 70.8039 118.169 70.514C118.097 70.2089 118.062 69.8885 118.062 69.5529C118.062 69.3698 118.08 69.1639 118.115 68.935C118.151 68.7062 118.222 68.4392 118.329 68.1341C118.436 67.8137 118.588 67.44 118.785 67.0128C118.981 66.5704 119.231 66.0441 119.534 65.4338C119.498 65.4338 119.257 65.5406 118.811 65.7542C118.365 65.9678 117.883 66.2958 117.366 66.7382C116.527 67.4247 115.768 68.1036 115.09 68.7749C114.43 69.4461 113.752 70.1937 113.056 71.0175C112.663 71.4904 112.315 71.8871 112.012 72.2074C111.726 72.5431 111.476 72.7643 111.262 72.8711C110.887 72.688 110.611 72.4286 110.432 72.093C110.254 71.7726 110.12 71.437 110.031 71.0861C110.031 70.7963 110.075 70.4301 110.164 69.9877C110.271 69.5453 110.405 69.0571 110.566 68.5231C110.744 67.9739 110.959 67.4018 111.208 66.8069C111.458 66.2119 111.735 65.6169 112.038 65.0219C112.717 63.6794 113.332 62.6268 113.885 61.864C114.457 61.1012 114.814 60.6893 114.956 60.6282Z" fill="black"/>
<path d="M103.53 70.4225C103.53 69.8732 103.628 69.1639 103.824 68.2943C104.038 67.4094 104.306 66.4636 104.627 65.4567C104.966 64.4345 105.35 63.3971 105.779 62.3445C106.207 61.2766 106.644 60.2773 107.09 59.3467C107.536 58.4161 107.974 57.5999 108.402 56.8981C108.83 56.1964 109.214 55.6929 109.553 55.3878C109.732 55.4031 109.964 55.4641 110.249 55.5709C110.553 55.6624 110.856 55.7768 111.159 55.9141C111.463 56.0514 111.739 56.204 111.989 56.3718C112.239 56.5244 112.4 56.6693 112.471 56.8066C111.954 57.2033 111.436 57.8059 110.918 58.6144C110.419 59.4077 109.928 60.3155 109.446 61.3376C108.982 62.3597 108.545 63.4429 108.134 64.5871C107.724 65.716 107.367 66.8144 107.064 67.8824C106.76 68.9503 106.519 69.9419 106.341 70.8572C106.18 71.7726 106.1 72.5125 106.1 73.077C106.1 73.3363 106.127 73.4965 106.18 73.5575C105.787 73.5423 105.502 73.4813 105.323 73.3745C105.145 73.2829 105.002 73.1761 104.895 73.0541C104.806 72.9473 104.717 72.8329 104.627 72.7108C104.556 72.604 104.44 72.5201 104.279 72.4591C104.154 72.4133 104.047 72.3066 103.958 72.1387C103.869 71.9709 103.789 71.7879 103.717 71.5895C103.664 71.3759 103.619 71.1624 103.583 70.9488C103.548 70.7352 103.53 70.5598 103.53 70.4225Z" fill="black"/>
<path d="M202.034 35.8566C202.257 35.8566 202.514 35.8947 202.804 35.971C203.116 36.0282 203.395 36.114 203.64 36.2285C203.886 36.3238 204.086 36.4287 204.243 36.5431C204.421 36.6575 204.51 36.7624 204.51 36.8578C204.064 37.6587 203.651 38.4692 203.272 39.2892C202.893 40.0901 202.569 40.8624 202.302 41.6062C202.034 42.3499 201.822 43.0459 201.666 43.6943C201.532 44.3427 201.465 44.9052 201.465 45.382C201.465 45.9159 201.532 46.3641 201.666 46.7264C201.8 47.0697 202.023 47.3176 202.335 47.4701C202.068 47.6227 201.722 47.7466 201.298 47.842C200.874 47.9373 200.495 47.985 200.16 47.985C198.955 47.985 198.353 47.2794 198.353 45.8683C198.353 44.7813 198.777 43.2938 199.625 41.4059C199.179 42.2831 198.665 43.1127 198.085 43.8945C197.505 44.6573 196.914 45.3343 196.312 45.9255C195.71 46.5166 195.096 47.0029 194.471 47.3843C193.869 47.7466 193.311 47.9659 192.798 48.0422C191.973 48.0041 191.304 47.6704 190.79 47.041C190.277 46.3927 190.021 45.5727 190.021 44.581C190.021 43.5131 190.288 42.388 190.824 41.2057C191.359 40.0234 192.04 38.9268 192.865 37.9161C193.713 36.9054 194.628 36.0664 195.609 35.3989C196.591 34.7124 197.539 34.3501 198.453 34.312C198.677 34.3692 198.922 34.4836 199.19 34.6552C199.48 34.8268 199.747 35.0271 199.993 35.2559C200.261 35.4847 200.484 35.7231 200.662 35.971C200.841 36.1999 200.941 36.4001 200.963 36.5717C200.071 36.6861 199.145 37.058 198.186 37.6873C197.249 38.3166 196.39 39.0794 195.609 39.9757C194.851 40.8529 194.226 41.7969 193.735 42.8076C193.244 43.8183 192.999 44.7622 192.999 45.6394C192.999 46.0017 193.155 46.2306 193.467 46.3259C194.114 46.2115 194.862 45.7443 195.71 44.9243C196.557 44.0852 197.583 42.798 198.788 41.0627C199.011 40.7194 199.257 40.338 199.524 39.9185C199.814 39.4989 200.104 39.0603 200.394 38.6027C200.684 38.145 200.963 37.6873 201.231 37.2296C201.521 36.7529 201.789 36.2952 202.034 35.8566Z" fill="black"/>
<path d="M173.664 47.0124C173.664 46.7073 173.976 46.221 174.601 45.5536C175.226 44.867 176.051 44.0947 177.077 43.2366C178.126 42.3594 179.319 41.444 180.658 40.4905C182.019 39.518 183.424 38.5835 184.874 37.6873C183.937 37.5156 183.19 37.3917 182.632 37.3154C182.097 37.2391 181.662 37.201 181.327 37.201C180.68 37.201 180.1 37.2773 179.587 37.4298C179.074 37.5824 178.572 37.8303 178.081 38.1735C177.055 37.4107 176.542 36.5335 176.542 35.5419C176.542 35.2368 176.553 35.0556 176.575 34.9984C176.955 34.6742 177.401 34.4263 177.914 34.2547C178.449 34.0831 179.007 33.9973 179.587 33.9973C180.212 33.9973 180.848 34.0831 181.494 34.2547C182.141 34.4263 182.777 34.617 183.402 34.8268C184.027 35.0175 184.607 35.1987 185.142 35.3703C185.7 35.5419 186.19 35.6277 186.614 35.6277C186.86 35.6277 187.127 35.5991 187.417 35.5419C187.73 35.4847 187.986 35.4084 188.187 35.3131C188.388 35.4466 188.566 35.7135 188.723 36.114C188.901 36.5145 188.99 36.9054 188.99 37.2868C188.299 37.5156 187.462 37.9161 186.48 38.4882C185.521 39.0603 184.54 39.7182 183.536 40.4619C182.532 41.2056 181.55 41.997 180.591 42.8361C179.654 43.6752 178.873 44.4666 178.249 45.2103C178.717 45.3819 179.353 45.4677 180.156 45.4677C180.669 45.4677 181.193 45.4296 181.729 45.3533C182.264 45.277 182.777 45.1722 183.268 45.0387C183.781 44.9052 184.25 44.7526 184.673 44.581C185.097 44.3903 185.454 44.1901 185.744 43.9803C186.793 44.5524 187.317 45.3915 187.317 46.4975C187.317 46.6501 187.306 46.774 187.284 46.8694C187.284 46.9647 187.272 47.0791 187.25 47.2126C186.224 47.7657 185.108 48.0422 183.904 48.0422C183.301 48.0422 182.699 47.985 182.097 47.8705C181.494 47.7752 180.903 47.6703 180.323 47.5559C179.766 47.4415 179.23 47.3366 178.717 47.2412C178.226 47.1268 177.769 47.0696 177.345 47.0696C176.274 47.0696 175.404 47.4987 174.735 48.3568C174.445 48.2615 174.199 48.0898 173.999 47.8419C173.82 47.594 173.709 47.3175 173.664 47.0124Z" fill="black"/>
<path d="M173.319 35.5706C173.23 36.7529 172.985 37.7732 172.583 38.6313C172.182 39.4704 171.602 40.2141 170.843 40.8625C170.107 41.4918 169.203 42.0639 168.133 42.5787C167.062 43.0936 165.812 43.5894 164.385 44.0662C164.385 44.1806 164.374 44.3046 164.351 44.4381C164.351 44.5525 164.351 44.6764 164.351 44.8099C164.351 45.0578 164.374 45.3153 164.418 45.5822C164.463 45.8492 164.541 46.0971 164.652 46.326C164.764 46.5548 164.92 46.7455 165.121 46.8981C165.322 47.0315 165.578 47.0983 165.891 47.0983C166.493 47.0983 167.084 46.9839 167.664 46.755C168.244 46.5262 168.791 46.2497 169.304 45.9255C169.839 45.5822 170.33 45.2199 170.776 44.8385C171.245 44.4381 171.657 44.0757 172.014 43.7515C172.237 43.9232 172.427 44.0853 172.583 44.2378C171.579 45.382 170.475 46.3355 169.27 47.0983C168.088 47.842 166.961 48.3188 165.891 48.5285C164.351 48.376 163.147 47.8992 162.276 47.0983C161.429 46.2783 161.005 45.2962 161.005 44.152C161.005 43.3701 161.128 42.5787 161.373 41.7778C161.641 40.9578 161.998 40.176 162.444 39.4322C162.912 38.6694 163.448 37.9543 164.05 37.2869C164.675 36.6194 165.333 36.0378 166.024 35.542C166.738 35.0462 167.463 34.6552 168.199 34.3692C168.958 34.0831 169.705 33.9401 170.442 33.9401C171.468 34.0545 172.427 34.598 173.319 35.5706ZM171.01 36.5145C170.408 36.5908 169.783 36.8006 169.136 37.1439C168.489 37.4871 167.876 37.9448 167.296 38.5169C166.738 39.089 166.225 39.7564 165.757 40.5192C165.288 41.282 164.92 42.102 164.652 42.9792C166.437 42.2164 167.921 41.282 169.103 40.176C170.285 39.0508 170.921 37.8304 171.01 36.5145Z" fill="black"/>
<path d="M153.465 45.4964C153.465 45.3248 153.476 45.115 153.498 44.8671C153.543 44.6001 153.61 44.2569 153.699 43.8373C153.788 43.3987 153.9 42.8743 154.034 42.2641C154.19 41.6539 154.38 40.9197 154.603 40.0615C154.647 39.8708 154.748 39.5657 154.904 39.1462C155.06 38.7266 155.261 38.288 155.506 37.8304C155.774 37.3536 156.086 36.8959 156.443 36.4573C156.822 36.0187 157.269 35.6945 157.782 35.4848C158.161 35.5611 158.663 35.7613 159.287 36.0855C159.912 36.3906 160.448 36.8197 160.894 37.3727C160.381 37.8685 159.946 38.3643 159.589 38.8601C159.254 39.3559 158.942 39.8708 158.652 40.4048C158.384 40.9387 158.127 41.4918 157.882 42.0639C157.659 42.636 157.402 43.2367 157.112 43.866C156.867 44.3999 156.644 44.9529 156.443 45.525C156.242 46.0781 156.131 46.5643 156.108 46.9839C156.108 47.3271 156.097 47.5655 156.075 47.699C156.075 47.8515 156.019 47.9278 155.908 47.9278C155.818 47.9278 155.64 47.8801 155.372 47.7848C155.105 47.6895 154.826 47.5464 154.536 47.3557C154.268 47.146 154.023 46.8885 153.799 46.5834C153.576 46.2783 153.465 45.916 153.465 45.4964ZM159.856 33.082C159.856 32.9676 159.89 32.7959 159.957 32.5671C159.845 32.4717 159.745 32.3287 159.656 32.138C159.589 31.9473 159.555 31.7757 159.555 31.6231C159.555 31.4515 159.577 31.2227 159.622 30.9366C159.689 30.6315 159.767 30.3073 159.856 29.9641C159.946 29.6208 160.057 29.268 160.191 28.9057C160.325 28.5243 160.459 28.181 160.593 27.8759C160.86 27.8759 161.184 27.9427 161.563 28.0761C161.965 28.1906 162.366 28.3527 162.768 28.5624C163.169 28.7531 163.537 28.9724 163.872 29.2203C164.207 29.4492 164.463 29.6685 164.642 29.8782C164.396 30.088 164.073 30.3836 163.671 30.765C163.27 31.1273 162.879 31.5183 162.5 31.9378C162.121 32.3383 161.775 32.7196 161.463 33.082C161.15 33.4443 160.949 33.7017 160.86 33.8543C160.593 33.8162 160.358 33.7208 160.157 33.5683C159.957 33.3966 159.856 33.2345 159.856 33.082Z" fill="black"/>
<path d="M134.322 56.881C134.01 56.8048 133.832 56.5187 133.787 56.0229C133.698 55.775 133.631 55.4794 133.586 55.1361C133.564 54.7929 133.553 54.402 133.553 53.9634C133.553 53.5629 133.631 53.0099 133.787 52.3043C133.943 51.6178 134.155 50.8359 134.423 49.9587C134.713 49.0815 135.059 48.1375 135.46 47.1268C135.862 46.0971 136.308 45.0578 136.799 44.0089C137.401 42.6931 137.925 41.5584 138.371 40.605C138.818 39.6324 139.186 38.7933 139.476 38.0877C139.788 37.3822 140.033 36.8005 140.212 36.3428C140.413 35.8852 140.569 35.4942 140.68 35.1701C140.77 34.9412 140.903 34.6647 141.082 34.3405C141.26 34.0163 141.461 33.6921 141.684 33.368C141.93 33.0247 142.175 32.71 142.42 32.424C142.666 32.1189 142.889 31.89 143.09 31.7375C143.871 31.8328 144.607 32.0045 145.298 32.2524C145.99 32.5003 146.414 32.7387 146.57 32.9675C146.258 33.2154 145.901 33.6063 145.499 34.1403C145.098 34.6552 144.707 35.2273 144.328 35.8566C143.949 36.4668 143.603 37.0961 143.291 37.7445C142.978 38.3929 142.744 38.9649 142.588 39.4608C142.811 39.1366 143.101 38.7838 143.458 38.4024C143.815 38.021 144.361 37.4966 145.098 36.8291C145.923 36.1045 146.693 35.5515 147.407 35.1701C148.143 34.7696 148.779 34.5694 149.314 34.5694C150.162 34.5694 150.853 34.7696 151.389 35.1701C151.946 35.5705 152.225 36.0854 152.225 36.7147C152.225 38.0877 151.958 39.4512 151.422 40.8052C150.887 42.1401 150.117 43.351 149.113 44.438C148.734 44.8575 148.288 45.258 147.775 45.6394C147.262 46.0208 146.726 46.364 146.168 46.6692C145.611 46.9552 145.064 47.184 144.529 47.3557C143.993 47.5273 143.514 47.6131 143.09 47.6131C142.688 47.6131 142.331 47.5464 142.019 47.4129C141.729 47.2603 141.528 47.0792 141.417 46.8694C142.287 46.4308 143.134 45.8205 143.96 45.0387C144.785 44.2568 145.544 43.3605 146.235 42.3498C146.949 41.3201 147.563 40.214 148.076 39.0317C148.611 37.8494 149.013 36.648 149.28 35.4275C148.433 35.8089 147.663 36.2284 146.972 36.6861C146.302 37.1247 145.633 37.7063 144.964 38.431C144.161 39.2701 143.525 39.947 143.056 40.4619C142.588 40.9768 142.197 41.4154 141.885 41.7777C141.595 42.1401 141.35 42.4833 141.149 42.8075C140.97 43.1126 140.77 43.494 140.547 43.9517C140.234 44.5619 139.866 45.3724 139.442 46.3831C139.041 47.3747 138.617 48.4903 138.171 49.7299C137.747 50.9694 137.312 52.2852 136.866 53.6773C136.442 55.0885 136.029 56.4901 135.627 57.8822C135.382 57.8441 135.17 57.6915 134.992 57.4245C134.813 57.2529 134.679 57.1289 134.59 57.0527C134.523 56.9764 134.434 56.9192 134.322 56.881Z" fill="black"/>
<path d="M130.519 38.6312C130.162 38.6503 129.727 38.8505 129.214 39.2319C128.701 39.5942 128.143 40.071 127.541 40.6621C126.961 41.2342 126.347 41.8731 125.7 42.5786C125.076 43.2842 124.462 43.9898 123.86 44.6954C123.28 45.3819 122.733 46.0303 122.22 46.6405C121.707 47.2507 121.272 47.737 120.915 48.0994C120.424 47.9277 120.001 47.6798 119.644 47.3556C119.287 47.0124 119.03 46.5928 118.874 46.097C118.986 45.5059 119.142 44.8956 119.342 44.2663C119.543 43.6179 119.8 42.9505 120.112 42.264C120.447 41.5775 120.848 40.8624 121.317 40.1186C121.808 39.3558 122.399 38.5549 123.09 37.7158C122.756 37.7349 122.298 37.9447 121.718 38.3451C121.138 38.7265 120.514 39.2319 119.844 39.8612C119.175 40.4714 118.484 41.1675 117.77 41.9493C117.056 42.7121 116.387 43.4654 115.762 44.2091C114.936 45.2007 114.245 46.0684 113.687 46.8121C113.152 47.5559 112.761 47.9945 112.516 48.128C111.936 47.7656 111.534 47.3747 111.311 46.9552C111.088 46.5356 110.921 46.0684 110.809 45.5535C110.832 45.0959 110.91 44.5238 111.044 43.8373C111.2 43.1507 111.412 42.4452 111.679 41.7205C112.192 40.3284 112.851 38.9458 113.654 37.5728C114.479 36.1998 115.271 34.9412 116.03 33.797C116.654 33.9114 117.212 34.0926 117.703 34.3405C118.216 34.5884 118.751 34.9507 119.309 35.4275C119.086 36.0186 118.74 36.6479 118.272 37.3154C117.803 37.9638 117.312 38.6503 116.799 39.3749C116.286 40.0996 115.818 40.8433 115.394 41.6061C114.97 42.3689 114.691 43.1412 114.557 43.9231C115.182 43.1603 115.918 42.2831 116.766 41.2914C117.636 40.2998 118.517 39.3654 119.409 38.4882C120.324 37.611 121.228 36.8672 122.12 36.257C123.012 35.6468 123.815 35.3417 124.529 35.3417C124.797 35.3417 125.087 35.3798 125.399 35.4561C125.712 35.5323 126.002 35.6277 126.269 35.7421C126.537 35.8565 126.76 35.971 126.939 36.0854C127.117 36.1807 127.217 36.257 127.24 36.3142C127.128 36.6956 126.861 37.22 126.437 37.8875C126.035 38.5358 125.6 39.2224 125.132 39.947C124.663 40.6717 124.228 41.3772 123.827 42.0638C123.425 42.7312 123.191 43.2652 123.124 43.6656C124.217 42.3879 125.243 41.2342 126.202 40.2045C127.162 39.1556 128.065 38.2593 128.913 37.5156C129.761 36.7719 130.541 36.1998 131.255 35.7993C131.992 35.3989 132.683 35.1986 133.33 35.1986C133.776 35.1986 134.189 35.3035 134.568 35.5133C134.97 35.704 135.249 35.99 135.405 36.3714C135.204 36.9435 134.869 37.63 134.401 38.431C133.955 39.2319 133.497 40.0805 133.029 40.9768C132.56 41.854 132.137 42.7217 131.757 43.5798C131.4 44.438 131.222 45.2103 131.222 45.8968C131.222 46.2973 131.289 46.5642 131.423 46.6977C131.557 46.8121 131.746 46.8694 131.992 46.8694C132.259 46.8694 132.505 46.8312 132.728 46.7549C132.973 46.6596 133.152 46.6119 133.263 46.6119C133.397 46.6882 133.475 46.7835 133.497 46.898C133.52 47.0124 133.531 47.1173 133.531 47.2126C133.085 47.5177 132.627 47.7656 132.159 47.9563C131.69 48.1661 131.166 48.271 130.586 48.271C130.051 48.271 129.605 48.1947 129.248 48.0421C128.913 47.8896 128.634 47.6798 128.411 47.4128C128.188 47.1459 128.032 46.8407 127.943 46.4975C127.853 46.1542 127.809 45.7824 127.809 45.3819C127.809 44.7335 127.909 44.0947 128.11 43.4654C128.311 42.817 128.545 42.2068 128.813 41.6347C129.103 41.0435 129.404 40.5 129.716 40.0042C130.028 39.4893 130.296 39.0317 130.519 38.6312Z" fill="black"/>
<path d="M103.302 45.4964C103.302 45.3248 103.314 45.115 103.336 44.8671C103.381 44.6001 103.447 44.2569 103.537 43.8373C103.626 43.3987 103.738 42.8743 103.871 42.2641C104.028 41.6539 104.217 40.9197 104.44 40.0615C104.485 39.8708 104.585 39.5657 104.741 39.1462C104.898 38.7266 105.098 38.288 105.344 37.8304C105.611 37.3536 105.924 36.8959 106.281 36.4573C106.66 36.0187 107.106 35.6945 107.619 35.4848C107.999 35.5611 108.5 35.7613 109.125 36.0855C109.75 36.3906 110.285 36.8197 110.731 37.3727C110.218 37.8685 109.783 38.3643 109.426 38.8601C109.092 39.3559 108.779 39.8708 108.489 40.4048C108.222 40.9387 107.965 41.4918 107.72 42.0639C107.497 42.636 107.24 43.2367 106.95 43.866C106.705 44.3999 106.482 44.9529 106.281 45.525C106.08 46.0781 105.968 46.5643 105.946 46.9839C105.946 47.3271 105.935 47.5655 105.913 47.699C105.913 47.8515 105.857 47.9278 105.745 47.9278C105.656 47.9278 105.478 47.8801 105.21 47.7848C104.942 47.6895 104.663 47.5464 104.373 47.3557C104.106 47.146 103.86 46.8885 103.637 46.5834C103.414 46.2783 103.302 45.916 103.302 45.4964ZM109.694 33.082C109.694 32.9676 109.727 32.7959 109.794 32.5671C109.683 32.4717 109.582 32.3287 109.493 32.138C109.426 31.9473 109.393 31.7757 109.393 31.6231C109.393 31.4515 109.415 31.2227 109.46 30.9366C109.527 30.6315 109.605 30.3073 109.694 29.9641C109.783 29.6208 109.895 29.268 110.029 28.9057C110.162 28.5243 110.296 28.181 110.43 27.8759C110.698 27.8759 111.021 27.9427 111.401 28.0761C111.802 28.1906 112.204 28.3527 112.605 28.5624C113.007 28.7531 113.375 28.9724 113.71 29.2203C114.044 29.4492 114.301 29.6685 114.479 29.8782C114.234 30.088 113.91 30.3836 113.509 30.765C113.107 31.1273 112.717 31.5183 112.338 31.9378C111.958 32.3383 111.613 32.7196 111.3 33.082C110.988 33.4443 110.787 33.7017 110.698 33.8543C110.43 33.8162 110.196 33.7208 109.995 33.5683C109.794 33.3966 109.694 33.2345 109.694 33.082Z" fill="black"/>
<path d="M88.1503 0C96.1957 0 100.218 5.158 100.218 15.474C100.218 22.0523 98.1197 29.6398 93.922 38.2365C87.8005 50.7204 79.4927 60.3262 68.9986 67.054C64.9759 69.5957 60.8657 71.5393 56.668 72.8848C52.4704 82.1543 47.1796 88.9195 40.7957 93.1804C49.5408 98.7122 55.881 102.3 59.8163 103.945C63.7515 105.664 67.5556 106.524 71.2286 106.524C77.6125 106.524 81.8101 104.618 83.8215 100.805C84.4336 99.6093 84.7397 98.4879 84.7397 97.4414C84.7397 96.3948 84.3899 95.4978 83.6903 94.7503C83.0781 94.0775 82.3348 93.7411 81.4603 93.7411C81.7227 92.844 82.3785 92.3955 83.4279 92.3955C86.4013 92.3955 88.3689 93.8158 89.3309 96.6565C89.6807 97.6283 89.8556 98.5627 89.8556 99.4597C89.8556 101.702 88.8499 103.795 86.8385 105.739C84.0401 108.58 79.8862 110 74.3768 110C67.4682 110 60.8219 108.281 54.438 104.842C50.8526 102.973 48.229 101.515 46.5675 100.469C44.9934 99.4224 42.1512 97.5535 38.041 94.8624C32.6191 97.7778 26.6287 99.2355 20.0699 99.2355C10.3629 99.2355 4.06646 97.1424 1.18059 92.9562C0.393529 91.6854 0 90.3772 0 89.0316C0 87.6113 0.699606 86.1536 2.09882 84.6585C4.28508 82.3412 7.43331 81.1825 11.5435 81.1825C18.1023 81.1825 26.2789 84.21 36.0734 90.265C40.0087 86.8264 43.5504 81.7058 46.6987 74.9032C45.8241 74.9779 44.5561 75.0153 42.8946 75.0153C28.6401 75.0153 18.1897 70.1563 11.5435 60.4383C7.52076 54.458 5.50939 47.8423 5.50939 40.5912C5.50939 38.1244 5.72802 35.6201 6.16527 33.0785C7.73938 23.5848 11.8496 16.3337 18.4958 11.3252C23.0432 8.03601 28.2028 6.39143 33.9746 6.39143C39.7463 6.39143 44.2063 7.99864 47.3545 11.213C50.5028 14.4275 52.1643 18.3894 52.3392 23.0989C52.3392 23.7717 51.902 24.3323 51.0275 24.7808C50.153 25.1546 49.2785 25.2667 48.4039 25.1172C47.5294 24.893 47.0922 24.4071 47.0922 23.6595C46.9173 19.1743 45.8679 15.6235 43.944 13.0071C42.02 10.316 38.5657 8.97044 33.5811 8.97044C25.7105 8.97044 19.3703 12.6707 14.5605 20.0714C10.7127 25.9021 8.78879 32.331 8.78879 39.3578C8.78879 52.2154 13.6423 61.5223 23.3493 67.2783C28.6838 70.4927 35.1552 72.0999 42.7634 72.0999C44.5124 72.0999 46.3051 71.9878 48.1416 71.7635C50.153 67.1288 52.2955 61.0737 54.5692 53.5984C56.8429 46.0483 58.8543 39.5073 60.6033 33.9755C62.4398 28.369 64.5823 22.7999 67.0309 17.2681C72.1031 5.75603 79.1429 0 88.1503 0ZM86.7073 3.25178C80.5858 3.25178 75.9072 8.29765 72.6715 18.3894C71.0974 23.2484 69.6982 28.2569 68.4739 33.4149C64.8884 49.1879 61.5653 60.9616 58.5045 68.736C69.2609 64.0265 78.0497 55.2056 84.8709 42.2732C90.3803 31.9572 93.0912 22.4635 93.0038 13.792C92.7414 6.91471 90.6426 3.40129 86.7073 3.25178ZM33.7122 92.1713C25.1421 86.7142 17.7525 83.9857 11.5435 83.9857C7.60821 83.9857 5.11587 85.1818 4.06646 87.5739C2.9296 89.8913 4.11018 92.0965 7.60821 94.1896C10.2317 95.7594 14.2107 96.5444 19.5452 96.5444C24.8797 96.5444 29.6021 95.0867 33.7122 92.1713Z" fill="black"/>
<path d="M261.05 101.202H250.859V109.913H271.241C271.241 107.603 270.167 105.387 268.256 103.753C266.345 102.119 263.753 101.202 261.05 101.202Z" stroke="black" stroke-width="3" stroke-linecap="round" stroke-linejoin="round"/>
<path d="M215.191 109.913C209.563 109.913 205 106.013 205 101.202C205 96.3905 209.563 92.4903 215.191 92.4903C220.819 92.4903 225.382 96.3905 225.382 101.202C225.382 106.013 220.819 109.913 215.191 109.913Z" stroke="black" stroke-width="3" stroke-linecap="round" stroke-linejoin="round"/>
<path d="M205 88.1347V79.4235H225.382C229.436 79.4235 233.324 80.8001 236.191 83.2507C239.057 85.7012 240.668 89.0248 240.668 92.4904V105.557H235.573" stroke="black" stroke-width="3" stroke-linecap="round" stroke-linejoin="round"/>
<path d="M225.382 79.4235V68.5344C225.382 66.8016 226.187 65.1398 227.62 63.9145C229.054 62.6893 230.998 62.0009 233.025 62.0009C234.534 61.9793 236.016 62.34 237.286 63.0377C238.555 63.7353 239.555 64.7385 240.158 65.921L258.502 101.202" stroke="black" stroke-width="3" stroke-linecap="round" stroke-linejoin="round"/>
</svg>
