<svg width="83" height="71" viewBox="0 0 83 71" fill="none" xmlns="http://www.w3.org/2000/svg">
<g clip-path="url(#clip0_5_16)">
<path d="M68.9987 56.8184H56.8171V69H81.1803C81.1803 65.7692 79.8969 62.6708 77.6124 60.3863C75.3279 58.1018 72.2295 56.8184 68.9987 56.8184Z" stroke="white" stroke-width="3" stroke-linecap="round" stroke-linejoin="round"/>
<path d="M14.1816 69C7.45387 69 1.99999 63.5461 1.99999 56.8184C1.99999 50.0907 7.45387 44.6368 14.1816 44.6368C20.9093 44.6368 26.3632 50.0907 26.3632 56.8184C26.3632 63.5461 20.9093 69 14.1816 69Z" stroke="white" stroke-width="3" stroke-linecap="round" stroke-linejoin="round"/>
<path d="M1.99995 38.546V26.3644H26.3631C31.2093 26.3644 35.8569 28.2896 39.2836 31.7163C42.7104 35.143 44.6355 39.7907 44.6355 44.6368V62.9092H38.5447" stroke="white" stroke-width="3" stroke-linecap="round" stroke-linejoin="round"/>
<path d="M26.3632 26.3645V11.1375C26.3632 8.7144 27.3258 6.39058 29.0392 4.67721C30.7525 2.96384 33.0763 2.00128 35.4994 2.00128C37.3032 1.97105 39.0755 2.4755 40.593 3.45102C42.1105 4.42655 43.3052 5.82949 44.0265 7.483L65.9534 56.8184" stroke="white" stroke-width="3" stroke-linecap="round" stroke-linejoin="round"/>
</g>
<defs>
<clipPath id="clip0_5_16">
<rect width="83" height="71" fill="white"/>
</clipPath>
</defs>
</svg>
