<svg width="62" height="62" viewBox="0 0 62 62" fill="none" xmlns="http://www.w3.org/2000/svg">
<path d="M3 54.6923V7.30769C3 6.16522 3.45384 5.06954 4.26169 4.26169C5.06954 3.45384 6.16522 3 7.30769 3H54.6923C55.8348 3 56.9305 3.45384 57.7383 4.26169C58.5462 5.06954 59 6.16522 59 7.30769V54.6923C59 55.8348 58.5462 56.9305 57.7383 57.7383C56.9305 58.5462 55.8348 59 54.6923 59H41.7692V38.5815H44.8277C45.5246 38.5815 46.193 38.3047 46.6858 37.8119C47.1785 37.3191 47.4554 36.6508 47.4554 35.9538V32.6369C47.4542 31.9404 47.177 31.2727 46.6845 30.7801C46.192 30.2876 45.5243 30.0104 44.8277 30.0092H41.9415V25.96C41.9415 22.3415 43.5785 22.3415 45.2154 22.3415H47.3262C47.6728 22.3558 48.0184 22.2938 48.3385 22.1598C48.6586 22.0258 48.9453 21.8232 49.1785 21.5662C49.4288 21.3278 49.627 21.0402 49.7604 20.7213C49.8939 20.4025 49.9598 20.0594 49.9538 19.7138V16.5262C49.9665 16.1751 49.9095 15.825 49.7863 15.4961C49.663 15.1671 49.4758 14.8658 49.2356 14.6095C48.9953 14.3533 48.7067 14.1471 48.3864 14.0029C48.0661 13.8586 47.7204 13.7792 47.3692 13.7692H42.4154C40.9699 13.7149 39.5299 13.975 38.1948 14.5315C36.8596 15.088 35.6612 15.9278 34.6823 16.9927C33.7034 18.0576 32.9674 19.3223 32.525 20.6995C32.0826 22.0767 31.9444 23.5334 32.12 24.9692V30.0092H29.3631C29.0144 30.0035 28.6681 30.0673 28.3443 30.1968C28.0205 30.3262 27.7257 30.5189 27.4771 30.7635C27.2285 31.008 27.0311 31.2997 26.8964 31.6213C26.7616 31.9429 26.6923 32.2882 26.6923 32.6369V35.9538C26.6923 36.3026 26.7616 36.6478 26.8964 36.9695C27.0311 37.2911 27.2285 37.5827 27.4771 37.8273C27.7257 38.0719 28.0205 38.2645 28.3443 38.394C28.6681 38.5235 29.0144 38.5873 29.3631 38.5815H32.12V59H7.30769C6.16522 59 5.06954 58.5462 4.26169 57.7383C3.45384 56.9305 3 55.8348 3 54.6923Z" stroke="#3977BC" stroke-width="5" stroke-linecap="round" stroke-linejoin="round"/>
</svg>
