<svg width="325" height="155" viewBox="0 0 325 155" fill="none" xmlns="http://www.w3.org/2000/svg">
<g clip-path="url(#clip0_21_17)">
<path d="M311.999 130.818H299.817V143H324.18C324.18 139.769 322.897 136.671 320.612 134.386C318.328 132.102 315.229 130.818 311.999 130.818Z" stroke="black" stroke-width="3" stroke-linecap="round" stroke-linejoin="round"/>
<path d="M257.182 143C250.454 143 245 137.546 245 130.818C245 124.091 250.454 118.637 257.182 118.637C263.909 118.637 269.363 124.091 269.363 130.818C269.363 137.546 263.909 143 257.182 143Z" stroke="black" stroke-width="3" stroke-linecap="round" stroke-linejoin="round"/>
<path d="M245 112.546V100.364H269.363C274.209 100.364 278.857 102.29 282.284 105.716C285.71 109.143 287.636 113.791 287.636 118.637V136.909H281.545" stroke="black" stroke-width="3" stroke-linecap="round" stroke-linejoin="round"/>
<path d="M269.363 100.364V85.1375C269.363 82.7144 270.326 80.3906 272.039 78.6772C273.752 76.9638 276.076 76.0013 278.499 76.0013C280.303 75.9711 282.075 76.4755 283.593 77.451C285.11 78.4266 286.305 79.8295 287.026 81.483L308.953 130.818" stroke="black" stroke-width="3" stroke-linecap="round" stroke-linejoin="round"/>
<path d="M204.711 117.08C204.685 117.587 204.591 118.12 204.431 118.68C204.298 119.213 204.125 119.707 203.911 120.16C203.698 120.587 203.471 120.947 203.231 121.24C202.991 121.533 202.765 121.68 202.551 121.68C202.258 121.653 202.085 121.453 202.031 121.08C202.031 121 202.058 120.88 202.111 120.72C202.191 120.533 202.271 120.333 202.351 120.12C202.431 119.907 202.498 119.693 202.551 119.48C202.631 119.267 202.671 119.08 202.671 118.92C202.671 118.547 202.578 118.24 202.391 118C202.231 117.733 202.005 117.6 201.711 117.6C200.645 117.6 199.831 118.267 199.271 119.6C198.711 120.933 198.431 122.893 198.431 125.48C198.431 125.747 198.445 125.907 198.471 125.96C199.031 125.933 199.525 125.92 199.951 125.92C200.405 125.893 200.845 125.88 201.271 125.88C201.298 125.933 201.311 126.04 201.311 126.2C201.311 126.44 201.258 126.613 201.151 126.72C200.538 126.853 200.045 126.973 199.671 127.08C199.325 127.16 199.058 127.24 198.871 127.32C198.685 127.4 198.565 127.493 198.511 127.6C198.485 127.68 198.471 127.8 198.471 127.96C198.471 128.173 198.471 128.387 198.471 128.6C198.498 128.813 198.511 129.08 198.511 129.4C198.511 131.64 197.898 133.44 196.671 134.8C195.471 136.16 193.791 136.947 191.631 137.16C191.258 137.133 190.871 137.027 190.471 136.84C190.071 136.653 189.685 136.413 189.311 136.12C188.965 135.827 188.658 135.493 188.391 135.12C188.125 134.773 187.938 134.413 187.831 134.04C187.831 133.027 188.045 132.067 188.471 131.16C188.898 130.227 189.471 129.413 190.191 128.72C190.938 128 191.805 127.427 192.791 127C193.805 126.547 194.898 126.28 196.071 126.2C196.071 125.533 196.005 124.88 195.871 124.24C195.738 123.6 195.591 122.987 195.431 122.4C195.298 121.787 195.165 121.2 195.031 120.64C194.898 120.053 194.831 119.48 194.831 118.92C194.831 118.2 194.978 117.493 195.271 116.8C195.565 116.08 195.951 115.427 196.431 114.84C196.911 114.227 197.471 113.707 198.111 113.28C198.751 112.853 199.418 112.56 200.111 112.4C200.405 112.48 200.791 112.72 201.271 113.12C201.778 113.493 202.271 113.92 202.751 114.4C203.231 114.88 203.658 115.373 204.031 115.88C204.405 116.36 204.631 116.76 204.711 117.08ZM191.511 135.32C192.151 135.053 192.751 134.667 193.311 134.16C193.898 133.653 194.405 133.08 194.831 132.44C195.258 131.8 195.591 131.12 195.831 130.4C196.098 129.68 196.231 128.973 196.231 128.28C195.698 128.36 195.111 128.613 194.471 129.04C193.831 129.44 193.231 129.933 192.671 130.52C192.111 131.08 191.645 131.667 191.271 132.28C190.898 132.893 190.711 133.427 190.711 133.88C190.711 134.467 190.978 134.947 191.511 135.32Z" fill="black"/>
<path d="M185.922 116.84C186.189 116.84 186.496 116.893 186.842 117C187.216 117.08 187.549 117.2 187.842 117.36C188.136 117.493 188.376 117.64 188.562 117.8C188.776 117.96 188.882 118.107 188.882 118.24C188.349 119.36 187.856 120.493 187.402 121.64C186.949 122.76 186.562 123.84 186.242 124.88C185.922 125.92 185.669 126.893 185.482 127.8C185.322 128.707 185.242 129.493 185.242 130.16C185.242 130.907 185.322 131.533 185.482 132.04C185.642 132.52 185.909 132.867 186.282 133.08C185.962 133.293 185.549 133.467 185.042 133.6C184.536 133.733 184.082 133.8 183.682 133.8C182.242 133.8 181.522 132.813 181.522 130.84C181.522 129.32 182.029 127.24 183.042 124.6C182.509 125.827 181.896 126.987 181.202 128.08C180.509 129.147 179.802 130.093 179.082 130.92C178.362 131.747 177.629 132.427 176.882 132.96C176.162 133.467 175.496 133.773 174.882 133.88C173.896 133.827 173.096 133.36 172.482 132.48C171.869 131.573 171.562 130.427 171.562 129.04C171.562 127.547 171.882 125.973 172.522 124.32C173.162 122.667 173.976 121.133 174.962 119.72C175.976 118.307 177.069 117.133 178.242 116.2C179.416 115.24 180.549 114.733 181.642 114.68C181.909 114.76 182.202 114.92 182.522 115.16C182.869 115.4 183.189 115.68 183.482 116C183.802 116.32 184.069 116.653 184.282 117C184.496 117.32 184.616 117.6 184.642 117.84C183.576 118 182.469 118.52 181.322 119.4C180.202 120.28 179.176 121.347 178.242 122.6C177.336 123.827 176.589 125.147 176.002 126.56C175.416 127.973 175.122 129.293 175.122 130.52C175.122 131.027 175.309 131.347 175.682 131.48C176.456 131.32 177.349 130.667 178.362 129.52C179.376 128.347 180.602 126.547 182.042 124.12C182.309 123.64 182.602 123.107 182.922 122.52C183.269 121.933 183.616 121.32 183.962 120.68C184.309 120.04 184.642 119.4 184.962 118.76C185.309 118.093 185.629 117.453 185.922 116.84Z" fill="black"/>
<path d="M164.656 120.72C164.23 120.747 163.71 121.027 163.096 121.56C162.483 122.067 161.816 122.733 161.096 123.56C160.403 124.36 159.67 125.253 158.896 126.24C158.15 127.227 157.416 128.213 156.696 129.2C156.003 130.16 155.35 131.067 154.736 131.92C154.123 132.773 153.603 133.453 153.176 133.96C152.59 133.72 152.083 133.373 151.656 132.92C151.23 132.44 150.923 131.853 150.736 131.16C150.87 130.333 151.056 129.48 151.296 128.6C151.536 127.693 151.843 126.76 152.216 125.8C152.616 124.84 153.096 123.84 153.656 122.8C154.243 121.733 154.95 120.613 155.776 119.44C155.376 119.467 154.83 119.76 154.136 120.32C153.443 120.853 152.696 121.56 151.896 122.44C151.096 123.293 150.27 124.267 149.416 125.36C148.563 126.427 147.763 127.48 147.016 128.52C146.03 129.907 145.203 131.12 144.536 132.16C143.896 133.2 143.43 133.813 143.136 134C142.443 133.493 141.963 132.947 141.696 132.36C141.43 131.773 141.23 131.12 141.096 130.4C141.123 129.76 141.216 128.96 141.376 128C141.563 127.04 141.816 126.053 142.136 125.04C142.75 123.093 143.536 121.16 144.496 119.24C145.483 117.32 146.43 115.56 147.336 113.96C148.083 114.12 148.75 114.373 149.336 114.72C149.95 115.067 150.59 115.573 151.256 116.24C150.99 117.067 150.576 117.947 150.016 118.88C149.456 119.787 148.87 120.747 148.256 121.76C147.643 122.773 147.083 123.813 146.576 124.88C146.07 125.947 145.736 127.027 145.576 128.12C146.323 127.053 147.203 125.827 148.216 124.44C149.256 123.053 150.31 121.747 151.376 120.52C152.47 119.293 153.55 118.253 154.616 117.4C155.683 116.547 156.643 116.12 157.496 116.12C157.816 116.12 158.163 116.173 158.536 116.28C158.91 116.387 159.256 116.52 159.576 116.68C159.896 116.84 160.163 117 160.376 117.16C160.59 117.293 160.71 117.4 160.736 117.48C160.603 118.013 160.283 118.747 159.776 119.68C159.296 120.587 158.776 121.547 158.216 122.56C157.656 123.573 157.136 124.56 156.656 125.52C156.176 126.453 155.896 127.2 155.816 127.76C157.123 125.973 158.35 124.36 159.496 122.92C160.643 121.453 161.723 120.2 162.736 119.16C163.75 118.12 164.683 117.32 165.536 116.76C166.416 116.2 167.243 115.92 168.016 115.92C168.55 115.92 169.043 116.067 169.496 116.36C169.976 116.627 170.31 117.027 170.496 117.56C170.256 118.36 169.856 119.32 169.296 120.44C168.763 121.56 168.216 122.747 167.656 124C167.096 125.227 166.59 126.44 166.136 127.64C165.71 128.84 165.496 129.92 165.496 130.88C165.496 131.44 165.576 131.813 165.736 132C165.896 132.16 166.123 132.24 166.416 132.24C166.736 132.24 167.03 132.187 167.296 132.08C167.59 131.947 167.803 131.88 167.936 131.88C168.096 131.987 168.19 132.12 168.216 132.28C168.243 132.44 168.256 132.587 168.256 132.72C167.723 133.147 167.176 133.493 166.616 133.76C166.056 134.053 165.43 134.2 164.736 134.2C164.096 134.2 163.563 134.093 163.136 133.88C162.736 133.667 162.403 133.373 162.136 133C161.87 132.627 161.683 132.2 161.576 131.72C161.47 131.24 161.416 130.72 161.416 130.16C161.416 129.253 161.536 128.36 161.776 127.48C162.016 126.573 162.296 125.72 162.616 124.92C162.963 124.093 163.323 123.333 163.696 122.64C164.07 121.92 164.39 121.28 164.656 120.72Z" fill="black"/>
<path d="M128.6 134.4C127.08 134.24 125.867 133.573 124.96 132.4C124.053 131.227 123.6 129.733 123.6 127.92C123.6 126.853 123.76 125.747 124.08 124.6C124.4 123.453 124.853 122.347 125.44 121.28C126.027 120.187 126.72 119.16 127.52 118.2C128.32 117.24 129.187 116.413 130.12 115.72C131.587 114.627 132.96 114.08 134.24 114.08C135.093 114.533 135.933 115.48 136.76 116.92C136.893 116.92 137.013 116.92 137.12 116.92C137.227 116.893 137.347 116.88 137.48 116.88C138.893 116.88 139.6 118.133 139.6 120.64C139.6 122.32 139.32 123.92 138.76 125.44C138.227 126.933 137.467 128.293 136.48 129.52C135.52 130.747 134.36 131.787 133 132.64C131.667 133.467 130.2 134.053 128.6 134.4ZM130.64 121.8C130.187 122.413 129.76 123.08 129.36 123.8C128.96 124.52 128.613 125.253 128.32 126C128.027 126.72 127.8 127.427 127.64 128.12C127.48 128.787 127.4 129.387 127.4 129.92C127.4 130.56 127.507 131.173 127.72 131.76C127.933 132.347 128.173 132.68 128.44 132.76C129.64 132.493 130.733 132 131.72 131.28C132.733 130.533 133.6 129.613 134.32 128.52C135.067 127.427 135.64 126.187 136.04 124.8C136.467 123.413 136.68 121.933 136.68 120.36C136.68 119.667 136.64 119.12 136.56 118.72C136.48 118.32 136.347 117.973 136.16 117.68C134.987 118.027 133.933 118.587 133 119.36C132.093 120.133 131.307 120.947 130.64 121.8Z" fill="black"/>
<path d="M216.447 98.952C216.447 98.0133 216.671 96.7013 217.119 95.016C217.567 93.3093 218.196 91.3253 219.007 89.064C220.33 85.4587 221.567 82.4613 222.719 80.072C223.892 77.6613 225.034 75.784 226.143 74.44C226.399 74.4827 226.708 74.5893 227.071 74.76C227.455 74.9307 227.828 75.1227 228.191 75.336C228.554 75.528 228.874 75.7307 229.151 75.944C229.45 76.1573 229.642 76.328 229.727 76.456C228.063 78.4187 226.602 80.5307 225.343 82.792C224.084 85.0533 222.932 87.6453 221.887 90.568C220.991 93.0853 220.308 95.3573 219.839 97.384C219.37 99.3893 219.135 101.064 219.135 102.408C219.135 102.771 219.135 102.995 219.135 103.08C219.135 103.165 219.146 103.251 219.167 103.336C218.868 103.293 218.612 103.219 218.399 103.112C218.186 103.005 218.047 102.877 217.983 102.728C217.94 102.621 217.823 102.461 217.631 102.248C217.439 102.056 217.268 101.907 217.119 101.8C216.927 101.672 216.767 101.341 216.639 100.808C216.511 100.253 216.447 99.6347 216.447 98.952Z" fill="black"/>
<path d="M212.488 88.072C212.701 88.072 212.946 88.1147 213.224 88.2C213.522 88.264 213.789 88.36 214.024 88.488C214.258 88.5947 214.45 88.712 214.6 88.84C214.77 88.968 214.856 89.0853 214.856 89.192C214.429 90.088 214.034 90.9947 213.672 91.912C213.309 92.808 213 93.672 212.744 94.504C212.488 95.336 212.285 96.1147 212.136 96.84C212.008 97.5653 211.944 98.1947 211.944 98.728C211.944 99.3253 212.008 99.8267 212.136 100.232C212.264 100.616 212.477 100.893 212.776 101.064C212.52 101.235 212.189 101.373 211.784 101.48C211.378 101.587 211.016 101.64 210.696 101.64C209.544 101.64 208.968 100.851 208.968 99.272C208.968 98.056 209.373 96.392 210.184 94.28C209.757 95.2613 209.266 96.1893 208.712 97.064C208.157 97.9173 207.592 98.6747 207.016 99.336C206.44 99.9973 205.853 100.541 205.256 100.968C204.68 101.373 204.146 101.619 203.656 101.704C202.866 101.661 202.226 101.288 201.736 100.584C201.245 99.8587 201 98.9413 201 97.832C201 96.6373 201.256 95.3787 201.768 94.056C202.28 92.7333 202.93 91.5067 203.72 90.376C204.53 89.2453 205.405 88.3067 206.344 87.56C207.282 86.792 208.189 86.3867 209.064 86.344C209.277 86.408 209.512 86.536 209.768 86.728C210.045 86.92 210.301 87.144 210.536 87.4C210.792 87.656 211.005 87.9227 211.176 88.2C211.346 88.456 211.442 88.68 211.464 88.872C210.61 89 209.725 89.416 208.808 90.12C207.912 90.824 207.09 91.6773 206.344 92.68C205.618 93.6613 205.021 94.7173 204.552 95.848C204.082 96.9787 203.848 98.0347 203.848 99.016C203.848 99.4213 203.997 99.6773 204.296 99.784C204.914 99.656 205.629 99.1333 206.44 98.216C207.25 97.2773 208.232 95.8373 209.384 93.896C209.597 93.512 209.832 93.0853 210.088 92.616C210.365 92.1467 210.642 91.656 210.92 91.144C211.197 90.632 211.464 90.12 211.72 89.608C211.997 89.0747 212.253 88.5627 212.488 88.072Z" fill="black"/>
<path d="M187.774 100.36C187.88 99.7413 188.062 98.9307 188.318 97.928C188.595 96.904 188.915 95.8267 189.278 94.696C189.64 93.544 190.024 92.392 190.43 91.24C190.835 90.088 191.23 89.0533 191.614 88.136C191.891 87.4747 192.136 86.9627 192.35 86.6C192.563 86.216 192.798 85.896 193.054 85.64C193.352 85.6827 193.662 85.7573 193.982 85.864C194.302 85.9707 194.611 86.0987 194.91 86.248C195.208 86.3973 195.475 86.5573 195.71 86.728C195.944 86.8773 196.126 87.0267 196.254 87.176C195.678 87.8587 195.166 88.6373 194.718 89.512C194.291 90.3867 193.854 91.5067 193.406 92.872C194.558 91.848 195.571 90.8667 196.446 89.928C197.342 88.9893 198.174 87.944 198.942 86.792C199.07 86.6853 199.294 86.632 199.614 86.632C199.912 86.632 200.2 86.6853 200.478 86.792C200.755 86.8773 200.947 87.0053 201.054 87.176C200.67 88.2 200.478 89.2133 200.478 90.216C200.478 91.1547 200.616 91.8587 200.894 92.328C200.872 92.456 200.723 92.7013 200.446 93.064C200.19 93.4267 199.902 93.768 199.582 94.088C199.006 93.7893 198.494 93.384 198.046 92.872C197.598 92.3387 197.267 91.7627 197.054 91.144C196.051 91.848 195.198 92.5413 194.494 93.224C193.79 93.8853 193.182 94.632 192.67 95.464C192.179 96.2747 191.752 97.2133 191.39 98.28C191.048 99.3467 190.718 100.616 190.398 102.088C190.206 102.067 189.971 101.992 189.694 101.864C189.438 101.757 189.171 101.619 188.894 101.448C188.638 101.277 188.403 101.096 188.19 100.904C187.976 100.712 187.838 100.531 187.774 100.36Z" fill="black"/>
<path d="M167.671 110.536C167.671 110.408 167.714 110.291 167.799 110.184C167.885 110.077 167.981 109.971 168.087 109.864C168.343 110.099 168.567 110.28 168.759 110.408C168.93 110.536 169.101 110.643 169.271 110.728C169.421 110.813 169.581 110.867 169.751 110.888C169.922 110.909 170.125 110.92 170.359 110.92C171.469 110.92 172.525 110.621 173.527 110.024C174.53 109.448 175.469 108.605 176.343 107.496C177.239 106.387 178.05 105.032 178.775 103.432C179.501 101.832 180.141 100.019 180.695 97.992C180.439 98.248 180.119 98.536 179.735 98.856C179.373 99.1547 178.989 99.4427 178.583 99.72C178.178 99.9973 177.773 100.253 177.367 100.488C176.983 100.723 176.653 100.893 176.375 101C176.013 100.936 175.671 100.787 175.351 100.552C175.053 100.296 174.786 99.9867 174.551 99.624C174.317 99.2613 174.135 98.856 174.007 98.408C173.879 97.9387 173.815 97.448 173.815 96.936C173.815 96.104 173.965 95.2507 174.263 94.376C174.583 93.5013 174.999 92.648 175.511 91.816C176.023 90.9627 176.621 90.1627 177.303 89.416C178.007 88.6693 178.743 88.0187 179.511 87.464C180.301 86.9093 181.09 86.472 181.879 86.152C182.69 85.8107 183.479 85.64 184.247 85.64C184.994 85.64 185.549 85.8 185.911 86.12C186.295 86.4187 186.573 86.9413 186.743 87.688C186.509 87.56 186.21 87.496 185.847 87.496C185.335 87.496 184.738 87.6987 184.055 88.104C183.394 88.5093 182.711 89.0427 182.007 89.704C181.325 90.344 180.642 91.0907 179.959 91.944C179.277 92.776 178.669 93.6293 178.135 94.504C177.623 95.3787 177.197 96.232 176.855 97.064C176.535 97.896 176.375 98.6427 176.375 99.304C176.375 99.4533 176.386 99.5493 176.407 99.592C176.429 99.6133 176.461 99.624 176.503 99.624C176.695 99.624 176.951 99.5173 177.271 99.304C177.613 99.0907 177.986 98.824 178.391 98.504C178.818 98.1627 179.255 97.7787 179.703 97.352C180.151 96.904 180.578 96.456 180.983 96.008C181.901 94.984 182.733 93.8427 183.479 92.584C184.247 91.304 184.855 90.0667 185.303 88.872C185.879 88.9147 186.391 89.0107 186.839 89.16C187.287 89.3093 187.597 89.4693 187.767 89.64C187.042 91.304 186.455 92.7013 186.007 93.832C185.581 94.9627 185.207 95.9653 184.887 96.84C184.311 98.376 183.767 99.7733 183.255 101.032C182.765 102.312 182.253 103.485 181.719 104.552C181.207 105.64 180.642 106.643 180.023 107.56C179.426 108.499 178.743 109.395 177.975 110.248C177.613 110.653 177.197 111.005 176.727 111.304C176.279 111.624 175.81 111.891 175.319 112.104C174.85 112.317 174.381 112.477 173.911 112.584C173.463 112.691 173.047 112.744 172.663 112.744C172.151 112.744 171.629 112.68 171.095 112.552C170.562 112.445 170.071 112.285 169.623 112.072C169.154 111.88 168.749 111.645 168.407 111.368C168.066 111.112 167.821 110.835 167.671 110.536Z" fill="black"/>
<path d="M172.654 87.752C172.568 89.0747 172.334 90.216 171.95 91.176C171.566 92.1147 171.011 92.9467 170.286 93.672C169.582 94.376 168.718 95.016 167.694 95.592C166.67 96.168 165.475 96.7227 164.11 97.256C164.11 97.384 164.099 97.5227 164.078 97.672C164.078 97.8 164.078 97.9387 164.078 98.088C164.078 98.3653 164.099 98.6533 164.142 98.952C164.184 99.2507 164.259 99.528 164.366 99.784C164.472 100.04 164.622 100.253 164.814 100.424C165.006 100.573 165.251 100.648 165.55 100.648C166.126 100.648 166.691 100.52 167.246 100.264C167.8 100.008 168.323 99.6987 168.814 99.336C169.326 98.952 169.795 98.5467 170.222 98.12C170.67 97.672 171.064 97.2667 171.406 96.904C171.619 97.096 171.8 97.2773 171.95 97.448C170.99 98.728 169.934 99.7947 168.782 100.648C167.651 101.48 166.574 102.013 165.55 102.248C164.078 102.077 162.926 101.544 162.094 100.648C161.283 99.7307 160.878 98.632 160.878 97.352C160.878 96.4773 160.995 95.592 161.23 94.696C161.486 93.7787 161.827 92.904 162.254 92.072C162.702 91.2187 163.214 90.4187 163.79 89.672C164.387 88.9253 165.016 88.2747 165.678 87.72C166.36 87.1653 167.054 86.728 167.758 86.408C168.483 86.088 169.198 85.928 169.902 85.928C170.883 86.056 171.8 86.664 172.654 87.752ZM170.446 88.808C169.87 88.8933 169.272 89.128 168.654 89.512C168.035 89.896 167.448 90.408 166.894 91.048C166.36 91.688 165.87 92.4347 165.422 93.288C164.974 94.1413 164.622 95.0587 164.366 96.04C166.072 95.1867 167.491 94.1413 168.622 92.904C169.752 91.6453 170.36 90.28 170.446 88.808Z" fill="black"/>
<path d="M151.836 88.744C151.729 88.616 151.633 88.3493 151.548 87.944C151.462 87.5173 151.42 87.1547 151.42 86.856C151.974 86.8987 152.508 86.9413 153.02 86.984C153.532 87.0053 154.001 87.0267 154.428 87.048C154.748 86.408 155.089 85.7787 155.452 85.16C155.836 84.52 156.198 83.944 156.54 83.432C156.902 82.8987 157.233 82.4507 157.532 82.088C157.852 81.7253 158.097 81.4907 158.268 81.384C158.481 81.384 158.748 81.4267 159.068 81.512C159.409 81.576 159.75 81.672 160.092 81.8C160.433 81.9067 160.742 82.024 161.02 82.152C161.297 82.28 161.489 82.408 161.596 82.536C160.956 83.3467 160.401 84.104 159.932 84.808C159.484 85.4907 158.993 86.28 158.46 87.176C158.886 87.176 159.313 87.1653 159.74 87.144C160.188 87.1227 160.636 87.0907 161.084 87.048C161.19 87.1547 161.276 87.2933 161.34 87.464C161.404 87.6133 161.436 87.7733 161.436 87.944C160.39 88.328 159.121 88.5413 157.628 88.584C157.094 89.608 156.614 90.632 156.188 91.656C155.782 92.6587 155.43 93.6293 155.132 94.568C154.854 95.5067 154.63 96.392 154.46 97.224C154.31 98.056 154.236 98.8027 154.236 99.464C154.236 100.403 154.588 100.925 155.292 101.032C155.932 100.947 156.54 100.787 157.116 100.552C157.692 100.317 158.204 100.019 158.652 99.656C158.78 99.848 158.854 100.008 158.876 100.136C158.748 100.328 158.524 100.552 158.204 100.808C157.905 101.064 157.574 101.309 157.212 101.544C156.849 101.8 156.497 102.013 156.156 102.184C155.814 102.355 155.558 102.451 155.388 102.472C154.854 102.451 154.321 102.333 153.788 102.12C153.254 101.907 152.764 101.64 152.316 101.32C151.889 101 151.537 100.648 151.26 100.264C150.982 99.8587 150.844 99.464 150.844 99.08C150.844 98.568 150.908 97.928 151.036 97.16C151.185 96.3707 151.388 95.5173 151.644 94.6C151.9 93.6827 152.198 92.7227 152.54 91.72C152.881 90.7173 153.254 89.7253 153.66 88.744H151.836Z" fill="black"/>
<path d="M137.851 85.48C138.405 85.6507 138.928 86.0347 139.419 86.632C139.909 87.208 140.272 87.848 140.507 88.552C140.272 89.128 139.909 89.8213 139.419 90.632C138.928 91.4427 138.437 92.2747 137.947 93.128C137.456 93.96 137.008 94.76 136.603 95.528C136.219 96.2747 135.995 96.8933 135.931 97.384C136.272 97.0213 136.645 96.6053 137.051 96.136C137.477 95.6453 137.883 95.1653 138.267 94.696C138.672 94.2053 139.045 93.768 139.387 93.384C139.728 92.9787 139.995 92.68 140.187 92.488C140.592 92.0613 141.072 91.5707 141.627 91.016C142.181 90.44 142.757 89.9067 143.355 89.416C143.973 88.904 144.592 88.4773 145.211 88.136C145.829 87.7733 146.395 87.592 146.907 87.592C147.461 87.592 147.92 87.784 148.283 88.168C148.667 88.5307 148.965 88.9147 149.179 89.32C149.179 89.3627 149.093 89.4267 148.923 89.512C148.773 89.576 148.549 89.7787 148.251 90.12C147.952 90.504 147.611 91.0373 147.227 91.72C146.864 92.3813 146.501 93.1067 146.139 93.896C145.797 94.664 145.509 95.4533 145.275 96.264C145.04 97.0747 144.923 97.8107 144.923 98.472C144.923 99.0053 144.987 99.3467 145.115 99.496C145.264 99.6453 145.467 99.72 145.723 99.72C145.957 99.72 146.203 99.6667 146.459 99.56C146.715 99.4533 146.917 99.4 147.067 99.4C147.152 99.4427 147.216 99.5387 147.259 99.688C147.323 99.816 147.355 99.9333 147.355 100.04C147.184 100.189 146.981 100.339 146.747 100.488C146.512 100.637 146.267 100.776 146.011 100.904C145.755 101.032 145.499 101.139 145.243 101.224C145.008 101.309 144.795 101.352 144.603 101.352C143.984 101.352 143.472 101.256 143.067 101.064C142.683 100.893 142.373 100.659 142.139 100.36C141.925 100.061 141.776 99.7093 141.691 99.304C141.605 98.8773 141.563 98.4293 141.563 97.96C141.563 97.704 141.584 97.416 141.627 97.096C141.669 96.776 141.755 96.4027 141.883 95.976C142.011 95.528 142.192 95.0053 142.427 94.408C142.661 93.7893 142.96 93.0533 143.323 92.2C143.28 92.2 142.992 92.3493 142.459 92.648C141.925 92.9467 141.349 93.4053 140.731 94.024C139.728 94.984 138.821 95.9333 138.011 96.872C137.221 97.8107 136.411 98.856 135.579 100.008C135.109 100.669 134.693 101.224 134.331 101.672C133.989 102.141 133.691 102.451 133.435 102.6C132.987 102.344 132.656 101.981 132.443 101.512C132.229 101.064 132.069 100.595 131.963 100.104C131.963 99.6987 132.016 99.1867 132.123 98.568C132.251 97.9493 132.411 97.2667 132.603 96.52C132.816 95.752 133.072 94.952 133.371 94.12C133.669 93.288 134 92.456 134.363 91.624C135.173 89.7467 135.909 88.2747 136.571 87.208C137.253 86.1413 137.68 85.5653 137.851 85.48Z" fill="black"/>
<path d="M124.192 99.176C124.192 98.408 124.309 97.416 124.544 96.2C124.8 94.9627 125.12 93.64 125.504 92.232C125.909 90.8027 126.368 89.352 126.88 87.88C127.392 86.3867 127.915 84.9893 128.448 83.688C128.981 82.3867 129.504 81.2453 130.016 80.264C130.528 79.2827 130.987 78.5787 131.392 78.152C131.605 78.1733 131.883 78.2587 132.224 78.408C132.587 78.536 132.949 78.696 133.312 78.888C133.675 79.08 134.005 79.2933 134.304 79.528C134.603 79.7413 134.795 79.944 134.88 80.136C134.261 80.6907 133.643 81.5333 133.024 82.664C132.427 83.7733 131.84 85.0427 131.264 86.472C130.709 87.9013 130.187 89.416 129.696 91.016C129.205 92.5947 128.779 94.1307 128.416 95.624C128.053 97.1173 127.765 98.504 127.552 99.784C127.36 101.064 127.264 102.099 127.264 102.888C127.264 103.251 127.296 103.475 127.36 103.56C126.891 103.539 126.549 103.453 126.336 103.304C126.123 103.176 125.952 103.027 125.824 102.856C125.717 102.707 125.611 102.547 125.504 102.376C125.419 102.227 125.28 102.109 125.088 102.024C124.939 101.96 124.811 101.811 124.704 101.576C124.597 101.341 124.501 101.085 124.416 100.808C124.352 100.509 124.299 100.211 124.256 99.912C124.213 99.6133 124.192 99.368 124.192 99.176Z" fill="black"/>
<path d="M241.938 50.84C242.205 50.84 242.511 50.8933 242.858 51C243.231 51.08 243.565 51.2 243.858 51.36C244.151 51.4933 244.391 51.64 244.578 51.8C244.791 51.96 244.898 52.1067 244.898 52.24C244.365 53.36 243.871 54.4933 243.418 55.64C242.965 56.76 242.578 57.84 242.258 58.88C241.938 59.92 241.685 60.8933 241.498 61.8C241.338 62.7067 241.258 63.4933 241.258 64.16C241.258 64.9067 241.338 65.5333 241.498 66.04C241.658 66.52 241.925 66.8667 242.298 67.08C241.978 67.2933 241.565 67.4667 241.058 67.6C240.551 67.7333 240.098 67.8 239.698 67.8C238.258 67.8 237.538 66.8133 237.538 64.84C237.538 63.32 238.045 61.24 239.058 58.6C238.525 59.8267 237.911 60.9867 237.218 62.08C236.525 63.1467 235.818 64.0933 235.098 64.92C234.378 65.7467 233.645 66.4267 232.898 66.96C232.178 67.4667 231.511 67.7733 230.898 67.88C229.911 67.8267 229.111 67.36 228.498 66.48C227.885 65.5733 227.578 64.4267 227.578 63.04C227.578 61.5467 227.898 59.9733 228.538 58.32C229.178 56.6667 229.991 55.1333 230.978 53.72C231.991 52.3067 233.085 51.1333 234.258 50.2C235.431 49.24 236.565 48.7333 237.658 48.68C237.925 48.76 238.218 48.92 238.538 49.16C238.885 49.4 239.205 49.68 239.498 50C239.818 50.32 240.085 50.6533 240.298 51C240.511 51.32 240.631 51.6 240.658 51.84C239.591 52 238.485 52.52 237.338 53.4C236.218 54.28 235.191 55.3467 234.258 56.6C233.351 57.8267 232.605 59.1467 232.018 60.56C231.431 61.9733 231.138 63.2933 231.138 64.52C231.138 65.0267 231.325 65.3467 231.698 65.48C232.471 65.32 233.365 64.6667 234.378 63.52C235.391 62.3467 236.618 60.5467 238.058 58.12C238.325 57.64 238.618 57.1067 238.938 56.52C239.285 55.9333 239.631 55.32 239.978 54.68C240.325 54.04 240.658 53.4 240.978 52.76C241.325 52.0933 241.645 51.4533 241.938 50.84Z" fill="black"/>
<path d="M208.026 66.44C208.026 66.0133 208.399 65.3333 209.146 64.4C209.893 63.44 210.879 62.36 212.106 61.16C213.359 59.9333 214.786 58.6533 216.386 57.32C218.013 55.96 219.693 54.6533 221.426 53.4C220.306 53.16 219.413 52.9867 218.746 52.88C218.106 52.7733 217.586 52.72 217.186 52.72C216.413 52.72 215.719 52.8267 215.106 53.04C214.493 53.2533 213.893 53.6 213.306 54.08C212.079 53.0133 211.466 51.7867 211.466 50.4C211.466 49.9733 211.479 49.72 211.506 49.64C211.959 49.1867 212.493 48.84 213.106 48.6C213.746 48.36 214.413 48.24 215.106 48.24C215.853 48.24 216.613 48.36 217.386 48.6C218.159 48.84 218.919 49.1067 219.666 49.4C220.413 49.6667 221.106 49.92 221.746 50.16C222.413 50.4 222.999 50.52 223.506 50.52C223.799 50.52 224.119 50.48 224.466 50.4C224.839 50.32 225.146 50.2133 225.386 50.08C225.626 50.2667 225.839 50.64 226.026 51.2C226.239 51.76 226.346 52.3067 226.346 52.84C225.519 53.16 224.519 53.72 223.346 54.52C222.199 55.32 221.026 56.24 219.826 57.28C218.626 58.32 217.453 59.4267 216.306 60.6C215.186 61.7733 214.253 62.88 213.506 63.92C214.066 64.16 214.826 64.28 215.786 64.28C216.399 64.28 217.026 64.2267 217.666 64.12C218.306 64.0133 218.919 63.8667 219.506 63.68C220.119 63.4933 220.679 63.28 221.186 63.04C221.693 62.7733 222.119 62.4933 222.466 62.2C223.719 63 224.346 64.1733 224.346 65.72C224.346 65.9333 224.333 66.1067 224.306 66.24C224.306 66.3733 224.293 66.5333 224.266 66.72C223.039 67.4933 221.706 67.88 220.266 67.88C219.546 67.88 218.826 67.8 218.106 67.64C217.386 67.5067 216.679 67.36 215.986 67.2C215.319 67.04 214.679 66.8933 214.066 66.76C213.479 66.6 212.933 66.52 212.426 66.52C211.146 66.52 210.106 67.12 209.306 68.32C208.959 68.1867 208.666 67.9467 208.426 67.6C208.213 67.2533 208.079 66.8667 208.026 66.44Z" fill="black"/>
<path d="M207.614 50.44C207.507 52.0933 207.214 53.52 206.734 54.72C206.254 55.8933 205.561 56.9333 204.654 57.84C203.774 58.72 202.694 59.52 201.414 60.24C200.134 60.96 198.641 61.6533 196.934 62.32C196.934 62.48 196.921 62.6533 196.894 62.84C196.894 63 196.894 63.1733 196.894 63.36C196.894 63.7067 196.921 64.0667 196.974 64.44C197.027 64.8133 197.121 65.16 197.254 65.48C197.387 65.8 197.574 66.0667 197.814 66.28C198.054 66.4667 198.361 66.56 198.734 66.56C199.454 66.56 200.161 66.4 200.854 66.08C201.547 65.76 202.201 65.3733 202.814 64.92C203.454 64.44 204.041 63.9333 204.574 63.4C205.134 62.84 205.627 62.3333 206.054 61.88C206.321 62.12 206.547 62.3467 206.734 62.56C205.534 64.16 204.214 65.4933 202.774 66.56C201.361 67.6 200.014 68.2667 198.734 68.56C196.894 68.3467 195.454 67.68 194.414 66.56C193.401 65.4133 192.894 64.04 192.894 62.44C192.894 61.3467 193.041 60.24 193.334 59.12C193.654 57.9733 194.081 56.88 194.614 55.84C195.174 54.7733 195.814 53.7733 196.534 52.84C197.281 51.9067 198.067 51.0933 198.894 50.4C199.747 49.7067 200.614 49.16 201.494 48.76C202.401 48.36 203.294 48.16 204.174 48.16C205.401 48.32 206.547 49.08 207.614 50.44ZM204.854 51.76C204.134 51.8667 203.387 52.16 202.614 52.64C201.841 53.12 201.107 53.76 200.414 54.56C199.747 55.36 199.134 56.2933 198.574 57.36C198.014 58.4267 197.574 59.5733 197.254 60.8C199.387 59.7333 201.161 58.4267 202.574 56.88C203.987 55.3067 204.747 53.6 204.854 51.76Z" fill="black"/>
<path d="M183.881 64.32C183.881 64.08 183.894 63.7867 183.921 63.44C183.974 63.0667 184.054 62.5867 184.161 62C184.268 61.3867 184.401 60.6533 184.561 59.8C184.748 58.9467 184.974 57.92 185.241 56.72C185.294 56.4533 185.414 56.0267 185.601 55.44C185.788 54.8533 186.028 54.24 186.321 53.6C186.641 52.9333 187.014 52.2933 187.441 51.68C187.894 51.0667 188.428 50.6133 189.041 50.32C189.494 50.4267 190.094 50.7067 190.841 51.16C191.588 51.5867 192.228 52.1867 192.761 52.96C192.148 53.6533 191.628 54.3467 191.201 55.04C190.801 55.7333 190.428 56.4533 190.081 57.2C189.761 57.9467 189.454 58.72 189.161 59.52C188.894 60.32 188.588 61.16 188.241 62.04C187.948 62.7867 187.681 63.56 187.441 64.36C187.201 65.1333 187.068 65.8133 187.041 66.4C187.041 66.88 187.028 67.2133 187.001 67.4C187.001 67.6133 186.934 67.72 186.801 67.72C186.694 67.72 186.481 67.6533 186.161 67.52C185.841 67.3867 185.508 67.1867 185.161 66.92C184.841 66.6267 184.548 66.2667 184.281 65.84C184.014 65.4133 183.881 64.9067 183.881 64.32ZM191.521 46.96C191.521 46.8 191.561 46.56 191.641 46.24C191.508 46.1067 191.388 45.9067 191.281 45.64C191.201 45.3733 191.161 45.1333 191.161 44.92C191.161 44.68 191.188 44.36 191.241 43.96C191.321 43.5333 191.414 43.08 191.521 42.6C191.628 42.12 191.761 41.6267 191.921 41.12C192.081 40.5867 192.241 40.1067 192.401 39.68C192.721 39.68 193.108 39.7733 193.561 39.96C194.041 40.12 194.521 40.3467 195.001 40.64C195.481 40.9067 195.921 41.2133 196.321 41.56C196.721 41.88 197.028 42.1867 197.241 42.48C196.948 42.7733 196.561 43.1867 196.081 43.72C195.601 44.2267 195.134 44.7733 194.681 45.36C194.228 45.92 193.814 46.4533 193.441 46.96C193.068 47.4667 192.828 47.8267 192.721 48.04C192.401 47.9867 192.121 47.8533 191.881 47.64C191.641 47.4 191.521 47.1733 191.521 46.96Z" fill="black"/>
<path d="M160.999 80.24C160.626 80.1333 160.412 79.7333 160.359 79.04C160.252 78.6933 160.172 78.28 160.119 77.8C160.092 77.32 160.079 76.7733 160.079 76.16C160.079 75.6 160.172 74.8267 160.359 73.84C160.546 72.88 160.799 71.7867 161.119 70.56C161.466 69.3333 161.879 68.0133 162.359 66.6C162.839 65.16 163.372 63.7067 163.959 62.24C164.679 60.4 165.306 58.8133 165.839 57.48C166.372 56.12 166.812 54.9467 167.159 53.96C167.532 52.9733 167.826 52.16 168.039 51.52C168.279 50.88 168.466 50.3333 168.599 49.88C168.706 49.56 168.866 49.1733 169.079 48.72C169.292 48.2667 169.532 47.8133 169.799 47.36C170.092 46.88 170.386 46.44 170.679 46.04C170.972 45.6133 171.239 45.2933 171.479 45.08C172.412 45.2133 173.292 45.4533 174.119 45.8C174.946 46.1467 175.452 46.48 175.639 46.8C175.266 47.1467 174.839 47.6933 174.359 48.44C173.879 49.16 173.412 49.96 172.959 50.84C172.506 51.6933 172.092 52.5733 171.719 53.48C171.346 54.3867 171.066 55.1867 170.879 55.88C171.146 55.4267 171.492 54.9333 171.919 54.4C172.346 53.8667 172.999 53.1333 173.879 52.2C174.866 51.1867 175.786 50.4133 176.639 49.88C177.519 49.32 178.279 49.04 178.919 49.04C179.932 49.04 180.759 49.32 181.399 49.88C182.066 50.44 182.399 51.16 182.399 52.04C182.399 53.96 182.079 55.8667 181.439 57.76C180.799 59.6267 179.879 61.32 178.679 62.84C178.226 63.4267 177.692 63.9867 177.079 64.52C176.466 65.0533 175.826 65.5333 175.159 65.96C174.492 66.36 173.839 66.68 173.199 66.92C172.559 67.16 171.986 67.28 171.479 67.28C170.999 67.28 170.572 67.1867 170.199 67C169.852 66.7867 169.612 66.5333 169.479 66.24C170.519 65.6267 171.532 64.7733 172.519 63.68C173.506 62.5867 174.412 61.3333 175.239 59.92C176.092 58.48 176.826 56.9333 177.439 55.28C178.079 53.6267 178.559 51.9467 178.879 50.24C177.866 50.7733 176.946 51.36 176.119 52C175.319 52.6133 174.519 53.4267 173.719 54.44C172.759 55.6133 171.999 56.56 171.439 57.28C170.879 58 170.412 58.6133 170.039 59.12C169.692 59.6267 169.399 60.1067 169.159 60.56C168.946 60.9867 168.706 61.52 168.439 62.16C168.066 63.0133 167.626 64.1467 167.119 65.56C166.639 66.9467 166.132 68.5067 165.599 70.24C165.092 71.9733 164.572 73.8133 164.039 75.76C163.532 77.7333 163.039 79.6933 162.559 81.64C162.266 81.5867 162.012 81.3733 161.799 81C161.586 80.76 161.426 80.5867 161.319 80.48C161.239 80.3733 161.132 80.2933 160.999 80.24Z" fill="black"/>
<path d="M156.453 54.72C156.026 54.7467 155.506 55.0267 154.893 55.56C154.28 56.0667 153.613 56.7333 152.893 57.56C152.2 58.36 151.466 59.2533 150.693 60.24C149.946 61.2267 149.213 62.2133 148.493 63.2C147.8 64.16 147.146 65.0667 146.533 65.92C145.92 66.7733 145.4 67.4533 144.973 67.96C144.386 67.72 143.88 67.3733 143.453 66.92C143.026 66.44 142.72 65.8533 142.533 65.16C142.666 64.3333 142.853 63.48 143.093 62.6C143.333 61.6933 143.64 60.76 144.013 59.8C144.413 58.84 144.893 57.84 145.453 56.8C146.04 55.7333 146.746 54.6133 147.573 53.44C147.173 53.4667 146.626 53.76 145.933 54.32C145.24 54.8533 144.493 55.56 143.693 56.44C142.893 57.2933 142.066 58.2667 141.213 59.36C140.36 60.4267 139.56 61.48 138.813 62.52C137.826 63.9067 137 65.12 136.333 66.16C135.693 67.2 135.226 67.8133 134.933 68C134.24 67.4933 133.76 66.9467 133.493 66.36C133.226 65.7733 133.026 65.12 132.893 64.4C132.92 63.76 133.013 62.96 133.173 62C133.36 61.04 133.613 60.0533 133.933 59.04C134.546 57.0933 135.333 55.16 136.293 53.24C137.28 51.32 138.226 49.56 139.133 47.96C139.88 48.12 140.546 48.3733 141.133 48.72C141.746 49.0667 142.386 49.5733 143.053 50.24C142.786 51.0667 142.373 51.9467 141.813 52.88C141.253 53.7867 140.666 54.7467 140.053 55.76C139.44 56.7733 138.88 57.8133 138.373 58.88C137.866 59.9467 137.533 61.0267 137.373 62.12C138.12 61.0533 139 59.8267 140.013 58.44C141.053 57.0533 142.106 55.7467 143.173 54.52C144.266 53.2933 145.346 52.2533 146.413 51.4C147.48 50.5467 148.44 50.12 149.293 50.12C149.613 50.12 149.96 50.1733 150.333 50.28C150.706 50.3867 151.053 50.52 151.373 50.68C151.693 50.84 151.96 51 152.173 51.16C152.386 51.2933 152.506 51.4 152.533 51.48C152.4 52.0133 152.08 52.7467 151.573 53.68C151.093 54.5867 150.573 55.5467 150.013 56.56C149.453 57.5733 148.933 58.56 148.453 59.52C147.973 60.4533 147.693 61.2 147.613 61.76C148.92 59.9733 150.146 58.36 151.293 56.92C152.44 55.4533 153.52 54.2 154.533 53.16C155.546 52.12 156.48 51.32 157.333 50.76C158.213 50.2 159.04 49.92 159.813 49.92C160.346 49.92 160.84 50.0667 161.293 50.36C161.773 50.6267 162.106 51.0267 162.293 51.56C162.053 52.36 161.653 53.32 161.093 54.44C160.56 55.56 160.013 56.7467 159.453 58C158.893 59.2267 158.386 60.44 157.933 61.64C157.506 62.84 157.293 63.92 157.293 64.88C157.293 65.44 157.373 65.8133 157.533 66C157.693 66.16 157.92 66.24 158.213 66.24C158.533 66.24 158.826 66.1867 159.093 66.08C159.386 65.9467 159.6 65.88 159.733 65.88C159.893 65.9867 159.986 66.12 160.013 66.28C160.04 66.44 160.053 66.5867 160.053 66.72C159.52 67.1467 158.973 67.4933 158.413 67.76C157.853 68.0533 157.226 68.2 156.533 68.2C155.893 68.2 155.36 68.0933 154.933 67.88C154.533 67.6667 154.2 67.3733 153.933 67C153.666 66.6267 153.48 66.2 153.373 65.72C153.266 65.24 153.213 64.72 153.213 64.16C153.213 63.2533 153.333 62.36 153.573 61.48C153.813 60.5733 154.093 59.72 154.413 58.92C154.76 58.0933 155.12 57.3333 155.493 56.64C155.866 55.92 156.186 55.28 156.453 54.72Z" fill="black"/>
<path d="M123.92 64.32C123.92 64.08 123.933 63.7867 123.96 63.44C124.013 63.0667 124.093 62.5867 124.2 62C124.307 61.3867 124.44 60.6533 124.6 59.8C124.787 58.9467 125.013 57.92 125.28 56.72C125.333 56.4533 125.453 56.0267 125.64 55.44C125.827 54.8533 126.067 54.24 126.36 53.6C126.68 52.9333 127.053 52.2933 127.48 51.68C127.933 51.0667 128.467 50.6133 129.08 50.32C129.533 50.4267 130.133 50.7067 130.88 51.16C131.627 51.5867 132.267 52.1867 132.8 52.96C132.187 53.6533 131.667 54.3467 131.24 55.04C130.84 55.7333 130.467 56.4533 130.12 57.2C129.8 57.9467 129.493 58.72 129.2 59.52C128.933 60.32 128.627 61.16 128.28 62.04C127.987 62.7867 127.72 63.56 127.48 64.36C127.24 65.1333 127.107 65.8133 127.08 66.4C127.08 66.88 127.067 67.2133 127.04 67.4C127.04 67.6133 126.973 67.72 126.84 67.72C126.733 67.72 126.52 67.6533 126.2 67.52C125.88 67.3867 125.547 67.1867 125.2 66.92C124.88 66.6267 124.587 66.2667 124.32 65.84C124.053 65.4133 123.92 64.9067 123.92 64.32ZM131.56 46.96C131.56 46.8 131.6 46.56 131.68 46.24C131.547 46.1067 131.427 45.9067 131.32 45.64C131.24 45.3733 131.2 45.1333 131.2 44.92C131.2 44.68 131.227 44.36 131.28 43.96C131.36 43.5333 131.453 43.08 131.56 42.6C131.667 42.12 131.8 41.6267 131.96 41.12C132.12 40.5867 132.28 40.1067 132.44 39.68C132.76 39.68 133.147 39.7733 133.6 39.96C134.08 40.12 134.56 40.3467 135.04 40.64C135.52 40.9067 135.96 41.2133 136.36 41.56C136.76 41.88 137.067 42.1867 137.28 42.48C136.987 42.7733 136.6 43.1867 136.12 43.72C135.64 44.2267 135.173 44.7733 134.72 45.36C134.267 45.92 133.853 46.4533 133.48 46.96C133.107 47.4667 132.867 47.8267 132.76 48.04C132.44 47.9867 132.16 47.8533 131.92 47.64C131.68 47.4 131.56 47.1733 131.56 46.96Z" fill="black"/>
<path d="M111.838 13C119.946 13 124 19.0958 124 31.2875C124 39.0618 121.885 48.0289 117.654 58.1886C111.485 72.9422 103.113 84.2946 92.5366 92.2457C88.4825 95.2494 84.3403 97.5464 80.1099 99.1366C75.8796 110.091 70.5476 118.087 64.1139 123.122C72.9271 129.66 79.3167 133.9 83.2827 135.844C87.2487 137.876 91.0825 138.892 94.784 138.892C101.218 138.892 105.448 136.639 107.475 132.134C108.092 130.72 108.401 129.395 108.401 128.158C108.401 126.921 108.048 125.861 107.343 124.978C106.726 124.182 105.977 123.785 105.096 123.785C105.36 122.725 106.021 122.195 107.079 122.195C110.075 122.195 112.058 123.873 113.027 127.23C113.38 128.379 113.556 129.483 113.556 130.543C113.556 133.194 112.543 135.667 110.516 137.964C107.695 141.321 103.509 143 97.9568 143C90.9943 143 84.2962 140.968 77.8626 136.904C74.2491 134.696 71.6051 132.973 69.9306 131.736C68.3442 130.499 65.4799 128.291 61.3377 125.11C55.8735 128.556 49.8364 130.278 43.2264 130.278C33.4437 130.278 27.0982 127.805 24.1898 122.857C23.3966 121.355 23 119.809 23 118.219C23 116.541 23.7051 114.818 25.1152 113.051C27.3185 110.312 30.4913 108.943 34.6335 108.943C41.2435 108.943 49.4839 112.521 59.3547 119.677C63.3207 115.613 66.8901 109.561 70.0628 101.522C69.1815 101.61 67.9036 101.654 66.2291 101.654C51.8634 101.654 41.3316 95.912 34.6335 84.4271C30.5794 77.3595 28.5524 69.5409 28.5524 60.9715C28.5524 58.0561 28.7727 55.0965 29.2134 52.0928C30.7997 40.8729 34.942 32.3034 41.6401 26.3843C46.2229 22.4971 51.4228 20.5535 57.2395 20.5535C63.0563 20.5535 67.551 22.4529 70.7238 26.2518C73.8966 30.0506 75.5711 34.7329 75.7474 40.2987C75.7474 41.0938 75.3067 41.7564 74.4254 42.2864C73.5441 42.7282 72.6627 42.8607 71.7814 42.684C70.9001 42.419 70.4594 41.8447 70.4594 40.9613C70.2832 35.6606 69.2256 31.4642 67.2866 28.3721C65.3477 25.1916 61.8665 23.6014 56.8429 23.6014C48.911 23.6014 42.5214 27.9745 37.6741 36.7207C33.7962 43.6116 31.8573 51.2093 31.8573 59.5138C31.8573 74.7091 36.7487 85.7081 46.5314 92.5107C51.9075 96.3096 58.4293 98.209 66.0969 98.209C67.8595 98.209 69.6662 98.0765 71.517 97.8114C73.5441 92.334 75.7033 85.1781 77.9948 76.3435C80.2862 67.4207 82.3133 59.6905 84.0759 53.1529C85.9267 46.527 88.086 39.9453 90.5537 33.4077C95.6654 19.8026 102.76 13 111.838 13ZM110.384 16.843C104.214 16.843 99.4991 22.8063 96.2382 34.7329C94.6518 40.4754 93.2417 46.3945 92.0079 52.4903C88.3944 71.1312 85.0454 85.0455 81.9607 94.2334C92.801 88.6677 101.658 78.243 108.533 62.9592C114.085 50.7676 116.817 39.5477 116.729 29.2997C116.465 21.1719 114.349 17.0197 110.384 16.843ZM56.9751 121.93C48.3381 115.48 40.8909 112.256 34.6335 112.256C30.6675 112.256 28.1558 113.669 27.0982 116.496C25.9524 119.235 27.1422 121.841 30.6675 124.315C33.3115 126.17 37.3216 127.098 42.6976 127.098C48.0737 127.098 52.8329 125.375 56.9751 121.93Z" fill="black"/>
</g>
<defs>
<clipPath id="clip0_21_17">
<rect width="325" height="155" fill="white"/>
</clipPath>
</defs>
</svg>
