<svg width="800" height="600" viewBox="0 0 800 600" fill="none" xmlns="http://www.w3.org/2000/svg">
<path d="M472.711 335.08C472.685 335.587 472.591 336.12 472.431 336.68C472.298 337.213 472.125 337.707 471.911 338.16C471.698 338.587 471.471 338.947 471.231 339.24C470.991 339.533 470.765 339.68 470.551 339.68C470.258 339.653 470.085 339.453 470.031 339.08C470.031 339 470.058 338.88 470.111 338.72C470.191 338.533 470.271 338.333 470.351 338.12C470.431 337.907 470.498 337.693 470.551 337.48C470.631 337.267 470.671 337.08 470.671 336.92C470.671 336.547 470.578 336.24 470.391 336C470.231 335.733 470.005 335.6 469.711 335.6C468.645 335.6 467.831 336.267 467.271 337.6C466.711 338.933 466.431 340.893 466.431 343.48C466.431 343.747 466.445 343.907 466.471 343.96C467.031 343.933 467.525 343.92 467.951 343.92C468.405 343.893 468.845 343.88 469.271 343.88C469.298 343.933 469.311 344.04 469.311 344.2C469.311 344.44 469.258 344.613 469.151 344.72C468.538 344.853 468.045 344.973 467.671 345.08C467.325 345.16 467.058 345.24 466.871 345.32C466.685 345.4 466.565 345.493 466.511 345.6C466.485 345.68 466.471 345.8 466.471 345.96C466.471 346.173 466.471 346.387 466.471 346.6C466.498 346.813 466.511 347.08 466.511 347.4C466.511 349.64 465.898 351.44 464.671 352.8C463.471 354.16 461.791 354.947 459.631 355.16C459.258 355.133 458.871 355.027 458.471 354.84C458.071 354.653 457.685 354.413 457.311 354.12C456.965 353.827 456.658 353.493 456.391 353.12C456.125 352.773 455.938 352.413 455.831 352.04C455.831 351.027 456.045 350.067 456.471 349.16C456.898 348.227 457.471 347.413 458.191 346.72C458.938 346 459.805 345.427 460.791 345C461.805 344.547 462.898 344.28 464.071 344.2C464.071 343.533 464.005 342.88 463.871 342.24C463.738 341.6 463.591 340.987 463.431 340.4C463.298 339.787 463.165 339.2 463.031 338.64C462.898 338.053 462.831 337.48 462.831 336.92C462.831 336.2 462.978 335.493 463.271 334.8C463.565 334.08 463.951 333.427 464.431 332.84C464.911 332.227 465.471 331.707 466.111 331.28C466.751 330.853 467.418 330.56 468.111 330.4C468.405 330.48 468.791 330.72 469.271 331.12C469.778 331.493 470.271 331.92 470.751 332.4C471.231 332.88 471.658 333.373 472.031 333.88C472.405 334.36 472.631 334.76 472.711 335.08ZM459.511 353.32C460.151 353.053 460.751 352.667 461.311 352.16C461.898 351.653 462.405 351.08 462.831 350.44C463.258 349.8 463.591 349.12 463.831 348.4C464.098 347.68 464.231 346.973 464.231 346.28C463.698 346.36 463.111 346.613 462.471 347.04C461.831 347.44 461.231 347.933 460.671 348.52C460.111 349.08 459.645 349.667 459.271 350.28C458.898 350.893 458.711 351.427 458.711 351.88C458.711 352.467 458.978 352.947 459.511 353.32Z" fill="white"/>
<path d="M453.922 334.84C454.189 334.84 454.496 334.893 454.842 335C455.216 335.08 455.549 335.2 455.842 335.36C456.136 335.493 456.376 335.64 456.562 335.8C456.776 335.96 456.882 336.107 456.882 336.24C456.349 337.36 455.856 338.493 455.402 339.64C454.949 340.76 454.562 341.84 454.242 342.88C453.922 343.92 453.669 344.893 453.482 345.8C453.322 346.707 453.242 347.493 453.242 348.16C453.242 348.907 453.322 349.533 453.482 350.04C453.642 350.52 453.909 350.867 454.282 351.08C453.962 351.293 453.549 351.467 453.042 351.6C452.536 351.733 452.082 351.8 451.682 351.8C450.242 351.8 449.522 350.813 449.522 348.84C449.522 347.32 450.029 345.24 451.042 342.6C450.509 343.827 449.896 344.987 449.202 346.08C448.509 347.147 447.802 348.093 447.082 348.92C446.362 349.747 445.629 350.427 444.882 350.96C444.162 351.467 443.496 351.773 442.882 351.88C441.896 351.827 441.096 351.36 440.482 350.48C439.869 349.573 439.562 348.427 439.562 347.04C439.562 345.547 439.882 343.973 440.522 342.32C441.162 340.667 441.976 339.133 442.962 337.72C443.976 336.307 445.069 335.133 446.242 334.2C447.416 333.24 448.549 332.733 449.642 332.68C449.909 332.76 450.202 332.92 450.522 333.16C450.869 333.4 451.189 333.68 451.482 334C451.802 334.32 452.069 334.653 452.282 335C452.496 335.32 452.616 335.6 452.642 335.84C451.576 336 450.469 336.52 449.322 337.4C448.202 338.28 447.176 339.347 446.242 340.6C445.336 341.827 444.589 343.147 444.002 344.56C443.416 345.973 443.122 347.293 443.122 348.52C443.122 349.027 443.309 349.347 443.682 349.48C444.456 349.32 445.349 348.667 446.362 347.52C447.376 346.347 448.602 344.547 450.042 342.12C450.309 341.64 450.602 341.107 450.922 340.52C451.269 339.933 451.616 339.32 451.962 338.68C452.309 338.04 452.642 337.4 452.962 336.76C453.309 336.093 453.629 335.453 453.922 334.84Z" fill="white"/>
<path d="M432.656 338.72C432.23 338.747 431.71 339.027 431.096 339.56C430.483 340.067 429.816 340.733 429.096 341.56C428.403 342.36 427.67 343.253 426.896 344.24C426.15 345.227 425.416 346.213 424.696 347.2C424.003 348.16 423.35 349.067 422.736 349.92C422.123 350.773 421.603 351.453 421.176 351.96C420.59 351.72 420.083 351.373 419.656 350.92C419.23 350.44 418.923 349.853 418.736 349.16C418.87 348.333 419.056 347.48 419.296 346.6C419.536 345.693 419.843 344.76 420.216 343.8C420.616 342.84 421.096 341.84 421.656 340.8C422.243 339.733 422.95 338.613 423.776 337.44C423.376 337.467 422.83 337.76 422.136 338.32C421.443 338.853 420.696 339.56 419.896 340.44C419.096 341.293 418.27 342.267 417.416 343.36C416.563 344.427 415.763 345.48 415.016 346.52C414.03 347.907 413.203 349.12 412.536 350.16C411.896 351.2 411.43 351.813 411.136 352C410.443 351.493 409.963 350.947 409.696 350.36C409.43 349.773 409.23 349.12 409.096 348.4C409.123 347.76 409.216 346.96 409.376 346C409.563 345.04 409.816 344.053 410.136 343.04C410.75 341.093 411.536 339.16 412.496 337.24C413.483 335.32 414.43 333.56 415.336 331.96C416.083 332.12 416.75 332.373 417.336 332.72C417.95 333.067 418.59 333.573 419.256 334.24C418.99 335.067 418.576 335.947 418.016 336.88C417.456 337.787 416.87 338.747 416.256 339.76C415.643 340.773 415.083 341.813 414.576 342.88C414.07 343.947 413.736 345.027 413.576 346.12C414.323 345.053 415.203 343.827 416.216 342.44C417.256 341.053 418.31 339.747 419.376 338.52C420.47 337.293 421.55 336.253 422.616 335.4C423.683 334.547 424.643 334.12 425.496 334.12C425.816 334.12 426.163 334.173 426.536 334.28C426.91 334.387 427.256 334.52 427.576 334.68C427.896 334.84 428.163 335 428.376 335.16C428.59 335.293 428.71 335.4 428.736 335.48C428.603 336.013 428.283 336.747 427.776 337.68C427.296 338.587 426.776 339.547 426.216 340.56C425.656 341.573 425.136 342.56 424.656 343.52C424.176 344.453 423.896 345.2 423.816 345.76C425.123 343.973 426.35 342.36 427.496 340.92C428.643 339.453 429.723 338.2 430.736 337.16C431.75 336.12 432.683 335.32 433.536 334.76C434.416 334.2 435.243 333.92 436.016 333.92C436.55 333.92 437.043 334.067 437.496 334.36C437.976 334.627 438.31 335.027 438.496 335.56C438.256 336.36 437.856 337.32 437.296 338.44C436.763 339.56 436.216 340.747 435.656 342C435.096 343.227 434.59 344.44 434.136 345.64C433.71 346.84 433.496 347.92 433.496 348.88C433.496 349.44 433.576 349.813 433.736 350C433.896 350.16 434.123 350.24 434.416 350.24C434.736 350.24 435.03 350.187 435.296 350.08C435.59 349.947 435.803 349.88 435.936 349.88C436.096 349.987 436.19 350.12 436.216 350.28C436.243 350.44 436.256 350.587 436.256 350.72C435.723 351.147 435.176 351.493 434.616 351.76C434.056 352.053 433.43 352.2 432.736 352.2C432.096 352.2 431.563 352.093 431.136 351.88C430.736 351.667 430.403 351.373 430.136 351C429.87 350.627 429.683 350.2 429.576 349.72C429.47 349.24 429.416 348.72 429.416 348.16C429.416 347.253 429.536 346.36 429.776 345.48C430.016 344.573 430.296 343.72 430.616 342.92C430.963 342.093 431.323 341.333 431.696 340.64C432.07 339.92 432.39 339.28 432.656 338.72Z" fill="white"/>
<path d="M396.6 352.4C395.08 352.24 393.867 351.573 392.96 350.4C392.053 349.227 391.6 347.733 391.6 345.92C391.6 344.853 391.76 343.747 392.08 342.6C392.4 341.453 392.853 340.347 393.44 339.28C394.027 338.187 394.72 337.16 395.52 336.2C396.32 335.24 397.187 334.413 398.12 333.72C399.587 332.627 400.96 332.08 402.24 332.08C403.093 332.533 403.933 333.48 404.76 334.92C404.893 334.92 405.013 334.92 405.12 334.92C405.227 334.893 405.347 334.88 405.48 334.88C406.893 334.88 407.6 336.133 407.6 338.64C407.6 340.32 407.32 341.92 406.76 343.44C406.227 344.933 405.467 346.293 404.48 347.52C403.52 348.747 402.36 349.787 401 350.64C399.667 351.467 398.2 352.053 396.6 352.4ZM398.64 339.8C398.187 340.413 397.76 341.08 397.36 341.8C396.96 342.52 396.613 343.253 396.32 344C396.027 344.72 395.8 345.427 395.64 346.12C395.48 346.787 395.4 347.387 395.4 347.92C395.4 348.56 395.507 349.173 395.72 349.76C395.933 350.347 396.173 350.68 396.44 350.76C397.64 350.493 398.733 350 399.72 349.28C400.733 348.533 401.6 347.613 402.32 346.52C403.067 345.427 403.64 344.187 404.04 342.8C404.467 341.413 404.68 339.933 404.68 338.36C404.68 337.667 404.64 337.12 404.56 336.72C404.48 336.32 404.347 335.973 404.16 335.68C402.987 336.027 401.933 336.587 401 337.36C400.093 338.133 399.307 338.947 398.64 339.8Z" fill="white"/>
<path d="M484.447 316.952C484.447 316.013 484.671 314.701 485.119 313.016C485.567 311.309 486.196 309.325 487.007 307.064C488.33 303.459 489.567 300.461 490.719 298.072C491.892 295.661 493.034 293.784 494.143 292.44C494.399 292.483 494.708 292.589 495.071 292.76C495.455 292.931 495.828 293.123 496.191 293.336C496.554 293.528 496.874 293.731 497.151 293.944C497.45 294.157 497.642 294.328 497.727 294.456C496.063 296.419 494.602 298.531 493.343 300.792C492.084 303.053 490.932 305.645 489.887 308.568C488.991 311.085 488.308 313.357 487.839 315.384C487.37 317.389 487.135 319.064 487.135 320.408C487.135 320.771 487.135 320.995 487.135 321.08C487.135 321.165 487.146 321.251 487.167 321.336C486.868 321.293 486.612 321.219 486.399 321.112C486.186 321.005 486.047 320.877 485.983 320.728C485.94 320.621 485.823 320.461 485.631 320.248C485.439 320.056 485.268 319.907 485.119 319.8C484.927 319.672 484.767 319.341 484.639 318.808C484.511 318.253 484.447 317.635 484.447 316.952Z" fill="white"/>
<path d="M480.488 306.072C480.701 306.072 480.946 306.115 481.224 306.2C481.522 306.264 481.789 306.36 482.024 306.488C482.258 306.595 482.45 306.712 482.6 306.84C482.77 306.968 482.856 307.085 482.856 307.192C482.429 308.088 482.034 308.995 481.672 309.912C481.309 310.808 481 311.672 480.744 312.504C480.488 313.336 480.285 314.115 480.136 314.84C480.008 315.565 479.944 316.195 479.944 316.728C479.944 317.325 480.008 317.827 480.136 318.232C480.264 318.616 480.477 318.893 480.776 319.064C480.52 319.235 480.189 319.373 479.784 319.48C479.378 319.587 479.016 319.64 478.696 319.64C477.544 319.64 476.968 318.851 476.968 317.272C476.968 316.056 477.373 314.392 478.184 312.28C477.757 313.261 477.266 314.189 476.712 315.064C476.157 315.917 475.592 316.675 475.016 317.336C474.44 317.997 473.853 318.541 473.256 318.968C472.68 319.373 472.146 319.619 471.656 319.704C470.866 319.661 470.226 319.288 469.736 318.584C469.245 317.859 469 316.941 469 315.832C469 314.637 469.256 313.379 469.768 312.056C470.28 310.733 470.93 309.507 471.72 308.376C472.53 307.245 473.405 306.307 474.344 305.56C475.282 304.792 476.189 304.387 477.064 304.344C477.277 304.408 477.512 304.536 477.768 304.728C478.045 304.92 478.301 305.144 478.536 305.4C478.792 305.656 479.005 305.923 479.176 306.2C479.346 306.456 479.442 306.68 479.464 306.872C478.61 307 477.725 307.416 476.808 308.12C475.912 308.824 475.09 309.677 474.344 310.68C473.618 311.661 473.021 312.717 472.552 313.848C472.082 314.979 471.848 316.035 471.848 317.016C471.848 317.421 471.997 317.677 472.296 317.784C472.914 317.656 473.629 317.133 474.44 316.216C475.25 315.277 476.232 313.837 477.384 311.896C477.597 311.512 477.832 311.085 478.088 310.616C478.365 310.147 478.642 309.656 478.92 309.144C479.197 308.632 479.464 308.12 479.72 307.608C479.997 307.075 480.253 306.563 480.488 306.072Z" fill="white"/>
<path d="M455.774 318.36C455.88 317.741 456.062 316.931 456.318 315.928C456.595 314.904 456.915 313.827 457.278 312.696C457.64 311.544 458.024 310.392 458.43 309.24C458.835 308.088 459.23 307.053 459.614 306.136C459.891 305.475 460.136 304.963 460.35 304.6C460.563 304.216 460.798 303.896 461.054 303.64C461.352 303.683 461.662 303.757 461.982 303.864C462.302 303.971 462.611 304.099 462.91 304.248C463.208 304.397 463.475 304.557 463.71 304.728C463.944 304.877 464.126 305.027 464.254 305.176C463.678 305.859 463.166 306.637 462.718 307.512C462.291 308.387 461.854 309.507 461.406 310.872C462.558 309.848 463.571 308.867 464.446 307.928C465.342 306.989 466.174 305.944 466.942 304.792C467.07 304.685 467.294 304.632 467.614 304.632C467.912 304.632 468.2 304.685 468.478 304.792C468.755 304.877 468.947 305.005 469.054 305.176C468.67 306.2 468.478 307.213 468.478 308.216C468.478 309.155 468.616 309.859 468.894 310.328C468.872 310.456 468.723 310.701 468.446 311.064C468.19 311.427 467.902 311.768 467.582 312.088C467.006 311.789 466.494 311.384 466.046 310.872C465.598 310.339 465.267 309.763 465.054 309.144C464.051 309.848 463.198 310.541 462.494 311.224C461.79 311.885 461.182 312.632 460.67 313.464C460.179 314.275 459.752 315.213 459.39 316.28C459.048 317.347 458.718 318.616 458.398 320.088C458.206 320.067 457.971 319.992 457.694 319.864C457.438 319.757 457.171 319.619 456.894 319.448C456.638 319.277 456.403 319.096 456.19 318.904C455.976 318.712 455.838 318.531 455.774 318.36Z" fill="white"/>
<path d="M435.671 328.536C435.671 328.408 435.714 328.291 435.799 328.184C435.885 328.077 435.981 327.971 436.087 327.864C436.343 328.099 436.567 328.28 436.759 328.408C436.93 328.536 437.101 328.643 437.271 328.728C437.421 328.813 437.581 328.867 437.751 328.888C437.922 328.909 438.125 328.92 438.359 328.92C439.469 328.92 440.525 328.621 441.527 328.024C442.53 327.448 443.469 326.605 444.343 325.496C445.239 324.387 446.05 323.032 446.775 321.432C447.501 319.832 448.141 318.019 448.695 315.992C448.439 316.248 448.119 316.536 447.735 316.856C447.373 317.155 446.989 317.443 446.583 317.72C446.178 317.997 445.773 318.253 445.367 318.488C444.983 318.723 444.653 318.893 444.375 319C444.013 318.936 443.671 318.787 443.351 318.552C443.053 318.296 442.786 317.987 442.551 317.624C442.317 317.261 442.135 316.856 442.007 316.408C441.879 315.939 441.815 315.448 441.815 314.936C441.815 314.104 441.965 313.251 442.263 312.376C442.583 311.501 442.999 310.648 443.511 309.816C444.023 308.963 444.621 308.163 445.303 307.416C446.007 306.669 446.743 306.019 447.511 305.464C448.301 304.909 449.09 304.472 449.879 304.152C450.69 303.811 451.479 303.64 452.247 303.64C452.994 303.64 453.549 303.8 453.911 304.12C454.295 304.419 454.573 304.941 454.743 305.688C454.509 305.56 454.21 305.496 453.847 305.496C453.335 305.496 452.738 305.699 452.055 306.104C451.394 306.509 450.711 307.043 450.007 307.704C449.325 308.344 448.642 309.091 447.959 309.944C447.277 310.776 446.669 311.629 446.135 312.504C445.623 313.379 445.197 314.232 444.855 315.064C444.535 315.896 444.375 316.643 444.375 317.304C444.375 317.453 444.386 317.549 444.407 317.592C444.429 317.613 444.461 317.624 444.503 317.624C444.695 317.624 444.951 317.517 445.271 317.304C445.613 317.091 445.986 316.824 446.391 316.504C446.818 316.163 447.255 315.779 447.703 315.352C448.151 314.904 448.578 314.456 448.983 314.008C449.901 312.984 450.733 311.843 451.479 310.584C452.247 309.304 452.855 308.067 453.303 306.872C453.879 306.915 454.391 307.011 454.839 307.16C455.287 307.309 455.597 307.469 455.767 307.64C455.042 309.304 454.455 310.701 454.007 311.832C453.581 312.963 453.207 313.965 452.887 314.84C452.311 316.376 451.767 317.773 451.255 319.032C450.765 320.312 450.253 321.485 449.719 322.552C449.207 323.64 448.642 324.643 448.023 325.56C447.426 326.499 446.743 327.395 445.975 328.248C445.613 328.653 445.197 329.005 444.727 329.304C444.279 329.624 443.81 329.891 443.319 330.104C442.85 330.317 442.381 330.477 441.911 330.584C441.463 330.691 441.047 330.744 440.663 330.744C440.151 330.744 439.629 330.68 439.095 330.552C438.562 330.445 438.071 330.285 437.623 330.072C437.154 329.88 436.749 329.645 436.407 329.368C436.066 329.112 435.821 328.835 435.671 328.536Z" fill="white"/>
<path d="M440.654 305.752C440.568 307.075 440.334 308.216 439.95 309.176C439.566 310.115 439.011 310.947 438.286 311.672C437.582 312.376 436.718 313.016 435.694 313.592C434.67 314.168 433.475 314.723 432.11 315.256C432.11 315.384 432.099 315.523 432.078 315.672C432.078 315.8 432.078 315.939 432.078 316.088C432.078 316.365 432.099 316.653 432.142 316.952C432.184 317.251 432.259 317.528 432.366 317.784C432.472 318.04 432.622 318.253 432.814 318.424C433.006 318.573 433.251 318.648 433.55 318.648C434.126 318.648 434.691 318.52 435.246 318.264C435.8 318.008 436.323 317.699 436.814 317.336C437.326 316.952 437.795 316.547 438.222 316.12C438.67 315.672 439.064 315.267 439.406 314.904C439.619 315.096 439.8 315.277 439.95 315.448C438.99 316.728 437.934 317.795 436.782 318.648C435.651 319.48 434.574 320.013 433.55 320.248C432.078 320.077 430.926 319.544 430.094 318.648C429.283 317.731 428.878 316.632 428.878 315.352C428.878 314.477 428.995 313.592 429.23 312.696C429.486 311.779 429.827 310.904 430.254 310.072C430.702 309.219 431.214 308.419 431.79 307.672C432.387 306.925 433.016 306.275 433.678 305.72C434.36 305.165 435.054 304.728 435.758 304.408C436.483 304.088 437.198 303.928 437.902 303.928C438.883 304.056 439.8 304.664 440.654 305.752ZM438.446 306.808C437.87 306.893 437.272 307.128 436.654 307.512C436.035 307.896 435.448 308.408 434.894 309.048C434.36 309.688 433.87 310.435 433.422 311.288C432.974 312.141 432.622 313.059 432.366 314.04C434.072 313.187 435.491 312.141 436.622 310.904C437.752 309.645 438.36 308.28 438.446 306.808Z" fill="white"/>
<path d="M419.836 306.744C419.729 306.616 419.633 306.349 419.548 305.944C419.462 305.517 419.42 305.155 419.42 304.856C419.974 304.899 420.508 304.941 421.02 304.984C421.532 305.005 422.001 305.027 422.428 305.048C422.748 304.408 423.089 303.779 423.452 303.16C423.836 302.52 424.198 301.944 424.54 301.432C424.902 300.899 425.233 300.451 425.532 300.088C425.852 299.725 426.097 299.491 426.268 299.384C426.481 299.384 426.748 299.427 427.068 299.512C427.409 299.576 427.75 299.672 428.092 299.8C428.433 299.907 428.742 300.024 429.02 300.152C429.297 300.28 429.489 300.408 429.596 300.536C428.956 301.347 428.401 302.104 427.932 302.808C427.484 303.491 426.993 304.28 426.46 305.176C426.886 305.176 427.313 305.165 427.74 305.144C428.188 305.123 428.636 305.091 429.084 305.048C429.19 305.155 429.276 305.293 429.34 305.464C429.404 305.613 429.436 305.773 429.436 305.944C428.39 306.328 427.121 306.541 425.628 306.584C425.094 307.608 424.614 308.632 424.188 309.656C423.782 310.659 423.43 311.629 423.132 312.568C422.854 313.507 422.63 314.392 422.46 315.224C422.31 316.056 422.236 316.803 422.236 317.464C422.236 318.403 422.588 318.925 423.292 319.032C423.932 318.947 424.54 318.787 425.116 318.552C425.692 318.317 426.204 318.019 426.652 317.656C426.78 317.848 426.854 318.008 426.876 318.136C426.748 318.328 426.524 318.552 426.204 318.808C425.905 319.064 425.574 319.309 425.212 319.544C424.849 319.8 424.497 320.013 424.156 320.184C423.814 320.355 423.558 320.451 423.388 320.472C422.854 320.451 422.321 320.333 421.788 320.12C421.254 319.907 420.764 319.64 420.316 319.32C419.889 319 419.537 318.648 419.26 318.264C418.982 317.859 418.844 317.464 418.844 317.08C418.844 316.568 418.908 315.928 419.036 315.16C419.185 314.371 419.388 313.517 419.644 312.6C419.9 311.683 420.198 310.723 420.54 309.72C420.881 308.717 421.254 307.725 421.66 306.744H419.836Z" fill="white"/>
<path d="M405.851 303.48C406.405 303.651 406.928 304.035 407.419 304.632C407.909 305.208 408.272 305.848 408.507 306.552C408.272 307.128 407.909 307.821 407.419 308.632C406.928 309.443 406.437 310.275 405.947 311.128C405.456 311.96 405.008 312.76 404.603 313.528C404.219 314.275 403.995 314.893 403.931 315.384C404.272 315.021 404.645 314.605 405.051 314.136C405.477 313.645 405.883 313.165 406.267 312.696C406.672 312.205 407.045 311.768 407.387 311.384C407.728 310.979 407.995 310.68 408.187 310.488C408.592 310.061 409.072 309.571 409.627 309.016C410.181 308.44 410.757 307.907 411.355 307.416C411.973 306.904 412.592 306.477 413.211 306.136C413.829 305.773 414.395 305.592 414.907 305.592C415.461 305.592 415.92 305.784 416.283 306.168C416.667 306.531 416.965 306.915 417.179 307.32C417.179 307.363 417.093 307.427 416.923 307.512C416.773 307.576 416.549 307.779 416.251 308.12C415.952 308.504 415.611 309.037 415.227 309.72C414.864 310.381 414.501 311.107 414.139 311.896C413.797 312.664 413.509 313.453 413.275 314.264C413.04 315.075 412.923 315.811 412.923 316.472C412.923 317.005 412.987 317.347 413.115 317.496C413.264 317.645 413.467 317.72 413.723 317.72C413.957 317.72 414.203 317.667 414.459 317.56C414.715 317.453 414.917 317.4 415.067 317.4C415.152 317.443 415.216 317.539 415.259 317.688C415.323 317.816 415.355 317.933 415.355 318.04C415.184 318.189 414.981 318.339 414.747 318.488C414.512 318.637 414.267 318.776 414.011 318.904C413.755 319.032 413.499 319.139 413.243 319.224C413.008 319.309 412.795 319.352 412.603 319.352C411.984 319.352 411.472 319.256 411.067 319.064C410.683 318.893 410.373 318.659 410.139 318.36C409.925 318.061 409.776 317.709 409.691 317.304C409.605 316.877 409.563 316.429 409.563 315.96C409.563 315.704 409.584 315.416 409.627 315.096C409.669 314.776 409.755 314.403 409.883 313.976C410.011 313.528 410.192 313.005 410.427 312.408C410.661 311.789 410.96 311.053 411.323 310.2C411.28 310.2 410.992 310.349 410.459 310.648C409.925 310.947 409.349 311.405 408.731 312.024C407.728 312.984 406.821 313.933 406.011 314.872C405.221 315.811 404.411 316.856 403.579 318.008C403.109 318.669 402.693 319.224 402.331 319.672C401.989 320.141 401.691 320.451 401.435 320.6C400.987 320.344 400.656 319.981 400.443 319.512C400.229 319.064 400.069 318.595 399.963 318.104C399.963 317.699 400.016 317.187 400.123 316.568C400.251 315.949 400.411 315.267 400.603 314.52C400.816 313.752 401.072 312.952 401.371 312.12C401.669 311.288 402 310.456 402.363 309.624C403.173 307.747 403.909 306.275 404.571 305.208C405.253 304.141 405.68 303.565 405.851 303.48Z" fill="white"/>
<path d="M392.192 317.176C392.192 316.408 392.309 315.416 392.544 314.2C392.8 312.963 393.12 311.64 393.504 310.232C393.909 308.803 394.368 307.352 394.88 305.88C395.392 304.387 395.915 302.989 396.448 301.688C396.981 300.387 397.504 299.245 398.016 298.264C398.528 297.283 398.987 296.579 399.392 296.152C399.605 296.173 399.883 296.259 400.224 296.408C400.587 296.536 400.949 296.696 401.312 296.888C401.675 297.08 402.005 297.293 402.304 297.528C402.603 297.741 402.795 297.944 402.88 298.136C402.261 298.691 401.643 299.533 401.024 300.664C400.427 301.773 399.84 303.043 399.264 304.472C398.709 305.901 398.187 307.416 397.696 309.016C397.205 310.595 396.779 312.131 396.416 313.624C396.053 315.117 395.765 316.504 395.552 317.784C395.36 319.064 395.264 320.099 395.264 320.888C395.264 321.251 395.296 321.475 395.36 321.56C394.891 321.539 394.549 321.453 394.336 321.304C394.123 321.176 393.952 321.027 393.824 320.856C393.717 320.707 393.611 320.547 393.504 320.376C393.419 320.227 393.28 320.109 393.088 320.024C392.939 319.96 392.811 319.811 392.704 319.576C392.597 319.341 392.501 319.085 392.416 318.808C392.352 318.509 392.299 318.211 392.256 317.912C392.213 317.613 392.192 317.368 392.192 317.176Z" fill="white"/>
<path d="M509.938 268.84C510.205 268.84 510.511 268.893 510.858 269C511.231 269.08 511.565 269.2 511.858 269.36C512.151 269.493 512.391 269.64 512.578 269.8C512.791 269.96 512.898 270.107 512.898 270.24C512.365 271.36 511.871 272.493 511.418 273.64C510.965 274.76 510.578 275.84 510.258 276.88C509.938 277.92 509.685 278.893 509.498 279.8C509.338 280.707 509.258 281.493 509.258 282.16C509.258 282.907 509.338 283.533 509.498 284.04C509.658 284.52 509.925 284.867 510.298 285.08C509.978 285.293 509.565 285.467 509.058 285.6C508.551 285.733 508.098 285.8 507.698 285.8C506.258 285.8 505.538 284.813 505.538 282.84C505.538 281.32 506.045 279.24 507.058 276.6C506.525 277.827 505.911 278.987 505.218 280.08C504.525 281.147 503.818 282.093 503.098 282.92C502.378 283.747 501.645 284.427 500.898 284.96C500.178 285.467 499.511 285.773 498.898 285.88C497.911 285.827 497.111 285.36 496.498 284.48C495.885 283.573 495.578 282.427 495.578 281.04C495.578 279.547 495.898 277.973 496.538 276.32C497.178 274.667 497.991 273.133 498.978 271.72C499.991 270.307 501.085 269.133 502.258 268.2C503.431 267.24 504.565 266.733 505.658 266.68C505.925 266.76 506.218 266.92 506.538 267.16C506.885 267.4 507.205 267.68 507.498 268C507.818 268.32 508.085 268.653 508.298 269C508.511 269.32 508.631 269.6 508.658 269.84C507.591 270 506.485 270.52 505.338 271.4C504.218 272.28 503.191 273.347 502.258 274.6C501.351 275.827 500.605 277.147 500.018 278.56C499.431 279.973 499.138 281.293 499.138 282.52C499.138 283.027 499.325 283.347 499.698 283.48C500.471 283.32 501.365 282.667 502.378 281.52C503.391 280.347 504.618 278.547 506.058 276.12C506.325 275.64 506.618 275.107 506.938 274.52C507.285 273.933 507.631 273.32 507.978 272.68C508.325 272.04 508.658 271.4 508.978 270.76C509.325 270.093 509.645 269.453 509.938 268.84Z" fill="white"/>
<path d="M476.026 284.44C476.026 284.013 476.399 283.333 477.146 282.4C477.893 281.44 478.879 280.36 480.106 279.16C481.359 277.933 482.786 276.653 484.386 275.32C486.013 273.96 487.693 272.653 489.426 271.4C488.306 271.16 487.413 270.987 486.746 270.88C486.106 270.773 485.586 270.72 485.186 270.72C484.413 270.72 483.719 270.827 483.106 271.04C482.493 271.253 481.893 271.6 481.306 272.08C480.079 271.013 479.466 269.787 479.466 268.4C479.466 267.973 479.479 267.72 479.506 267.64C479.959 267.187 480.493 266.84 481.106 266.6C481.746 266.36 482.413 266.24 483.106 266.24C483.853 266.24 484.613 266.36 485.386 266.6C486.159 266.84 486.919 267.107 487.666 267.4C488.413 267.667 489.106 267.92 489.746 268.16C490.413 268.4 490.999 268.52 491.506 268.52C491.799 268.52 492.119 268.48 492.466 268.4C492.839 268.32 493.146 268.213 493.386 268.08C493.626 268.267 493.839 268.64 494.026 269.2C494.239 269.76 494.346 270.307 494.346 270.84C493.519 271.16 492.519 271.72 491.346 272.52C490.199 273.32 489.026 274.24 487.826 275.28C486.626 276.32 485.453 277.427 484.306 278.6C483.186 279.773 482.253 280.88 481.506 281.92C482.066 282.16 482.826 282.28 483.786 282.28C484.399 282.28 485.026 282.227 485.666 282.12C486.306 282.013 486.919 281.867 487.506 281.68C488.119 281.493 488.679 281.28 489.186 281.04C489.693 280.773 490.119 280.493 490.466 280.2C491.719 281 492.346 282.173 492.346 283.72C492.346 283.933 492.333 284.107 492.306 284.24C492.306 284.373 492.293 284.533 492.266 284.72C491.039 285.493 489.706 285.88 488.266 285.88C487.546 285.88 486.826 285.8 486.106 285.64C485.386 285.507 484.679 285.36 483.986 285.2C483.319 285.04 482.679 284.893 482.066 284.76C481.479 284.6 480.933 284.52 480.426 284.52C479.146 284.52 478.106 285.12 477.306 286.32C476.959 286.187 476.666 285.947 476.426 285.6C476.213 285.253 476.079 284.867 476.026 284.44Z" fill="white"/>
<path d="M475.614 268.44C475.507 270.093 475.214 271.52 474.734 272.72C474.254 273.893 473.561 274.933 472.654 275.84C471.774 276.72 470.694 277.52 469.414 278.24C468.134 278.96 466.641 279.653 464.934 280.32C464.934 280.48 464.921 280.653 464.894 280.84C464.894 281 464.894 281.173 464.894 281.36C464.894 281.707 464.921 282.067 464.974 282.44C465.027 282.813 465.121 283.16 465.254 283.48C465.387 283.8 465.574 284.067 465.814 284.28C466.054 284.467 466.361 284.56 466.734 284.56C467.454 284.56 468.161 284.4 468.854 284.08C469.547 283.76 470.201 283.373 470.814 282.92C471.454 282.44 472.041 281.933 472.574 281.4C473.134 280.84 473.627 280.333 474.054 279.88C474.321 280.12 474.547 280.347 474.734 280.56C473.534 282.16 472.214 283.493 470.774 284.56C469.361 285.6 468.014 286.267 466.734 286.56C464.894 286.347 463.454 285.68 462.414 284.56C461.401 283.413 460.894 282.04 460.894 280.44C460.894 279.347 461.041 278.24 461.334 277.12C461.654 275.973 462.081 274.88 462.614 273.84C463.174 272.773 463.814 271.773 464.534 270.84C465.281 269.907 466.067 269.093 466.894 268.4C467.747 267.707 468.614 267.16 469.494 266.76C470.401 266.36 471.294 266.16 472.174 266.16C473.401 266.32 474.547 267.08 475.614 268.44ZM472.854 269.76C472.134 269.867 471.387 270.16 470.614 270.64C469.841 271.12 469.107 271.76 468.414 272.56C467.747 273.36 467.134 274.293 466.574 275.36C466.014 276.427 465.574 277.573 465.254 278.8C467.387 277.733 469.161 276.427 470.574 274.88C471.987 273.307 472.747 271.6 472.854 269.76Z" fill="white"/>
<path d="M451.881 282.32C451.881 282.08 451.894 281.787 451.921 281.44C451.974 281.067 452.054 280.587 452.161 280C452.268 279.387 452.401 278.653 452.561 277.8C452.748 276.947 452.974 275.92 453.241 274.72C453.294 274.453 453.414 274.027 453.601 273.44C453.788 272.853 454.028 272.24 454.321 271.6C454.641 270.933 455.014 270.293 455.441 269.68C455.894 269.067 456.428 268.613 457.041 268.32C457.494 268.427 458.094 268.707 458.841 269.16C459.588 269.587 460.228 270.187 460.761 270.96C460.148 271.653 459.628 272.347 459.201 273.04C458.801 273.733 458.428 274.453 458.081 275.2C457.761 275.947 457.454 276.72 457.161 277.52C456.894 278.32 456.588 279.16 456.241 280.04C455.948 280.787 455.681 281.56 455.441 282.36C455.201 283.133 455.068 283.813 455.041 284.4C455.041 284.88 455.028 285.213 455.001 285.4C455.001 285.613 454.934 285.72 454.801 285.72C454.694 285.72 454.481 285.653 454.161 285.52C453.841 285.387 453.508 285.187 453.161 284.92C452.841 284.627 452.548 284.267 452.281 283.84C452.014 283.413 451.881 282.907 451.881 282.32ZM459.521 264.96C459.521 264.8 459.561 264.56 459.641 264.24C459.508 264.107 459.388 263.907 459.281 263.64C459.201 263.373 459.161 263.133 459.161 262.92C459.161 262.68 459.188 262.36 459.241 261.96C459.321 261.533 459.414 261.08 459.521 260.6C459.628 260.12 459.761 259.627 459.921 259.12C460.081 258.587 460.241 258.107 460.401 257.68C460.721 257.68 461.108 257.773 461.561 257.96C462.041 258.12 462.521 258.347 463.001 258.64C463.481 258.907 463.921 259.213 464.321 259.56C464.721 259.88 465.028 260.187 465.241 260.48C464.948 260.773 464.561 261.187 464.081 261.72C463.601 262.227 463.134 262.773 462.681 263.36C462.228 263.92 461.814 264.453 461.441 264.96C461.068 265.467 460.828 265.827 460.721 266.04C460.401 265.987 460.121 265.853 459.881 265.64C459.641 265.4 459.521 265.173 459.521 264.96Z" fill="white"/>
<path d="M428.999 298.24C428.626 298.133 428.412 297.733 428.359 297.04C428.252 296.693 428.172 296.28 428.119 295.8C428.092 295.32 428.079 294.773 428.079 294.16C428.079 293.6 428.172 292.827 428.359 291.84C428.546 290.88 428.799 289.787 429.119 288.56C429.466 287.333 429.879 286.013 430.359 284.6C430.839 283.16 431.372 281.707 431.959 280.24C432.679 278.4 433.306 276.813 433.839 275.48C434.372 274.12 434.812 272.947 435.159 271.96C435.532 270.973 435.826 270.16 436.039 269.52C436.279 268.88 436.466 268.333 436.599 267.88C436.706 267.56 436.866 267.173 437.079 266.72C437.292 266.267 437.532 265.813 437.799 265.36C438.092 264.88 438.386 264.44 438.679 264.04C438.972 263.613 439.239 263.293 439.479 263.08C440.412 263.213 441.292 263.453 442.119 263.8C442.946 264.147 443.452 264.48 443.639 264.8C443.266 265.147 442.839 265.693 442.359 266.44C441.879 267.16 441.412 267.96 440.959 268.84C440.506 269.693 440.092 270.573 439.719 271.48C439.346 272.387 439.066 273.187 438.879 273.88C439.146 273.427 439.492 272.933 439.919 272.4C440.346 271.867 440.999 271.133 441.879 270.2C442.866 269.187 443.786 268.413 444.639 267.88C445.519 267.32 446.279 267.04 446.919 267.04C447.932 267.04 448.759 267.32 449.399 267.88C450.066 268.44 450.399 269.16 450.399 270.04C450.399 271.96 450.079 273.867 449.439 275.76C448.799 277.627 447.879 279.32 446.679 280.84C446.226 281.427 445.692 281.987 445.079 282.52C444.466 283.053 443.826 283.533 443.159 283.96C442.492 284.36 441.839 284.68 441.199 284.92C440.559 285.16 439.986 285.28 439.479 285.28C438.999 285.28 438.572 285.187 438.199 285C437.852 284.787 437.612 284.533 437.479 284.24C438.519 283.627 439.532 282.773 440.519 281.68C441.506 280.587 442.412 279.333 443.239 277.92C444.092 276.48 444.826 274.933 445.439 273.28C446.079 271.627 446.559 269.947 446.879 268.24C445.866 268.773 444.946 269.36 444.119 270C443.319 270.613 442.519 271.427 441.719 272.44C440.759 273.613 439.999 274.56 439.439 275.28C438.879 276 438.412 276.613 438.039 277.12C437.692 277.627 437.399 278.107 437.159 278.56C436.946 278.987 436.706 279.52 436.439 280.16C436.066 281.013 435.626 282.147 435.119 283.56C434.639 284.947 434.132 286.507 433.599 288.24C433.092 289.973 432.572 291.813 432.039 293.76C431.532 295.733 431.039 297.693 430.559 299.64C430.266 299.587 430.012 299.373 429.799 299C429.586 298.76 429.426 298.587 429.319 298.48C429.239 298.373 429.132 298.293 428.999 298.24Z" fill="white"/>
<path d="M424.453 272.72C424.027 272.747 423.507 273.027 422.893 273.56C422.28 274.067 421.613 274.733 420.893 275.56C420.2 276.36 419.467 277.253 418.693 278.24C417.947 279.227 417.213 280.213 416.493 281.2C415.8 282.16 415.147 283.067 414.533 283.92C413.92 284.773 413.4 285.453 412.973 285.96C412.387 285.72 411.88 285.373 411.453 284.92C411.027 284.44 410.72 283.853 410.533 283.16C410.667 282.333 410.853 281.48 411.093 280.6C411.333 279.693 411.64 278.76 412.013 277.8C412.413 276.84 412.893 275.84 413.453 274.8C414.04 273.733 414.747 272.613 415.573 271.44C415.173 271.467 414.627 271.76 413.933 272.32C413.24 272.853 412.493 273.56 411.693 274.44C410.893 275.293 410.067 276.267 409.213 277.36C408.36 278.427 407.56 279.48 406.813 280.52C405.827 281.907 405 283.12 404.333 284.16C403.693 285.2 403.227 285.813 402.933 286C402.24 285.493 401.76 284.947 401.493 284.36C401.227 283.773 401.027 283.12 400.893 282.4C400.92 281.76 401.013 280.96 401.173 280C401.36 279.04 401.613 278.053 401.933 277.04C402.547 275.093 403.333 273.16 404.293 271.24C405.28 269.32 406.227 267.56 407.133 265.96C407.88 266.12 408.547 266.373 409.133 266.72C409.747 267.067 410.387 267.573 411.053 268.24C410.787 269.067 410.373 269.947 409.813 270.88C409.253 271.787 408.667 272.747 408.053 273.76C407.44 274.773 406.88 275.813 406.373 276.88C405.867 277.947 405.533 279.027 405.373 280.12C406.12 279.053 407 277.827 408.013 276.44C409.053 275.053 410.107 273.747 411.173 272.52C412.267 271.293 413.347 270.253 414.413 269.4C415.48 268.547 416.44 268.12 417.293 268.12C417.613 268.12 417.96 268.173 418.333 268.28C418.707 268.387 419.053 268.52 419.373 268.68C419.693 268.84 419.96 269 420.173 269.16C420.387 269.293 420.507 269.4 420.533 269.48C420.4 270.013 420.08 270.747 419.573 271.68C419.093 272.587 418.573 273.547 418.013 274.56C417.453 275.573 416.933 276.56 416.453 277.52C415.973 278.453 415.693 279.2 415.613 279.76C416.92 277.973 418.147 276.36 419.293 274.92C420.44 273.453 421.52 272.2 422.533 271.16C423.547 270.12 424.48 269.32 425.333 268.76C426.213 268.2 427.04 267.92 427.813 267.92C428.347 267.92 428.84 268.067 429.293 268.36C429.773 268.627 430.107 269.027 430.293 269.56C430.053 270.36 429.653 271.32 429.093 272.44C428.56 273.56 428.013 274.747 427.453 276C426.893 277.227 426.387 278.44 425.933 279.64C425.507 280.84 425.293 281.92 425.293 282.88C425.293 283.44 425.373 283.813 425.533 284C425.693 284.16 425.92 284.24 426.213 284.24C426.533 284.24 426.827 284.187 427.093 284.08C427.387 283.947 427.6 283.88 427.733 283.88C427.893 283.987 427.987 284.12 428.013 284.28C428.04 284.44 428.053 284.587 428.053 284.72C427.52 285.147 426.973 285.493 426.413 285.76C425.853 286.053 425.227 286.2 424.533 286.2C423.893 286.2 423.36 286.093 422.933 285.88C422.533 285.667 422.2 285.373 421.933 285C421.667 284.627 421.48 284.2 421.373 283.72C421.267 283.24 421.213 282.72 421.213 282.16C421.213 281.253 421.333 280.36 421.573 279.48C421.813 278.573 422.093 277.72 422.413 276.92C422.76 276.093 423.12 275.333 423.493 274.64C423.867 273.92 424.187 273.28 424.453 272.72Z" fill="white"/>
<path d="M391.92 282.32C391.92 282.08 391.933 281.787 391.96 281.44C392.013 281.067 392.093 280.587 392.2 280C392.307 279.387 392.44 278.653 392.6 277.8C392.787 276.947 393.013 275.92 393.28 274.72C393.333 274.453 393.453 274.027 393.64 273.44C393.827 272.853 394.067 272.24 394.36 271.6C394.68 270.933 395.053 270.293 395.48 269.68C395.933 269.067 396.467 268.613 397.08 268.32C397.533 268.427 398.133 268.707 398.88 269.16C399.627 269.587 400.267 270.187 400.8 270.96C400.187 271.653 399.667 272.347 399.24 273.04C398.84 273.733 398.467 274.453 398.12 275.2C397.8 275.947 397.493 276.72 397.2 277.52C396.933 278.32 396.627 279.16 396.28 280.04C395.987 280.787 395.72 281.56 395.48 282.36C395.24 283.133 395.107 283.813 395.08 284.4C395.08 284.88 395.067 285.213 395.04 285.4C395.04 285.613 394.973 285.72 394.84 285.72C394.733 285.72 394.52 285.653 394.2 285.52C393.88 285.387 393.547 285.187 393.2 284.92C392.88 284.627 392.587 284.267 392.32 283.84C392.053 283.413 391.92 282.907 391.92 282.32ZM399.56 264.96C399.56 264.8 399.6 264.56 399.68 264.24C399.547 264.107 399.427 263.907 399.32 263.64C399.24 263.373 399.2 263.133 399.2 262.92C399.2 262.68 399.227 262.36 399.28 261.96C399.36 261.533 399.453 261.08 399.56 260.6C399.667 260.12 399.8 259.627 399.96 259.12C400.12 258.587 400.28 258.107 400.44 257.68C400.76 257.68 401.147 257.773 401.6 257.96C402.08 258.12 402.56 258.347 403.04 258.64C403.52 258.907 403.96 259.213 404.36 259.56C404.76 259.88 405.067 260.187 405.28 260.48C404.987 260.773 404.6 261.187 404.12 261.72C403.64 262.227 403.173 262.773 402.72 263.36C402.267 263.92 401.853 264.453 401.48 264.96C401.107 265.467 400.867 265.827 400.76 266.04C400.44 265.987 400.16 265.853 399.92 265.64C399.68 265.4 399.56 265.173 399.56 264.96Z" fill="white"/>
<path d="M373.808 218.699C383.425 218.699 388.234 225.912 388.234 240.338C388.234 249.537 385.725 260.147 380.707 272.168C373.39 289.625 363.459 303.058 350.915 312.466C346.107 316.02 341.194 318.738 336.176 320.619C331.158 333.581 324.834 343.042 317.203 349C327.656 356.735 335.235 361.753 339.939 364.053C344.643 366.457 349.19 367.659 353.581 367.659C361.212 367.659 366.229 364.994 368.634 359.662C369.365 357.99 369.731 356.422 369.731 354.958C369.731 353.495 369.313 352.241 368.477 351.195C367.745 350.254 366.856 349.784 365.811 349.784C366.125 348.53 366.909 347.902 368.163 347.902C371.717 347.902 374.069 349.889 375.219 353.861C375.637 355.22 375.846 356.526 375.846 357.781C375.846 360.917 374.644 363.844 372.24 366.562C368.895 370.534 363.93 372.52 357.344 372.52C349.086 372.52 341.141 370.116 333.51 365.307C329.224 362.694 326.088 360.655 324.102 359.192C322.221 357.729 318.823 355.115 313.91 351.352C307.429 355.429 300.269 357.467 292.429 357.467C280.826 357.467 273.299 354.54 269.85 348.686C268.909 346.909 268.438 345.08 268.438 343.198C268.438 341.212 269.275 339.174 270.947 337.083C273.56 333.843 277.324 332.222 282.237 332.222C290.077 332.222 299.851 336.456 311.558 344.923C316.262 340.115 320.496 332.954 324.259 323.442C323.214 323.546 321.698 323.598 319.712 323.598C302.673 323.598 290.181 316.804 282.237 303.214C277.428 294.852 275.024 285.601 275.024 275.461C275.024 272.011 275.285 268.509 275.808 264.955C277.69 251.679 282.603 241.54 290.547 234.536C295.983 229.937 302.15 227.637 309.05 227.637C315.949 227.637 321.28 229.884 325.043 234.379C328.806 238.874 330.792 244.414 331.002 251C331.002 251.941 330.479 252.725 329.434 253.352C328.388 253.875 327.343 254.031 326.298 253.822C325.252 253.509 324.73 252.829 324.73 251.784C324.52 245.512 323.266 240.547 320.966 236.888C318.667 233.125 314.538 231.243 308.579 231.243C299.171 231.243 291.592 236.418 285.843 246.766C281.244 254.92 278.944 263.91 278.944 273.736C278.944 291.716 284.746 304.73 296.349 312.779C302.725 317.274 310.461 319.522 319.555 319.522C321.646 319.522 323.789 319.365 325.984 319.051C328.388 312.57 330.949 304.103 333.667 293.65C336.385 283.092 338.789 273.945 340.88 266.21C343.075 258.37 345.636 250.582 348.563 242.846C354.626 226.748 363.041 218.699 373.808 218.699ZM372.083 223.246C364.766 223.246 359.173 230.302 355.306 244.414C353.424 251.209 351.751 258.213 350.288 265.426C346.002 287.482 342.03 303.946 338.371 314.818C351.229 308.232 361.734 295.897 369.888 277.813C376.474 263.387 379.714 250.111 379.61 237.986C379.296 228.369 376.787 223.455 372.083 223.246ZM308.736 347.589C298.492 339.958 289.659 336.142 282.237 336.142C277.533 336.142 274.554 337.815 273.299 341.16C271.94 344.401 273.351 347.484 277.533 350.411C280.669 352.606 285.425 353.704 291.802 353.704C298.178 353.704 303.823 351.666 308.736 347.589Z" fill="white"/>
<path d="M578.999 353.818H566.817V366H591.18C591.18 362.769 589.897 359.671 587.612 357.386C585.328 355.102 582.229 353.818 578.999 353.818Z" stroke="white" stroke-width="3" stroke-linecap="round" stroke-linejoin="round"/>
<path d="M524.182 366C517.454 366 512 360.546 512 353.818C512 347.091 517.454 341.637 524.182 341.637C530.909 341.637 536.363 347.091 536.363 353.818C536.363 360.546 530.909 366 524.182 366Z" stroke="white" stroke-width="3" stroke-linecap="round" stroke-linejoin="round"/>
<path d="M512 335.546V323.364H536.363C541.209 323.364 545.857 325.29 549.284 328.716C552.71 332.143 554.635 336.791 554.635 341.637V359.909H548.545" stroke="white" stroke-width="3" stroke-linecap="round" stroke-linejoin="round"/>
<path d="M536.363 323.364V308.137C536.363 305.714 537.326 303.391 539.039 301.677C540.753 299.964 543.076 299.001 545.499 299.001C547.303 298.971 549.075 299.475 550.593 300.451C552.11 301.427 553.305 302.829 554.027 304.483L575.953 353.818" stroke="white" stroke-width="3" stroke-linecap="round" stroke-linejoin="round"/>
</svg>
