<svg width="60" height="60" viewBox="0 0 60 60" fill="none" xmlns="http://www.w3.org/2000/svg">
<g clip-path="url(#clip0_8_2)">
<path d="M17.4 0H42.6C52.2 0 60 7.8 60 17.4V42.6C60 47.2148 58.1668 51.6405 54.9037 54.9037C51.6405 58.1668 47.2148 60 42.6 60H17.4C7.8 60 0 52.2 0 42.6V17.4C0 12.7852 1.83321 8.35948 5.09634 5.09634C8.35948 1.83321 12.7852 0 17.4 0ZM16.8 6C13.9357 6 11.1886 7.13785 9.16325 9.16325C7.13785 11.1886 6 13.9357 6 16.8V43.2C6 49.17 10.83 54 16.8 54H43.2C46.0643 54 48.8114 52.8621 50.8368 50.8368C52.8621 48.8114 54 46.0643 54 43.2V16.8C54 10.83 49.17 6 43.2 6H16.8ZM45.75 10.5C46.7446 10.5 47.6984 10.8951 48.4017 11.5983C49.1049 12.3016 49.5 13.2554 49.5 14.25C49.5 15.2446 49.1049 16.1984 48.4017 16.9017C47.6984 17.6049 46.7446 18 45.75 18C44.7554 18 43.8016 17.6049 43.0983 16.9017C42.3951 16.1984 42 15.2446 42 14.25C42 13.2554 42.3951 12.3016 43.0983 11.5983C43.8016 10.8951 44.7554 10.5 45.75 10.5ZM30 15C33.9782 15 37.7936 16.5804 40.6066 19.3934C43.4196 22.2064 45 26.0218 45 30C45 33.9782 43.4196 37.7936 40.6066 40.6066C37.7936 43.4196 33.9782 45 30 45C26.0218 45 22.2064 43.4196 19.3934 40.6066C16.5804 37.7936 15 33.9782 15 30C15 26.0218 16.5804 22.2064 19.3934 19.3934C22.2064 16.5804 26.0218 15 30 15ZM30 21C27.6131 21 25.3239 21.9482 23.636 23.636C21.9482 25.3239 21 27.6131 21 30C21 32.3869 21.9482 34.6761 23.636 36.364C25.3239 38.0518 27.6131 39 30 39C32.3869 39 34.6761 38.0518 36.364 36.364C38.0518 34.6761 39 32.3869 39 30C39 27.6131 38.0518 25.3239 36.364 23.636C34.6761 21.9482 32.3869 21 30 21Z" fill="#3977BC"/>
</g>
<defs>
<clipPath id="clip0_8_2">
<rect width="60" height="60" fill="white"/>
</clipPath>
</defs>
</svg>
