<svg width="2035" height="1179" viewBox="0 0 2035 1179" fill="none" xmlns="http://www.w3.org/2000/svg">
<path fill-rule="evenodd" clip-rule="evenodd" d="M2034.67 1178.5C2034.67 1178.5 1897.17 963 1897.17 827.5C1897.17 692 1971.33 627.5 1971.33 489.5C1971.33 386 1862.67 316.5 1746.67 384C1682.89 421.112 1587.17 667.5 1449.67 611.5C1335.17 539.5 1330.17 281.5 1188.67 237C1047.17 192.5 930.166 350.5 810.167 384C701.329 414.384 671.133 177.5 529.167 177.5C429.167 177.5 372.279 316.5 198 316.5C108.167 316.5 38.1666 264.5 38.1666 177.5C38.1666 114.5 38.1666 11.5 0.666626 0L198 0C261.333 0 388.001 0 514.667 0C641.333 0 768.001 0 894.667 0C1021.33 0 1148 0 1274.67 0C1401.33 0 1528 0 1654.67 0C1781.33 0 1908 0 1971.33 0L2034.67 0L2034.67 1178.5Z" fill="url(#paint0_linear_2_12)"/>
<defs>
<linearGradient id="paint0_linear_2_12" x1="2330" y1="-167" x2="2330" y2="1240" gradientUnits="userSpaceOnUse">
<stop stop-color="#2B427E"/>
<stop offset="1" stop-color="#3977BC"/>
</linearGradient>
</defs>
</svg>
