<svg width="982" height="173" viewBox="0 0 982 173" fill="none" xmlns="http://www.w3.org/2000/svg">
<g clip-path="url(#clip0_6_42)">
<path d="M510.423 167.81C504.65 139.381 472.097 136.709 448.26 137.556C410.496 138.897 365.632 155.953 332.731 129.457C331.004 128.066 328.981 130.135 330.327 131.863C343.784 149.128 365.316 161.466 387.591 160.467C389.814 160.366 389.823 156.904 387.591 157C366.177 157.919 345.7 145.987 332.731 129.457C331.929 130.26 331.129 131.059 330.327 131.863C357.316 153.453 393.63 147.43 425.203 142.261C453.451 137.638 499.691 133.292 510.216 167.867C510.257 167.999 510.45 167.946 510.423 167.81Z" fill="black"/>
<path d="M458.86 154.883C434.671 129.027 401.962 126.942 368.841 132.667C339.42 137.757 296.215 164.341 268.928 141.761C267.483 140.568 265.399 142.63 266.858 143.837C288.901 162.079 322.213 148.872 345.936 141.301C384.45 129.007 427.296 124.743 458.747 154.995C458.822 155.068 458.931 154.956 458.86 154.883Z" fill="black"/>
<path d="M264.179 160.327C284.093 136.176 318.084 150.184 342.075 160.018C369.964 171.454 401.626 181.308 428.481 162.276C430.013 161.192 428.538 158.641 427.004 159.742C394.126 183.341 357.598 161.807 324.648 150.523C306.052 144.157 274.838 138.059 264.011 160.198C263.961 160.3 264.097 160.425 264.179 160.327Z" fill="black"/>
<path d="M510.787 167.868C521.041 134.186 563.558 138.333 591.233 141.593C624.775 145.542 661.65 155.084 690.676 131.864C689.873 131.06 689.073 130.261 688.271 129.458C675.303 145.988 654.825 157.92 633.413 157.001C631.179 156.905 631.191 160.367 633.413 160.467C655.686 161.464 677.219 149.129 690.676 131.864C692.023 130.136 689.998 128.067 688.271 129.458C656.271 155.227 612.047 139.835 575.217 137.673C550.937 136.246 516.505 138.633 510.58 167.811C510.553 167.945 510.746 168 510.787 167.868Z" fill="black"/>
<path d="M562.256 154.995C592.781 125.633 634.593 128.578 672.305 140.424C696.723 148.093 731.335 162.713 754.147 143.839C755.601 142.63 753.517 140.568 752.074 141.763C725.86 163.453 683.823 139.384 655.691 133.329C621.984 126.079 586.833 128.487 562.142 154.883C562.072 154.956 562.181 155.067 562.256 154.995Z" fill="black"/>
<path d="M756.989 160.198C746.064 137.855 715.075 144.453 696.354 150.524C663.061 161.318 627.24 183.601 594.001 159.743C592.464 158.639 590.989 161.193 592.521 162.277C618.41 180.621 648.551 172.056 675.724 161.312C700.545 151.501 735.932 134.991 756.823 160.328C756.905 160.426 757.039 160.301 756.989 160.198Z" fill="black"/>
<path d="M974.595 31.3184H974.8C975.414 31.3867 975.892 31.6598 976.234 32.1376C976.575 32.6155 976.746 33.1275 976.746 33.6736C976.746 34.1515 976.268 35.2096 975.312 36.848C974.425 38.4864 973.981 39.8176 973.981 40.8416C973.981 41.7974 974.117 42.719 974.39 43.6064C974.663 44.4256 975.517 46.4736 976.95 49.7504C980.091 56.9184 981.661 63.3355 981.661 69.0016C981.661 74.5995 980.125 79.2416 977.053 82.928C974.049 86.6144 970.431 88.4576 966.198 88.4576C962.034 88.4576 959.952 85.9317 959.952 80.88C959.952 75.76 961.761 70.2987 965.379 64.496C967.495 61.151 969.782 58.6251 972.24 56.9184C972.923 56.4405 973.366 56.543 973.571 57.2256C973.844 57.9083 973.708 58.4544 973.162 58.864C969.202 61.7312 966.13 66.271 963.946 72.4832C961.966 78.0811 961.761 81.9723 963.331 84.1568C963.877 84.976 964.662 85.3856 965.686 85.3856C968.69 85.3856 971.045 83.3718 972.752 79.344C974.459 75.3163 975.312 70.2987 975.312 64.2912C975.312 59.103 974.698 54.2901 973.469 49.8528C972.24 45.4155 971.557 42.8555 971.421 42.1728C969.373 46.064 967.154 50.4331 964.765 55.28H962C965.891 47.5659 968.895 41.7632 971.011 37.872C971.284 33.503 972.479 31.3184 974.595 31.3184Z" fill="black"/>
<path d="M917.617 86.1024C912.224 86.1024 909.528 82.0406 909.528 73.9168C909.528 69.2064 910.756 64.0523 913.214 58.4544C916.627 50.8768 920.962 45.9275 926.219 43.6064C928.062 42.8555 929.905 42.48 931.748 42.48C933.66 42.48 935.162 43.0262 936.254 44.1184C937.346 45.2107 937.892 46.4395 937.892 47.8048C937.892 48.4192 937.551 48.7264 936.868 48.7264C936.254 48.6582 935.947 48.3168 935.947 47.7024C935.947 47.088 935.605 46.5419 934.923 46.064C934.308 45.5179 933.387 45.2448 932.158 45.2448C927.857 45.2448 923.966 49.1019 920.484 56.816C917.208 63.984 915.569 70.7766 915.569 77.1936C915.569 81.1531 916.423 83.1328 918.129 83.1328C919.904 83.1328 922.02 81.6651 924.478 78.7296C927.004 75.7259 929.325 72.2443 931.441 68.2848C936.015 59.9563 938.712 54.5974 939.531 52.208C940.35 49.8187 941.237 48.624 942.193 48.624C943.9 48.624 944.753 50.0576 944.753 52.9248C944.753 53.8123 944.651 54.8363 944.446 55.9968C942.193 66.9195 940.964 73.2342 940.76 74.9408C940.623 76.6475 940.555 77.8763 940.555 78.6272C940.555 81.904 941.34 83.5424 942.91 83.5424C944.685 83.5424 947.177 81.1872 950.385 76.4768C953.594 71.7664 956.359 67.056 958.68 62.3456L962.161 55.28H964.926C964.516 56.0992 963.97 57.2256 963.288 58.6592C962.673 60.0246 961.41 62.5163 959.499 66.1344C957.587 69.6843 955.744 72.8246 953.969 75.5552C952.263 78.2859 950.317 80.7776 948.132 83.0304C946.016 85.215 944.173 86.3072 942.603 86.3072C937.551 86.3072 935.025 82.6208 935.025 75.248C935.025 72.7904 935.298 69.9232 935.844 66.6464H935.128C928.164 79.6171 922.328 86.1024 917.617 86.1024Z" fill="black"/>
<path d="M850.089 86C848.178 86 847.222 84.5323 847.222 81.5968C847.222 80.0267 849.133 68.592 852.956 47.2928C853.161 45.8592 853.775 45.1424 854.799 45.1424C856.028 45.1424 856.95 46.0299 857.564 47.8048C857.906 48.7606 858.076 49.8187 858.076 50.9792C858.076 52.0715 857.94 53.2662 857.667 54.5632L856.131 62.3456H856.745C862.752 48.8288 868.555 42.0704 874.153 42.0704C876.064 42.0704 877.566 42.7531 878.659 44.1184C879.819 45.4838 880.399 47.1222 880.399 49.0336C880.399 52.5835 879.853 57.0208 878.761 62.3456H879.171C884.973 49.7163 890.674 43.4016 896.271 43.4016C898.115 43.4016 899.616 44.0843 900.777 45.4496C901.938 46.815 902.518 48.624 902.518 50.8768C902.518 53.1296 901.63 57.9083 899.855 65.2128C898.149 72.5174 897.295 77.6715 897.295 80.6752C897.295 85.1126 898.115 87.3312 899.753 87.3312C899.753 87.8091 899.446 88.287 898.831 88.7648C898.217 89.2427 897.5 89.4816 896.681 89.4816C892.722 89.4816 890.742 86.3755 890.742 80.1632C890.742 76.272 891.732 70.6742 893.711 63.3696C895.691 55.9968 896.681 51.2864 896.681 49.2384C896.681 47.1222 895.998 46.064 894.633 46.064C892.107 46.064 889.138 49.136 885.724 55.28C882.379 61.3558 879.683 67.1926 877.635 72.7904C875.655 78.3883 874.494 82.0064 874.153 83.6448C873.812 85.215 873.197 86 872.31 86C870.398 86 869.443 84.5323 869.443 81.5968C869.443 80.5046 870.023 76.6475 871.183 70.0256C873.436 57.8742 874.563 50.6379 874.563 48.3168C874.563 45.9275 873.88 44.7328 872.515 44.7328C870.671 44.7328 868.521 46.6443 866.063 50.4672C863.606 54.2219 861.387 58.591 859.407 63.5744C855.107 74.0875 852.581 80.88 851.83 83.952C851.557 85.3174 850.976 86 850.089 86Z" fill="black"/>
<path d="M813.73 72.4832C813.73 79.6512 815.642 83.2352 819.465 83.2352C822.059 83.2352 824.482 81.631 826.735 78.4224C831.036 72.415 833.664 64.496 834.62 54.6656C832.23 53.6416 830.558 51.9691 829.602 49.648C828.988 48.2144 828.681 47.0198 828.681 46.064C828.681 45.04 828.817 44.1526 829.09 43.4016C829.705 41.5584 830.831 40.6368 832.469 40.6368C834.108 40.6368 835.337 41.695 836.156 43.8112C837.043 45.8592 837.487 48.4875 837.487 51.696C837.487 51.9008 837.487 52.1398 837.487 52.4128C838.306 52.6859 839.501 52.8224 841.071 52.8224C842.709 52.8224 844.143 52.1739 845.372 50.8768C846.601 49.5798 847.215 48.3851 847.215 47.2928C847.215 47.0198 847.386 46.8491 847.727 46.7808C848.068 46.6443 848.376 46.6443 848.649 46.7808C848.99 46.9174 849.161 47.1222 849.161 47.3952C849.161 49.375 848.307 51.2523 846.601 53.0272C844.962 54.8022 842.744 55.6896 839.945 55.6896C839.262 55.6896 838.374 55.6214 837.282 55.4848C836.873 60.127 835.883 64.735 834.313 69.3088C832.811 73.8144 830.694 77.7398 827.964 81.0848C825.233 84.3616 822.298 86 819.157 86C813.218 86 809.566 82.8256 808.201 76.4768C807.859 74.6336 807.689 72.7563 807.689 70.8448C807.689 66.544 808.678 61.936 810.658 57.0208C813.252 50.6038 816.461 46.6102 820.284 45.04C822.264 44.3574 823.629 44.255 824.38 44.7328C825.131 45.2107 825.609 45.7568 825.813 46.3712C822.673 46.3712 819.874 49.3067 817.417 55.1776C814.959 61.0486 813.73 66.8171 813.73 72.4832Z" fill="black"/>
<path d="M801.956 0.90564C808.237 0.90564 811.377 5.61604 811.377 15.0368C811.377 21.0443 809.739 27.9734 806.462 35.824C801.683 47.2246 795.198 55.9968 787.006 62.1408C783.866 64.4619 780.657 66.2368 777.38 67.4656C774.103 75.9307 769.973 82.1088 764.99 86C771.817 91.0518 776.766 94.3286 779.838 95.8304C782.91 97.4006 785.879 98.1856 788.747 98.1856C793.73 98.1856 797.007 96.4448 798.577 92.9632C799.055 91.871 799.294 90.847 799.294 89.8912C799.294 88.9355 799.021 88.1163 798.475 87.4336C797.997 86.8192 797.417 86.512 796.734 86.512C796.939 85.6928 797.451 85.2832 798.27 85.2832C800.591 85.2832 802.127 86.5803 802.878 89.1744C803.151 90.0619 803.287 90.9152 803.287 91.7344C803.287 93.7824 802.502 95.6939 800.932 97.4688C798.748 100.063 795.505 101.36 791.204 101.36C785.811 101.36 780.623 99.7899 775.639 96.6496C772.841 94.943 770.793 93.6118 769.495 92.656C768.267 91.7003 766.048 89.9936 762.839 87.536C758.607 90.1984 753.931 91.5296 748.811 91.5296C741.233 91.5296 736.318 89.6182 734.065 85.7952C733.451 84.6347 733.143 83.44 733.143 82.2112C733.143 80.9142 733.69 79.583 734.782 78.2176C736.489 76.1014 738.946 75.0432 742.155 75.0432C747.275 75.0432 753.658 77.808 761.303 83.3376C764.375 80.1974 767.14 75.5211 769.598 69.3088C768.915 69.3771 767.925 69.4112 766.628 69.4112C755.501 69.4112 747.343 64.9739 742.155 56.0992C739.014 50.6379 737.444 44.5963 737.444 37.9744C737.444 35.7216 737.615 33.4347 737.956 31.1136C739.185 22.4438 742.394 15.8219 747.582 11.248C751.132 8.24431 755.159 6.74244 759.665 6.74244C764.171 6.74244 767.652 8.21017 770.11 11.1456C772.567 14.0811 773.865 17.6992 774.001 22C774.001 22.6144 773.66 23.1264 772.977 23.536C772.294 23.8774 771.612 23.9798 770.929 23.8432C770.246 23.6384 769.905 23.1947 769.905 22.512C769.769 18.416 768.949 15.1734 767.447 12.784C765.946 10.3264 763.249 9.09764 759.358 9.09764C753.214 9.09764 748.265 12.4768 744.51 19.2352C741.506 24.56 740.004 30.431 740.004 36.848C740.004 48.5899 743.793 57.0891 751.371 62.3456C755.535 65.2811 760.587 66.7488 766.526 66.7488C767.891 66.7488 769.291 66.6464 770.724 66.4416C772.294 62.2091 773.967 56.6795 775.742 49.8528C777.517 42.9579 779.087 36.9846 780.452 31.9328C781.886 26.8128 783.558 21.727 785.47 16.6752C789.429 6.16217 794.925 0.90564 801.956 0.90564ZM800.83 3.87524C796.051 3.87524 792.399 8.48324 789.873 17.6992C788.644 22.1366 787.552 26.7104 786.596 31.4208C783.797 45.8251 781.203 56.5771 778.814 63.6768C787.211 59.376 794.071 51.3206 799.396 39.5104C803.697 30.0896 805.813 21.4198 805.745 13.5008C805.54 7.22031 803.902 4.01177 800.83 3.87524ZM759.46 85.0784C752.77 80.095 747.002 77.6032 742.155 77.6032C739.083 77.6032 737.137 78.6955 736.318 80.88C735.43 82.9963 736.352 85.0102 739.083 86.9216C741.131 88.3552 744.237 89.072 748.401 89.072C752.565 89.072 756.252 87.7408 759.46 85.0784Z" fill="black"/>
<path d="M704.051 21.7953C706.508 15.3782 707.737 11.0091 707.737 8.68807C707.737 6.36701 707.157 5.13821 705.996 5.00167C702.788 5.00167 699.443 10.1558 695.961 20.4641C692.548 30.7041 689.851 41.3537 687.871 52.4129C685.96 63.4038 685.004 71.1862 685.004 75.7601C685.004 83.4742 686.916 87.3313 690.739 87.3313C690.739 87.8091 690.431 88.287 689.817 88.7649C689.203 89.2427 688.486 89.4817 687.667 89.4817C682.069 89.4817 679.27 84.4641 679.27 74.4289C679.27 70.7425 679.952 65.1105 681.318 57.5329C682.683 49.887 684.458 41.8998 686.643 33.5713C688.827 25.2427 691.66 18.0065 695.142 11.8625C698.623 5.6502 702.173 2.54407 705.791 2.54407C708.659 2.54407 710.092 4.35313 710.092 7.97127C710.092 10.7019 709.239 14.5249 707.532 19.4401C704.255 28.9974 699.545 38.5547 693.401 48.1121C691.763 50.6379 690.295 52.6859 688.998 54.2561C688.656 54.6657 688.486 54.5291 688.486 53.8465C688.418 52.5494 688.725 51.423 689.407 50.4673C695.005 42.0705 699.886 32.5131 704.051 21.7953Z" fill="black"/>
<path d="M637.242 86.1024C631.849 86.1024 629.153 82.0406 629.153 73.9168C629.153 69.2064 630.381 64.0523 632.839 58.4544C636.252 50.8768 640.587 45.9275 645.844 43.6064C647.687 42.8555 649.53 42.48 651.373 42.48C653.285 42.48 654.787 43.0262 655.879 44.1184C656.971 45.2107 657.517 46.4395 657.517 47.8048C657.517 48.4192 657.176 48.7264 656.493 48.7264C655.879 48.6582 655.572 48.3168 655.572 47.7024C655.572 47.088 655.23 46.5419 654.548 46.064C653.933 45.5179 653.012 45.2448 651.783 45.2448C647.482 45.2448 643.591 49.1019 640.109 56.816C636.833 63.984 635.194 70.7766 635.194 77.1936C635.194 81.1531 636.048 83.1328 637.754 83.1328C639.529 83.1328 641.645 81.6651 644.103 78.7296C646.629 75.7259 648.95 72.2443 651.066 68.2848C655.64 59.9563 658.337 54.5974 659.156 52.208C659.975 49.8187 660.862 48.624 661.818 48.624C663.525 48.624 664.378 50.0576 664.378 52.9248C664.378 53.8123 664.276 54.8363 664.071 55.9968C661.818 66.9195 660.589 73.2342 660.385 74.9408C660.248 76.6475 660.18 77.8763 660.18 78.6272C660.18 81.904 660.965 83.5424 662.535 83.5424C664.31 83.5424 666.802 81.1872 670.01 76.4768C673.219 71.7664 675.984 67.056 678.305 62.3456L681.786 55.28H684.551C684.141 56.0992 683.595 57.2256 682.913 58.6592C682.298 60.0246 681.035 62.5163 679.124 66.1344C677.212 69.6843 675.369 72.8246 673.594 75.5552C671.888 78.2859 669.942 80.7776 667.757 83.0304C665.641 85.215 663.798 86.3072 662.228 86.3072C657.176 86.3072 654.65 82.6208 654.65 75.248C654.65 72.7904 654.923 69.9232 655.469 66.6464H654.753C647.789 79.6171 641.953 86.1024 637.242 86.1024Z" fill="black"/>
<path d="M599.941 86C598.03 86 597.074 84.5323 597.074 81.5968C597.074 80.0267 598.986 68.592 602.809 47.2928C603.082 45.8592 603.696 45.1424 604.652 45.1424C605.881 45.1424 606.802 46.0299 607.417 47.8048C607.758 48.7606 607.929 49.8187 607.929 50.9792C607.929 52.0715 607.792 53.2662 607.519 54.5632L605.881 62.96H606.393C612.264 49.3067 617.657 42.48 622.572 42.48C625.302 42.48 627.112 43.8112 627.999 46.4736C628.34 47.4976 628.511 48.6923 628.511 50.0576C628.511 51.3547 628.136 52.7883 627.385 54.3584C626.088 57.0208 624.142 58.352 621.548 58.352C621.002 58.352 620.558 58.2155 620.217 57.9424C619.944 57.6694 619.773 57.2939 619.705 56.816C620.251 56.816 620.968 55.8262 621.855 53.8464C622.742 51.7984 623.254 49.9211 623.391 48.2144C623.528 46.5078 622.947 45.5179 621.65 45.2448C619.261 45.2448 616.428 48.351 613.151 54.5632C609.874 60.7755 607.246 66.7147 605.266 72.3808C603.286 78.047 602.126 81.7334 601.785 83.44C601.443 85.1467 600.829 86 599.941 86Z" fill="black"/>
<path d="M589.068 48.624C590.775 48.624 591.628 50.0576 591.628 52.9248C591.628 54.9728 590.502 60.912 588.249 70.7424C585.996 80.5046 583.982 88.5942 582.207 95.0112C580.433 101.428 578.76 106.173 577.19 109.245C575.62 112.385 573.708 115.525 571.455 118.666C569.271 121.806 566.847 123.956 564.185 125.117C561.523 126.277 558.451 126.858 554.969 126.858C548.484 126.858 545.241 123.547 545.241 116.925C545.241 113.034 546.709 108.835 549.644 104.33C553.877 97.7078 559.543 93.3387 566.643 91.2224C569.169 90.4715 571.797 90.096 574.527 90.096C575.005 90.096 575.244 90.5739 575.244 91.5296C575.244 92.4854 575.005 92.9632 574.527 92.9632C566.472 92.9632 559.714 96.1376 554.252 102.486C550.225 107.265 548.211 111.873 548.211 116.31C548.211 120.748 549.917 123.308 553.331 123.99L554.969 124.093C560.567 124.093 565.004 121.772 568.281 117.13C571.626 112.419 574.254 106.48 576.166 99.312C578.077 92.0758 580.535 80.7435 583.539 65.3152H582.719C575.347 79.1734 569.271 86.1024 564.492 86.1024C559.099 86.1024 556.403 82.0406 556.403 73.9168C556.403 69.2064 557.631 64.0523 560.089 58.4544C563.502 50.8768 567.837 45.9275 573.094 43.6064C574.937 42.8555 576.78 42.48 578.623 42.48C580.535 42.48 582.037 43.0262 583.129 44.1184C584.221 45.2107 584.767 46.4395 584.767 47.8048C584.767 48.4192 584.426 48.7264 583.743 48.7264C583.129 48.6582 582.822 48.3168 582.822 47.7024C582.822 47.088 582.481 46.5419 581.798 46.064C581.183 45.5179 580.262 45.2448 579.033 45.2448C574.732 45.2448 570.841 49.1019 567.359 56.816C564.083 63.984 562.444 70.7766 562.444 77.1936C562.444 81.1531 563.298 83.1328 565.004 83.1328C567.257 83.1328 570.193 80.4704 573.811 75.1456C579.272 67.0902 583.539 59.2054 586.611 51.4912C587.43 49.5798 588.249 48.624 589.068 48.624Z" fill="black"/>
<path d="M528.81 71.0496C528.81 79.3099 531.745 83.44 537.616 83.44C539.801 83.44 542.088 82.4843 544.477 80.5728C546.935 78.5931 549.153 76.2379 551.133 73.5072C555.502 67.2267 558.574 62.1067 560.349 58.1472L561.68 55.28H564.445C563.285 58.0107 561.578 61.3899 559.325 65.4176C557.072 69.3771 554.922 72.7222 552.874 75.4528C550.826 78.1835 548.403 80.6752 545.604 82.928C542.805 85.1126 540.142 86.2048 537.616 86.2048C527.513 86.2048 522.461 80.5387 522.461 69.2064C522.461 63.9499 523.997 58.6934 527.069 53.4368C531.302 46.1323 536.524 42.48 542.736 42.48C547.105 42.48 549.29 44.8694 549.29 49.648C549.29 53.1979 547.925 56.8843 545.194 60.7072C541.371 65.8955 536.9 68.5238 531.78 68.592C531.029 68.592 530.551 68.2507 530.346 67.568L530.244 67.1584C533.793 67.1584 537.173 64.8374 540.381 60.1952C543.658 55.4848 545.296 51.5595 545.296 48.4192C545.296 46.303 544.477 45.2448 542.839 45.2448C539.221 45.2448 535.841 48.4192 532.701 54.768C530.107 60.1611 528.81 65.5883 528.81 71.0496Z" fill="black"/>
<path d="M498.133 41.2512C498.133 40.5003 498.611 40.1248 499.566 40.1248H504.891C505.233 38.7595 505.676 37.0528 506.222 35.0048L507.656 29.68C508.066 28.1099 508.407 26.6763 508.68 25.3792C509.021 24.0821 509.636 23.4336 510.523 23.4336C511.684 23.4336 512.503 24.3211 512.981 26.096C513.186 26.8469 513.288 27.7685 513.288 28.8608C513.288 29.9531 513.083 31.3525 512.674 33.0592L510.728 40.1248H517.077C517.691 40.1248 518.101 40.3296 518.306 40.7392C518.579 41.1488 518.579 41.5584 518.306 41.968C518.101 42.3093 517.691 42.48 517.077 42.48H510.114C505.881 58.3861 503.765 69.6501 503.765 76.272C503.765 81.1189 504.857 83.5424 507.042 83.5424C508.817 83.5424 511.308 81.1872 514.517 76.4768C517.725 71.7664 520.49 67.056 522.811 62.3456L526.293 55.28H529.058C528.648 56.0992 528.102 57.2256 527.419 58.6592C526.805 60.0245 525.542 62.5163 523.63 66.1344C521.719 69.6843 519.876 72.8245 518.101 75.5552C516.394 78.2859 514.449 80.7776 512.264 83.0304C510.148 85.2149 508.168 86.3072 506.325 86.3072C504.482 86.3072 502.877 85.7269 501.512 84.5664C500.215 83.3376 499.396 81.6309 499.054 79.4464C498.645 77.1936 498.44 74.9067 498.44 72.5856C498.44 67.1925 500.352 57.1573 504.174 42.48H499.566C499.02 42.48 498.645 42.3435 498.44 42.0704C498.235 41.7291 498.133 41.456 498.133 41.2512Z" fill="black"/>
<path d="M457.839 86C455.928 86 454.972 84.5323 454.972 81.5968C454.972 80.0267 456.883 68.592 460.706 47.2928C460.911 45.8592 461.525 45.1424 462.549 45.1424C463.778 45.1424 464.7 46.0299 465.314 47.8048C465.656 48.7606 465.826 49.8187 465.826 50.9792C465.826 52.0715 465.69 53.2662 465.417 54.5632L463.778 62.7552H464.393C470.537 48.9654 476.408 42.0704 482.005 42.0704C484.19 42.0704 485.863 42.7531 487.023 44.1184C488.184 45.4155 488.764 47.2246 488.764 49.5456C488.764 51.8667 487.842 56.8843 485.999 64.5984C484.156 72.3126 483.234 77.6715 483.234 80.6752C483.234 85.1126 484.053 87.3312 485.692 87.3312C485.692 87.8091 485.385 88.287 484.77 88.7648C484.156 89.2427 483.439 89.4816 482.62 89.4816C478.66 89.4816 476.681 86.3755 476.681 80.1632C476.681 76.3403 477.705 70.5718 479.753 62.8576C481.869 55.0752 482.927 50.1259 482.927 48.0096C482.927 45.8251 482.074 44.7328 480.367 44.7328C477.909 44.7328 474.94 47.9414 471.458 54.3584C468.045 60.7755 465.28 66.9195 463.164 72.7904C461.116 78.5931 459.921 82.2454 459.58 83.7472C459.307 85.2491 458.726 86 457.839 86Z" fill="black"/>
<path d="M410.611 97.5712C400.439 97.5712 393.271 94.0213 389.107 86.9216C385.898 81.392 385.181 75.4187 386.956 69.0016C388.731 62.5845 392.076 58.1131 396.991 55.5872C399.312 54.4267 401.838 53.8464 404.569 53.8464C411.805 53.8464 416.755 56.6453 419.417 62.2432C420.578 64.7008 421.158 67.056 421.158 69.3088C421.158 71.5616 420.748 73.712 419.929 75.76C418.154 80.4704 415.253 82.8256 411.225 82.8256C409.996 82.8256 409.109 82.3477 408.563 81.392L408.358 80.88C411.293 80.88 413.58 78.7979 415.219 74.6336C416.038 72.5856 416.447 70.5376 416.447 68.4896C416.447 66.3733 416.004 64.2229 415.116 62.0384C413.41 57.8741 409.826 55.792 404.364 55.792C398.903 55.792 394.568 58.4544 391.359 63.7792C389.243 67.3291 388.185 71.0837 388.185 75.0432C388.185 76.6816 388.356 78.3883 388.697 80.1632C390.131 86.5803 393.817 90.9493 399.756 93.2704C402.419 94.2944 405.73 94.8064 409.689 94.8064C413.648 94.8064 417.335 93.8848 420.748 92.0416C424.23 90.2667 427.029 87.7749 429.145 84.5664C431.33 81.3579 433.173 77.808 434.675 73.9168C436.176 70.0256 437.405 65.6565 438.361 60.8096C439.385 55.9627 440.238 51.3888 440.921 47.088C442.832 34.8683 444.573 26.4373 446.143 21.7952C439.795 21.3173 436.484 21.0784 436.211 21.0784C426.517 21.0784 419.724 24.2528 415.833 30.6016C414.058 33.4688 413.171 36.4043 413.171 39.408C413.171 40.8416 413.375 42.2752 413.785 43.7088C415.014 47.8048 417.267 49.8528 420.543 49.8528C420.543 50.3989 420.27 50.9109 419.724 51.3888C419.178 51.8667 418.495 52.1056 417.676 52.1056C413.785 52.1056 411.02 50.0917 409.382 46.064C408.631 44.0843 408.255 41.9339 408.255 39.6128C408.255 37.2917 408.938 34.6976 410.303 31.8304C413.307 25.3451 418.803 21.2149 426.79 19.44C429.316 18.8939 431.603 18.6208 433.651 18.6208C435.767 18.6208 440.204 18.928 446.963 19.5424C450.035 11.76 454.438 7.8688 460.172 7.8688C460.65 7.8688 461.06 8.03947 461.401 8.3808C461.811 8.65387 462.118 9.06347 462.323 9.6096C457.339 9.6096 453.789 13.0229 451.673 19.8496H453.721C460.752 19.8496 465.668 17.6309 468.467 13.1936C469.559 11.4869 470.105 10.0192 470.105 8.79041C470.105 5.58187 468.979 3.9776 466.726 3.9776C467.135 2.7488 467.92 2.1344 469.081 2.1344C471.061 2.1344 472.392 3.3632 473.075 5.8208C473.279 6.70827 473.382 7.5616 473.382 8.3808C473.382 10.8384 472.426 13.2619 470.515 15.6512C466.896 20.0203 461.264 22.2048 453.619 22.2048H451.059C449.83 26.9835 448.908 32.8203 448.294 39.7152C447.679 46.5419 446.997 52.208 446.246 56.7136C445.563 61.1509 444.744 65.2469 443.788 69.0016C442.901 72.7563 441.535 76.4427 439.692 80.0608C437.917 83.6789 435.801 86.7168 433.343 89.1744C430.886 91.7003 427.711 93.7141 423.82 95.216C419.929 96.7861 415.526 97.5712 410.611 97.5712Z" fill="black"/>
<path d="M310.492 86.1024C305.099 86.1024 302.403 82.0406 302.403 73.9168C302.403 69.2064 303.631 64.0523 306.089 58.4544C309.502 50.8768 313.837 45.9275 319.094 43.6064C320.937 42.8555 322.78 42.48 324.623 42.48C326.535 42.48 328.037 43.0262 329.129 44.1184C330.221 45.2107 330.767 46.4395 330.767 47.8048C330.767 48.4192 330.426 48.7264 329.743 48.7264C329.129 48.6582 328.822 48.3168 328.822 47.7024C328.822 47.088 328.48 46.5419 327.798 46.064C327.183 45.5179 326.262 45.2448 325.033 45.2448C320.732 45.2448 316.841 49.1019 313.359 56.816C310.083 63.984 308.444 70.7766 308.444 77.1936C308.444 81.1531 309.298 83.1328 311.004 83.1328C312.779 83.1328 314.895 81.6651 317.353 78.7296C319.879 75.7259 322.2 72.2443 324.316 68.2848C328.89 59.9563 331.587 54.5974 332.406 52.208C333.225 49.8187 334.113 48.624 335.068 48.624C336.775 48.624 337.628 50.0576 337.628 52.9248C337.628 53.8123 337.526 54.8363 337.321 55.9968C335.068 66.9195 333.839 73.2342 333.635 74.9408C333.498 76.6475 333.43 77.8763 333.43 78.6272C333.43 81.904 334.215 83.5424 335.785 83.5424C337.56 83.5424 340.052 81.1872 343.26 76.4768C346.469 71.7664 349.234 67.056 351.555 62.3456L355.036 55.28H357.801C357.391 56.0992 356.845 57.2256 356.163 58.6592C355.548 60.0246 354.285 62.5163 352.374 66.1344C350.462 69.6843 348.619 72.8246 346.844 75.5552C345.138 78.2859 343.192 80.7776 341.007 83.0304C338.891 85.215 337.048 86.3072 335.478 86.3072C330.426 86.3072 327.9 82.6208 327.9 75.248C327.9 72.7904 328.173 69.9232 328.719 66.6464H328.003C321.039 79.6171 315.203 86.1024 310.492 86.1024Z" fill="black"/>
<path d="M268.822 80.9825C267.457 80.9825 266.16 81.8358 264.931 83.5425C263.634 85.1809 262.473 86.0001 261.449 86.0001C260.425 86.0001 259.913 85.7611 259.913 85.2833C259.913 85.0785 259.982 84.9078 260.118 84.7713C269.334 73.1659 278.687 62.3457 288.176 52.3105C286.128 52.8566 284.08 53.1297 282.032 53.1297C276.092 53.1297 272.372 51.3889 270.87 47.9073C270.529 47.0198 270.358 46.0641 270.358 45.0401C270.358 43.9478 270.836 42.8555 271.792 41.7633C272.816 40.6027 273.942 40.0225 275.171 40.0225C276.4 40.0225 277.287 40.2614 277.833 40.7393C278.448 41.1489 278.857 41.7974 279.062 42.6849C278.038 42.6849 277.389 43.2651 277.116 44.4257C277.048 44.767 277.014 45.0742 277.014 45.3473C277.014 46.7126 277.97 47.7707 279.881 48.5217C281.11 48.9995 282.919 49.2385 285.308 49.2385C287.766 49.2385 290.155 48.7947 292.476 47.9073C296.231 44.2891 298.655 42.4801 299.747 42.4801C300.293 42.4801 300.566 42.6849 300.566 43.0945C300.566 43.5041 300.054 44.4257 299.03 45.8593C298.006 47.2929 296.06 48.7947 293.193 50.3649C288.142 55.9627 280.154 65.247 269.232 78.2177C269.505 78.1494 270.051 78.1153 270.87 78.1153C271.757 78.1153 273.567 78.7638 276.297 80.0609C279.096 81.3579 281.588 82.0065 283.772 82.0065C287.732 82.0065 290.394 80.4022 291.76 77.1937C292.169 76.1697 292.374 75.2139 292.374 74.3265C292.374 73.3707 292.135 72.5857 291.657 71.9713C291.179 71.3569 290.599 71.0497 289.916 71.0497C290.053 70.1622 290.565 69.7185 291.452 69.7185C293.978 69.7185 295.241 71.6982 295.241 75.6577C295.241 78.5249 294.149 81.3579 291.964 84.1569C289.78 86.9558 286.708 88.3553 282.748 88.3553C280.837 88.3553 279.13 87.9457 277.628 87.1265C276.127 86.3755 275 85.5563 274.249 84.6689C272.065 82.2113 270.256 80.9825 268.822 80.9825Z" fill="black"/>
<path d="M232.935 71.0496C232.935 79.3099 235.87 83.44 241.741 83.44C243.926 83.44 246.213 82.4843 248.602 80.5728C251.06 78.5931 253.278 76.2379 255.258 73.5072C259.627 67.2267 262.699 62.1067 264.474 58.1472L265.805 55.28H268.57C267.41 58.0107 265.703 61.3899 263.45 65.4176C261.197 69.3771 259.047 72.7222 256.999 75.4528C254.951 78.1835 252.528 80.6752 249.729 82.928C246.93 85.1126 244.267 86.2048 241.741 86.2048C231.638 86.2048 226.586 80.5387 226.586 69.2064C226.586 63.9499 228.122 58.6934 231.194 53.4368C235.427 46.1323 240.649 42.48 246.861 42.48C251.23 42.48 253.415 44.8694 253.415 49.648C253.415 53.1979 252.05 56.8843 249.319 60.7072C245.496 65.8955 241.025 68.5238 235.905 68.592C235.154 68.592 234.676 68.2507 234.471 67.568L234.369 67.1584C237.918 67.1584 241.298 64.8374 244.506 60.1952C247.783 55.4848 249.421 51.5595 249.421 48.4192C249.421 46.303 248.602 45.2448 246.964 45.2448C243.346 45.2448 239.966 48.4192 236.826 54.768C234.232 60.1611 232.935 65.5883 232.935 71.0496Z" fill="black"/>
<path d="M217.832 24.6624C219.402 24.6624 220.187 25.7205 220.187 27.8368C220.187 29.9531 219.163 31.6597 217.115 32.9568C216.091 33.6395 215.204 33.9808 214.453 33.9808C213.36 33.9808 212.712 33.6395 212.507 32.9568L212.405 32.6496C213.019 32.6496 213.463 32.0011 213.736 30.704C214.009 29.3387 214.418 28.0075 214.965 26.7104C215.579 25.3451 216.535 24.6624 217.832 24.6624ZM211.278 83.5424C213.053 83.5424 215.545 81.1872 218.753 76.4768C221.962 71.7664 224.727 67.056 227.048 62.3456L230.529 55.28H233.294C232.885 56.0992 232.338 57.2256 231.656 58.6592C231.041 60.0245 229.779 62.5163 227.867 66.1344C225.956 69.6843 224.112 72.8245 222.337 75.5552C220.631 78.2859 218.685 80.7776 216.501 83.0304C214.384 85.2149 212.541 86.3072 210.971 86.3072C205.919 86.3072 203.393 83.0304 203.393 76.4768C203.393 71.5616 204.793 63.5744 207.592 52.5152C207.865 51.3547 208.07 50.4672 208.206 49.8528C208.411 49.2384 208.616 48.4534 208.821 47.4976C209.025 46.4736 209.23 45.552 209.435 44.7328C209.776 43.2992 210.391 42.5824 211.278 42.5824C212.507 42.5824 213.394 43.4699 213.941 45.2448C214.214 46.064 214.35 47.0539 214.35 48.2144C214.35 49.3749 214.214 50.6037 213.941 51.9008C213.668 53.1296 213.224 54.9728 212.609 57.4304C211.995 59.888 211.517 61.9019 211.176 63.472C210.834 65.0421 210.459 66.9536 210.049 69.2064C209.298 72.9611 208.923 76.3061 208.923 79.2416C208.923 82.1088 209.708 83.5424 211.278 83.5424Z" fill="black"/>
<path d="M177.868 83.2352C180.462 83.2352 183.295 79.7195 186.367 72.688C189.507 65.247 191.077 58.4544 191.077 52.3104C191.077 48.0779 189.985 45.9275 187.801 45.8592C185.684 45.8592 183.261 47.5659 180.53 50.9792C177.868 54.3926 175.444 58.4203 173.26 63.0624C168.549 73.2342 165.614 80.8459 164.453 85.8976C160.835 102.282 158.344 112.453 156.978 116.413C154.589 123.376 151.858 126.858 148.786 126.858C146.397 126.858 145.202 125.219 145.202 121.942C145.202 120.031 145.612 117.505 146.431 114.365C148.547 106.787 151.858 99.5168 156.364 92.5536L159.129 88.7648C159.743 85.6928 160.562 81.2555 161.586 75.4528C163.634 63.7792 165.102 56.0651 165.989 52.3104C166.945 48.4875 168.037 45.8934 169.266 44.528C170.563 43.0944 171.656 42.3776 172.543 42.3776C174.25 42.3776 174.864 43.0603 174.386 44.4256C172.68 50.0235 170.905 56.6454 169.061 64.2912H169.778C176.468 49.7504 182.51 42.48 187.903 42.48C192.272 42.48 195.003 45.279 196.095 50.8768C196.436 52.6518 196.607 54.4608 196.607 56.304C196.607 60.8096 195.583 65.6907 193.535 70.9472C190.668 78.4566 186.845 83.2011 182.066 85.1808C180.633 85.7952 179.199 86.1024 177.765 86.1024C174.42 86.1024 172.475 84.2592 171.929 80.5728C171.86 79.9584 171.997 79.4806 172.338 79.1392C172.68 78.7979 173.089 78.6955 173.567 78.832C174.045 78.9686 174.318 79.3099 174.386 79.856C174.728 82.1088 175.888 83.2352 177.868 83.2352ZM148.479 124.093C151.141 124.093 154.418 113.785 158.309 93.168C154.282 99.4486 151.039 106.412 148.581 114.058C147.489 117.471 146.943 119.997 146.943 121.635C146.943 123.274 147.455 124.093 148.479 124.093Z" fill="black"/>
<path d="M100.714 86C98.8025 86 97.8468 84.5323 97.8468 81.5968C97.8468 80.0267 99.7583 68.592 103.581 47.2928C103.786 45.8592 104.4 45.1424 105.424 45.1424C106.653 45.1424 107.575 46.0299 108.189 47.8048C108.531 48.7606 108.701 49.8187 108.701 50.9792C108.701 52.0715 108.565 53.2662 108.292 54.5632L106.756 62.3456H107.37C113.377 48.8288 119.18 42.0704 124.778 42.0704C126.689 42.0704 128.191 42.7531 129.284 44.1184C130.444 45.4838 131.024 47.1222 131.024 49.0336C131.024 52.5835 130.478 57.0208 129.386 62.3456H129.796C135.598 49.7163 141.299 43.4016 146.896 43.4016C148.74 43.4016 150.241 44.0843 151.402 45.4496C152.563 46.815 153.143 48.624 153.143 50.8768C153.143 53.1296 152.255 57.9083 150.48 65.2128C148.774 72.5174 147.92 77.6715 147.92 80.6752C147.92 85.1126 148.74 87.3312 150.378 87.3312C150.378 87.8091 150.071 88.287 149.456 88.7648C148.842 89.2427 148.125 89.4816 147.306 89.4816C143.347 89.4816 141.367 86.3755 141.367 80.1632C141.367 76.272 142.357 70.6742 144.336 63.3696C146.316 55.9968 147.306 51.2864 147.306 49.2384C147.306 47.1222 146.623 46.064 145.258 46.064C142.732 46.064 139.763 49.136 136.349 55.28C133.004 61.3558 130.308 67.1926 128.26 72.7904C126.28 78.3883 125.119 82.0064 124.778 83.6448C124.437 85.215 123.822 86 122.935 86C121.023 86 120.068 84.5323 120.068 81.5968C120.068 80.5046 120.648 76.6475 121.808 70.0256C124.061 57.8742 125.188 50.6379 125.188 48.3168C125.188 45.9275 124.505 44.7328 123.14 44.7328C121.296 44.7328 119.146 46.6443 116.688 50.4672C114.231 54.2219 112.012 58.591 110.032 63.5744C105.732 74.0875 103.206 80.88 102.455 83.952C102.182 85.3174 101.601 86 100.714 86Z" fill="black"/>
<path d="M89.7068 24.6624C91.277 24.6624 92.062 25.7205 92.062 27.8368C92.062 29.9531 91.038 31.6597 88.99 32.9568C87.966 33.6395 87.0786 33.9808 86.3276 33.9808C85.2354 33.9808 84.5868 33.6395 84.382 32.9568L84.2796 32.6496C84.894 32.6496 85.3378 32.0011 85.6108 30.704C85.8839 29.3387 86.2935 28.0075 86.8396 26.7104C87.454 25.3451 88.4098 24.6624 89.7068 24.6624ZM83.1532 83.5424C84.9282 83.5424 87.4199 81.1872 90.6284 76.4768C93.837 71.7664 96.6018 67.056 98.9228 62.3456L102.404 55.28H105.169C104.76 56.0992 104.213 57.2256 103.531 58.6592C102.916 60.0245 101.653 62.5163 99.742 66.1344C97.8306 69.6843 95.9874 72.8245 94.2124 75.5552C92.5058 78.2859 90.5602 80.7776 88.3756 83.0304C86.2594 85.2149 84.4162 86.3072 82.846 86.3072C77.7943 86.3072 75.2684 83.0304 75.2684 76.4768C75.2684 71.5616 76.6679 63.5744 79.4668 52.5152C79.7399 51.3547 79.9447 50.4672 80.0812 49.8528C80.286 49.2384 80.4908 48.4534 80.6956 47.4976C80.9004 46.4736 81.1052 45.552 81.31 44.7328C81.6514 43.2992 82.2658 42.5824 83.1532 42.5824C84.382 42.5824 85.2695 43.4699 85.8156 45.2448C86.0887 46.064 86.2252 47.0539 86.2252 48.2144C86.2252 49.3749 86.0887 50.6037 85.8156 51.9008C85.5426 53.1296 85.0988 54.9728 84.4844 57.4304C83.87 59.888 83.3922 61.9019 83.0508 63.472C82.7095 65.0421 82.334 66.9536 81.9244 69.2064C81.1735 72.9611 80.798 76.3061 80.798 79.2416C80.798 82.1088 81.5831 83.5424 83.1532 83.5424Z" fill="black"/>
<path d="M69.3312 0.90564C75.6118 0.90564 78.752 5.61604 78.752 15.0368C78.752 21.0443 77.1136 27.9734 73.8368 35.824C69.0582 47.2246 62.5728 55.9968 54.3808 62.1408C51.2406 64.4619 48.032 66.2368 44.7552 67.4656C41.4784 75.9307 37.3483 82.1088 32.3648 86C39.1915 91.0518 44.1408 94.3286 47.2128 95.8304C50.2848 97.4006 53.2544 98.1856 56.1216 98.1856C61.1051 98.1856 64.3819 96.4448 65.952 92.9632C66.4299 91.871 66.6688 90.847 66.6688 89.8912C66.6688 88.9355 66.3958 88.1163 65.8496 87.4336C65.3718 86.8192 64.7915 86.512 64.1088 86.512C64.3136 85.6928 64.8256 85.2832 65.6448 85.2832C67.9659 85.2832 69.5019 86.5803 70.2528 89.1744C70.5259 90.0619 70.6624 90.9152 70.6624 91.7344C70.6624 93.7824 69.8774 95.6939 68.3072 97.4688C66.1227 100.063 62.88 101.36 58.5792 101.36C53.1862 101.36 47.9979 99.7899 43.0144 96.6496C40.2155 94.943 38.1675 93.6118 36.8704 92.656C35.6416 91.7003 33.423 89.9936 30.2144 87.536C25.9819 90.1984 21.3056 91.5296 16.1856 91.5296C8.60803 91.5296 3.69283 89.6182 1.44003 85.7952C0.825633 84.6347 0.518433 83.44 0.518433 82.2112C0.518433 80.9142 1.06457 79.583 2.15683 78.2176C3.8635 76.1014 6.3211 75.0432 9.52963 75.0432C14.6496 75.0432 21.0326 77.808 28.6784 83.3376C31.7504 80.1974 34.5152 75.5211 36.9728 69.3088C36.2902 69.3771 35.3003 69.4112 34.0032 69.4112C22.8758 69.4112 14.7179 64.9739 9.52963 56.0992C6.38937 50.6379 4.81923 44.5963 4.81923 37.9744C4.81923 35.7216 4.9899 33.4347 5.33123 31.1136C6.56003 22.4438 9.76857 15.8219 14.9568 11.248C18.5067 8.24431 22.5344 6.74244 27.04 6.74244C31.5456 6.74244 35.0272 8.21017 37.4848 11.1456C39.9424 14.0811 41.2395 17.6992 41.376 22C41.376 22.6144 41.0347 23.1264 40.352 23.536C39.6694 23.8774 38.9867 23.9798 38.304 23.8432C37.6214 23.6384 37.28 23.1947 37.28 22.512C37.1435 18.416 36.3243 15.1734 34.8224 12.784C33.3206 10.3264 30.624 9.09764 26.7328 9.09764C20.5888 9.09764 15.6395 12.4768 11.8848 19.2352C8.8811 24.56 7.37923 30.431 7.37923 36.848C7.37923 48.5899 11.168 57.0891 18.7456 62.3456C22.9099 65.2811 27.9616 66.7488 33.9008 66.7488C35.2662 66.7488 36.6656 66.6464 38.0992 66.4416C39.6694 62.2091 41.3419 56.6795 43.1168 49.8528C44.8918 42.9579 46.4619 36.9846 47.8272 31.9328C49.2608 26.8128 50.9334 21.727 52.8448 16.6752C56.8043 6.16217 62.2998 0.90564 69.3312 0.90564ZM68.2048 3.87524C63.4262 3.87524 59.7739 8.48324 57.248 17.6992C56.0192 22.1366 54.927 26.7104 53.9712 31.4208C51.1723 45.8251 48.5782 56.5771 46.1888 63.6768C54.5856 59.376 61.4464 51.3206 66.7712 39.5104C71.072 30.0896 73.1883 21.4198 73.12 13.5008C72.9152 7.22031 71.2768 4.01177 68.2048 3.87524ZM26.8352 85.0784C20.1451 80.095 14.3766 77.6032 9.52963 77.6032C6.45763 77.6032 4.51203 78.6955 3.69283 80.88C2.80537 82.9963 3.72697 85.0102 6.45763 86.9216C8.50563 88.3552 11.6118 89.072 15.776 89.072C19.9403 89.072 23.6267 87.7408 26.8352 85.0784Z" fill="black"/>
</g>
<defs>
<clipPath id="clip0_6_42">
<rect width="982" height="173" fill="white"/>
</clipPath>
</defs>
</svg>
