<svg width="1500" height="500" viewBox="0 0 1500 500" fill="none" xmlns="http://www.w3.org/2000/svg">
<path d="M760.423 363.81C754.65 335.381 722.097 332.709 698.26 333.556C660.496 334.897 615.632 351.953 582.731 325.457C581.004 324.066 578.981 326.135 580.327 327.863C593.784 345.128 615.316 357.466 637.591 356.467C639.814 356.366 639.823 352.904 637.591 353C616.177 353.919 595.7 341.987 582.731 325.457C581.929 326.26 581.129 327.059 580.327 327.863C607.316 349.453 643.63 343.43 675.203 338.261C703.451 333.638 749.691 329.292 760.216 363.867C760.257 363.999 760.45 363.946 760.423 363.81Z" fill="#FAFAFA"/>
<path d="M708.86 350.883C684.671 325.027 651.962 322.942 618.841 328.667C589.42 333.757 546.215 360.341 518.928 337.761C517.483 336.568 515.399 338.63 516.858 339.837C538.901 358.079 572.213 344.872 595.936 337.301C634.45 325.007 677.296 320.743 708.747 350.995C708.822 351.068 708.931 350.956 708.86 350.883Z" fill="#FAFAFA"/>
<path d="M514.179 356.327C534.093 332.176 568.084 346.184 592.075 356.018C619.964 367.454 651.626 377.308 678.481 358.276C680.013 357.192 678.538 354.641 677.004 355.742C644.126 379.341 607.598 357.807 574.648 346.523C556.052 340.157 524.838 334.059 514.011 356.198C513.961 356.3 514.097 356.425 514.179 356.327Z" fill="#FAFAFA"/>
<path d="M760.787 363.868C771.041 330.186 813.558 334.333 841.233 337.593C874.775 341.542 911.65 351.084 940.676 327.864C939.873 327.06 939.073 326.261 938.271 325.458C925.303 341.988 904.825 353.92 883.413 353.001C881.179 352.905 881.191 356.367 883.413 356.467C905.686 357.464 927.219 345.129 940.676 327.864C942.023 326.136 939.998 324.067 938.271 325.458C906.271 351.227 862.047 335.835 825.217 333.673C800.937 332.246 766.505 334.633 760.58 363.811C760.553 363.945 760.746 364 760.787 363.868Z" fill="#FAFAFA"/>
<path d="M812.256 350.995C842.781 321.633 884.593 324.578 922.305 336.424C946.723 344.093 981.335 358.713 1004.15 339.839C1005.6 338.63 1003.52 336.568 1002.07 337.763C975.86 359.453 933.823 335.384 905.691 329.329C871.984 322.079 836.833 324.487 812.142 350.883C812.072 350.956 812.181 351.067 812.256 350.995Z" fill="#FAFAFA"/>
<path d="M1006.99 356.198C996.064 333.855 965.075 340.453 946.354 346.524C913.061 357.318 877.24 379.601 844.001 355.743C842.464 354.639 840.989 357.193 842.521 358.277C868.41 376.621 898.551 368.056 925.724 357.312C950.545 347.501 985.932 330.991 1006.82 356.328C1006.91 356.426 1007.04 356.301 1006.99 356.198Z" fill="#FAFAFA"/>
<path d="M1224.85 227.318H1225.05C1225.66 227.387 1226.14 227.66 1226.48 228.138C1226.82 228.615 1227 229.127 1227 229.674C1227 230.151 1226.52 231.21 1225.56 232.848C1224.67 234.486 1224.23 235.818 1224.23 236.842C1224.23 237.797 1224.37 238.719 1224.64 239.606C1224.91 240.426 1225.77 242.474 1227.2 245.75C1230.34 252.918 1231.91 259.335 1231.91 265.002C1231.91 270.599 1230.37 275.242 1227.3 278.928C1224.3 282.614 1220.68 284.458 1216.45 284.458C1212.28 284.458 1210.2 281.932 1210.2 276.88C1210.2 271.76 1212.01 266.299 1215.63 260.496C1217.75 257.151 1220.03 254.625 1222.49 252.918C1223.17 252.441 1223.62 252.543 1223.82 253.226C1224.09 253.908 1223.96 254.454 1223.41 254.864C1219.45 257.731 1216.38 262.271 1214.2 268.483C1212.22 274.081 1212.01 277.972 1213.58 280.157C1214.13 280.976 1214.91 281.386 1215.94 281.386C1218.94 281.386 1221.3 279.372 1223 275.344C1224.71 271.316 1225.56 266.299 1225.56 260.291C1225.56 255.103 1224.95 250.29 1223.72 245.853C1222.49 241.415 1221.81 238.855 1221.67 238.173C1219.62 242.064 1217.4 246.433 1215.01 251.28H1212.25C1216.14 243.566 1219.14 237.763 1221.26 233.872C1221.53 229.503 1222.73 227.318 1224.85 227.318Z" fill="#FAFAFA"/>
<path d="M1167.87 282.102C1162.47 282.102 1159.78 278.041 1159.78 269.917C1159.78 265.206 1161.01 260.052 1163.46 254.454C1166.88 246.877 1171.21 241.928 1176.47 239.606C1178.31 238.856 1180.16 238.48 1182 238.48C1183.91 238.48 1185.41 239.026 1186.5 240.118C1187.6 241.211 1188.14 242.44 1188.14 243.805C1188.14 244.419 1187.8 244.726 1187.12 244.726C1186.5 244.658 1186.2 244.317 1186.2 243.702C1186.2 243.088 1185.86 242.542 1185.17 242.064C1184.56 241.518 1183.64 241.245 1182.41 241.245C1178.11 241.245 1174.22 245.102 1170.73 252.816C1167.46 259.984 1165.82 266.777 1165.82 273.194C1165.82 277.153 1166.67 279.133 1168.38 279.133C1170.15 279.133 1172.27 277.665 1174.73 274.73C1177.25 271.726 1179.57 268.244 1181.69 264.285C1186.27 255.956 1188.96 250.597 1189.78 248.208C1190.6 245.819 1191.49 244.624 1192.44 244.624C1194.15 244.624 1195 246.058 1195 248.925C1195 249.812 1194.9 250.836 1194.7 251.997C1192.44 262.92 1191.21 269.234 1191.01 270.941C1190.87 272.648 1190.8 273.876 1190.8 274.627C1190.8 277.904 1191.59 279.542 1193.16 279.542C1194.93 279.542 1197.43 277.187 1200.64 272.477C1203.84 267.766 1206.61 263.056 1208.93 258.346L1212.41 251.28H1215.18C1214.77 252.099 1214.22 253.226 1213.54 254.659C1212.92 256.025 1211.66 258.516 1209.75 262.134C1207.84 265.684 1205.99 268.825 1204.22 271.555C1202.51 274.286 1200.57 276.778 1198.38 279.03C1196.27 281.215 1194.42 282.307 1192.85 282.307C1187.8 282.307 1185.28 278.621 1185.28 271.248C1185.28 268.79 1185.55 265.923 1186.09 262.646H1185.38C1178.41 275.617 1172.58 282.102 1167.87 282.102Z" fill="#FAFAFA"/>
<path d="M1100.34 282C1098.43 282 1097.47 280.532 1097.47 277.597C1097.47 276.027 1099.38 264.592 1103.21 243.293C1103.41 241.859 1104.03 241.142 1105.05 241.142C1106.28 241.142 1107.2 242.03 1107.81 243.805C1108.16 244.761 1108.33 245.819 1108.33 246.979C1108.33 248.072 1108.19 249.266 1107.92 250.563L1106.38 258.346H1106.99C1113 244.829 1118.81 238.07 1124.4 238.07C1126.31 238.07 1127.82 238.753 1128.91 240.118C1130.07 241.484 1130.65 243.122 1130.65 245.034C1130.65 248.584 1130.1 253.021 1129.01 258.346H1129.42C1135.22 245.716 1140.92 239.402 1146.52 239.402C1148.36 239.402 1149.87 240.084 1151.03 241.45C1152.19 242.815 1152.77 244.624 1152.77 246.877C1152.77 249.13 1151.88 253.908 1150.11 261.213C1148.4 268.517 1147.55 273.672 1147.55 276.675C1147.55 281.113 1148.36 283.331 1150 283.331C1150 283.809 1149.7 284.287 1149.08 284.765C1148.47 285.243 1147.75 285.482 1146.93 285.482C1142.97 285.482 1140.99 282.376 1140.99 276.163C1140.99 272.272 1141.98 266.674 1143.96 259.37C1145.94 251.997 1146.93 247.286 1146.93 245.238C1146.93 243.122 1146.25 242.064 1144.88 242.064C1142.36 242.064 1139.39 245.136 1135.97 251.28C1132.63 257.356 1129.93 263.193 1127.88 268.79C1125.9 274.388 1124.74 278.006 1124.4 279.645C1124.06 281.215 1123.45 282 1122.56 282C1120.65 282 1119.69 280.532 1119.69 277.597C1119.69 276.505 1120.27 272.648 1121.43 266.026C1123.69 253.874 1124.81 246.638 1124.81 244.317C1124.81 241.928 1124.13 240.733 1122.76 240.733C1120.92 240.733 1118.77 242.644 1116.31 246.467C1113.86 250.222 1111.64 254.591 1109.66 259.574C1105.36 270.088 1102.83 276.88 1102.08 279.952C1101.81 281.317 1101.23 282 1100.34 282Z" fill="#FAFAFA"/>
<path d="M1063.98 268.483C1063.98 275.651 1065.89 279.235 1069.71 279.235C1072.31 279.235 1074.73 277.631 1076.98 274.422C1081.29 268.415 1083.91 260.496 1084.87 250.666C1082.48 249.642 1080.81 247.969 1079.85 245.648C1079.24 244.214 1078.93 243.02 1078.93 242.064C1078.93 241.04 1079.07 240.153 1079.34 239.402C1079.95 237.558 1081.08 236.637 1082.72 236.637C1084.36 236.637 1085.59 237.695 1086.41 239.811C1087.29 241.859 1087.74 244.488 1087.74 247.696C1087.74 247.901 1087.74 248.14 1087.74 248.413C1088.56 248.686 1089.75 248.822 1091.32 248.822C1092.96 248.822 1094.39 248.174 1095.62 246.877C1096.85 245.58 1097.47 244.385 1097.47 243.293C1097.47 243.02 1097.64 242.849 1097.98 242.781C1098.32 242.644 1098.63 242.644 1098.9 242.781C1099.24 242.917 1099.41 243.122 1099.41 243.395C1099.41 245.375 1098.56 247.252 1096.85 249.027C1095.21 250.802 1092.99 251.69 1090.19 251.69C1089.51 251.69 1088.62 251.621 1087.53 251.485C1087.12 256.127 1086.13 260.735 1084.56 265.309C1083.06 269.814 1080.94 273.74 1078.21 277.085C1075.48 280.362 1072.55 282 1069.41 282C1063.47 282 1059.82 278.826 1058.45 272.477C1058.11 270.634 1057.94 268.756 1057.94 266.845C1057.94 262.544 1058.93 257.936 1060.91 253.021C1063.5 246.604 1066.71 242.61 1070.53 241.04C1072.51 240.357 1073.88 240.255 1074.63 240.733C1075.38 241.211 1075.86 241.757 1076.06 242.371C1072.92 242.371 1070.12 245.307 1067.67 251.178C1065.21 257.049 1063.98 262.817 1063.98 268.483Z" fill="#FAFAFA"/>
<path d="M1052.21 196.906C1058.49 196.906 1061.63 201.616 1061.63 211.037C1061.63 217.044 1059.99 223.973 1056.71 231.824C1051.93 243.225 1045.45 251.997 1037.26 258.141C1034.12 260.462 1030.91 262.237 1027.63 263.466C1024.35 271.931 1020.22 278.109 1015.24 282C1022.07 287.052 1027.02 290.329 1030.09 291.83C1033.16 293.401 1036.13 294.186 1039 294.186C1043.98 294.186 1047.26 292.445 1048.83 288.963C1049.3 287.871 1049.54 286.847 1049.54 285.891C1049.54 284.936 1049.27 284.116 1048.72 283.434C1048.25 282.819 1047.67 282.512 1046.98 282.512C1047.19 281.693 1047.7 281.283 1048.52 281.283C1050.84 281.283 1052.38 282.58 1053.13 285.174C1053.4 286.062 1053.54 286.915 1053.54 287.734C1053.54 289.782 1052.75 291.694 1051.18 293.469C1049 296.063 1045.76 297.36 1041.45 297.36C1036.06 297.36 1030.87 295.79 1025.89 292.65C1023.09 290.943 1021.04 289.612 1019.75 288.656C1018.52 287.7 1016.3 285.994 1013.09 283.536C1008.86 286.198 1004.18 287.53 999.061 287.53C991.483 287.53 986.568 285.618 984.315 281.795C983.701 280.635 983.393 279.44 983.393 278.211C983.393 276.914 983.94 275.583 985.032 274.218C986.739 272.101 989.196 271.043 992.405 271.043C997.525 271.043 1003.91 273.808 1011.55 279.338C1014.63 276.197 1017.39 271.521 1019.85 265.309C1019.17 265.377 1018.18 265.411 1016.88 265.411C1005.75 265.411 997.593 260.974 992.405 252.099C989.264 246.638 987.694 240.596 987.694 233.974C987.694 231.722 987.865 229.435 988.206 227.114C989.435 218.444 992.644 211.822 997.832 207.248C1001.38 204.244 1005.41 202.742 1009.92 202.742C1014.42 202.742 1017.9 204.21 1020.36 207.146C1022.82 210.081 1024.11 213.699 1024.25 218C1024.25 218.614 1023.91 219.126 1023.23 219.536C1022.54 219.877 1021.86 219.98 1021.18 219.843C1020.5 219.638 1020.16 219.195 1020.16 218.512C1020.02 214.416 1019.2 211.173 1017.7 208.784C1016.2 206.326 1013.5 205.098 1009.61 205.098C1003.46 205.098 998.515 208.477 994.76 215.235C991.756 220.56 990.254 226.431 990.254 232.848C990.254 244.59 994.043 253.089 1001.62 258.346C1005.78 261.281 1010.84 262.749 1016.78 262.749C1018.14 262.749 1019.54 262.646 1020.97 262.442C1022.54 258.209 1024.22 252.68 1025.99 245.853C1027.77 238.958 1029.34 232.985 1030.7 227.933C1032.14 222.813 1033.81 217.727 1035.72 212.675C1039.68 202.162 1045.17 196.906 1052.21 196.906ZM1051.08 199.875C1046.3 199.875 1042.65 204.483 1040.12 213.699C1038.89 218.137 1037.8 222.71 1036.85 227.421C1034.05 241.825 1031.45 252.577 1029.06 259.677C1037.46 255.376 1044.32 247.321 1049.65 235.51C1053.95 226.09 1056.06 217.42 1056 209.501C1055.79 203.22 1054.15 200.012 1051.08 199.875ZM1009.71 281.078C1003.02 276.095 997.252 273.603 992.405 273.603C989.333 273.603 987.387 274.696 986.568 276.88C985.68 278.996 986.602 281.01 989.333 282.922C991.381 284.355 994.487 285.072 998.651 285.072C1002.82 285.072 1006.5 283.741 1009.71 281.078Z" fill="#FAFAFA"/>
<path d="M954.301 217.795C956.758 211.378 957.987 207.009 957.987 204.688C957.987 202.367 957.407 201.138 956.246 201.002C953.038 201.002 949.693 206.156 946.211 216.464C942.798 226.704 940.101 237.354 938.121 248.413C936.21 259.404 935.254 267.186 935.254 271.76C935.254 279.474 937.166 283.331 940.989 283.331C940.989 283.809 940.681 284.287 940.067 284.765C939.453 285.243 938.736 285.482 937.917 285.482C932.319 285.482 929.52 280.464 929.52 270.429C929.52 266.742 930.202 261.11 931.568 253.533C932.933 245.887 934.708 237.9 936.893 229.571C939.077 221.243 941.91 214.006 945.392 207.862C948.873 201.65 952.423 198.544 956.041 198.544C958.909 198.544 960.342 200.353 960.342 203.971C960.342 206.702 959.489 210.525 957.782 215.44C954.505 224.997 949.795 234.555 943.651 244.112C942.013 246.638 940.545 248.686 939.248 250.256C938.906 250.666 938.736 250.529 938.736 249.846C938.668 248.549 938.975 247.423 939.657 246.467C945.255 238.07 950.136 228.513 954.301 217.795Z" fill="#FAFAFA"/>
<path d="M887.492 282.102C882.099 282.102 879.403 278.041 879.403 269.917C879.403 265.206 880.631 260.052 883.089 254.454C886.502 246.877 890.837 241.928 896.094 239.606C897.937 238.856 899.78 238.48 901.623 238.48C903.535 238.48 905.037 239.026 906.129 240.118C907.221 241.211 907.767 242.44 907.767 243.805C907.767 244.419 907.426 244.726 906.743 244.726C906.129 244.658 905.822 244.317 905.822 243.702C905.822 243.088 905.48 242.542 904.798 242.064C904.183 241.518 903.262 241.245 902.033 241.245C897.732 241.245 893.841 245.102 890.359 252.816C887.083 259.984 885.444 266.777 885.444 273.194C885.444 277.153 886.298 279.133 888.004 279.133C889.779 279.133 891.895 277.665 894.353 274.73C896.879 271.726 899.2 268.244 901.316 264.285C905.89 255.956 908.587 250.597 909.406 248.208C910.225 245.819 911.112 244.624 912.068 244.624C913.775 244.624 914.628 246.058 914.628 248.925C914.628 249.812 914.526 250.836 914.321 251.997C912.068 262.92 910.839 269.234 910.635 270.941C910.498 272.648 910.43 273.876 910.43 274.627C910.43 277.904 911.215 279.542 912.785 279.542C914.56 279.542 917.052 277.187 920.26 272.477C923.469 267.766 926.234 263.056 928.555 258.346L932.036 251.28H934.801C934.391 252.099 933.845 253.226 933.163 254.659C932.548 256.025 931.285 258.516 929.374 262.134C927.462 265.684 925.619 268.825 923.844 271.555C922.138 274.286 920.192 276.778 918.007 279.03C915.891 281.215 914.048 282.307 912.478 282.307C907.426 282.307 904.9 278.621 904.9 271.248C904.9 268.79 905.173 265.923 905.719 262.646H905.003C898.039 275.617 892.203 282.102 887.492 282.102Z" fill="#FAFAFA"/>
<path d="M850.191 282C848.28 282 847.324 280.532 847.324 277.597C847.324 276.027 849.236 264.592 853.059 243.293C853.332 241.859 853.946 241.142 854.902 241.142C856.131 241.142 857.052 242.03 857.667 243.805C858.008 244.761 858.179 245.819 858.179 246.979C858.179 248.072 858.042 249.266 857.769 250.563L856.131 258.96H856.643C862.514 245.307 867.907 238.48 872.822 238.48C875.552 238.48 877.362 239.811 878.249 242.474C878.59 243.498 878.761 244.692 878.761 246.058C878.761 247.355 878.386 248.788 877.635 250.358C876.338 253.021 874.392 254.352 871.798 254.352C871.252 254.352 870.808 254.216 870.467 253.942C870.194 253.669 870.023 253.294 869.955 252.816C870.501 252.816 871.218 251.826 872.105 249.846C872.992 247.798 873.504 245.921 873.641 244.214C873.778 242.508 873.197 241.518 871.9 241.245C869.511 241.245 866.678 244.351 863.401 250.563C860.124 256.776 857.496 262.715 855.516 268.381C853.536 274.047 852.376 277.733 852.035 279.44C851.693 281.147 851.079 282 850.191 282Z" fill="#FAFAFA"/>
<path d="M839.318 244.624C841.025 244.624 841.878 246.058 841.878 248.925C841.878 250.973 840.752 256.912 838.499 266.742C836.246 276.505 834.232 284.594 832.457 291.011C830.683 297.428 829.01 302.173 827.44 305.245C825.87 308.385 823.958 311.525 821.705 314.666C819.521 317.806 817.097 319.956 814.435 321.117C811.773 322.277 808.701 322.858 805.219 322.858C798.734 322.858 795.491 319.547 795.491 312.925C795.491 309.034 796.959 304.835 799.894 300.33C804.127 293.708 809.793 289.339 816.893 287.222C819.419 286.472 822.047 286.096 824.777 286.096C825.255 286.096 825.494 286.574 825.494 287.53C825.494 288.485 825.255 288.963 824.777 288.963C816.722 288.963 809.964 292.138 804.502 298.486C800.475 303.265 798.461 307.873 798.461 312.31C798.461 316.748 800.167 319.308 803.581 319.99L805.219 320.093C810.817 320.093 815.254 317.772 818.531 313.13C821.876 308.419 824.504 302.48 826.416 295.312C828.327 288.076 830.785 276.744 833.789 261.315H832.969C825.597 275.173 819.521 282.102 814.742 282.102C809.349 282.102 806.653 278.041 806.653 269.917C806.653 265.206 807.881 260.052 810.339 254.454C813.752 246.877 818.087 241.928 823.344 239.606C825.187 238.856 827.03 238.48 828.873 238.48C830.785 238.48 832.287 239.026 833.379 240.118C834.471 241.211 835.017 242.44 835.017 243.805C835.017 244.419 834.676 244.726 833.993 244.726C833.379 244.658 833.072 244.317 833.072 243.702C833.072 243.088 832.731 242.542 832.048 242.064C831.433 241.518 830.512 241.245 829.283 241.245C824.982 241.245 821.091 245.102 817.609 252.816C814.333 259.984 812.694 266.777 812.694 273.194C812.694 277.153 813.548 279.133 815.254 279.133C817.507 279.133 820.443 276.47 824.061 271.146C829.522 263.09 833.789 255.205 836.861 247.491C837.68 245.58 838.499 244.624 839.318 244.624Z" fill="#FAFAFA"/>
<path d="M779.06 267.05C779.06 275.31 781.995 279.44 787.866 279.44C790.051 279.44 792.338 278.484 794.727 276.573C797.185 274.593 799.403 272.238 801.383 269.507C805.752 263.227 808.824 258.107 810.599 254.147L811.93 251.28H814.695C813.535 254.011 811.828 257.39 809.575 261.418C807.322 265.377 805.172 268.722 803.124 271.453C801.076 274.184 798.653 276.675 795.854 278.928C793.055 281.113 790.392 282.205 787.866 282.205C777.763 282.205 772.711 276.539 772.711 265.206C772.711 259.95 774.247 254.693 777.319 249.437C781.552 242.132 786.774 238.48 792.986 238.48C797.355 238.48 799.54 240.869 799.54 245.648C799.54 249.198 798.175 252.884 795.444 256.707C791.621 261.896 787.15 264.524 782.03 264.592C781.279 264.592 780.801 264.251 780.596 263.568L780.494 263.158C784.043 263.158 787.423 260.837 790.631 256.195C793.908 251.485 795.546 247.56 795.546 244.419C795.546 242.303 794.727 241.245 793.089 241.245C789.471 241.245 786.091 244.419 782.951 250.768C780.357 256.161 779.06 261.588 779.06 267.05Z" fill="#FAFAFA"/>
<path d="M748.383 237.251C748.383 236.5 748.861 236.125 749.816 236.125H755.141C755.483 234.759 755.926 233.053 756.472 231.005L757.906 225.68C758.316 224.11 758.657 222.676 758.93 221.379C759.271 220.082 759.886 219.434 760.773 219.434C761.934 219.434 762.753 220.321 763.231 222.096C763.436 222.847 763.538 223.769 763.538 224.861C763.538 225.953 763.333 227.353 762.924 229.059L760.978 236.125H767.327C767.941 236.125 768.351 236.33 768.556 236.739C768.829 237.149 768.829 237.558 768.556 237.968C768.351 238.309 767.941 238.48 767.327 238.48H760.364C756.131 254.386 754.015 265.65 754.015 272.272C754.015 277.119 755.107 279.542 757.292 279.542C759.067 279.542 761.558 277.187 764.767 272.477C767.975 267.766 770.74 263.056 773.061 258.346L776.543 251.28H779.308C778.898 252.099 778.352 253.226 777.669 254.659C777.055 256.025 775.792 258.516 773.88 262.134C771.969 265.684 770.126 268.825 768.351 271.555C766.644 274.286 764.699 276.778 762.514 279.03C760.398 281.215 758.418 282.307 756.575 282.307C754.732 282.307 753.127 281.727 751.762 280.566C750.465 279.338 749.646 277.631 749.304 275.446C748.895 273.194 748.69 270.907 748.69 268.586C748.69 263.193 750.601 253.157 754.424 238.48H749.816C749.27 238.48 748.895 238.343 748.69 238.07C748.485 237.729 748.383 237.456 748.383 237.251Z" fill="#FAFAFA"/>
<path d="M708.089 282C706.178 282 705.222 280.532 705.222 277.597C705.222 276.027 707.133 264.592 710.956 243.293C711.161 241.859 711.775 241.142 712.799 241.142C714.028 241.142 714.95 242.03 715.564 243.805C715.906 244.761 716.076 245.819 716.076 246.979C716.076 248.072 715.94 249.266 715.667 250.563L714.028 258.755H714.643C720.787 244.965 726.658 238.07 732.255 238.07C734.44 238.07 736.112 238.753 737.273 240.118C738.434 241.416 739.014 243.225 739.014 245.546C739.014 247.867 738.092 252.884 736.249 260.598C734.406 268.313 733.484 273.672 733.484 276.675C733.484 281.113 734.303 283.331 735.942 283.331C735.942 283.809 735.635 284.287 735.02 284.765C734.406 285.243 733.689 285.482 732.87 285.482C728.91 285.482 726.931 282.376 726.931 276.163C726.931 272.34 727.955 266.572 730.003 258.858C732.119 251.075 733.177 246.126 733.177 244.01C733.177 241.825 732.324 240.733 730.617 240.733C728.159 240.733 725.19 243.941 721.708 250.358C718.295 256.775 715.53 262.919 713.414 268.79C711.366 274.593 710.171 278.245 709.83 279.747C709.557 281.249 708.976 282 708.089 282Z" fill="#FAFAFA"/>
<path d="M660.861 293.571C650.689 293.571 643.521 290.021 639.357 282.922C636.148 277.392 635.431 271.419 637.206 265.002C638.981 258.585 642.326 254.113 647.241 251.587C649.562 250.427 652.088 249.846 654.819 249.846C662.055 249.846 667.005 252.645 669.667 258.243C670.828 260.701 671.408 263.056 671.408 265.309C671.408 267.562 670.998 269.712 670.179 271.76C668.404 276.47 665.503 278.826 661.475 278.826C660.246 278.826 659.359 278.348 658.813 277.392L658.608 276.88C661.543 276.88 663.83 274.798 665.469 270.634C666.288 268.586 666.697 266.538 666.697 264.49C666.697 262.373 666.254 260.223 665.366 258.038C663.66 253.874 660.076 251.792 654.614 251.792C649.153 251.792 644.818 254.454 641.609 259.779C639.493 263.329 638.435 267.084 638.435 271.043C638.435 272.682 638.606 274.388 638.947 276.163C640.381 282.58 644.067 286.949 650.006 289.27C652.669 290.294 655.98 290.806 659.939 290.806C663.898 290.806 667.585 289.885 670.998 288.042C674.48 286.267 677.279 283.775 679.395 280.566C681.58 277.358 683.423 273.808 684.925 269.917C686.426 266.026 687.655 261.657 688.611 256.81C689.635 251.963 690.488 247.389 691.171 243.088C693.082 230.868 694.823 222.437 696.393 217.795C690.045 217.317 686.734 217.078 686.461 217.078C676.767 217.078 669.974 220.253 666.083 226.602C664.308 229.469 663.421 232.404 663.421 235.408C663.421 236.842 663.625 238.275 664.035 239.709C665.264 243.805 667.517 245.853 670.793 245.853C670.793 246.399 670.52 246.911 669.974 247.389C669.428 247.867 668.745 248.106 667.926 248.106C664.035 248.106 661.27 246.092 659.632 242.064C658.881 240.084 658.505 237.934 658.505 235.613C658.505 233.292 659.188 230.698 660.553 227.83C663.557 221.345 669.053 217.215 677.04 215.44C679.566 214.894 681.853 214.621 683.901 214.621C686.017 214.621 690.454 214.928 697.213 215.542C700.285 207.76 704.688 203.869 710.422 203.869C710.9 203.869 711.31 204.039 711.651 204.381C712.061 204.654 712.368 205.063 712.573 205.61C707.589 205.61 704.039 209.023 701.923 215.85H703.971C711.002 215.85 715.918 213.631 718.717 209.194C719.809 207.487 720.355 206.019 720.355 204.79C720.355 201.582 719.229 199.978 716.976 199.978C717.385 198.749 718.17 198.134 719.331 198.134C721.311 198.134 722.642 199.363 723.325 201.821C723.529 202.708 723.632 203.562 723.632 204.381C723.632 206.838 722.676 209.262 720.765 211.651C717.146 216.02 711.514 218.205 703.869 218.205H701.309C700.08 222.983 699.158 228.82 698.544 235.715C697.929 242.542 697.247 248.208 696.496 252.714C695.813 257.151 694.994 261.247 694.038 265.002C693.151 268.756 691.785 272.443 689.942 276.061C688.167 279.679 686.051 282.717 683.593 285.174C681.136 287.7 677.961 289.714 674.07 291.216C670.179 292.786 665.776 293.571 660.861 293.571Z" fill="#FAFAFA"/>
<path d="M560.742 282.102C555.349 282.102 552.653 278.041 552.653 269.917C552.653 265.206 553.881 260.052 556.339 254.454C559.752 246.877 564.087 241.928 569.344 239.606C571.187 238.856 573.03 238.48 574.873 238.48C576.785 238.48 578.287 239.026 579.379 240.118C580.471 241.211 581.017 242.44 581.017 243.805C581.017 244.419 580.676 244.726 579.993 244.726C579.379 244.658 579.072 244.317 579.072 243.702C579.072 243.088 578.73 242.542 578.048 242.064C577.433 241.518 576.512 241.245 575.283 241.245C570.982 241.245 567.091 245.102 563.609 252.816C560.333 259.984 558.694 266.777 558.694 273.194C558.694 277.153 559.548 279.133 561.254 279.133C563.029 279.133 565.145 277.665 567.603 274.73C570.129 271.726 572.45 268.244 574.566 264.285C579.14 255.956 581.837 250.597 582.656 248.208C583.475 245.819 584.362 244.624 585.318 244.624C587.025 244.624 587.878 246.058 587.878 248.925C587.878 249.812 587.776 250.836 587.571 251.997C585.318 262.92 584.089 269.234 583.885 270.941C583.748 272.648 583.68 273.876 583.68 274.627C583.68 277.904 584.465 279.542 586.035 279.542C587.81 279.542 590.302 277.187 593.51 272.477C596.719 267.766 599.484 263.056 601.805 258.346L605.286 251.28H608.051C607.641 252.099 607.095 253.226 606.413 254.659C605.798 256.025 604.535 258.516 602.624 262.134C600.712 265.684 598.869 268.825 597.094 271.555C595.388 274.286 593.442 276.778 591.257 279.03C589.141 281.215 587.298 282.307 585.728 282.307C580.676 282.307 578.15 278.621 578.15 271.248C578.15 268.79 578.423 265.923 578.969 262.646H578.253C571.289 275.617 565.453 282.102 560.742 282.102Z" fill="#FAFAFA"/>
<path d="M519.072 276.982C517.707 276.982 516.41 277.836 515.181 279.542C513.884 281.181 512.723 282 511.699 282C510.675 282 510.163 281.761 510.163 281.283C510.163 281.078 510.231 280.908 510.368 280.771C519.584 269.166 528.937 258.346 538.426 248.31C536.378 248.857 534.33 249.13 532.282 249.13C526.342 249.13 522.622 247.389 521.12 243.907C520.779 243.02 520.608 242.064 520.608 241.04C520.608 239.948 521.086 238.856 522.042 237.763C523.066 236.603 524.192 236.022 525.421 236.022C526.65 236.022 527.537 236.261 528.083 236.739C528.698 237.149 529.107 237.797 529.312 238.685C528.288 238.685 527.639 239.265 527.366 240.426C527.298 240.767 527.264 241.074 527.264 241.347C527.264 242.713 528.22 243.771 530.131 244.522C531.36 245 533.169 245.238 535.558 245.238C538.016 245.238 540.405 244.795 542.726 243.907C546.481 240.289 548.905 238.48 549.997 238.48C550.543 238.48 550.816 238.685 550.816 239.094C550.816 239.504 550.304 240.426 549.28 241.859C548.256 243.293 546.31 244.795 543.443 246.365C538.391 251.963 530.404 261.247 519.482 274.218C519.755 274.149 520.301 274.115 521.12 274.115C522.007 274.115 523.817 274.764 526.547 276.061C529.346 277.358 531.838 278.006 534.022 278.006C537.982 278.006 540.644 276.402 542.01 273.194C542.419 272.17 542.624 271.214 542.624 270.326C542.624 269.371 542.385 268.586 541.907 267.971C541.429 267.357 540.849 267.05 540.166 267.05C540.303 266.162 540.815 265.718 541.702 265.718C544.228 265.718 545.491 267.698 545.491 271.658C545.491 274.525 544.399 277.358 542.214 280.157C540.03 282.956 536.958 284.355 532.998 284.355C531.087 284.355 529.38 283.946 527.878 283.126C526.377 282.376 525.25 281.556 524.499 280.669C522.315 278.211 520.506 276.982 519.072 276.982Z" fill="#FAFAFA"/>
<path d="M483.185 267.05C483.185 275.31 486.12 279.44 491.991 279.44C494.176 279.44 496.463 278.484 498.852 276.573C501.31 274.593 503.528 272.238 505.508 269.507C509.877 263.227 512.949 258.107 514.724 254.147L516.055 251.28H518.82C517.66 254.011 515.953 257.39 513.7 261.418C511.447 265.377 509.297 268.722 507.249 271.453C505.201 274.184 502.778 276.675 499.979 278.928C497.18 281.113 494.517 282.205 491.991 282.205C481.888 282.205 476.836 276.539 476.836 265.206C476.836 259.95 478.372 254.693 481.444 249.437C485.677 242.132 490.899 238.48 497.111 238.48C501.48 238.48 503.665 240.869 503.665 245.648C503.665 249.198 502.3 252.884 499.569 256.707C495.746 261.896 491.275 264.524 486.155 264.592C485.404 264.592 484.926 264.251 484.721 263.568L484.619 263.158C488.168 263.158 491.548 260.837 494.756 256.195C498.033 251.485 499.671 247.56 499.671 244.419C499.671 242.303 498.852 241.245 497.214 241.245C493.596 241.245 490.216 244.419 487.076 250.768C484.482 256.161 483.185 261.588 483.185 267.05Z" fill="#FAFAFA"/>
<path d="M468.082 220.662C469.652 220.662 470.437 221.721 470.437 223.837C470.437 225.953 469.413 227.66 467.365 228.957C466.341 229.639 465.454 229.981 464.703 229.981C463.61 229.981 462.962 229.639 462.757 228.957L462.655 228.65C463.269 228.65 463.713 228.001 463.986 226.704C464.259 225.339 464.668 224.007 465.215 222.71C465.829 221.345 466.785 220.662 468.082 220.662ZM461.528 279.542C463.303 279.542 465.795 277.187 469.003 272.477C472.212 267.766 474.977 263.056 477.298 258.346L480.779 251.28H483.544C483.135 252.099 482.588 253.226 481.906 254.659C481.291 256.025 480.029 258.516 478.117 262.134C476.206 265.684 474.362 268.825 472.587 271.555C470.881 274.286 468.935 276.778 466.751 279.03C464.634 281.215 462.791 282.307 461.221 282.307C456.169 282.307 453.643 279.03 453.643 272.477C453.643 267.562 455.043 259.574 457.842 248.515C458.115 247.355 458.32 246.467 458.456 245.853C458.661 245.238 458.866 244.453 459.071 243.498C459.275 242.474 459.48 241.552 459.685 240.733C460.026 239.299 460.641 238.582 461.528 238.582C462.757 238.582 463.644 239.47 464.191 241.245C464.464 242.064 464.6 243.054 464.6 244.214C464.6 245.375 464.464 246.604 464.191 247.901C463.918 249.13 463.474 250.973 462.859 253.43C462.245 255.888 461.767 257.902 461.426 259.472C461.084 261.042 460.709 262.954 460.299 265.206C459.548 268.961 459.173 272.306 459.173 275.242C459.173 278.109 459.958 279.542 461.528 279.542Z" fill="#FAFAFA"/>
<path d="M428.118 279.235C430.712 279.235 433.545 275.719 436.617 268.688C439.757 261.247 441.327 254.454 441.327 248.31C441.327 244.078 440.235 241.927 438.051 241.859C435.934 241.859 433.511 243.566 430.78 246.979C428.118 250.393 425.694 254.42 423.51 259.062C418.799 269.234 415.864 276.846 414.703 281.898C411.085 298.282 408.594 308.453 407.228 312.413C404.839 319.376 402.108 322.858 399.036 322.858C396.647 322.858 395.452 321.219 395.452 317.942C395.452 316.031 395.862 313.505 396.681 310.365C398.797 302.787 402.108 295.517 406.614 288.554L409.379 284.765C409.993 281.693 410.812 277.255 411.836 271.453C413.884 259.779 415.352 252.065 416.239 248.31C417.195 244.487 418.287 241.893 419.516 240.528C420.813 239.094 421.906 238.378 422.793 238.378C424.5 238.378 425.114 239.06 424.636 240.426C422.93 246.023 421.155 252.645 419.311 260.291H420.028C426.718 245.75 432.76 238.48 438.153 238.48C442.522 238.48 445.253 241.279 446.345 246.877C446.686 248.652 446.857 250.461 446.857 252.304C446.857 256.81 445.833 261.691 443.785 266.947C440.918 274.457 437.095 279.201 432.316 281.181C430.883 281.795 429.449 282.102 428.015 282.102C424.67 282.102 422.725 280.259 422.179 276.573C422.11 275.958 422.247 275.481 422.588 275.139C422.93 274.798 423.339 274.695 423.817 274.832C424.295 274.969 424.568 275.31 424.636 275.856C424.978 278.109 426.138 279.235 428.118 279.235ZM398.729 320.093C401.391 320.093 404.668 309.785 408.559 289.168C404.532 295.449 401.289 302.412 398.831 310.058C397.739 313.471 397.193 315.997 397.193 317.635C397.193 319.274 397.705 320.093 398.729 320.093Z" fill="#FAFAFA"/>
<path d="M350.964 282C349.053 282 348.097 280.532 348.097 277.597C348.097 276.027 350.008 264.592 353.831 243.293C354.036 241.859 354.65 241.142 355.674 241.142C356.903 241.142 357.825 242.03 358.439 243.805C358.781 244.761 358.951 245.819 358.951 246.979C358.951 248.072 358.815 249.266 358.542 250.563L357.006 258.346H357.62C363.627 244.829 369.43 238.07 375.028 238.07C376.939 238.07 378.441 238.753 379.534 240.118C380.694 241.484 381.274 243.122 381.274 245.034C381.274 248.584 380.728 253.021 379.636 258.346H380.046C385.848 245.716 391.549 239.402 397.146 239.402C398.99 239.402 400.491 240.084 401.652 241.45C402.813 242.815 403.393 244.624 403.393 246.877C403.393 249.13 402.505 253.908 400.73 261.213C399.024 268.517 398.17 273.672 398.17 276.675C398.17 281.113 398.99 283.331 400.628 283.331C400.628 283.809 400.321 284.287 399.706 284.765C399.092 285.243 398.375 285.482 397.556 285.482C393.597 285.482 391.617 282.376 391.617 276.163C391.617 272.272 392.607 266.674 394.586 259.37C396.566 251.997 397.556 247.286 397.556 245.238C397.556 243.122 396.873 242.064 395.508 242.064C392.982 242.064 390.013 245.136 386.599 251.28C383.254 257.356 380.558 263.193 378.51 268.79C376.53 274.388 375.369 278.006 375.028 279.645C374.687 281.215 374.072 282 373.185 282C371.273 282 370.318 280.532 370.318 277.597C370.318 276.505 370.898 272.648 372.058 266.026C374.311 253.874 375.438 246.638 375.438 244.317C375.438 241.928 374.755 240.733 373.39 240.733C371.546 240.733 369.396 242.644 366.938 246.467C364.481 250.222 362.262 254.591 360.282 259.574C355.982 270.088 353.456 276.88 352.705 279.952C352.432 281.317 351.851 282 350.964 282Z" fill="#FAFAFA"/>
<path d="M339.957 220.662C341.527 220.662 342.312 221.721 342.312 223.837C342.312 225.953 341.288 227.66 339.24 228.957C338.216 229.639 337.329 229.981 336.578 229.981C335.485 229.981 334.837 229.639 334.632 228.957L334.53 228.65C335.144 228.65 335.588 228.001 335.861 226.704C336.134 225.339 336.543 224.007 337.09 222.71C337.704 221.345 338.66 220.662 339.957 220.662ZM333.403 279.542C335.178 279.542 337.67 277.187 340.878 272.477C344.087 267.766 346.852 263.056 349.173 258.346L352.654 251.28H355.419C355.01 252.099 354.463 253.226 353.781 254.659C353.166 256.025 351.903 258.516 349.992 262.134C348.081 265.684 346.237 268.825 344.462 271.555C342.756 274.286 340.81 276.778 338.626 279.03C336.509 281.215 334.666 282.307 333.096 282.307C328.044 282.307 325.518 279.03 325.518 272.477C325.518 267.562 326.918 259.574 329.717 248.515C329.99 247.355 330.195 246.467 330.331 245.853C330.536 245.238 330.741 244.453 330.946 243.498C331.15 242.474 331.355 241.552 331.56 240.733C331.901 239.299 332.516 238.582 333.403 238.582C334.632 238.582 335.519 239.47 336.066 241.245C336.339 242.064 336.475 243.054 336.475 244.214C336.475 245.375 336.339 246.604 336.066 247.901C335.793 249.13 335.349 250.973 334.734 253.43C334.12 255.888 333.642 257.902 333.301 259.472C332.959 261.042 332.584 262.954 332.174 265.206C331.423 268.961 331.048 272.306 331.048 275.242C331.048 278.109 331.833 279.542 333.403 279.542Z" fill="#FAFAFA"/>
<path d="M319.581 196.906C325.862 196.906 329.002 201.616 329.002 211.037C329.002 217.044 327.364 223.973 324.087 231.824C319.308 243.225 312.823 251.997 304.631 258.141C301.491 260.462 298.282 262.237 295.005 263.466C291.728 271.931 287.598 278.109 282.615 282C289.441 287.052 294.391 290.329 297.463 291.83C300.535 293.401 303.504 294.186 306.372 294.186C311.355 294.186 314.632 292.445 316.202 288.963C316.68 287.871 316.919 286.847 316.919 285.891C316.919 284.936 316.646 284.116 316.1 283.434C315.622 282.819 315.041 282.512 314.359 282.512C314.564 281.693 315.076 281.283 315.895 281.283C318.216 281.283 319.752 282.58 320.503 285.174C320.776 286.062 320.912 286.915 320.912 287.734C320.912 289.782 320.127 291.694 318.557 293.469C316.373 296.063 313.13 297.36 308.829 297.36C303.436 297.36 298.248 295.79 293.264 292.65C290.465 290.943 288.417 289.612 287.12 288.656C285.892 287.7 283.673 285.994 280.464 283.536C276.232 286.198 271.556 287.53 266.436 287.53C258.858 287.53 253.943 285.618 251.69 281.795C251.076 280.635 250.768 279.44 250.768 278.211C250.768 276.914 251.315 275.583 252.407 274.218C254.113 272.101 256.571 271.043 259.78 271.043C264.9 271.043 271.283 273.808 278.928 279.338C282 276.197 284.765 271.521 287.223 265.309C286.54 265.377 285.55 265.411 284.253 265.411C273.126 265.411 264.968 260.974 259.78 252.099C256.639 246.638 255.069 240.596 255.069 233.974C255.069 231.722 255.24 229.435 255.581 227.114C256.81 218.444 260.019 211.822 265.207 207.248C268.757 204.244 272.784 202.742 277.29 202.742C281.796 202.742 285.277 204.21 287.735 207.146C290.192 210.081 291.489 213.699 291.626 218C291.626 218.614 291.285 219.126 290.602 219.536C289.919 219.877 289.237 219.98 288.554 219.843C287.871 219.638 287.53 219.195 287.53 218.512C287.393 214.416 286.574 211.173 285.072 208.784C283.571 206.326 280.874 205.098 276.983 205.098C270.839 205.098 265.889 208.477 262.135 215.235C259.131 220.56 257.629 226.431 257.629 232.848C257.629 244.59 261.418 253.089 268.996 258.346C273.16 261.281 278.212 262.749 284.151 262.749C285.516 262.749 286.916 262.646 288.349 262.442C289.919 258.209 291.592 252.68 293.367 245.853C295.142 238.958 296.712 232.985 298.077 227.933C299.511 222.813 301.183 217.727 303.095 212.675C307.054 202.162 312.55 196.906 319.581 196.906ZM318.455 199.875C313.676 199.875 310.024 204.483 307.498 213.699C306.269 218.137 305.177 222.71 304.221 227.421C301.422 241.825 298.828 252.577 296.439 259.677C304.836 255.376 311.696 247.321 317.021 235.51C321.322 226.09 323.438 217.42 323.37 209.501C323.165 203.22 321.527 200.012 318.455 199.875ZM277.085 281.078C270.395 276.095 264.627 273.603 259.78 273.603C256.708 273.603 254.762 274.696 253.943 276.88C253.055 278.996 253.977 281.01 256.708 282.922C258.756 284.355 261.862 285.072 266.026 285.072C270.19 285.072 273.877 283.741 277.085 281.078Z" fill="#FAFAFA"/>
</svg>
