<svg width="800" height="600" viewBox="0 0 800 600" fill="none" xmlns="http://www.w3.org/2000/svg">
<rect width="800" height="600" fill="#1E1E1E"/>
<rect width="800" height="600" fill="white"/>
<path d="M208.585 365.352C209.651 367.187 210.185 368.957 210.185 370.664C210.185 371.048 210.142 371.389 210.057 371.688C210.014 372.029 209.95 372.371 209.865 372.712C209.139 372.627 208.371 372.563 207.561 372.52C206.793 372.477 205.982 372.456 205.129 372.456C204.105 372.456 203.059 372.477 201.993 372.52C200.969 372.605 199.817 372.712 198.537 372.84C197.257 372.968 195.827 373.139 194.249 373.352C192.67 373.565 190.835 373.843 188.745 374.184C187.763 373.843 186.782 373.16 185.801 372.136C184.819 371.155 183.902 369.96 183.049 368.552C183.475 367.613 184.009 366.461 184.649 365.096C185.289 363.688 186.035 362.003 186.889 360.04C187.742 358.035 188.681 355.709 189.705 353.064C190.771 350.376 191.902 347.283 193.097 343.784C193.865 341.48 194.526 339.453 195.081 337.704C195.635 335.955 196.126 334.269 196.553 332.648C197.022 330.984 197.47 329.256 197.897 327.464C198.323 325.672 198.793 323.603 199.305 321.256C201.011 321.597 202.483 322.237 203.721 323.176C205.001 324.072 206.217 325.373 207.369 327.08C207.027 327.635 206.579 328.531 206.025 329.768C205.47 331.005 204.809 332.52 204.041 334.312C203.315 336.061 202.505 338.067 201.609 340.328C200.713 342.547 199.774 344.936 198.793 347.496C197.854 350.013 196.937 352.381 196.041 354.6C195.145 356.819 194.334 358.824 193.609 360.616C192.926 362.408 192.371 363.944 191.945 365.224C191.518 366.504 191.305 367.464 191.305 368.104C191.987 368.061 192.606 368.019 193.161 367.976C193.715 367.933 194.291 367.869 194.889 367.784C195.486 367.656 196.126 367.528 196.809 367.4C197.534 367.229 198.387 367.016 199.369 366.76C200.222 366.547 201.011 366.376 201.737 366.248C202.462 366.077 203.166 365.949 203.849 365.864C204.574 365.736 205.299 365.651 206.025 365.608C206.793 365.523 207.646 365.437 208.585 365.352ZM213.96 364.712C213.96 364.328 213.981 363.859 214.024 363.304C214.109 362.707 214.237 361.939 214.408 361C214.578 360.019 214.792 358.845 215.048 357.48C215.346 356.115 215.709 354.472 216.135 352.552C216.221 352.125 216.413 351.443 216.712 350.504C217.01 349.565 217.394 348.584 217.864 347.56C218.376 346.493 218.973 345.469 219.656 344.488C220.381 343.507 221.234 342.781 222.216 342.312C222.941 342.483 223.901 342.931 225.096 343.656C226.29 344.339 227.314 345.299 228.168 346.536C227.186 347.645 226.354 348.755 225.672 349.864C225.032 350.973 224.434 352.125 223.88 353.32C223.368 354.515 222.877 355.752 222.408 357.032C221.981 358.312 221.49 359.656 220.936 361.064C220.466 362.259 220.04 363.496 219.656 364.776C219.272 366.013 219.058 367.101 219.016 368.04C219.016 368.808 218.994 369.341 218.952 369.64C218.952 369.981 218.845 370.152 218.632 370.152C218.461 370.152 218.12 370.045 217.608 369.832C217.096 369.619 216.562 369.299 216.008 368.872C215.496 368.403 215.026 367.827 214.6 367.144C214.173 366.461 213.96 365.651 213.96 364.712ZM226.184 336.936C226.184 336.68 226.248 336.296 226.376 335.784C226.162 335.571 225.97 335.251 225.8 334.824C225.672 334.397 225.608 334.013 225.608 333.672C225.608 333.288 225.65 332.776 225.736 332.136C225.864 331.453 226.013 330.728 226.184 329.96C226.354 329.192 226.568 328.403 226.824 327.592C227.08 326.739 227.336 325.971 227.592 325.288C228.104 325.288 228.722 325.437 229.448 325.736C230.216 325.992 230.984 326.355 231.752 326.824C232.52 327.251 233.224 327.741 233.864 328.296C234.504 328.808 234.994 329.299 235.336 329.768C234.866 330.237 234.248 330.899 233.48 331.752C232.712 332.563 231.965 333.437 231.24 334.376C230.514 335.272 229.853 336.125 229.256 336.936C228.658 337.747 228.274 338.323 228.104 338.664C227.592 338.579 227.144 338.365 226.76 338.024C226.376 337.64 226.184 337.277 226.184 336.936ZM266.013 349.352C265.33 349.395 264.498 349.843 263.517 350.696C262.535 351.507 261.469 352.573 260.317 353.896C259.207 355.176 258.034 356.605 256.797 358.184C255.602 359.763 254.429 361.341 253.277 362.92C252.167 364.456 251.122 365.907 250.141 367.272C249.159 368.637 248.327 369.725 247.645 370.536C246.706 370.152 245.895 369.597 245.213 368.872C244.53 368.104 244.039 367.165 243.741 366.056C243.954 364.733 244.253 363.368 244.637 361.96C245.021 360.509 245.511 359.016 246.109 357.48C246.749 355.944 247.517 354.344 248.413 352.68C249.351 350.973 250.482 349.181 251.805 347.304C251.165 347.347 250.29 347.816 249.181 348.712C248.071 349.565 246.877 350.696 245.597 352.104C244.317 353.469 242.994 355.027 241.628 356.776C240.263 358.483 238.983 360.168 237.789 361.832C236.21 364.051 234.887 365.992 233.821 367.656C232.797 369.32 232.05 370.301 231.581 370.6C230.471 369.789 229.703 368.915 229.277 367.976C228.85 367.037 228.53 365.992 228.317 364.84C228.359 363.816 228.509 362.536 228.765 361C229.063 359.464 229.469 357.885 229.981 356.264C230.962 353.149 232.221 350.056 233.757 346.984C235.335 343.912 236.85 341.096 238.301 338.536C239.495 338.792 240.562 339.197 241.501 339.752C242.482 340.307 243.506 341.117 244.573 342.184C244.146 343.507 243.485 344.915 242.589 346.408C241.693 347.859 240.754 349.395 239.773 351.016C238.791 352.637 237.895 354.301 237.085 356.008C236.274 357.715 235.741 359.443 235.485 361.192C236.679 359.485 238.087 357.523 239.708 355.304C241.373 353.085 243.058 350.995 244.765 349.032C246.514 347.069 248.242 345.405 249.949 344.04C251.655 342.675 253.191 341.992 254.557 341.992C255.069 341.992 255.623 342.077 256.221 342.248C256.818 342.419 257.373 342.632 257.885 342.888C258.397 343.144 258.823 343.4 259.165 343.656C259.506 343.869 259.698 344.04 259.741 344.168C259.527 345.021 259.015 346.195 258.205 347.688C257.437 349.139 256.605 350.675 255.708 352.296C254.813 353.917 253.981 355.496 253.213 357.032C252.445 358.525 251.997 359.72 251.869 360.616C253.959 357.757 255.922 355.176 257.757 352.872C259.591 350.525 261.319 348.52 262.941 346.856C264.562 345.192 266.055 343.912 267.421 343.016C268.829 342.12 270.151 341.672 271.389 341.672C272.242 341.672 273.031 341.907 273.757 342.376C274.525 342.803 275.058 343.443 275.357 344.296C274.973 345.576 274.333 347.112 273.437 348.904C272.583 350.696 271.709 352.595 270.813 354.6C269.917 356.563 269.106 358.504 268.381 360.424C267.698 362.344 267.357 364.072 267.357 365.608C267.357 366.504 267.485 367.101 267.741 367.4C267.997 367.656 268.359 367.784 268.829 367.784C269.341 367.784 269.81 367.699 270.237 367.528C270.706 367.315 271.047 367.208 271.261 367.208C271.517 367.379 271.666 367.592 271.709 367.848C271.751 368.104 271.773 368.339 271.773 368.552C270.919 369.235 270.045 369.789 269.149 370.216C268.253 370.685 267.25 370.92 266.141 370.92C265.117 370.92 264.263 370.749 263.581 370.408C262.941 370.067 262.407 369.597 261.981 369C261.554 368.403 261.255 367.72 261.085 366.952C260.914 366.184 260.829 365.352 260.829 364.456C260.829 363.005 261.021 361.576 261.405 360.168C261.789 358.717 262.237 357.352 262.749 356.072C263.303 354.749 263.879 353.533 264.477 352.424C265.074 351.272 265.586 350.248 266.013 349.352ZM273.286 390.184C272.689 390.013 272.347 389.373 272.262 388.264C272.091 387.709 271.963 387.048 271.878 386.28C271.835 385.512 271.814 384.637 271.814 383.656C271.814 382.76 271.963 381.523 272.262 379.944C272.561 378.408 272.966 376.659 273.478 374.696C274.033 372.733 274.694 370.621 275.462 368.36C276.23 366.056 277.083 363.731 278.022 361.384C279.174 358.44 280.177 355.901 281.03 353.768C281.883 351.592 282.587 349.715 283.142 348.136C283.739 346.557 284.209 345.256 284.55 344.232C284.934 343.208 285.233 342.333 285.446 341.608C285.617 341.096 285.873 340.477 286.214 339.752C286.555 339.027 286.939 338.301 287.366 337.576C287.835 336.808 288.305 336.104 288.774 335.464C289.243 334.781 289.67 334.269 290.054 333.928C291.547 334.141 292.955 334.525 294.278 335.08C295.601 335.635 296.411 336.168 296.71 336.68C296.113 337.235 295.43 338.109 294.662 339.304C293.894 340.456 293.147 341.736 292.422 343.144C291.697 344.509 291.035 345.917 290.438 347.368C289.841 348.819 289.393 350.099 289.094 351.208C289.521 350.483 290.075 349.693 290.758 348.84C291.441 347.987 292.486 346.813 293.894 345.32C295.473 343.699 296.945 342.461 298.31 341.608C299.718 340.712 300.934 340.264 301.958 340.264C303.579 340.264 304.902 340.712 305.926 341.608C306.993 342.504 307.526 343.656 307.526 345.064C307.526 348.136 307.014 351.187 305.99 354.216C304.966 357.203 303.494 359.912 301.574 362.344C300.849 363.283 299.995 364.179 299.014 365.032C298.033 365.885 297.009 366.653 295.942 367.336C294.875 367.976 293.83 368.488 292.806 368.872C291.782 369.256 290.865 369.448 290.054 369.448C289.286 369.448 288.603 369.299 288.006 369C287.451 368.659 287.067 368.253 286.854 367.784C288.518 366.803 290.139 365.437 291.718 363.688C293.297 361.939 294.747 359.933 296.07 357.672C297.435 355.368 298.609 352.893 299.59 350.248C300.614 347.603 301.382 344.915 301.894 342.184C300.273 343.037 298.801 343.976 297.478 345C296.198 345.981 294.918 347.283 293.638 348.904C292.102 350.781 290.886 352.296 289.99 353.448C289.094 354.6 288.347 355.581 287.75 356.392C287.195 357.203 286.726 357.971 286.342 358.696C286.001 359.379 285.617 360.232 285.19 361.256C284.593 362.621 283.889 364.435 283.078 366.696C282.31 368.915 281.499 371.411 280.646 374.184C279.835 376.957 279.003 379.901 278.15 383.016C277.339 386.173 276.55 389.309 275.782 392.424C275.313 392.339 274.907 391.997 274.566 391.4C274.225 391.016 273.969 390.739 273.798 390.568C273.67 390.397 273.499 390.269 273.286 390.184ZM309.897 364.712C309.897 364.328 309.918 363.859 309.961 363.304C310.046 362.707 310.174 361.939 310.345 361C310.516 360.019 310.729 358.845 310.985 357.48C311.284 356.115 311.646 354.472 312.073 352.552C312.158 352.125 312.35 351.443 312.649 350.504C312.948 349.565 313.332 348.584 313.801 347.56C314.313 346.493 314.91 345.469 315.593 344.488C316.318 343.507 317.172 342.781 318.153 342.312C318.878 342.483 319.838 342.931 321.033 343.656C322.228 344.339 323.252 345.299 324.105 346.536C323.124 347.645 322.292 348.755 321.609 349.864C320.969 350.973 320.372 352.125 319.817 353.32C319.305 354.515 318.814 355.752 318.345 357.032C317.918 358.312 317.428 359.656 316.873 361.064C316.404 362.259 315.977 363.496 315.593 364.776C315.209 366.013 314.996 367.101 314.953 368.04C314.953 368.808 314.932 369.341 314.889 369.64C314.889 369.981 314.782 370.152 314.569 370.152C314.398 370.152 314.057 370.045 313.545 369.832C313.033 369.619 312.5 369.299 311.945 368.872C311.433 368.403 310.964 367.827 310.537 367.144C310.11 366.461 309.897 365.651 309.897 364.712ZM322.121 336.936C322.121 336.68 322.185 336.296 322.313 335.784C322.1 335.571 321.908 335.251 321.737 334.824C321.609 334.397 321.545 334.013 321.545 333.672C321.545 333.288 321.588 332.776 321.673 332.136C321.801 331.453 321.95 330.728 322.121 329.96C322.292 329.192 322.505 328.403 322.761 327.592C323.017 326.739 323.273 325.971 323.529 325.288C324.041 325.288 324.66 325.437 325.385 325.736C326.153 325.992 326.921 326.355 327.689 326.824C328.457 327.251 329.161 327.741 329.801 328.296C330.441 328.808 330.932 329.299 331.273 329.768C330.804 330.237 330.185 330.899 329.417 331.752C328.649 332.563 327.902 333.437 327.177 334.376C326.452 335.272 325.79 336.125 325.193 336.936C324.596 337.747 324.212 338.323 324.041 338.664C323.529 338.579 323.081 338.365 322.697 338.024C322.313 337.64 322.121 337.277 322.121 336.936ZM347.87 342.504C347.699 345.149 347.23 347.432 346.462 349.352C345.694 351.229 344.585 352.893 343.134 354.344C341.726 355.752 339.998 357.032 337.95 358.184C335.902 359.336 333.513 360.445 330.782 361.512C330.782 361.768 330.761 362.045 330.718 362.344C330.718 362.6 330.718 362.877 330.718 363.176C330.718 363.731 330.761 364.307 330.846 364.904C330.931 365.501 331.081 366.056 331.294 366.568C331.507 367.08 331.806 367.507 332.19 367.848C332.574 368.147 333.065 368.296 333.662 368.296C334.814 368.296 335.945 368.04 337.054 367.528C338.163 367.016 339.209 366.397 340.19 365.672C341.214 364.904 342.153 364.093 343.006 363.24C343.902 362.344 344.691 361.533 345.374 360.808C345.801 361.192 346.163 361.555 346.462 361.896C344.542 364.456 342.43 366.589 340.126 368.296C337.865 369.96 335.71 371.027 333.662 371.496C330.718 371.155 328.414 370.088 326.75 368.296C325.129 366.461 324.318 364.264 324.318 361.704C324.318 359.955 324.553 358.184 325.022 356.392C325.534 354.557 326.217 352.808 327.07 351.144C327.966 349.437 328.99 347.837 330.142 346.344C331.337 344.851 332.595 343.549 333.918 342.44C335.283 341.331 336.67 340.456 338.078 339.816C339.529 339.176 340.958 338.856 342.366 338.856C344.329 339.112 346.163 340.328 347.87 342.504ZM343.454 344.616C342.302 344.787 341.107 345.256 339.87 346.024C338.633 346.792 337.459 347.816 336.35 349.096C335.283 350.376 334.302 351.869 333.406 353.576C332.51 355.283 331.806 357.117 331.294 359.08C334.707 357.373 337.545 355.283 339.806 352.808C342.067 350.291 343.283 347.56 343.454 344.616ZM348.529 368.104C348.529 367.421 349.126 366.333 350.321 364.84C351.516 363.304 353.094 361.576 355.057 359.656C357.062 357.693 359.345 355.645 361.905 353.512C364.508 351.336 367.196 349.245 369.969 347.24C368.177 346.856 366.748 346.579 365.681 346.408C364.657 346.237 363.825 346.152 363.185 346.152C361.948 346.152 360.838 346.323 359.857 346.664C358.876 347.005 357.916 347.56 356.977 348.328C355.014 346.621 354.033 344.659 354.033 342.44C354.033 341.757 354.054 341.352 354.097 341.224C354.822 340.499 355.676 339.944 356.657 339.56C357.681 339.176 358.748 338.984 359.857 338.984C361.052 338.984 362.268 339.176 363.505 339.56C364.742 339.944 365.958 340.371 367.153 340.84C368.348 341.267 369.457 341.672 370.481 342.056C371.548 342.44 372.486 342.632 373.297 342.632C373.766 342.632 374.278 342.568 374.833 342.44C375.43 342.312 375.921 342.141 376.305 341.928C376.689 342.227 377.03 342.824 377.329 343.72C377.67 344.616 377.841 345.491 377.841 346.344C376.518 346.856 374.918 347.752 373.041 349.032C371.206 350.312 369.329 351.784 367.409 353.448C365.489 355.112 363.612 356.883 361.777 358.76C359.985 360.637 358.492 362.408 357.297 364.072C358.193 364.456 359.409 364.648 360.945 364.648C361.926 364.648 362.929 364.563 363.953 364.392C364.977 364.221 365.958 363.987 366.897 363.688C367.878 363.389 368.774 363.048 369.585 362.664C370.396 362.237 371.078 361.789 371.633 361.32C373.638 362.6 374.641 364.477 374.641 366.952C374.641 367.293 374.62 367.571 374.577 367.784C374.577 367.997 374.556 368.253 374.513 368.552C372.55 369.789 370.417 370.408 368.113 370.408C366.961 370.408 365.809 370.28 364.657 370.024C363.505 369.811 362.374 369.576 361.265 369.32C360.198 369.064 359.174 368.829 358.193 368.616C357.254 368.36 356.38 368.232 355.569 368.232C353.521 368.232 351.857 369.192 350.577 371.112C350.022 370.899 349.553 370.515 349.169 369.96C348.828 369.405 348.614 368.787 348.529 368.104ZM402.788 343.144C403.215 343.144 403.705 343.229 404.26 343.4C404.857 343.528 405.391 343.72 405.86 343.976C406.329 344.189 406.713 344.424 407.012 344.68C407.353 344.936 407.524 345.171 407.524 345.384C406.671 347.176 405.881 348.989 405.156 350.824C404.431 352.616 403.812 354.344 403.3 356.008C402.788 357.672 402.383 359.229 402.084 360.68C401.828 362.131 401.7 363.389 401.7 364.456C401.7 365.651 401.828 366.653 402.084 367.464C402.34 368.232 402.767 368.787 403.364 369.128C402.852 369.469 402.191 369.747 401.38 369.96C400.569 370.173 399.844 370.28 399.204 370.28C396.9 370.28 395.748 368.701 395.748 365.544C395.748 363.112 396.559 359.784 398.18 355.56C397.327 357.523 396.345 359.379 395.236 361.128C394.127 362.835 392.996 364.349 391.844 365.672C390.692 366.995 389.519 368.083 388.324 368.936C387.172 369.747 386.105 370.237 385.124 370.408C383.545 370.323 382.265 369.576 381.284 368.168C380.303 366.717 379.812 364.883 379.812 362.664C379.812 360.275 380.324 357.757 381.348 355.112C382.372 352.467 383.673 350.013 385.252 347.752C386.873 345.491 388.623 343.613 390.5 342.12C392.377 340.584 394.191 339.773 395.94 339.688C396.367 339.816 396.836 340.072 397.348 340.456C397.903 340.84 398.415 341.288 398.884 341.8C399.396 342.312 399.823 342.845 400.164 343.4C400.505 343.912 400.697 344.36 400.74 344.744C399.033 345 397.263 345.832 395.428 347.24C393.636 348.648 391.993 350.355 390.5 352.36C389.049 354.323 387.855 356.435 386.916 358.696C385.977 360.957 385.508 363.069 385.508 365.032C385.508 365.843 385.807 366.355 386.404 366.568C387.641 366.312 389.071 365.267 390.692 363.432C392.313 361.555 394.276 358.675 396.58 354.792C397.007 354.024 397.476 353.171 397.988 352.232C398.543 351.293 399.097 350.312 399.652 349.288C400.207 348.264 400.74 347.24 401.252 346.216C401.807 345.149 402.319 344.125 402.788 343.144ZM428.197 365.352C428.197 363.816 428.431 361.832 428.901 359.4C429.413 356.925 430.053 354.28 430.821 351.464C431.631 348.605 432.549 345.704 433.573 342.76C434.597 339.773 435.642 336.979 436.708 334.376C437.775 331.773 438.821 329.491 439.845 327.528C440.869 325.565 441.786 324.157 442.597 323.304C443.023 323.347 443.578 323.517 444.261 323.816C444.986 324.072 445.711 324.392 446.437 324.776C447.162 325.16 447.823 325.587 448.421 326.056C449.018 326.483 449.402 326.888 449.573 327.272C448.335 328.381 447.098 330.067 445.861 332.328C444.666 334.547 443.493 337.085 442.341 339.944C441.231 342.803 440.186 345.832 439.205 349.032C438.223 352.189 437.37 355.261 436.645 358.248C435.919 361.235 435.343 364.008 434.917 366.568C434.533 369.128 434.341 371.197 434.341 372.776C434.341 373.501 434.405 373.949 434.533 374.12C433.594 374.077 432.911 373.907 432.485 373.608C432.058 373.352 431.717 373.053 431.461 372.712C431.247 372.413 431.034 372.093 430.821 371.752C430.65 371.453 430.373 371.219 429.989 371.048C429.69 370.92 429.434 370.621 429.22 370.152C429.007 369.683 428.815 369.171 428.645 368.616C428.517 368.019 428.41 367.421 428.325 366.824C428.239 366.227 428.197 365.736 428.197 365.352ZM455.514 337.96C456.623 338.301 457.668 339.069 458.65 340.264C459.631 341.416 460.356 342.696 460.826 344.104C460.356 345.256 459.631 346.643 458.65 348.264C457.668 349.885 456.687 351.549 455.706 353.256C454.724 354.92 453.828 356.52 453.018 358.056C452.25 359.549 451.802 360.787 451.674 361.768C452.356 361.043 453.103 360.211 453.914 359.272C454.767 358.291 455.578 357.331 456.346 356.392C457.156 355.411 457.903 354.536 458.586 353.768C459.268 352.957 459.802 352.36 460.186 351.976C460.996 351.123 461.956 350.141 463.066 349.032C464.175 347.88 465.327 346.813 466.522 345.832C467.759 344.808 468.996 343.955 470.234 343.272C471.471 342.547 472.602 342.184 473.626 342.184C474.735 342.184 475.652 342.568 476.378 343.336C477.146 344.061 477.743 344.829 478.17 345.64C478.17 345.725 477.999 345.853 477.658 346.024C477.359 346.152 476.911 346.557 476.314 347.24C475.716 348.008 475.034 349.075 474.266 350.44C473.54 351.763 472.815 353.213 472.09 354.792C471.407 356.328 470.831 357.907 470.362 359.528C469.892 361.149 469.658 362.621 469.658 363.944C469.658 365.011 469.786 365.693 470.042 365.992C470.34 366.291 470.746 366.44 471.257 366.44C471.727 366.44 472.218 366.333 472.729 366.12C473.242 365.907 473.647 365.8 473.946 365.8C474.116 365.885 474.244 366.077 474.33 366.376C474.458 366.632 474.522 366.867 474.522 367.08C474.18 367.379 473.775 367.677 473.306 367.976C472.836 368.275 472.346 368.552 471.833 368.808C471.322 369.064 470.81 369.277 470.298 369.448C469.828 369.619 469.402 369.704 469.018 369.704C467.78 369.704 466.756 369.512 465.946 369.128C465.178 368.787 464.559 368.317 464.09 367.72C463.663 367.123 463.364 366.419 463.194 365.608C463.023 364.755 462.938 363.859 462.938 362.92C462.938 362.408 462.98 361.832 463.066 361.192C463.151 360.552 463.322 359.805 463.578 358.952C463.834 358.056 464.196 357.011 464.666 355.816C465.135 354.579 465.732 353.107 466.458 351.4C466.372 351.4 465.796 351.699 464.73 352.296C463.663 352.893 462.511 353.811 461.274 355.048C459.268 356.968 457.455 358.867 455.833 360.744C454.255 362.621 452.634 364.712 450.97 367.016C450.031 368.339 449.199 369.448 448.474 370.344C447.791 371.283 447.194 371.901 446.682 372.2C445.786 371.688 445.124 370.963 444.698 370.024C444.271 369.128 443.951 368.189 443.738 367.208C443.738 366.397 443.844 365.373 444.058 364.136C444.314 362.899 444.634 361.533 445.018 360.04C445.444 358.504 445.956 356.904 446.554 355.24C447.151 353.576 447.812 351.912 448.538 350.248C450.159 346.493 451.631 343.549 452.954 341.416C454.319 339.283 455.172 338.131 455.514 337.96ZM483.484 344.488C483.271 344.232 483.079 343.699 482.908 342.888C482.737 342.035 482.652 341.309 482.652 340.712C483.761 340.797 484.828 340.883 485.852 340.968C486.876 341.011 487.815 341.053 488.668 341.096C489.308 339.816 489.991 338.557 490.716 337.32C491.484 336.04 492.209 334.888 492.892 333.864C493.617 332.797 494.279 331.901 494.876 331.176C495.516 330.451 496.007 329.981 496.348 329.768C496.775 329.768 497.308 329.853 497.948 330.024C498.631 330.152 499.313 330.344 499.996 330.6C500.679 330.813 501.297 331.048 501.852 331.304C502.407 331.56 502.791 331.816 503.004 332.072C501.724 333.693 500.615 335.208 499.676 336.616C498.78 337.981 497.799 339.56 496.732 341.352C497.585 341.352 498.439 341.331 499.292 341.288C500.188 341.245 501.084 341.181 501.98 341.096C502.193 341.309 502.364 341.587 502.492 341.928C502.62 342.227 502.684 342.547 502.684 342.888C500.593 343.656 498.055 344.083 495.068 344.168C494.001 346.216 493.041 348.264 492.188 350.312C491.377 352.317 490.673 354.259 490.076 356.136C489.521 358.013 489.073 359.784 488.732 361.448C488.433 363.112 488.284 364.605 488.284 365.928C488.284 367.805 488.988 368.851 490.396 369.064C491.676 368.893 492.892 368.573 494.044 368.104C495.196 367.635 496.22 367.037 497.116 366.312C497.372 366.696 497.521 367.016 497.564 367.272C497.308 367.656 496.86 368.104 496.22 368.616C495.623 369.128 494.961 369.619 494.236 370.088C493.511 370.6 492.807 371.027 492.124 371.368C491.441 371.709 490.929 371.901 490.588 371.944C489.521 371.901 488.455 371.667 487.388 371.24C486.321 370.813 485.34 370.28 484.444 369.64C483.591 369 482.887 368.296 482.332 367.528C481.777 366.717 481.5 365.928 481.5 365.16C481.5 364.136 481.628 362.856 481.884 361.32C482.183 359.741 482.588 358.035 483.1 356.2C483.612 354.365 484.209 352.445 484.892 350.44C485.575 348.435 486.321 346.451 487.132 344.488H483.484ZM525.12 342.504C524.949 345.149 524.48 347.432 523.712 349.352C522.944 351.229 521.835 352.893 520.384 354.344C518.976 355.752 517.248 357.032 515.2 358.184C513.152 359.336 510.763 360.445 508.032 361.512C508.032 361.768 508.011 362.045 507.968 362.344C507.968 362.6 507.968 362.877 507.968 363.176C507.968 363.731 508.011 364.307 508.096 364.904C508.181 365.501 508.331 366.056 508.544 366.568C508.757 367.08 509.056 367.507 509.44 367.848C509.824 368.147 510.315 368.296 510.912 368.296C512.064 368.296 513.195 368.04 514.304 367.528C515.413 367.016 516.459 366.397 517.44 365.672C518.464 364.904 519.403 364.093 520.256 363.24C521.152 362.344 521.941 361.533 522.624 360.808C523.051 361.192 523.413 361.555 523.712 361.896C521.792 364.456 519.68 366.589 517.376 368.296C515.115 369.96 512.96 371.027 510.912 371.496C507.968 371.155 505.664 370.088 504 368.296C502.379 366.461 501.568 364.264 501.568 361.704C501.568 359.955 501.803 358.184 502.272 356.392C502.784 354.557 503.467 352.808 504.32 351.144C505.216 349.437 506.24 347.837 507.392 346.344C508.587 344.851 509.845 343.549 511.168 342.44C512.533 341.331 513.92 340.456 515.328 339.816C516.779 339.176 518.208 338.856 519.616 338.856C521.579 339.112 523.413 340.328 525.12 342.504ZM520.704 344.616C519.552 344.787 518.357 345.256 517.12 346.024C515.883 346.792 514.709 347.816 513.6 349.096C512.533 350.376 511.552 351.869 510.656 353.576C509.76 355.283 509.056 357.117 508.544 359.08C511.957 357.373 514.795 355.283 517.056 352.808C519.317 350.291 520.533 347.56 520.704 344.616ZM515.155 388.072C515.155 387.816 515.24 387.581 515.411 387.368C515.582 387.155 515.774 386.941 515.987 386.728C516.499 387.197 516.947 387.56 517.331 387.816C517.672 388.072 518.014 388.285 518.355 388.456C518.654 388.627 518.974 388.733 519.315 388.776C519.656 388.819 520.062 388.84 520.531 388.84C522.75 388.84 524.862 388.243 526.867 387.048C528.872 385.896 530.75 384.211 532.499 381.992C534.291 379.773 535.912 377.064 537.363 373.864C538.814 370.664 540.094 367.037 541.203 362.984C540.691 363.496 540.051 364.072 539.283 364.712C538.558 365.309 537.79 365.885 536.979 366.44C536.168 366.995 535.358 367.507 534.547 367.976C533.779 368.445 533.118 368.787 532.563 369C531.838 368.872 531.155 368.573 530.515 368.104C529.918 367.592 529.384 366.973 528.915 366.248C528.446 365.523 528.083 364.712 527.827 363.816C527.571 362.877 527.443 361.896 527.443 360.872C527.443 359.208 527.742 357.501 528.339 355.752C528.979 354.003 529.811 352.296 530.835 350.632C531.859 348.925 533.054 347.325 534.419 345.832C535.827 344.339 537.299 343.037 538.835 341.928C540.414 340.819 541.992 339.944 543.571 339.304C545.192 338.621 546.771 338.28 548.307 338.28C549.8 338.28 550.91 338.6 551.635 339.24C552.403 339.837 552.958 340.883 553.299 342.376C552.83 342.12 552.232 341.992 551.507 341.992C550.483 341.992 549.288 342.397 547.923 343.208C546.6 344.019 545.235 345.085 543.827 346.408C542.462 347.688 541.096 349.181 539.731 350.888C538.366 352.552 537.15 354.259 536.083 356.008C535.059 357.757 534.206 359.464 533.523 361.128C532.883 362.792 532.563 364.285 532.563 365.608C532.563 365.907 532.584 366.099 532.627 366.184C532.67 366.227 532.734 366.248 532.819 366.248C533.203 366.248 533.715 366.035 534.355 365.608C535.038 365.181 535.784 364.648 536.595 364.008C537.448 363.325 538.323 362.557 539.219 361.704C540.115 360.808 540.968 359.912 541.779 359.016C543.614 356.968 545.278 354.685 546.771 352.168C548.307 349.608 549.523 347.133 550.419 344.744C551.571 344.829 552.595 345.021 553.491 345.32C554.387 345.619 555.006 345.939 555.347 346.28C553.896 349.608 552.723 352.403 551.827 354.664C550.974 356.925 550.227 358.931 549.587 360.68C548.435 363.752 547.347 366.547 546.323 369.064C545.342 371.624 544.318 373.971 543.251 376.104C542.227 378.28 541.096 380.285 539.859 382.12C538.664 383.997 537.299 385.789 535.763 387.496C535.038 388.307 534.206 389.011 533.267 389.608C532.371 390.248 531.432 390.781 530.451 391.208C529.512 391.635 528.574 391.955 527.635 392.168C526.739 392.381 525.907 392.488 525.139 392.488C524.115 392.488 523.07 392.36 522.003 392.104C520.936 391.891 519.955 391.571 519.059 391.144C518.12 390.76 517.31 390.291 516.627 389.736C515.944 389.224 515.454 388.669 515.155 388.072ZM555.36 367.72C555.573 366.483 555.936 364.861 556.448 362.856C557.002 360.808 557.642 358.653 558.368 356.392C559.093 354.088 559.861 351.784 560.672 349.48C561.482 347.176 562.272 345.107 563.04 343.272C563.594 341.949 564.085 340.925 564.512 340.2C564.938 339.432 565.408 338.792 565.92 338.28C566.517 338.365 567.136 338.515 567.776 338.728C568.416 338.941 569.034 339.197 569.632 339.496C570.229 339.795 570.762 340.115 571.232 340.456C571.701 340.755 572.064 341.053 572.32 341.352C571.168 342.717 570.144 344.275 569.248 346.024C568.394 347.773 567.52 350.013 566.624 352.744C568.928 350.696 570.954 348.733 572.704 346.856C574.496 344.979 576.16 342.888 577.696 340.584C577.952 340.371 578.4 340.264 579.04 340.264C579.637 340.264 580.213 340.371 580.768 340.584C581.322 340.755 581.706 341.011 581.92 341.352C581.152 343.4 580.768 345.427 580.768 347.432C580.768 349.309 581.045 350.717 581.6 351.656C581.557 351.912 581.258 352.403 580.704 353.128C580.192 353.853 579.616 354.536 578.976 355.176C577.824 354.579 576.8 353.768 575.904 352.744C575.008 351.677 574.346 350.525 573.92 349.288C571.914 350.696 570.208 352.083 568.8 353.448C567.392 354.771 566.176 356.264 565.152 357.928C564.17 359.549 563.317 361.427 562.592 363.56C561.909 365.693 561.248 368.232 560.608 371.176C560.224 371.133 559.754 370.984 559.2 370.728C558.688 370.515 558.154 370.237 557.6 369.896C557.088 369.555 556.618 369.192 556.192 368.808C555.765 368.424 555.488 368.061 555.36 367.72ZM604.788 343.144C605.215 343.144 605.705 343.229 606.26 343.4C606.857 343.528 607.391 343.72 607.86 343.976C608.329 344.189 608.713 344.424 609.012 344.68C609.353 344.936 609.524 345.171 609.524 345.384C608.671 347.176 607.881 348.989 607.156 350.824C606.431 352.616 605.812 354.344 605.3 356.008C604.788 357.672 604.383 359.229 604.084 360.68C603.828 362.131 603.7 363.389 603.7 364.456C603.7 365.651 603.828 366.653 604.084 367.464C604.34 368.232 604.767 368.787 605.364 369.128C604.852 369.469 604.191 369.747 603.38 369.96C602.569 370.173 601.844 370.28 601.204 370.28C598.9 370.28 597.748 368.701 597.748 365.544C597.748 363.112 598.559 359.784 600.18 355.56C599.327 357.523 598.345 359.379 597.236 361.128C596.127 362.835 594.996 364.349 593.844 365.672C592.692 366.995 591.519 368.083 590.324 368.936C589.172 369.747 588.105 370.237 587.124 370.408C585.545 370.323 584.265 369.576 583.284 368.168C582.303 366.717 581.812 364.883 581.812 362.664C581.812 360.275 582.324 357.757 583.348 355.112C584.372 352.467 585.673 350.013 587.252 347.752C588.873 345.491 590.623 343.613 592.5 342.12C594.377 340.584 596.191 339.773 597.94 339.688C598.367 339.816 598.836 340.072 599.348 340.456C599.903 340.84 600.415 341.288 600.884 341.8C601.396 342.312 601.823 342.845 602.164 343.4C602.505 343.912 602.697 344.36 602.74 344.744C601.033 345 599.263 345.832 597.428 347.24C595.636 348.648 593.993 350.355 592.5 352.36C591.049 354.323 589.855 356.435 588.916 358.696C587.977 360.957 587.508 363.069 587.508 365.032C587.508 365.843 587.807 366.355 588.404 366.568C589.641 366.312 591.071 365.267 592.692 363.432C594.313 361.555 596.276 358.675 598.58 354.792C599.007 354.024 599.476 353.171 599.988 352.232C600.543 351.293 601.097 350.312 601.652 349.288C602.207 348.264 602.74 347.24 603.252 346.216C603.807 345.149 604.319 344.125 604.788 343.144ZM612.707 364.904C612.707 363.027 613.155 360.403 614.051 357.032C614.947 353.619 616.205 349.651 617.827 345.128C620.472 337.917 622.947 331.923 625.251 327.144C627.597 322.323 629.88 318.568 632.099 315.88C632.611 315.965 633.229 316.179 633.955 316.52C634.723 316.861 635.469 317.245 636.195 317.672C636.92 318.056 637.56 318.461 638.115 318.888C638.712 319.315 639.096 319.656 639.267 319.912C635.939 323.837 633.016 328.061 630.499 332.584C627.981 337.107 625.677 342.291 623.587 348.136C621.795 353.171 620.429 357.715 619.491 361.768C618.552 365.779 618.083 369.128 618.083 371.816C618.083 372.541 618.083 372.989 618.083 373.16C618.083 373.331 618.104 373.501 618.147 373.672C617.549 373.587 617.037 373.437 616.611 373.224C616.184 373.011 615.907 372.755 615.779 372.456C615.693 372.243 615.459 371.923 615.075 371.496C614.691 371.112 614.349 370.813 614.051 370.6C613.667 370.344 613.347 369.683 613.091 368.616C612.835 367.507 612.707 366.269 612.707 364.904Z" fill="#2B427E"/>
<path d="M369.485 442.264C370.285 443.64 370.685 444.968 370.685 446.248C370.685 446.536 370.653 446.792 370.589 447.016C370.557 447.272 370.509 447.528 370.445 447.784C369.901 447.72 369.325 447.672 368.717 447.64C368.141 447.608 367.533 447.592 366.893 447.592C366.125 447.592 365.341 447.608 364.541 447.64C363.773 447.704 362.909 447.784 361.949 447.88C360.989 447.976 359.917 448.104 358.733 448.264C357.549 448.424 356.173 448.632 354.605 448.888C353.869 448.632 353.133 448.12 352.397 447.352C351.661 446.616 350.973 445.72 350.333 444.664C350.653 443.96 351.053 443.096 351.533 442.072C352.013 441.016 352.573 439.752 353.213 438.28C353.853 436.776 354.557 435.032 355.325 433.048C356.125 431.032 356.973 428.712 357.869 426.088C358.445 424.36 358.941 422.84 359.357 421.528C359.773 420.216 360.141 418.952 360.461 417.736C360.813 416.488 361.149 415.192 361.469 413.848C361.789 412.504 362.141 410.952 362.525 409.192C363.805 409.448 364.909 409.928 365.837 410.632C366.797 411.304 367.709 412.28 368.573 413.56C368.317 413.976 367.981 414.648 367.565 415.576C367.149 416.504 366.653 417.64 366.077 418.984C365.533 420.296 364.925 421.8 364.253 423.496C363.581 425.16 362.877 426.952 362.141 428.872C361.437 430.76 360.749 432.536 360.077 434.2C359.405 435.864 358.797 437.368 358.253 438.712C357.741 440.056 357.325 441.208 357.005 442.168C356.685 443.128 356.525 443.848 356.525 444.328C357.037 444.296 357.501 444.264 357.917 444.232C358.333 444.2 358.765 444.152 359.213 444.088C359.661 443.992 360.141 443.896 360.653 443.8C361.197 443.672 361.837 443.512 362.573 443.32C363.213 443.16 363.805 443.032 364.349 442.936C364.893 442.808 365.421 442.712 365.933 442.648C366.477 442.552 367.021 442.488 367.565 442.456C368.141 442.392 368.781 442.328 369.485 442.264ZM378.945 446.68C377.121 446.488 375.665 445.688 374.577 444.28C373.489 442.872 372.945 441.08 372.945 438.904C372.945 437.624 373.137 436.296 373.521 434.92C373.905 433.544 374.449 432.216 375.153 430.936C375.857 429.624 376.689 428.392 377.649 427.24C378.609 426.088 379.649 425.096 380.769 424.264C382.529 422.952 384.177 422.296 385.713 422.296C386.737 422.84 387.745 423.976 388.737 425.704C388.897 425.704 389.041 425.704 389.169 425.704C389.297 425.672 389.441 425.656 389.601 425.656C391.297 425.656 392.145 427.16 392.145 430.168C392.145 432.184 391.809 434.104 391.137 435.928C390.497 437.72 389.585 439.352 388.401 440.824C387.249 442.296 385.857 443.544 384.225 444.568C382.625 445.56 380.865 446.264 378.945 446.68ZM381.393 431.56C380.849 432.296 380.337 433.096 379.857 433.96C379.377 434.824 378.961 435.704 378.609 436.6C378.257 437.464 377.985 438.312 377.793 439.144C377.601 439.944 377.505 440.664 377.505 441.304C377.505 442.072 377.633 442.808 377.889 443.512C378.145 444.216 378.433 444.616 378.753 444.712C380.193 444.392 381.505 443.8 382.689 442.936C383.905 442.04 384.945 440.936 385.809 439.624C386.705 438.312 387.393 436.824 387.873 435.16C388.385 433.496 388.641 431.72 388.641 429.832C388.641 429 388.593 428.344 388.497 427.864C388.401 427.384 388.241 426.968 388.017 426.616C386.609 427.032 385.345 427.704 384.225 428.632C383.137 429.56 382.193 430.536 381.393 431.56ZM422.213 430.264C421.701 430.296 421.077 430.632 420.341 431.272C419.605 431.88 418.805 432.68 417.941 433.672C417.109 434.632 416.229 435.704 415.301 436.888C414.405 438.072 413.525 439.256 412.661 440.44C411.829 441.592 411.045 442.68 410.309 443.704C409.573 444.728 408.949 445.544 408.437 446.152C407.733 445.864 407.125 445.448 406.613 444.904C406.101 444.328 405.733 443.624 405.509 442.792C405.669 441.8 405.893 440.776 406.181 439.72C406.469 438.632 406.837 437.512 407.285 436.36C407.765 435.208 408.341 434.008 409.013 432.76C409.717 431.48 410.565 430.136 411.557 428.728C411.077 428.76 410.421 429.112 409.589 429.784C408.757 430.424 407.861 431.272 406.901 432.328C405.941 433.352 404.949 434.52 403.924 435.832C402.901 437.112 401.941 438.376 401.045 439.624C399.861 441.288 398.869 442.744 398.069 443.992C397.301 445.24 396.741 445.976 396.389 446.2C395.557 445.592 394.981 444.936 394.661 444.232C394.341 443.528 394.101 442.744 393.941 441.88C393.973 441.112 394.085 440.152 394.277 439C394.501 437.848 394.805 436.664 395.189 435.448C395.925 433.112 396.869 430.792 398.021 428.488C399.205 426.184 400.341 424.072 401.429 422.152C402.325 422.344 403.125 422.648 403.829 423.064C404.565 423.48 405.333 424.088 406.133 424.888C405.813 425.88 405.317 426.936 404.645 428.056C403.973 429.144 403.269 430.296 402.533 431.512C401.797 432.728 401.125 433.976 400.517 435.256C399.909 436.536 399.509 437.832 399.317 439.144C400.213 437.864 401.269 436.392 402.484 434.728C403.733 433.064 404.997 431.496 406.277 430.024C407.589 428.552 408.885 427.304 410.165 426.28C411.445 425.256 412.597 424.744 413.621 424.744C414.005 424.744 414.421 424.808 414.869 424.936C415.317 425.064 415.733 425.224 416.117 425.416C416.501 425.608 416.821 425.8 417.077 425.992C417.333 426.152 417.477 426.28 417.509 426.376C417.349 427.016 416.965 427.896 416.357 429.016C415.781 430.104 415.157 431.256 414.484 432.472C413.813 433.688 413.189 434.872 412.613 436.024C412.037 437.144 411.701 438.04 411.605 438.712C413.173 436.568 414.645 434.632 416.021 432.904C417.397 431.144 418.693 429.64 419.909 428.392C421.125 427.144 422.245 426.184 423.269 425.512C424.325 424.84 425.317 424.504 426.245 424.504C426.885 424.504 427.477 424.68 428.021 425.032C428.597 425.352 428.997 425.832 429.221 426.472C428.933 427.432 428.453 428.584 427.781 429.928C427.141 431.272 426.485 432.696 425.813 434.2C425.141 435.672 424.533 437.128 423.989 438.568C423.477 440.008 423.221 441.304 423.221 442.456C423.221 443.128 423.317 443.576 423.509 443.8C423.701 443.992 423.973 444.088 424.325 444.088C424.709 444.088 425.061 444.024 425.381 443.896C425.733 443.736 425.989 443.656 426.149 443.656C426.341 443.784 426.453 443.944 426.485 444.136C426.517 444.328 426.533 444.504 426.533 444.664C425.893 445.176 425.237 445.592 424.565 445.912C423.893 446.264 423.141 446.44 422.309 446.44C421.541 446.44 420.901 446.312 420.389 446.056C419.909 445.8 419.509 445.448 419.189 445C418.869 444.552 418.645 444.04 418.517 443.464C418.389 442.888 418.325 442.264 418.325 441.592C418.325 440.504 418.469 439.432 418.757 438.376C419.045 437.288 419.381 436.264 419.765 435.304C420.181 434.312 420.613 433.4 421.061 432.568C421.509 431.704 421.893 430.936 422.213 430.264ZM447.732 425.608C448.052 425.608 448.42 425.672 448.836 425.8C449.284 425.896 449.684 426.04 450.036 426.232C450.388 426.392 450.676 426.568 450.9 426.76C451.156 426.952 451.284 427.128 451.284 427.288C450.644 428.632 450.052 429.992 449.508 431.368C448.964 432.712 448.5 434.008 448.116 435.256C447.732 436.504 447.428 437.672 447.204 438.76C447.012 439.848 446.916 440.792 446.916 441.592C446.916 442.488 447.012 443.24 447.204 443.848C447.396 444.424 447.716 444.84 448.164 445.096C447.78 445.352 447.284 445.56 446.676 445.72C446.068 445.88 445.524 445.96 445.044 445.96C443.316 445.96 442.452 444.776 442.452 442.408C442.452 440.584 443.06 438.088 444.276 434.92C443.636 436.392 442.9 437.784 442.068 439.096C441.236 440.376 440.388 441.512 439.524 442.504C438.66 443.496 437.78 444.312 436.884 444.952C436.02 445.56 435.22 445.928 434.484 446.056C433.3 445.992 432.34 445.432 431.604 444.376C430.868 443.288 430.5 441.912 430.5 440.248C430.5 438.456 430.884 436.568 431.652 434.584C432.42 432.6 433.396 430.76 434.58 429.064C435.796 427.368 437.108 425.96 438.516 424.84C439.924 423.688 441.284 423.08 442.596 423.016C442.916 423.112 443.268 423.304 443.652 423.592C444.068 423.88 444.452 424.216 444.804 424.6C445.188 424.984 445.508 425.384 445.764 425.8C446.02 426.184 446.164 426.52 446.196 426.808C444.916 427 443.588 427.624 442.212 428.68C440.868 429.736 439.636 431.016 438.516 432.52C437.428 433.992 436.532 435.576 435.828 437.272C435.124 438.968 434.772 440.552 434.772 442.024C434.772 442.632 434.996 443.016 435.444 443.176C436.372 442.984 437.444 442.2 438.66 440.824C439.876 439.416 441.348 437.256 443.076 434.344C443.396 433.768 443.748 433.128 444.132 432.424C444.548 431.72 444.964 430.984 445.38 430.216C445.796 429.448 446.196 428.68 446.58 427.912C446.996 427.112 447.38 426.344 447.732 425.608ZM470.279 425.896C470.247 426.504 470.135 427.144 469.943 427.816C469.783 428.456 469.575 429.048 469.319 429.592C469.063 430.104 468.791 430.536 468.503 430.888C468.215 431.24 467.943 431.416 467.687 431.416C467.335 431.384 467.127 431.144 467.063 430.696C467.063 430.6 467.095 430.456 467.159 430.264C467.255 430.04 467.351 429.8 467.447 429.544C467.543 429.288 467.623 429.032 467.687 428.776C467.783 428.52 467.831 428.296 467.831 428.104C467.831 427.656 467.719 427.288 467.495 427C467.303 426.68 467.031 426.52 466.679 426.52C465.399 426.52 464.423 427.32 463.751 428.92C463.079 430.52 462.743 432.872 462.743 435.976C462.743 436.296 462.759 436.488 462.791 436.552C463.463 436.52 464.055 436.504 464.567 436.504C465.111 436.472 465.639 436.456 466.151 436.456C466.183 436.52 466.199 436.648 466.199 436.84C466.199 437.128 466.135 437.336 466.007 437.464C465.271 437.624 464.679 437.768 464.231 437.896C463.815 437.992 463.495 438.088 463.271 438.184C463.047 438.28 462.903 438.392 462.839 438.52C462.807 438.616 462.791 438.76 462.791 438.952C462.791 439.208 462.791 439.464 462.791 439.72C462.823 439.976 462.839 440.296 462.839 440.68C462.839 443.368 462.103 445.528 460.631 447.16C459.191 448.792 457.175 449.736 454.583 449.992C454.135 449.96 453.671 449.832 453.191 449.608C452.711 449.384 452.247 449.096 451.799 448.744C451.383 448.392 451.015 447.992 450.695 447.544C450.375 447.128 450.151 446.696 450.023 446.248C450.023 445.032 450.279 443.88 450.791 442.792C451.303 441.672 451.991 440.696 452.855 439.864C453.751 439 454.791 438.312 455.975 437.8C457.191 437.256 458.503 436.936 459.911 436.84C459.911 436.04 459.831 435.256 459.671 434.488C459.511 433.72 459.335 432.984 459.143 432.28C458.983 431.544 458.823 430.84 458.663 430.168C458.503 429.464 458.423 428.776 458.423 428.104C458.423 427.24 458.599 426.392 458.951 425.56C459.303 424.696 459.767 423.912 460.343 423.208C460.919 422.472 461.591 421.848 462.359 421.336C463.127 420.824 463.927 420.472 464.759 420.28C465.111 420.376 465.575 420.664 466.151 421.144C466.759 421.592 467.351 422.104 467.927 422.68C468.503 423.256 469.015 423.848 469.463 424.456C469.911 425.032 470.183 425.512 470.279 425.896ZM454.439 447.784C455.207 447.464 455.927 447 456.599 446.392C457.303 445.784 457.911 445.096 458.423 444.328C458.935 443.56 459.335 442.744 459.623 441.88C459.943 441.016 460.103 440.168 460.103 439.336C459.463 439.432 458.759 439.736 457.991 440.248C457.223 440.728 456.503 441.32 455.831 442.024C455.159 442.696 454.599 443.4 454.151 444.136C453.703 444.872 453.479 445.512 453.479 446.056C453.479 446.76 453.799 447.336 454.439 447.784Z" fill="#2B427E"/>
<path d="M491.809 277.925C487.407 274.037 481.613 271.663 475.248 271.663C474.517 271.663 473.795 271.704 473.08 271.765C472.286 265.757 467.156 261.117 460.932 261.117C454.157 261.117 448.665 266.609 448.665 273.384C448.665 277.583 450.778 281.287 453.996 283.498C453.643 284.07 453.306 284.651 453 285.252C450.762 284.321 448.305 283.805 445.725 283.805C445.227 283.805 444.738 283.841 444.25 283.879C443.764 278.106 438.883 273.568 432.923 273.568C428.347 273.568 424.413 276.248 422.607 280.103C419.373 278.042 415.532 276.832 411.399 276.832C408 276.832 404.802 277.656 401.971 279.09C397.507 270.45 388.445 264.523 377.966 264.523C365.592 264.523 355.191 272.78 352.017 284.022C350.876 283.788 349.695 283.662 348.485 283.662C339.31 283.662 331.824 290.737 331.245 299.673H504.053C504.051 299.673 502.616 287.519 491.809 277.925Z" fill="#D4EAFF"/>
<path d="M373.27 299.592H423.008L440.255 234.916H396.113L369.217 259.085L373.27 259.083V299.592Z" fill="#063256"/>
<path d="M413.36 299.592H463.467V259.083L467.151 259.085L440.255 234.916L413.36 259.085V299.592Z" fill="#3977BC"/>
<path d="M432.934 270.68H423.008V280.606H432.934V270.68Z" fill="#063256"/>
<path d="M457.487 270.68H447.561V280.606H457.487V270.68Z" fill="#063256"/>
<path d="M413.36 258.708H373.27V259.458H413.36V258.708Z" fill="#3A699B"/>
<path d="M391.281 285.338C391.281 286.333 390.474 287.14 389.479 287.14C388.484 287.14 387.677 286.333 387.677 285.338C387.677 284.343 388.484 283.536 389.479 283.536C390.474 283.536 391.281 284.343 391.281 285.338Z" fill="white"/>
<path d="M380.41 279.442C380.41 280.437 379.603 281.244 378.608 281.244C377.613 281.244 376.806 280.437 376.806 279.442C376.806 278.447 377.613 277.64 378.608 277.64C379.603 277.64 380.41 278.447 380.41 279.442Z" fill="white"/>
<path d="M471.269 283.998C471.269 285.38 470.149 286.501 468.766 286.501C467.383 286.501 466.263 285.381 466.263 283.998C466.263 282.616 467.384 281.495 468.766 281.495C470.148 281.495 471.269 282.616 471.269 283.998Z" fill="white"/>
<path d="M475.976 281.865C475.936 280.962 476.636 280.198 477.539 280.158C478.442 280.118 479.206 280.818 479.246 281.721C479.286 282.624 478.586 283.388 477.683 283.428C476.78 283.468 476.016 282.768 475.976 281.865Z" fill="white"/>
<path d="M490.73 291.99C489.487 291.99 488.335 292.362 487.359 292.984C487.356 292.969 487.354 292.955 487.351 292.94C485.679 288.707 481.528 285.704 476.658 285.704C472.511 285.704 468.888 287.886 466.869 291.146C465.679 290.049 464.087 289.374 462.333 289.374C460.143 289.374 458.205 290.424 456.99 292.038C455.69 291.453 454.251 291.119 452.731 291.119C452.469 291.119 452.213 291.139 451.956 291.158C451.956 291.145 451.958 291.132 451.958 291.119C451.958 288.128 449.508 285.704 446.486 285.704C443.855 285.704 441.66 287.541 441.135 289.99C439.768 289.167 438.168 288.685 436.451 288.685C434.48 288.685 432.662 289.316 431.177 290.375C428.978 287.822 425.71 286.198 422.054 286.198C417.37 286.198 413.325 288.861 411.351 292.736C410.274 292.288 409.092 292.04 407.851 292.04C407.611 292.04 407.376 292.057 407.141 292.075C406.907 289.298 404.559 287.115 401.692 287.115C399.491 287.115 397.598 288.404 396.729 290.259C395.173 289.267 393.325 288.685 391.337 288.685C389.702 288.685 388.164 289.082 386.802 289.771C384.655 285.615 380.295 282.763 375.254 282.763C369.302 282.763 364.298 286.735 362.771 292.143C362.222 292.03 361.654 291.97 361.072 291.97C356.658 291.97 353.057 295.374 352.778 299.672H483.066H484.602C484.603 299.677 484.604 299.682 484.605 299.687H496.856C496.959 299.234 497.026 298.768 497.026 298.284C497.025 294.809 494.207 291.99 490.73 291.99Z" fill="white"/>
<path d="M416.356 283.998C416.356 285.38 415.236 286.501 413.853 286.501C412.47 286.501 411.35 285.381 411.35 283.998C411.35 282.616 412.471 281.495 413.853 281.495C415.235 281.495 416.356 282.616 416.356 283.998Z" fill="white"/>
<path d="M440.886 285.276C440.886 286.451 439.934 287.403 438.759 287.403C437.584 287.403 436.632 286.451 436.632 285.276C436.632 284.101 437.584 283.149 438.759 283.149C439.934 283.149 440.886 284.101 440.886 285.276Z" fill="white"/>
<path d="M486.141 283.998C486.141 284.689 485.581 285.249 484.891 285.249C484.2 285.249 483.641 284.689 483.641 283.998C483.641 283.307 484.201 282.748 484.891 282.748C485.582 282.748 486.141 283.308 486.141 283.998Z" fill="white"/>
<path d="M406.511 272.281C406.511 272.972 405.951 273.531 405.26 273.531C404.569 273.531 404.01 272.971 404.01 272.281C404.01 271.59 404.57 271.03 405.26 271.03C405.95 271.03 406.511 271.59 406.511 272.281Z" fill="white"/>
<path d="M467.492 277.937C467.363 278.615 466.708 279.061 466.029 278.931C465.351 278.802 464.906 278.147 465.035 277.469C465.164 276.791 465.819 276.346 466.497 276.475C467.176 276.604 467.621 277.259 467.492 277.937Z" fill="white"/>
<path d="M433.679 282.763C433.679 283.454 433.119 284.013 432.429 284.013C431.738 284.013 431.179 283.453 431.179 282.763C431.179 282.072 431.739 281.513 432.429 281.513C433.119 281.513 433.679 282.072 433.679 282.763Z" fill="white"/>
<path d="M381.611 276.294C382.099 276.294 382.495 275.898 382.495 275.41C382.495 274.922 382.099 274.526 381.611 274.526C381.123 274.526 380.727 274.922 380.727 275.41C380.727 275.898 381.123 276.294 381.611 276.294Z" fill="white"/>
<path d="M417.647 278.587C418.135 278.587 418.531 278.191 418.531 277.703C418.531 277.215 418.135 276.819 417.647 276.819C417.159 276.819 416.763 277.215 416.763 277.703C416.763 278.191 417.159 278.587 417.647 278.587Z" fill="white"/>
<path d="M361.933 289.123C361.933 289.611 361.537 290.007 361.049 290.007C360.561 290.007 360.165 289.611 360.165 289.123C360.165 288.635 360.561 288.239 361.049 288.239C361.537 288.239 361.933 288.635 361.933 289.123Z" fill="white"/>
<path d="M458.05 288.031C457.151 288.031 456.418 287.299 456.418 286.399C456.418 285.499 457.15 284.767 458.05 284.767C458.949 284.767 459.682 285.499 459.682 286.399C459.682 287.299 458.949 288.031 458.05 288.031ZM458.05 285.267C457.426 285.267 456.918 285.775 456.918 286.399C456.918 287.023 457.426 287.531 458.05 287.531C458.674 287.531 459.182 287.023 459.182 286.399C459.182 285.775 458.674 285.267 458.05 285.267Z" fill="white"/>
<path d="M442.548 281.074C441.649 281.074 440.916 280.342 440.916 279.442C440.916 278.542 441.649 277.81 442.548 277.81C443.447 277.81 444.18 278.542 444.18 279.442C444.18 280.342 443.447 281.074 442.548 281.074ZM442.548 278.31C441.924 278.31 441.416 278.818 441.416 279.442C441.416 280.066 441.924 280.574 442.548 280.574C443.172 280.574 443.68 280.066 443.68 279.442C443.68 278.818 443.172 278.31 442.548 278.31Z" fill="white"/>
<path d="M369.691 281.13C368.792 281.13 368.059 280.398 368.059 279.498C368.059 278.598 368.791 277.866 369.691 277.866C370.59 277.866 371.323 278.598 371.323 279.498C371.323 280.398 370.591 281.13 369.691 281.13ZM369.691 278.366C369.067 278.366 368.559 278.874 368.559 279.498C368.559 280.122 369.067 280.63 369.691 280.63C370.315 280.63 370.823 280.122 370.823 279.498C370.823 278.874 370.315 278.366 369.691 278.366Z" fill="white"/>
<path d="M481.39 280.339C480.491 280.339 479.758 279.607 479.758 278.707C479.758 277.807 480.49 277.075 481.39 277.075C482.289 277.075 483.022 277.807 483.022 278.707C483.021 279.607 482.289 280.339 481.39 280.339ZM481.39 277.575C480.766 277.575 480.258 278.083 480.258 278.707C480.258 279.331 480.766 279.839 481.39 279.839C482.014 279.839 482.522 279.331 482.522 278.707C482.521 278.083 482.014 277.575 481.39 277.575Z" fill="white"/>
<path d="M394.513 283.134C393.12 283.134 391.986 282 391.986 280.606C391.986 279.212 393.12 278.078 394.513 278.078C395.908 278.078 397.041 279.212 397.041 280.606C397.041 282 395.907 283.134 394.513 283.134ZM394.513 278.577C393.395 278.577 392.486 279.487 392.486 280.605C392.486 281.724 393.395 282.633 394.513 282.633C395.631 282.633 396.541 281.723 396.541 280.605C396.541 279.487 395.631 278.577 394.513 278.577Z" fill="white"/>
<path d="M410.056 288.071C410.056 288.585 409.639 289.001 409.126 289.001C408.612 289.001 408.196 288.584 408.196 288.071C408.196 287.557 408.613 287.141 409.126 287.141C409.64 287.141 410.056 287.557 410.056 288.071Z" fill="white"/>
<path d="M295.314 270.758L285.816 284.518L288.285 286.222L297.783 272.462L295.314 270.758Z" fill="#063256"/>
<path d="M478.386 220.391H375.412V227.692H478.386V220.391Z" fill="#063256"/>
<path d="M487.332 217.236L478.386 220.391V227.692L487.359 230.857C488.965 231.424 490.656 231.713 492.359 231.713H514.298V216.37H492.388C490.665 216.37 488.956 216.663 487.332 217.236Z" fill="#9EABF1"/>
<path d="M371.274 216.584C369.766 215.552 367.981 215 366.154 215H318.366C312.946 215 308.511 219.435 308.511 224.855V230.961L287.954 260.254C284.564 265.085 286.526 271.813 291.982 274.064L316.425 284.149C324.071 287.303 332.862 284.134 336.736 276.827L359.79 233.339L364.805 233.319C366.458 233.313 368.079 232.87 369.506 232.036L375.411 228.584V219.415L371.274 216.584ZM344.341 247.39L329.431 275.126C328.238 277.345 325.564 278.307 323.232 277.356L316.036 274.424C313.195 273.267 312.091 269.823 313.729 267.229L329.395 242.424C330.298 240.994 331.87 240.128 333.561 240.128H340C343.728 240.13 346.106 244.108 344.341 247.39Z" fill="#9EABF1"/>
<path d="M315.889 274.77L301.748 268.71C300.442 268.151 299.453 267.052 299.034 265.695C298.614 264.338 298.81 262.873 299.572 261.675L312.072 241.996C312.964 240.592 314.489 239.754 316.152 239.754H333.561V240.504H316.152C314.747 240.504 313.459 241.212 312.705 242.398L300.205 262.077C299.561 263.089 299.396 264.327 299.751 265.473C300.106 266.619 300.94 267.547 302.043 268.02L316.184 274.08L315.889 274.77Z" fill="#063256"/>
<path d="M353.066 220.766H321.133C319.674 220.766 318.487 219.579 318.487 218.12V215.001H319.237V218.12C319.237 219.166 320.088 220.016 321.134 220.016H353.067C354.113 220.016 354.963 219.165 354.963 218.12V215.001H355.713V218.12C355.713 219.579 354.525 220.766 353.066 220.766Z" fill="#063256"/>
<path d="M366.49 215.081H365.74V233.221H366.49V215.081Z" fill="#063256"/>
<path d="M491.326 216.44H490.576V231.646H491.326V216.44Z" fill="#063256"/>
<path d="M515.638 299.967H292.099C289.054 299.967 286.385 298.36 284.96 295.67C283.534 292.979 283.705 289.868 285.416 287.349L286.722 285.173L287.365 285.559L286.049 287.753C284.486 290.056 284.33 292.878 285.623 295.319C286.916 297.76 289.337 299.218 292.1 299.218H515.639V299.967H515.638Z" fill="#063256"/>
</svg>
