<svg width="1200" height="180" viewBox="0 0 1200 180" fill="none" xmlns="http://www.w3.org/2000/svg">
<rect width="1200" height="180" fill="#344986"/>
<path d="M874.696 65.9791C874.659 66.6822 874.53 67.4223 874.308 68.1994C874.123 68.9395 873.882 69.6241 873.586 70.2531C873.29 70.8452 872.976 71.3448 872.642 71.7518C872.309 72.1589 871.995 72.3624 871.699 72.3624C871.292 72.3254 871.051 72.0479 870.977 71.5298C870.977 71.4188 871.014 71.2523 871.088 71.0302C871.199 70.7712 871.31 70.4937 871.421 70.1976C871.532 69.9016 871.625 69.6055 871.699 69.3095C871.81 69.0135 871.865 68.7544 871.865 68.5324C871.865 68.0143 871.736 67.5888 871.477 67.2557C871.255 66.8857 870.94 66.7007 870.533 66.7007C869.053 66.7007 867.924 67.6258 867.147 69.476C866.37 71.3263 865.982 74.0461 865.982 77.6356C865.982 78.0056 866 78.2277 866.037 78.3017C866.814 78.2647 867.499 78.2462 868.091 78.2462C868.72 78.2092 869.331 78.1907 869.923 78.1907C869.96 78.2647 869.978 78.4127 869.978 78.6347C869.978 78.9678 869.904 79.2083 869.756 79.3563C868.905 79.5413 868.22 79.7079 867.702 79.8559C867.221 79.9669 866.851 80.0779 866.592 80.1889C866.333 80.2999 866.167 80.4295 866.093 80.5775C866.056 80.6885 866.037 80.855 866.037 81.077C866.037 81.3731 866.037 81.6691 866.037 81.9652C866.074 82.2612 866.093 82.6312 866.093 83.0753C866.093 86.1837 865.242 88.6815 863.539 90.5688C861.874 92.456 859.543 93.5477 856.545 93.8437C856.027 93.8067 855.491 93.6587 854.936 93.3996C854.381 93.1406 853.844 92.8076 853.326 92.4005C852.845 91.9934 852.419 91.5309 852.049 91.0128C851.679 90.5318 851.42 90.0322 851.272 89.5141C851.272 88.1079 851.568 86.7758 852.16 85.5176C852.752 84.2224 853.548 83.0938 854.547 82.1317C855.583 81.1325 856.786 80.3369 858.155 79.7449C859.561 79.1158 861.078 78.7457 862.707 78.6347C862.707 77.7096 862.614 76.803 862.429 75.9149C862.244 75.0268 862.041 74.1756 861.819 73.3615C861.634 72.5104 861.449 71.6963 861.264 70.9192C861.079 70.1051 860.986 69.3095 860.986 68.5324C860.986 67.5333 861.19 66.5527 861.597 65.5905C862.004 64.5914 862.54 63.6848 863.206 62.8707C863.872 62.0196 864.649 61.298 865.538 60.7059C866.426 60.1138 867.351 59.7068 868.313 59.4847C868.72 59.5958 869.257 59.9288 869.923 60.4839C870.626 61.0019 871.31 61.594 871.976 62.2601C872.643 62.9262 873.235 63.6108 873.753 64.3139C874.271 64.98 874.585 65.535 874.696 65.9791ZM856.379 91.2904C857.267 90.9203 858.1 90.3837 858.877 89.6806C859.691 88.9776 860.394 88.182 860.986 87.2938C861.578 86.4057 862.041 85.4621 862.374 84.463C862.744 83.4638 862.929 82.4832 862.929 81.5211C862.189 81.6321 861.375 81.9837 860.486 82.5757C859.598 83.1308 858.766 83.8154 857.989 84.6295C857.212 85.4066 856.564 86.2207 856.046 87.0718C855.528 87.9229 855.269 88.663 855.269 89.2921C855.269 90.1062 855.639 90.7723 856.379 91.2904Z" fill="#FAFAFA"/>
<path d="M848.623 65.6461C848.993 65.6461 849.419 65.7201 849.9 65.8681C850.418 65.9791 850.88 66.1456 851.287 66.3677C851.694 66.5527 852.027 66.7562 852.286 66.9782C852.583 67.2003 852.731 67.4038 852.731 67.5888C851.99 69.143 851.306 70.7157 850.677 72.3069C850.048 73.8611 849.511 75.3598 849.067 76.803C848.623 78.2462 848.271 79.5969 848.012 80.855C847.79 82.1132 847.679 83.2048 847.679 84.13C847.679 85.1661 847.79 86.0357 848.012 86.7388C848.234 87.4049 848.604 87.8859 849.123 88.182C848.679 88.478 848.105 88.7186 847.402 88.9036C846.699 89.0886 846.07 89.1811 845.515 89.1811C843.516 89.1811 842.517 87.8119 842.517 85.0736C842.517 82.9643 843.22 80.0779 844.626 76.4145C843.886 78.1167 843.035 79.7264 842.073 81.2436C841.111 82.7238 840.13 84.0374 839.131 85.1846C838.132 86.3317 837.115 87.2754 836.078 88.0155C835.079 88.7186 834.154 89.1441 833.303 89.2921C831.934 89.2181 830.824 88.5705 829.973 87.3494C829.121 86.0912 828.696 84.5 828.696 82.5758C828.696 80.5035 829.14 78.3202 830.028 76.0259C830.916 73.7316 832.045 71.6038 833.414 69.6426C834.82 67.6813 836.337 66.0531 837.966 64.758C839.594 63.4258 841.167 62.7227 842.684 62.6487C843.054 62.7597 843.461 62.9817 843.905 63.3148C844.386 63.6478 844.83 64.0364 845.237 64.4804C845.681 64.9245 846.051 65.387 846.347 65.8681C846.643 66.3122 846.81 66.7007 846.847 67.0337C845.367 67.2558 843.831 67.9774 842.24 69.1985C840.685 70.4197 839.261 71.8999 837.966 73.6391C836.707 75.3413 835.671 77.1731 834.857 79.1343C834.043 81.0956 833.636 82.9273 833.636 84.6295C833.636 85.3326 833.895 85.7767 834.413 85.9617C835.486 85.7397 836.726 84.8331 838.132 83.2418C839.538 81.6136 841.241 79.1158 843.239 75.7484C843.609 75.0823 844.016 74.3422 844.46 73.5281C844.941 72.714 845.422 71.8629 845.903 70.9748C846.384 70.0866 846.847 69.1985 847.291 68.3104C847.772 67.3853 848.216 66.4972 848.623 65.6461Z" fill="#FAFAFA"/>
<path d="M819.113 71.0302C818.521 71.0672 817.799 71.4557 816.948 72.1958C816.097 72.8989 815.172 73.824 814.173 74.9712C813.211 76.0813 812.193 77.321 811.12 78.6902C810.084 80.0594 809.066 81.4285 808.067 82.7977C807.105 84.1299 806.198 85.388 805.347 86.5722C804.496 87.7563 803.774 88.7 803.182 89.4031C802.368 89.07 801.665 88.589 801.073 87.9599C800.481 87.2938 800.055 86.4797 799.796 85.5176C799.981 84.3704 800.24 83.1863 800.573 81.9651C800.906 80.7069 801.332 79.4118 801.85 78.0796C802.405 76.7474 803.071 75.3597 803.848 73.9166C804.662 72.4364 805.643 70.8822 806.79 69.254C806.235 69.291 805.477 69.698 804.514 70.4751C803.552 71.2152 802.516 72.1958 801.406 73.417C800.296 74.6011 799.149 75.9518 797.965 77.469C796.78 78.9492 795.67 80.4109 794.634 81.8541C793.265 83.7783 792.118 85.4621 791.193 86.9052C790.305 88.3484 789.657 89.1995 789.25 89.4586C788.288 88.7555 787.622 87.9969 787.252 87.1828C786.882 86.3687 786.604 85.4621 786.419 84.4629C786.456 83.5748 786.586 82.4647 786.808 81.1325C787.067 79.8003 787.418 78.4311 787.862 77.025C788.713 74.3236 789.805 71.6408 791.137 68.9764C792.506 66.3121 793.82 63.8698 795.078 61.6495C796.114 61.8715 797.039 62.223 797.854 62.7041C798.705 63.1852 799.593 63.8883 800.518 64.8134C800.148 65.9605 799.574 67.1817 798.797 68.4769C798.02 69.735 797.206 71.0672 796.355 72.4734C795.504 73.8796 794.727 75.3227 794.024 76.8029C793.32 78.2831 792.858 79.7818 792.636 81.299C793.672 79.8188 794.893 78.1166 796.299 76.1924C797.743 74.2681 799.204 72.4549 800.684 70.7526C802.202 69.0504 803.7 67.6072 805.18 66.4231C806.661 65.2389 807.993 64.6469 809.177 64.6469C809.621 64.6469 810.102 64.7209 810.62 64.8689C811.138 65.0169 811.619 65.2019 812.063 65.424C812.507 65.646 812.878 65.868 813.174 66.09C813.47 66.2751 813.636 66.4231 813.673 66.5341C813.488 67.2742 813.044 68.2918 812.341 69.587C811.675 70.8452 810.953 72.1773 810.176 73.5835C809.399 74.9897 808.677 76.3589 808.011 77.691C807.345 78.9862 806.957 80.0223 806.846 80.7994C808.659 78.3201 810.361 76.0813 811.952 74.0831C813.544 72.0478 815.042 70.3086 816.448 68.8654C817.855 67.4222 819.15 66.3121 820.334 65.535C821.555 64.7579 822.702 64.3693 823.775 64.3693C824.516 64.3693 825.2 64.5728 825.829 64.9799C826.495 65.3499 826.958 65.905 827.217 66.6451C826.884 67.7553 826.329 69.0874 825.552 70.6416C824.812 72.1958 824.053 73.8426 823.276 75.5818C822.499 77.284 821.796 78.9677 821.167 80.6329C820.574 82.2981 820.278 83.7968 820.278 85.129C820.278 85.9061 820.389 86.4242 820.612 86.6832C820.834 86.9052 821.148 87.0163 821.555 87.0163C821.999 87.0163 822.406 86.9422 822.776 86.7942C823.183 86.6092 823.479 86.5167 823.664 86.5167C823.886 86.6647 824.016 86.8497 824.053 87.0718C824.09 87.2938 824.108 87.4973 824.108 87.6823C823.368 88.2744 822.61 88.7555 821.833 89.1255C821.056 89.5326 820.186 89.7361 819.224 89.7361C818.336 89.7361 817.596 89.5881 817.004 89.292C816.448 88.996 815.986 88.589 815.616 88.0709C815.246 87.5528 814.987 86.9607 814.839 86.2947C814.691 85.6286 814.617 84.907 814.617 84.1299C814.617 82.8717 814.783 81.6321 815.116 80.4109C815.449 79.1527 815.838 77.9686 816.282 76.8584C816.763 75.7113 817.263 74.6567 817.781 73.6945C818.299 72.6954 818.743 71.8073 819.113 71.0302Z" fill="#FAFAFA"/>
<path d="M769.078 90.0137C766.969 89.7917 765.285 88.8666 764.027 87.2384C762.769 85.6102 762.14 83.5379 762.14 81.0216C762.14 79.5414 762.362 78.0057 762.806 76.4145C763.25 74.8233 763.879 73.2876 764.693 71.8074C765.507 70.2902 766.469 68.8655 767.58 67.5333C768.69 66.2012 769.892 65.054 771.188 64.0919C773.223 62.5747 775.129 61.8161 776.905 61.8161C778.089 62.4452 779.255 63.7589 780.402 65.7571C780.587 65.7571 780.753 65.7571 780.901 65.7571C781.049 65.7201 781.216 65.7016 781.401 65.7016C783.362 65.7016 784.343 67.4408 784.343 70.9193C784.343 73.2506 783.954 75.4709 783.177 77.5801C782.437 79.6524 781.382 81.5397 780.013 83.2419C778.681 84.9441 777.071 86.3873 775.184 87.5714C773.334 88.7186 771.299 89.5327 769.078 90.0137ZM771.909 72.529C771.28 73.3801 770.688 74.3052 770.133 75.3043C769.578 76.3035 769.097 77.3211 768.69 78.3572C768.283 79.3564 767.968 80.337 767.746 81.2991C767.524 82.2242 767.413 83.0568 767.413 83.7969C767.413 84.6851 767.561 85.5362 767.857 86.3503C768.153 87.1644 768.486 87.6269 768.856 87.738C770.521 87.3679 772.039 86.6833 773.408 85.6842C774.814 84.6481 776.017 83.3714 777.016 81.8542C778.052 80.337 778.848 78.6163 779.403 76.692C779.995 74.7678 780.291 72.714 780.291 70.5307C780.291 69.5686 780.235 68.81 780.124 68.2549C780.013 67.6999 779.828 67.2188 779.569 66.8117C777.941 67.2928 776.479 68.0699 775.184 69.143C773.926 70.2162 772.834 71.3448 771.909 72.529Z" fill="#FAFAFA"/>
<path d="M758.139 84.907C759.064 86.4983 759.527 88.0339 759.527 89.5141C759.527 89.8472 759.49 90.1432 759.416 90.4023C759.379 90.6983 759.323 90.9943 759.249 91.2904C758.62 91.2164 757.954 91.1609 757.251 91.1238C756.585 91.0868 755.882 91.0683 755.142 91.0683C754.253 91.0683 753.347 91.0868 752.422 91.1238C751.534 91.1979 750.535 91.2904 749.424 91.4014C748.314 91.5124 747.075 91.6604 745.705 91.8454C744.336 92.0305 742.745 92.271 740.932 92.567C740.081 92.271 739.23 91.6789 738.378 90.7908C737.527 89.9397 736.732 88.9036 735.992 87.6824C736.362 86.8683 736.824 85.8692 737.379 84.685C737.934 83.4639 738.582 82.0022 739.322 80.2999C740.062 78.5607 740.876 76.544 741.764 74.2497C742.69 71.9184 743.67 69.2355 744.706 66.2011C745.372 64.2029 745.946 62.4451 746.427 60.9279C746.908 59.4107 747.334 57.9491 747.704 56.5429C748.111 55.0997 748.499 53.601 748.869 52.0468C749.239 50.4926 749.646 48.6979 750.09 46.6626C751.571 46.9586 752.847 47.5137 753.92 48.3278C755.031 49.1049 756.085 50.2336 757.084 51.7138C756.788 52.1948 756.4 52.9719 755.919 54.0451C755.438 55.1182 754.864 56.4319 754.198 57.9861C753.569 59.5033 752.866 61.2425 752.089 63.2037C751.312 65.128 750.498 67.2003 749.646 69.4205C748.832 71.6038 748.037 73.6576 747.26 75.5818C746.482 77.5061 745.779 79.2453 745.15 80.7995C744.558 82.3537 744.077 83.6859 743.707 84.796C743.337 85.9062 743.152 86.7388 743.152 87.2939C743.744 87.2568 744.281 87.2198 744.762 87.1828C745.243 87.1458 745.742 87.0903 746.26 87.0163C746.779 86.9053 747.334 86.7943 747.926 86.6833C748.555 86.5353 749.295 86.3502 750.146 86.1282C750.886 85.9432 751.571 85.7952 752.2 85.6841C752.829 85.5361 753.439 85.4251 754.031 85.3511C754.661 85.2401 755.29 85.1661 755.919 85.1291C756.585 85.0551 757.325 84.9811 758.139 84.907Z" fill="#FAFAFA"/>
<path d="M697.642 84.5185C697.642 82.8903 698.031 80.6145 698.808 77.6911C699.585 74.7307 700.677 71.2893 702.083 67.3668C704.377 61.113 706.523 55.9138 708.522 51.7693C710.557 47.5877 712.537 44.3313 714.461 42C714.905 42.074 715.442 42.259 716.071 42.5551C716.737 42.8511 717.384 43.1842 718.013 43.5542C718.642 43.8872 719.198 44.2388 719.679 44.6088C720.197 44.9789 720.53 45.2749 720.678 45.497C717.791 48.9014 715.257 52.5649 713.073 56.4874C710.89 60.4099 708.892 64.906 707.078 69.9756C705.524 74.3422 704.34 78.2832 703.526 81.7986C702.712 85.2771 702.305 88.182 702.305 90.5133C702.305 91.1424 702.305 91.5309 702.305 91.6789C702.305 91.8269 702.323 91.975 702.36 92.123C701.842 92.049 701.398 91.9195 701.028 91.7344C700.658 91.5494 700.418 91.3274 700.307 91.0683C700.233 90.8833 700.029 90.6058 699.696 90.2357C699.363 89.9027 699.067 89.6437 698.808 89.4586C698.475 89.2366 698.197 88.663 697.975 87.7379C697.753 86.7758 697.642 85.7027 697.642 84.5185Z" fill="#FAFAFA"/>
<path d="M690.775 65.6461C691.145 65.6461 691.57 65.7201 692.051 65.8681C692.569 65.9791 693.032 66.1456 693.439 66.3677C693.846 66.5527 694.179 66.7562 694.438 66.9782C694.734 67.2003 694.882 67.4038 694.882 67.5888C694.142 69.143 693.457 70.7157 692.828 72.3069C692.199 73.8611 691.663 75.3598 691.219 76.803C690.775 78.2462 690.423 79.5969 690.164 80.855C689.942 82.1132 689.831 83.2048 689.831 84.13C689.831 85.1661 689.942 86.0357 690.164 86.7388C690.386 87.4049 690.756 87.8859 691.274 88.182C690.83 88.478 690.256 88.7186 689.553 88.9036C688.85 89.0886 688.221 89.1811 687.666 89.1811C685.668 89.1811 684.669 87.8119 684.669 85.0736C684.669 82.9643 685.372 80.0779 686.778 76.4145C686.038 78.1167 685.187 79.7264 684.225 81.2436C683.263 82.7238 682.282 84.0374 681.283 85.1846C680.284 86.3317 679.266 87.2754 678.23 88.0155C677.231 88.7186 676.306 89.1441 675.455 89.2921C674.085 89.2181 672.975 88.5705 672.124 87.3494C671.273 86.0912 670.847 84.5 670.847 82.5758C670.847 80.5035 671.291 78.3202 672.18 76.0259C673.068 73.7316 674.196 71.6038 675.566 69.6426C676.972 67.6813 678.489 66.0531 680.117 64.758C681.745 63.4258 683.318 62.7227 684.835 62.6487C685.205 62.7597 685.612 62.9817 686.056 63.3148C686.537 63.6478 686.982 64.0364 687.389 64.4804C687.833 64.9245 688.203 65.387 688.499 65.8681C688.795 66.3122 688.961 66.7007 688.998 67.0337C687.518 67.2558 685.982 67.9774 684.391 69.1985C682.837 70.4197 681.412 71.8999 680.117 73.6391C678.859 75.3413 677.823 77.1731 677.009 79.1343C676.195 81.0956 675.788 82.9273 675.788 84.6295C675.788 85.3326 676.047 85.7767 676.565 85.9617C677.638 85.7397 678.877 84.8331 680.284 83.2418C681.69 81.6136 683.392 79.1158 685.39 75.7484C685.76 75.0823 686.167 74.3422 686.611 73.5281C687.093 72.714 687.574 71.8629 688.055 70.9748C688.536 70.0866 688.998 69.1985 689.442 68.3104C689.923 67.3853 690.367 66.4972 690.775 65.6461Z" fill="#FAFAFA"/>
<path d="M647.905 86.9608C648.09 85.8877 648.405 84.4815 648.849 82.7422C649.33 80.966 649.885 79.0973 650.514 77.136C651.143 75.1378 651.809 73.1395 652.512 71.1412C653.215 69.143 653.9 67.3483 654.566 65.757C655.047 64.6099 655.473 63.7218 655.843 63.0927C656.213 62.4266 656.62 61.8715 657.064 61.4275C657.582 61.5015 658.119 61.631 658.674 61.816C659.229 62.0011 659.765 62.2231 660.283 62.4821C660.801 62.7412 661.264 63.0187 661.671 63.3147C662.078 63.5738 662.393 63.8328 662.615 64.0918C661.615 65.276 660.727 66.6267 659.95 68.1439C659.21 69.6611 658.452 71.6038 657.674 73.9721C659.673 72.1959 661.43 70.4937 662.948 68.8655C664.502 67.2372 665.945 65.424 667.277 63.4257C667.499 63.2407 667.888 63.1482 668.443 63.1482C668.961 63.1482 669.46 63.2407 669.942 63.4257C670.423 63.5738 670.756 63.7958 670.941 64.0918C670.275 65.8681 669.942 67.6258 669.942 69.365C669.942 70.9932 670.182 72.2144 670.663 73.0285C670.626 73.2505 670.367 73.6761 669.886 74.3052C669.442 74.9342 668.942 75.5263 668.387 76.0814C667.388 75.5633 666.5 74.8602 665.723 73.9721C664.946 73.047 664.372 72.0479 664.002 70.9747C662.263 72.1959 660.783 73.3985 659.562 74.5827C658.341 75.7298 657.286 77.025 656.398 78.4682C655.547 79.8744 654.807 81.5026 654.178 83.3528C653.585 85.2031 653.012 87.4049 652.457 89.9582C652.124 89.9212 651.717 89.7917 651.236 89.5696C650.792 89.3846 650.329 89.1441 649.848 88.848C649.404 88.552 648.997 88.2375 648.627 87.9044C648.257 87.5714 648.016 87.2568 647.905 86.9608Z" fill="#FAFAFA"/>
<path d="M613.036 104.612C613.036 104.39 613.11 104.187 613.258 104.002C613.406 103.816 613.572 103.631 613.757 103.446C614.202 103.853 614.59 104.168 614.923 104.39C615.219 104.612 615.515 104.797 615.811 104.945C616.07 105.093 616.348 105.186 616.644 105.223C616.94 105.26 617.291 105.278 617.698 105.278C619.623 105.278 621.454 104.76 623.194 103.724C624.933 102.725 626.561 101.263 628.078 99.3389C629.632 97.4146 631.039 95.0648 632.297 92.2895C633.555 89.5141 634.665 86.3687 635.627 82.8533C635.183 83.2973 634.628 83.7969 633.962 84.352C633.333 84.87 632.667 85.3696 631.964 85.8506C631.261 86.3317 630.558 86.7758 629.855 87.1828C629.188 87.5899 628.615 87.8859 628.134 88.0709C627.505 87.9599 626.913 87.7009 626.358 87.2938C625.84 86.8498 625.377 86.3132 624.97 85.6841C624.563 85.055 624.248 84.352 624.026 83.5749C623.804 82.7608 623.693 81.9096 623.693 81.0215C623.693 79.5783 623.952 78.0981 624.47 76.581C625.025 75.0638 625.747 73.5836 626.635 72.1404C627.523 70.6602 628.559 69.2725 629.744 67.9773C630.965 66.6822 632.241 65.5535 633.574 64.5914C634.943 63.6293 636.312 62.8707 637.681 62.3156C639.087 61.7235 640.456 61.4275 641.789 61.4275C643.084 61.4275 644.046 61.705 644.675 62.2601C645.341 62.7782 645.822 63.6848 646.118 64.9799C645.711 64.7579 645.193 64.6469 644.564 64.6469C643.676 64.6469 642.64 64.9985 641.456 65.7015C640.308 66.4046 639.124 67.3298 637.903 68.4769C636.719 69.587 635.535 70.8822 634.351 72.3624C633.166 73.8056 632.112 75.2858 631.187 76.803C630.299 78.3202 629.558 79.8004 628.966 81.2436C628.411 82.6867 628.134 83.9819 628.134 85.1291C628.134 85.3881 628.152 85.5546 628.189 85.6286C628.226 85.6656 628.282 85.6841 628.356 85.6841C628.689 85.6841 629.133 85.4991 629.688 85.1291C630.28 84.759 630.928 84.2965 631.631 83.7414C632.371 83.1493 633.129 82.4832 633.907 81.7431C634.684 80.966 635.424 80.1889 636.127 79.4118C637.718 77.6356 639.161 75.6558 640.456 73.4725C641.789 71.2523 642.843 69.106 643.62 67.0337C644.619 67.1077 645.508 67.2742 646.285 67.5333C647.062 67.7923 647.598 68.0699 647.894 68.3659C646.636 71.2523 645.619 73.6761 644.841 75.6373C644.101 77.5986 643.454 79.3378 642.899 80.855C641.9 83.5193 640.956 85.9432 640.068 88.1264C639.217 90.3467 638.329 92.382 637.404 94.2322C636.515 96.1195 635.535 97.8587 634.462 99.4499C633.426 101.078 632.241 102.632 630.909 104.113C630.28 104.816 629.559 105.426 628.744 105.944C627.967 106.499 627.153 106.962 626.302 107.332C625.488 107.702 624.674 107.98 623.86 108.165C623.083 108.35 622.361 108.442 621.695 108.442C620.807 108.442 619.9 108.331 618.975 108.109C618.05 107.924 617.199 107.646 616.422 107.276C615.608 106.943 614.905 106.536 614.313 106.055C613.72 105.611 613.295 105.13 613.036 104.612Z" fill="#FAFAFA"/>
<path d="M621.678 65.091C621.53 67.3853 621.123 69.365 620.457 71.0302C619.791 72.6585 618.829 74.1016 617.571 75.3598C616.35 76.581 614.851 77.6911 613.075 78.6902C611.299 79.6894 609.226 80.6515 606.858 81.5766C606.858 81.7986 606.84 82.0392 606.803 82.2982C606.803 82.5202 606.803 82.7608 606.803 83.0198C606.803 83.5009 606.84 84.0004 606.914 84.5185C606.988 85.0366 607.117 85.5176 607.302 85.9617C607.487 86.4057 607.746 86.7758 608.079 87.0718C608.412 87.3309 608.838 87.4604 609.356 87.4604C610.355 87.4604 611.336 87.2383 612.298 86.7943C613.26 86.3502 614.166 85.8137 615.018 85.1846C615.906 84.5185 616.72 83.8154 617.46 83.0753C618.237 82.2982 618.922 81.5951 619.514 80.966C619.884 81.2991 620.198 81.6136 620.457 81.9097C618.792 84.1299 616.96 85.9802 614.962 87.4604C613.001 88.9036 611.132 89.8287 609.356 90.2357C606.803 89.9397 604.804 89.0146 603.361 87.4604C601.955 85.8692 601.252 83.9634 601.252 81.7431C601.252 80.2259 601.455 78.6902 601.862 77.136C602.306 75.5448 602.899 74.0276 603.639 72.5844C604.416 71.1043 605.304 69.7166 606.303 68.4214C607.339 67.1262 608.431 65.9976 609.578 65.0355C610.762 64.0733 611.965 63.3147 613.186 62.7597C614.444 62.2046 615.684 61.9271 616.905 61.9271C618.607 62.1491 620.198 63.2037 621.678 65.091ZM617.849 66.9227C616.849 67.0707 615.813 67.4778 614.74 68.1439C613.667 68.81 612.649 69.6981 611.687 70.8082C610.762 71.9184 609.911 73.2135 609.134 74.6937C608.357 76.1739 607.746 77.7651 607.302 79.4673C610.263 77.9871 612.723 76.1739 614.685 74.0276C616.646 71.8443 617.7 69.476 617.849 66.9227Z" fill="#FAFAFA"/>
<path d="M585.568 66.8117C585.383 66.5897 585.216 66.1271 585.068 65.424C584.92 64.6839 584.846 64.0548 584.846 63.5368C585.808 63.6108 586.733 63.6848 587.621 63.7588C588.509 63.7958 589.324 63.8328 590.064 63.8698C590.619 62.7597 591.211 61.668 591.84 60.5949C592.506 59.4847 593.135 58.4856 593.727 57.5975C594.356 56.6724 594.93 55.8953 595.448 55.2662C596.003 54.6371 596.428 54.2301 596.725 54.045C597.095 54.045 597.557 54.1191 598.112 54.2671C598.704 54.3781 599.296 54.5446 599.888 54.7666C600.481 54.9517 601.017 55.1552 601.498 55.3772C601.979 55.5992 602.312 55.8213 602.497 56.0433C601.387 57.4495 600.425 58.7632 599.611 59.9843C598.834 61.1685 597.983 62.5376 597.058 64.0918C597.798 64.0918 598.538 64.0733 599.278 64.0363C600.055 63.9993 600.832 63.9438 601.609 63.8698C601.794 64.0548 601.942 64.2954 602.053 64.5914C602.164 64.8504 602.22 65.128 602.22 65.424C600.407 66.0901 598.205 66.4602 595.614 66.5342C594.689 68.3104 593.857 70.0866 593.117 71.8628C592.413 73.6021 591.803 75.2858 591.285 76.914C590.804 78.5422 590.415 80.0779 590.119 81.5211C589.86 82.9643 589.731 84.2595 589.731 85.4066C589.731 87.0348 590.341 87.9414 591.562 88.1265C592.673 87.9784 593.727 87.7009 594.726 87.2938C595.725 86.8868 596.614 86.3687 597.391 85.7396C597.613 86.0727 597.742 86.3502 597.779 86.5722C597.557 86.9053 597.169 87.2938 596.614 87.7379C596.095 88.182 595.522 88.6075 594.893 89.0146C594.264 89.4586 593.653 89.8287 593.061 90.1247C592.469 90.4207 592.025 90.5873 591.729 90.6243C590.804 90.5873 589.879 90.3837 588.954 90.0137C588.028 89.6436 587.177 89.1811 586.4 88.626C585.66 88.0709 585.05 87.4604 584.568 86.7943C584.087 86.0912 583.847 85.4066 583.847 84.7405C583.847 83.8524 583.958 82.7423 584.18 81.4101C584.439 80.0409 584.79 78.5607 585.235 76.9695C585.679 75.3783 586.197 73.7131 586.789 71.9739C587.381 70.2346 588.028 68.5139 588.731 66.8117H585.568Z" fill="#FAFAFA"/>
<path d="M561.309 61.15C562.271 61.446 563.178 62.1121 564.029 63.1482C564.88 64.1473 565.509 65.2575 565.916 66.4787C565.509 67.4778 564.88 68.6804 564.029 70.0866C563.178 71.4928 562.326 72.936 561.475 74.4162C560.624 75.8594 559.847 77.247 559.144 78.5792C558.478 79.8744 558.089 80.9475 557.978 81.7986C558.57 81.1696 559.218 80.448 559.921 79.6339C560.661 78.7827 561.364 77.9501 562.03 77.136C562.733 76.2849 563.381 75.5263 563.973 74.8602C564.565 74.1571 565.028 73.6391 565.361 73.306C566.064 72.5659 566.897 71.7148 567.859 70.7527C568.821 69.7536 569.82 68.8285 570.856 67.9773C571.929 67.0892 573.002 66.3491 574.075 65.7571C575.149 65.128 576.129 64.8134 577.017 64.8134C577.979 64.8134 578.775 65.1465 579.404 65.8126C580.07 66.4416 580.588 67.1077 580.958 67.8108C580.958 67.8848 580.81 67.9958 580.514 68.1439C580.255 68.2549 579.867 68.6064 579.349 69.1985C578.831 69.8646 578.238 70.7897 577.572 71.9739C576.943 73.121 576.314 74.3792 575.685 75.7483C575.093 77.0805 574.594 78.4497 574.186 79.8559C573.779 81.2621 573.576 82.5387 573.576 83.6859C573.576 84.611 573.687 85.2031 573.909 85.4621C574.168 85.7211 574.52 85.8507 574.964 85.8507C575.371 85.8507 575.796 85.7581 576.24 85.5731C576.684 85.3881 577.036 85.2956 577.295 85.2956C577.443 85.3696 577.554 85.5361 577.628 85.7952C577.739 86.0172 577.794 86.2207 577.794 86.4057C577.498 86.6648 577.147 86.9238 576.74 87.1828C576.333 87.4419 575.907 87.6824 575.463 87.9044C575.019 88.1265 574.575 88.3115 574.131 88.4595C573.724 88.6075 573.354 88.6815 573.021 88.6815C571.948 88.6815 571.06 88.515 570.356 88.182C569.69 87.8859 569.154 87.4789 568.747 86.9608C568.377 86.4427 568.118 85.8322 567.97 85.1291C567.822 84.389 567.748 83.6119 567.748 82.7978C567.748 82.3537 567.785 81.8541 567.859 81.2991C567.933 80.744 568.081 80.0964 568.303 79.3563C568.525 78.5792 568.839 77.6726 569.246 76.6365C569.653 75.5633 570.171 74.2867 570.801 72.8065C570.727 72.8065 570.227 73.0655 569.302 73.5836C568.377 74.1016 567.378 74.8972 566.304 75.9704C564.565 77.6356 562.993 79.2823 561.586 80.9105C560.217 82.5387 558.811 84.352 557.368 86.3502C556.554 87.4974 555.832 88.4595 555.203 89.2366C554.611 90.0507 554.093 90.5873 553.649 90.8463C552.872 90.4022 552.298 89.7732 551.928 88.9591C551.558 88.182 551.281 87.3679 551.095 86.5167C551.095 85.8137 551.188 84.9255 551.373 83.8524C551.595 82.7793 551.873 81.5951 552.206 80.2999C552.576 78.9678 553.02 77.5801 553.538 76.1369C554.056 74.6937 554.629 73.2505 555.259 71.8073C556.665 68.5509 557.941 65.9976 559.089 64.1473C560.273 62.2971 561.013 61.298 561.309 61.15Z" fill="#FAFAFA"/>
<path d="M537.617 84.9071C537.617 83.5749 537.82 81.8542 538.227 79.7449C538.671 77.5986 539.226 75.3043 539.893 72.862C540.596 70.3827 541.391 67.8664 542.279 65.313C543.167 62.7227 544.074 60.2989 544.999 58.0416C545.924 55.7843 546.831 53.8045 547.719 52.1023C548.607 50.4001 549.403 49.1789 550.106 48.4388C550.476 48.4758 550.957 48.6239 551.549 48.8829C552.178 49.1049 552.807 49.3825 553.436 49.7155C554.065 50.0486 554.639 50.4186 555.157 50.8257C555.675 51.1957 556.008 51.5472 556.156 51.8803C555.083 52.8424 554.01 54.3041 552.937 56.2654C551.901 58.1896 550.883 60.3914 549.884 62.8707C548.922 65.35 548.015 67.9774 547.164 70.7527C546.313 73.4911 545.573 76.1554 544.944 78.7458C544.315 81.3361 543.815 83.7414 543.445 85.9617C543.112 88.182 542.945 89.9767 542.945 91.3459C542.945 91.975 543.001 92.3635 543.112 92.5115C542.298 92.4745 541.706 92.3265 541.336 92.0675C540.966 91.8455 540.67 91.5864 540.448 91.2904C540.263 91.0314 540.078 90.7538 539.893 90.4578C539.745 90.1987 539.504 89.9952 539.171 89.8472C538.912 89.7362 538.69 89.4772 538.505 89.0701C538.32 88.663 538.153 88.219 538.005 87.7379C537.894 87.2199 537.802 86.7018 537.728 86.1837C537.654 85.6657 537.617 85.2401 537.617 84.9071Z" fill="#FAFAFA"/>
<path d="M515.58 65.6461C515.95 65.6461 516.376 65.7201 516.857 65.8681C517.375 65.9791 517.837 66.1456 518.244 66.3677C518.651 66.5527 518.984 66.7562 519.244 66.9782C519.54 67.2003 519.688 67.4038 519.688 67.5888C518.947 69.143 518.263 70.7157 517.634 72.3069C517.005 73.8611 516.468 75.3598 516.024 76.803C515.58 78.2462 515.228 79.5969 514.969 80.855C514.747 82.1132 514.636 83.2048 514.636 84.13C514.636 85.1661 514.747 86.0357 514.969 86.7388C515.191 87.4049 515.562 87.8859 516.08 88.182C515.636 88.478 515.062 88.7186 514.359 88.9036C513.656 89.0886 513.027 89.1811 512.472 89.1811C510.473 89.1811 509.474 87.8119 509.474 85.0736C509.474 82.9643 510.177 80.0779 511.584 76.4145C510.843 78.1167 509.992 79.7264 509.03 81.2436C508.068 82.7238 507.087 84.0374 506.088 85.1846C505.089 86.3317 504.072 87.2754 503.035 88.0155C502.036 88.7186 501.111 89.1441 500.26 89.2921C498.891 89.2181 497.781 88.5705 496.93 87.3494C496.079 86.0912 495.653 84.5 495.653 82.5758C495.653 80.5035 496.097 78.3202 496.985 76.0259C497.873 73.7316 499.002 71.6038 500.371 69.6426C501.777 67.6813 503.294 66.0531 504.923 64.758C506.551 63.4258 508.124 62.7227 509.641 62.6487C510.011 62.7597 510.418 62.9817 510.862 63.3148C511.343 63.6478 511.787 64.0364 512.194 64.4804C512.638 64.9245 513.008 65.387 513.304 65.8681C513.6 66.3122 513.767 66.7007 513.804 67.0337C512.324 67.2558 510.788 67.9774 509.197 69.1985C507.643 70.4197 506.218 71.8999 504.923 73.6391C503.664 75.3413 502.628 77.1731 501.814 79.1343C501 81.0956 500.593 82.9273 500.593 84.6295C500.593 85.3326 500.852 85.7767 501.37 85.9617C502.443 85.7397 503.683 84.8331 505.089 83.2418C506.495 81.6136 508.198 79.1158 510.196 75.7484C510.566 75.0823 510.973 74.3422 511.417 73.5281C511.898 72.714 512.379 71.8629 512.86 70.9748C513.341 70.0866 513.804 69.1985 514.248 68.3104C514.729 67.3853 515.173 66.4972 515.58 65.6461Z" fill="#FAFAFA"/>
<path d="M468.521 87.2939C468.521 86.7018 469.039 85.7582 470.075 84.463C471.111 83.1308 472.481 81.6321 474.183 79.9669C475.922 78.2647 477.902 76.4885 480.122 74.6382C482.379 72.751 484.711 70.9377 487.116 69.1985C485.562 68.8655 484.322 68.6249 483.397 68.4769C482.509 68.3289 481.787 68.2549 481.232 68.2549C480.159 68.2549 479.197 68.4029 478.346 68.6989C477.495 68.995 476.662 69.476 475.848 70.1421C474.146 68.6619 473.295 66.9597 473.295 65.0355C473.295 64.4434 473.313 64.0919 473.35 63.9808C473.979 63.3518 474.719 62.8707 475.571 62.5377C476.459 62.2046 477.384 62.0381 478.346 62.0381C479.382 62.0381 480.437 62.2046 481.51 62.5377C482.583 62.8707 483.638 63.2407 484.674 63.6478C485.71 64.0178 486.672 64.3694 487.56 64.7024C488.485 65.0355 489.299 65.202 490.002 65.202C490.409 65.202 490.854 65.1465 491.335 65.0355C491.853 64.9245 492.278 64.7764 492.611 64.5914C492.944 64.8504 493.24 65.3685 493.499 66.1456C493.795 66.9227 493.943 67.6813 493.943 68.4214C492.796 68.8655 491.409 69.6426 489.78 70.7527C488.189 71.8629 486.561 73.1395 484.896 74.5827C483.231 76.0259 481.602 77.5616 480.011 79.1898C478.457 80.818 477.162 82.3537 476.126 83.7969C476.903 84.1299 477.957 84.2965 479.29 84.2965C480.141 84.2965 481.01 84.2225 481.898 84.0744C482.787 83.9264 483.638 83.7229 484.452 83.4639C485.303 83.2048 486.08 82.9088 486.783 82.5757C487.486 82.2057 488.078 81.8171 488.559 81.4101C490.298 82.5202 491.168 84.1484 491.168 86.2947C491.168 86.5908 491.15 86.8313 491.113 87.0163C491.113 87.2013 491.094 87.4234 491.057 87.6824C489.355 88.7555 487.505 89.2921 485.506 89.2921C484.507 89.2921 483.508 89.1811 482.509 88.9591C481.51 88.774 480.529 88.5705 479.567 88.3485C478.642 88.1265 477.754 87.9229 476.903 87.7379C476.089 87.5159 475.33 87.4049 474.627 87.4049C472.851 87.4049 471.408 88.2375 470.297 89.9027C469.816 89.7177 469.409 89.3846 469.076 88.9036C468.78 88.4225 468.595 87.8859 468.521 87.2939Z" fill="#FAFAFA"/>
<path d="M467.95 65.091C467.802 67.3853 467.395 69.365 466.728 71.0302C466.062 72.6585 465.1 74.1016 463.842 75.3598C462.621 76.581 461.122 77.6911 459.346 78.6902C457.57 79.6894 455.498 80.6515 453.129 81.5766C453.129 81.7986 453.111 82.0392 453.074 82.2982C453.074 82.5202 453.074 82.7608 453.074 83.0198C453.074 83.5009 453.111 84.0004 453.185 84.5185C453.259 85.0366 453.388 85.5176 453.573 85.9617C453.758 86.4057 454.017 86.7758 454.35 87.0718C454.683 87.3309 455.109 87.4604 455.627 87.4604C456.626 87.4604 457.607 87.2383 458.569 86.7943C459.531 86.3502 460.438 85.8137 461.289 85.1846C462.177 84.5185 462.991 83.8154 463.731 83.0753C464.508 82.2982 465.193 81.5951 465.785 80.966C466.155 81.2991 466.469 81.6136 466.728 81.9097C465.063 84.1299 463.232 85.9802 461.233 87.4604C459.272 88.9036 457.403 89.8287 455.627 90.2357C453.074 89.9397 451.075 89.0146 449.632 87.4604C448.226 85.8692 447.523 83.9634 447.523 81.7431C447.523 80.2259 447.727 78.6902 448.134 77.136C448.578 75.5448 449.17 74.0276 449.91 72.5844C450.687 71.1043 451.575 69.7166 452.574 68.4214C453.61 67.1262 454.702 65.9976 455.849 65.0355C457.033 64.0733 458.236 63.3147 459.457 62.7597C460.715 62.2046 461.955 61.9271 463.176 61.9271C464.878 62.1491 466.469 63.2037 467.95 65.091ZM464.12 66.9227C463.12 67.0707 462.084 67.4778 461.011 68.1439C459.938 68.81 458.92 69.6981 457.958 70.8082C457.033 71.9184 456.182 73.2135 455.405 74.6937C454.628 76.1739 454.017 77.7651 453.573 79.4673C456.534 77.9871 458.994 76.1739 460.956 74.0276C462.917 71.8443 463.972 69.476 464.12 66.9227Z" fill="#FAFAFA"/>
<path d="M435.016 84.352C435.016 84.0189 435.034 83.6119 435.071 83.1308C435.145 82.6127 435.256 81.9467 435.404 81.1326C435.552 80.2814 435.737 79.2638 435.959 78.0797C436.218 76.8955 436.533 75.4708 436.903 73.8056C436.977 73.4356 437.143 72.8435 437.402 72.0294C437.662 71.2153 437.995 70.3642 438.402 69.476C438.846 68.5509 439.364 67.6628 439.956 66.8117C440.585 65.9606 441.325 65.3315 442.176 64.9245C442.805 65.0725 443.638 65.461 444.674 66.0901C445.71 66.6822 446.598 67.5148 447.338 68.5879C446.487 69.5501 445.766 70.5122 445.173 71.4743C444.618 72.4364 444.1 73.4356 443.619 74.4717C443.175 75.5078 442.75 76.581 442.343 77.6911C441.973 78.8012 441.547 79.9669 441.066 81.1881C440.659 82.2242 440.289 83.2973 439.956 84.4075C439.623 85.4806 439.438 86.4242 439.401 87.2383C439.401 87.9044 439.382 88.367 439.345 88.626C439.345 88.9221 439.253 89.0701 439.068 89.0701C438.92 89.0701 438.624 88.9776 438.18 88.7925C437.736 88.6075 437.273 88.33 436.792 87.9599C436.348 87.5529 435.941 87.0533 435.571 86.4612C435.201 85.8692 435.016 85.1661 435.016 84.352ZM445.618 60.2618C445.618 60.0398 445.673 59.7068 445.784 59.2627C445.599 59.0777 445.433 58.8002 445.284 58.4301C445.173 58.0601 445.118 57.727 445.118 57.431C445.118 57.0979 445.155 56.6539 445.229 56.0988C445.34 55.5067 445.47 54.8777 445.618 54.2116C445.766 53.5455 445.951 52.8609 446.173 52.1578C446.395 51.4177 446.617 50.7516 446.839 50.1595C447.283 50.1595 447.819 50.2891 448.448 50.5481C449.114 50.7701 449.781 51.0847 450.447 51.4917C451.113 51.8618 451.723 52.2873 452.278 52.7684C452.833 53.2124 453.259 53.638 453.555 54.045C453.148 54.4521 452.611 55.0257 451.945 55.7658C451.279 56.4689 450.632 57.2275 450.003 58.0416C449.374 58.8187 448.8 59.5588 448.282 60.2618C447.764 60.9649 447.431 61.4645 447.283 61.7605C446.839 61.6865 446.45 61.5015 446.117 61.2055C445.784 60.8724 445.618 60.5579 445.618 60.2618Z" fill="#FAFAFA"/>
<path d="M403.263 106.444C402.745 106.296 402.449 105.741 402.375 104.779C402.227 104.298 402.116 103.724 402.042 103.058C402.005 102.392 401.986 101.633 401.986 100.782C401.986 100.005 402.116 98.9319 402.375 97.5627C402.634 96.2305 402.985 94.7133 403.429 93.0111C403.911 91.3089 404.484 89.4771 405.15 87.5159C405.816 85.5176 406.556 83.5009 407.371 81.4656C408.37 78.9123 409.239 76.7105 409.979 74.8602C410.719 72.973 411.33 71.3448 411.811 69.9756C412.329 68.6064 412.736 67.4778 413.032 66.5897C413.365 65.7016 413.624 64.943 413.809 64.3139C413.957 63.8698 414.179 63.3332 414.475 62.7042C414.771 62.0751 415.104 61.446 415.475 60.8169C415.882 60.1508 416.289 59.5403 416.696 58.9852C417.103 58.3931 417.473 57.9491 417.806 57.653C419.101 57.838 420.322 58.1711 421.469 58.6521C422.616 59.1332 423.32 59.5958 423.579 60.0398C423.061 60.5209 422.468 61.2795 421.802 62.3156C421.136 63.3147 420.489 64.4249 419.86 65.646C419.231 66.8302 418.657 68.0514 418.139 69.3095C417.621 70.5677 417.232 71.6778 416.973 72.64C417.343 72.0109 417.824 71.3263 418.416 70.5862C419.009 69.8461 419.915 68.8285 421.136 67.5333C422.505 66.1271 423.782 65.054 424.966 64.3139C426.187 63.5368 427.242 63.1482 428.13 63.1482C429.536 63.1482 430.684 63.5368 431.572 64.3139C432.497 65.091 432.959 66.0901 432.959 67.3113C432.959 69.9756 432.515 72.6215 431.627 75.2488C430.739 77.8391 429.462 80.1889 427.797 82.2982C427.168 83.1123 426.428 83.8894 425.577 84.6295C424.726 85.3696 423.838 86.0357 422.913 86.6278C421.987 87.1828 421.081 87.6269 420.193 87.9599C419.305 88.293 418.509 88.4595 417.806 88.4595C417.14 88.4595 416.548 88.33 416.03 88.071C415.549 87.7749 415.216 87.4234 415.03 87.0163C416.474 86.1652 417.88 84.9811 419.249 83.4639C420.618 81.9467 421.876 80.2074 423.024 78.2462C424.208 76.2479 425.225 74.1016 426.076 71.8073C426.965 69.5131 427.631 67.1817 428.075 64.8134C426.668 65.5535 425.392 66.3676 424.245 67.2558C423.135 68.1069 422.024 69.2355 420.914 70.6417C419.582 72.2699 418.527 73.5836 417.75 74.5827C416.973 75.5818 416.326 76.4329 415.808 77.136C415.327 77.8391 414.919 78.5052 414.586 79.1343C414.29 79.7264 413.957 80.4665 413.587 81.3546C413.069 82.5387 412.459 84.1114 411.756 86.0727C411.089 87.9969 410.386 90.1617 409.646 92.567C408.943 94.9723 408.222 97.5257 407.482 100.227C406.778 102.965 406.094 105.685 405.428 108.387C405.021 108.313 404.669 108.017 404.373 107.498C404.077 107.165 403.855 106.925 403.707 106.777C403.596 106.629 403.448 106.518 403.263 106.444Z" fill="#FAFAFA"/>
<path d="M396.955 71.0302C396.363 71.0672 395.641 71.4557 394.79 72.1958C393.939 72.8989 393.014 73.824 392.015 74.9712C391.052 76.0813 390.035 77.321 388.962 78.6902C387.925 80.0594 386.908 81.4285 385.909 82.7977C384.947 84.1299 384.04 85.388 383.189 86.5722C382.338 87.7563 381.616 88.7 381.024 89.4031C380.21 89.07 379.507 88.589 378.915 87.9599C378.323 87.2938 377.897 86.4797 377.638 85.5176C377.823 84.3704 378.082 83.1863 378.415 81.9651C378.748 80.7069 379.174 79.4118 379.692 78.0796C380.247 76.7474 380.913 75.3597 381.69 73.9166C382.504 72.4364 383.485 70.8822 384.632 69.254C384.077 69.291 383.318 69.698 382.356 70.4751C381.394 71.2152 380.358 72.1958 379.248 73.417C378.138 74.6011 376.991 75.9518 375.806 77.469C374.622 78.9492 373.512 80.4109 372.476 81.8541C371.107 83.7783 369.96 85.4621 369.035 86.9052C368.146 88.3484 367.499 89.1995 367.092 89.4586C366.13 88.7555 365.464 87.9969 365.094 87.1828C364.723 86.3687 364.446 85.4621 364.261 84.4629C364.298 83.5748 364.427 82.4647 364.649 81.1325C364.909 79.8003 365.26 78.4311 365.704 77.025C366.555 74.3236 367.647 71.6408 368.979 68.9764C370.348 66.3121 371.662 63.8698 372.92 61.6495C373.956 61.8715 374.881 62.223 375.695 62.7041C376.547 63.1852 377.435 63.8883 378.36 64.8134C377.99 65.9605 377.416 67.1817 376.639 68.4769C375.862 69.735 375.048 71.0672 374.197 72.4734C373.346 73.8796 372.568 75.3227 371.865 76.8029C371.162 78.2831 370.7 79.7818 370.478 81.299C371.514 79.8188 372.735 78.1166 374.141 76.1924C375.584 74.2681 377.046 72.4549 378.526 70.7526C380.043 69.0504 381.542 67.6072 383.022 66.4231C384.503 65.2389 385.835 64.6469 387.019 64.6469C387.463 64.6469 387.944 64.7209 388.462 64.8689C388.98 65.0169 389.461 65.2019 389.905 65.424C390.349 65.646 390.719 65.868 391.015 66.09C391.311 66.2751 391.478 66.4231 391.515 66.5341C391.33 67.2742 390.886 68.2918 390.183 69.587C389.517 70.8452 388.795 72.1773 388.018 73.5835C387.241 74.9897 386.519 76.3589 385.853 77.691C385.187 78.9862 384.799 80.0223 384.688 80.7994C386.501 78.3201 388.203 76.0813 389.794 74.0831C391.385 72.0478 392.884 70.3086 394.29 68.8654C395.696 67.4222 396.992 66.3121 398.176 65.535C399.397 64.7579 400.544 64.3693 401.617 64.3693C402.357 64.3693 403.042 64.5728 403.671 64.9799C404.337 65.3499 404.8 65.905 405.059 66.6451C404.726 67.7553 404.171 69.0874 403.393 70.6416C402.653 72.1958 401.895 73.8426 401.118 75.5818C400.341 77.284 399.638 78.9677 399.008 80.6329C398.416 82.2981 398.12 83.7968 398.12 85.129C398.12 85.9061 398.231 86.4242 398.453 86.6832C398.675 86.9052 398.99 87.0163 399.397 87.0163C399.841 87.0163 400.248 86.9422 400.618 86.7942C401.025 86.6092 401.321 86.5167 401.506 86.5167C401.728 86.6647 401.858 86.8497 401.895 87.0718C401.932 87.2938 401.95 87.4973 401.95 87.6823C401.21 88.2744 400.452 88.7555 399.675 89.1255C398.897 89.5326 398.028 89.7361 397.066 89.7361C396.178 89.7361 395.437 89.5881 394.845 89.292C394.29 88.996 393.828 88.589 393.458 88.0709C393.088 87.5528 392.829 86.9607 392.681 86.2947C392.533 85.6286 392.459 84.907 392.459 84.1299C392.459 82.8717 392.625 81.6321 392.958 80.4109C393.291 79.1527 393.68 77.9686 394.124 76.8584C394.605 75.7113 395.104 74.6567 395.622 73.6945C396.141 72.6954 396.585 71.8073 396.955 71.0302Z" fill="#FAFAFA"/>
<path d="M351.809 84.352C351.809 84.0189 351.828 83.6119 351.865 83.1308C351.939 82.6127 352.05 81.9467 352.198 81.1326C352.346 80.2814 352.531 79.2638 352.753 78.0797C353.012 76.8955 353.326 75.4708 353.696 73.8056C353.77 73.4356 353.937 72.8435 354.196 72.0294C354.455 71.2153 354.788 70.3642 355.195 69.476C355.639 68.5509 356.157 67.6628 356.749 66.8117C357.378 65.9606 358.118 65.3315 358.97 64.9245C359.599 65.0725 360.431 65.461 361.467 66.0901C362.503 66.6822 363.392 67.5148 364.132 68.5879C363.281 69.5501 362.559 70.5122 361.967 71.4743C361.412 72.4364 360.894 73.4356 360.413 74.4717C359.969 75.5078 359.543 76.581 359.136 77.6911C358.766 78.8012 358.34 79.9669 357.859 81.1881C357.452 82.2242 357.082 83.2973 356.749 84.4075C356.416 85.4806 356.231 86.4242 356.194 87.2383C356.194 87.9044 356.176 88.367 356.139 88.626C356.139 88.9221 356.046 89.0701 355.861 89.0701C355.713 89.0701 355.417 88.9776 354.973 88.7925C354.529 88.6075 354.066 88.33 353.585 87.9599C353.141 87.5529 352.734 87.0533 352.364 86.4612C351.994 85.8692 351.809 85.1661 351.809 84.352ZM362.411 60.2618C362.411 60.0398 362.466 59.7068 362.577 59.2627C362.392 59.0777 362.226 58.8002 362.078 58.4301C361.967 58.0601 361.911 57.727 361.911 57.431C361.911 57.0979 361.948 56.6539 362.022 56.0988C362.133 55.5067 362.263 54.8777 362.411 54.2116C362.559 53.5455 362.744 52.8609 362.966 52.1578C363.188 51.4177 363.41 50.7516 363.632 50.1595C364.076 50.1595 364.613 50.2891 365.242 50.5481C365.908 50.7701 366.574 51.0847 367.24 51.4917C367.906 51.8618 368.517 52.2873 369.072 52.7684C369.627 53.2124 370.052 53.638 370.348 54.045C369.941 54.4521 369.405 55.0257 368.739 55.7658C368.073 56.4689 367.425 57.2275 366.796 58.0416C366.167 58.8187 365.593 59.5588 365.075 60.2618C364.557 60.9649 364.224 61.4645 364.076 61.7605C363.632 61.6865 363.244 61.5015 362.911 61.2055C362.577 60.8724 362.411 60.5579 362.411 60.2618Z" fill="#FAFAFA"/>
<path d="M347.147 84.907C348.072 86.4983 348.535 88.0339 348.535 89.5141C348.535 89.8472 348.498 90.1432 348.424 90.4023C348.387 90.6983 348.332 90.9943 348.258 91.2904C347.628 91.2164 346.962 91.1609 346.259 91.1238C345.593 91.0868 344.89 91.0683 344.15 91.0683C343.262 91.0683 342.355 91.0868 341.43 91.1238C340.542 91.1979 339.543 91.2904 338.433 91.4014C337.323 91.5124 336.083 91.6604 334.714 91.8454C333.345 92.0305 331.753 92.271 329.94 92.567C329.089 92.271 328.238 91.6789 327.387 90.7908C326.536 89.9397 325.74 88.9036 325 87.6824C325.37 86.8683 325.833 85.8692 326.388 84.685C326.943 83.4639 327.59 82.0022 328.33 80.2999C329.071 78.5607 329.885 76.544 330.773 74.2497C331.698 71.9184 332.678 69.2355 333.715 66.2011C334.381 64.2029 334.954 62.4451 335.435 60.9279C335.916 59.4107 336.342 57.9491 336.712 56.5429C337.119 55.0997 337.508 53.601 337.878 52.0468C338.248 50.4926 338.655 48.6979 339.099 46.6626C340.579 46.9586 341.856 47.5137 342.929 48.3278C344.039 49.1049 345.094 50.2336 346.093 51.7138C345.797 52.1948 345.408 52.9719 344.927 54.0451C344.446 55.1182 343.872 56.4319 343.206 57.9861C342.577 59.5033 341.874 61.2425 341.097 63.2037C340.32 65.128 339.506 67.2003 338.655 69.4205C337.841 71.6038 337.045 73.6576 336.268 75.5818C335.491 77.5061 334.788 79.2453 334.159 80.7995C333.567 82.3537 333.086 83.6859 332.715 84.796C332.345 85.9062 332.16 86.7388 332.16 87.2939C332.753 87.2568 333.289 87.2198 333.77 87.1828C334.251 87.1458 334.751 87.0903 335.269 87.0163C335.787 86.9053 336.342 86.7943 336.934 86.6833C337.563 86.5353 338.303 86.3502 339.154 86.1282C339.894 85.9432 340.579 85.7952 341.208 85.6841C341.837 85.5361 342.448 85.4251 343.04 85.3511C343.669 85.2401 344.298 85.1661 344.927 85.1291C345.593 85.0551 346.333 84.9811 347.147 84.907Z" fill="#FAFAFA"/>
<path d="M625.313 145.01C621.44 125.957 599.602 124.166 583.611 124.734C558.277 125.632 528.18 137.063 506.109 119.306C504.95 118.374 503.593 119.761 504.496 120.919C513.523 132.49 527.968 140.758 542.912 140.088C544.403 140.021 544.409 137.701 542.912 137.765C528.546 138.381 514.809 130.385 506.109 119.306C505.57 119.845 505.034 120.38 504.496 120.919C522.601 135.388 546.963 131.352 568.144 127.887C587.094 124.789 618.114 121.877 625.174 145.048C625.202 145.136 625.331 145.101 625.313 145.01Z" fill="#FAFAFA"/>
<path d="M590.723 136.347C574.495 119.018 552.552 117.621 530.333 121.458C510.596 124.869 481.612 142.685 463.306 127.552C462.336 126.753 460.938 128.135 461.917 128.943C476.705 141.169 499.052 132.318 514.967 127.244C540.804 119.005 569.548 116.147 590.646 136.421C590.697 136.47 590.77 136.396 590.723 136.347Z" fill="#FAFAFA"/>
<path d="M460.12 139.995C473.479 123.809 496.283 133.197 512.377 139.788C531.087 147.452 552.327 154.056 570.343 141.301C571.37 140.575 570.381 138.865 569.352 139.603C547.295 155.418 522.791 140.987 500.686 133.425C488.211 129.158 467.271 125.071 460.007 139.908C459.974 139.977 460.065 140.061 460.12 139.995Z" fill="#FAFAFA"/>
<path d="M625.557 145.049C632.437 122.475 660.959 125.255 679.525 127.439C702.027 130.086 726.765 136.481 746.236 120.919C745.698 120.381 745.161 119.845 744.623 119.307C735.923 130.385 722.186 138.382 707.822 137.766C706.323 137.702 706.331 140.022 707.822 140.089C722.764 140.757 737.209 132.49 746.236 120.919C747.141 119.761 745.782 118.375 744.623 119.307C723.156 136.577 693.488 126.262 668.781 124.812C652.493 123.856 629.394 125.456 625.419 145.01C625.4 145.1 625.53 145.137 625.557 145.049Z" fill="#FAFAFA"/>
<path d="M660.086 136.421C680.564 116.743 708.613 118.717 733.912 126.656C750.294 131.796 773.513 141.594 788.816 128.945C789.792 128.135 788.394 126.752 787.426 127.553C769.84 142.09 741.639 125.959 722.767 121.901C700.154 117.042 676.573 118.656 660.009 136.346C659.962 136.395 660.035 136.47 660.086 136.421Z" fill="#FAFAFA"/>
<path d="M790.723 139.909C783.394 124.934 762.605 129.357 750.046 133.425C727.711 140.659 703.68 155.593 681.382 139.604C680.351 138.864 679.361 140.575 680.389 141.302C697.757 153.596 717.977 147.855 736.206 140.655C752.857 134.08 776.597 123.015 790.612 139.996C790.667 140.061 790.757 139.977 790.723 139.909Z" fill="#FAFAFA"/>
</svg>
