<svg preserveAspectRatio="none" width="1500" height="1005" viewBox="0 0 1500 1005" fill="none" xmlns="http://www.w3.org/2000/svg">
<rect width="1200" height="128" transform="translate(150)" fill="#344986"/>
<path d="M745.114 109.027C741.38 90.6576 720.325 88.9308 704.907 89.478C680.48 90.3443 651.461 101.366 630.181 84.2447C629.064 83.346 627.755 84.683 628.626 85.7994C637.33 96.9559 651.257 104.928 665.665 104.282C667.103 104.218 667.109 101.98 665.665 102.042C651.814 102.636 638.569 94.9261 630.181 84.2447C629.662 84.7639 629.145 85.2802 628.626 85.7994C646.082 99.7505 669.571 95.8586 689.993 92.5183C708.264 89.531 738.173 86.7231 744.98 109.064C745.007 109.149 745.132 109.116 745.114 109.027Z" fill="#FAFAFA"/>
<path d="M711.763 100.675C696.117 83.9671 674.96 82.6198 653.537 86.319C634.507 89.6079 606.562 106.786 588.912 92.1951C587.977 91.4244 586.629 92.757 587.573 93.5366C601.831 105.324 623.377 96.7901 638.722 91.898C663.633 83.9539 691.347 81.1989 711.69 100.747C711.738 100.794 711.809 100.722 711.763 100.675Z" fill="#FAFAFA"/>
<path d="M585.84 104.192C598.721 88.5865 620.707 97.6382 636.225 103.992C654.264 111.382 674.743 117.749 692.113 105.451C693.104 104.751 692.15 103.102 691.158 103.814C669.892 119.063 646.265 105.148 624.952 97.8573C612.924 93.7433 592.735 89.8029 585.731 104.109C585.699 104.175 585.787 104.256 585.84 104.192Z" fill="#FAFAFA"/>
<path d="M745.35 109.065C751.983 87.3002 779.483 89.9801 797.384 92.0864C819.079 94.6384 842.931 100.804 861.705 85.7999C861.186 85.2807 860.668 84.7644 860.149 84.2452C851.761 94.9266 838.516 102.637 824.667 102.043C823.221 101.981 823.229 104.218 824.667 104.283C839.073 104.927 853 96.9564 861.705 85.7999C862.576 84.6835 861.266 83.3465 860.149 84.2452C839.451 100.897 810.847 90.9509 787.024 89.5536C771.32 88.6313 749.048 90.1743 745.216 109.028C745.198 109.115 745.323 109.15 745.35 109.065Z" fill="#FAFAFA"/>
<path d="M778.641 100.746C798.385 81.7737 825.429 83.677 849.822 91.3314C865.616 96.2868 888.004 105.734 902.759 93.5377C903.7 92.7567 902.352 91.4241 901.418 92.1963C884.462 106.212 857.272 90.6593 839.076 86.7467C817.274 82.062 794.538 83.6182 778.567 100.674C778.522 100.721 778.592 100.794 778.641 100.746Z" fill="#FAFAFA"/>
<path d="M904.597 104.109C897.531 89.671 877.486 93.935 865.378 97.8578C843.843 104.833 820.673 119.231 799.174 103.815C798.18 103.101 797.226 104.752 798.217 105.452C814.962 117.306 834.458 111.771 852.034 104.828C868.088 98.4888 890.977 87.8206 904.49 104.193C904.543 104.256 904.63 104.175 904.597 104.109Z" fill="#FAFAFA"/>
<path d="M1015 38.1199C1014.96 38.7978 1014.84 39.5113 1014.63 40.2606C1014.45 40.9742 1014.22 41.6342 1013.93 42.2408C1013.64 42.8116 1013.34 43.2933 1013.02 43.6858C1012.7 44.0782 1012.4 44.2745 1012.11 44.2745C1011.72 44.2388 1011.49 43.9712 1011.41 43.4717C1011.41 43.3646 1011.45 43.2041 1011.52 42.99C1011.63 42.7403 1011.74 42.4727 1011.84 42.1872C1011.95 41.9018 1012.04 41.6164 1012.11 41.331C1012.22 41.0455 1012.27 40.7958 1012.27 40.5817C1012.27 40.0822 1012.15 39.6719 1011.9 39.3508C1011.68 38.994 1011.38 38.8156 1010.99 38.8156C1009.56 38.8156 1008.47 39.7076 1007.72 41.4915C1006.97 43.2755 1006.6 45.8978 1006.6 49.3587C1006.6 49.7155 1006.62 49.9296 1006.65 50.0009C1007.4 49.9652 1008.06 49.9474 1008.63 49.9474C1009.24 49.9117 1009.83 49.8939 1010.4 49.8939C1010.43 49.9652 1010.45 50.108 1010.45 50.322C1010.45 50.6431 1010.38 50.8751 1010.24 51.0178C1009.42 51.1962 1008.76 51.3567 1008.26 51.4994C1007.79 51.6065 1007.44 51.7135 1007.19 51.8205C1006.94 51.9276 1006.78 52.0525 1006.7 52.1952C1006.67 52.3022 1006.65 52.4628 1006.65 52.6768C1006.65 52.9623 1006.65 53.2477 1006.65 53.5331C1006.69 53.8186 1006.7 54.1753 1006.7 54.6035C1006.7 57.6005 1005.88 60.0088 1004.24 61.8285C1002.64 63.6481 1000.39 64.7006 997.5 64.986C997 64.9504 996.483 64.8076 995.947 64.5579C995.412 64.3081 994.895 63.987 994.395 63.5946C993.932 63.2021 993.521 62.7561 993.165 62.2566C992.808 61.7928 992.558 61.3111 992.415 60.8116C992.415 59.4558 992.701 58.1714 993.272 56.9583C993.842 55.7095 994.61 54.6213 995.573 53.6937C996.572 52.7304 997.731 51.9633 999.052 51.3924C1000.41 50.7859 1001.87 50.4291 1003.44 50.322C1003.44 49.4301 1003.35 48.5559 1003.17 47.6996C1002.99 46.8433 1002.8 46.0227 1002.58 45.2378C1002.41 44.4172 1002.23 43.6322 1002.05 42.883C1001.87 42.098 1001.78 41.331 1001.78 40.5817C1001.78 39.6184 1001.98 38.6729 1002.37 37.7452C1002.76 36.7819 1003.28 35.9078 1003.92 35.1228C1004.56 34.3022 1005.31 33.6065 1006.17 33.0356C1007.03 32.4648 1007.92 32.0723 1008.85 31.8582C1009.24 31.9653 1009.76 32.2864 1010.4 32.8215C1011.08 33.321 1011.74 33.8919 1012.38 34.5341C1013.02 35.1763 1013.59 35.8364 1014.09 36.5143C1014.59 37.1565 1014.89 37.6917 1015 38.1199ZM997.339 62.5242C998.195 62.1674 998.998 61.6501 999.747 60.9722C1000.53 60.2943 1001.21 59.5272 1001.78 58.6709C1002.35 57.8146 1002.8 56.9048 1003.12 55.9415C1003.48 54.9781 1003.65 54.0326 1003.65 53.105C1002.94 53.212 1002.16 53.551 1001.3 54.1218C1000.44 54.657 999.64 55.3171 998.891 56.102C998.142 56.8513 997.517 57.6362 997.018 58.4568C996.518 59.2774 996.269 59.991 996.269 60.5975C996.269 61.3825 996.625 62.0247 997.339 62.5242Z" fill="#FAFAFA"/>
<path d="M989.861 37.7988C990.218 37.7988 990.628 37.8702 991.092 38.0129C991.591 38.1199 992.037 38.2805 992.43 38.4945C992.822 38.6729 993.143 38.8692 993.393 39.0832C993.679 39.2973 993.821 39.4935 993.821 39.6719C993.108 41.1705 992.448 42.6868 991.841 44.221C991.235 45.7195 990.717 47.1645 990.289 48.556C989.861 49.9475 989.522 51.2497 989.272 52.4628C989.058 53.6759 988.951 54.7284 988.951 55.6204C988.951 56.6194 989.058 57.4579 989.272 58.1358C989.486 58.778 989.843 59.2418 990.343 59.5272C989.915 59.8127 989.362 60.0446 988.684 60.223C988.006 60.4014 987.399 60.4906 986.864 60.4906C984.937 60.4906 983.974 59.1704 983.974 56.5302C983.974 54.4965 984.652 51.7136 986.008 48.1813C985.294 49.8226 984.474 51.3746 983.546 52.8374C982.618 54.2646 981.673 55.5312 980.709 56.6372C979.746 57.7433 978.765 58.6531 977.766 59.3667C976.803 60.0446 975.911 60.4549 975.09 60.5976C973.77 60.5262 972.7 59.9019 971.879 58.7245C971.058 57.5114 970.648 55.9772 970.648 54.1219C970.648 52.1239 971.076 50.0188 971.932 47.8067C972.789 45.5946 973.877 43.5431 975.197 41.6521C976.553 39.7611 978.016 38.1913 979.586 36.9425C981.155 35.6581 982.672 34.9802 984.135 34.9088C984.491 35.0159 984.884 35.2299 985.312 35.551C985.776 35.8721 986.204 36.2468 986.596 36.6749C987.025 37.1031 987.381 37.549 987.667 38.0129C987.952 38.441 988.113 38.8156 988.148 39.1368C986.721 39.3508 985.241 40.0466 983.706 41.224C982.208 42.4014 980.834 43.8285 979.586 45.5054C978.372 47.1467 977.373 48.9128 976.589 50.8037C975.804 52.6947 975.411 54.4608 975.411 56.1021C975.411 56.78 975.661 57.2081 976.16 57.3865C977.195 57.1724 978.39 56.2983 979.746 54.7641C981.102 53.1942 982.743 50.7859 984.67 47.5391C985.027 46.8969 985.419 46.1833 985.847 45.3984C986.311 44.6135 986.775 43.7929 987.239 42.9366C987.702 42.0803 988.148 41.224 988.577 40.3677C989.04 39.4757 989.469 38.6194 989.861 37.7988Z" fill="#FAFAFA"/>
<path d="M961.408 42.99C960.837 43.0257 960.142 43.4003 959.321 44.1139C958.5 44.7918 957.608 45.6838 956.645 46.7898C955.717 47.8602 954.736 49.0554 953.702 50.3756C952.703 51.6957 951.721 53.0158 950.758 54.3359C949.83 55.6203 948.956 56.8334 948.136 57.9751C947.315 59.1169 946.619 60.0267 946.048 60.7046C945.263 60.3835 944.586 59.9196 944.015 59.3131C943.444 58.6709 943.034 57.886 942.784 56.9583C942.962 55.8523 943.212 54.7105 943.533 53.5331C943.854 52.3201 944.265 51.0713 944.764 49.7869C945.299 48.5024 945.941 47.1645 946.691 45.773C947.476 44.3458 948.421 42.8473 949.527 41.2774C948.992 41.3131 948.261 41.7056 947.333 42.4548C946.405 43.1684 945.406 44.1139 944.336 45.2913C943.265 46.433 942.159 47.7353 941.018 49.1981C939.876 50.6253 938.806 52.0346 937.807 53.4261C936.486 55.2814 935.38 56.9048 934.488 58.2963C933.632 59.6877 933.008 60.5083 932.615 60.7581C931.688 60.0802 931.045 59.3488 930.689 58.5638C930.332 57.7789 930.064 56.9048 929.886 55.9415C929.922 55.0852 930.046 54.0148 930.261 52.7304C930.51 51.4459 930.849 50.1258 931.277 48.77C932.098 46.1654 933.151 43.5787 934.435 41.0098C935.755 38.441 937.022 36.0862 938.235 33.9454C939.234 34.1595 940.126 34.4985 940.911 34.9623C941.731 35.4261 942.588 36.104 943.48 36.996C943.123 38.102 942.57 39.2794 941.82 40.5282C941.071 41.7413 940.286 43.0257 939.466 44.3815C938.645 45.7373 937.896 47.1288 937.218 48.5559C936.54 49.9831 936.094 51.4281 935.88 52.8909C936.879 51.4638 938.056 49.8225 939.412 47.9672C940.804 46.1119 942.213 44.3637 943.64 42.7224C945.103 41.0812 946.548 39.6897 947.975 38.548C949.402 37.4063 950.687 36.8354 951.828 36.8354C952.257 36.8354 952.72 36.9068 953.22 37.0495C953.719 37.1922 954.183 37.3706 954.611 37.5847C955.04 37.7988 955.396 38.0128 955.682 38.2269C955.967 38.4053 956.128 38.548 956.163 38.655C955.985 39.3686 955.557 40.3498 954.879 41.5985C954.237 42.8116 953.541 44.0961 952.792 45.4519C952.042 46.8077 951.347 48.1278 950.705 49.4122C950.062 50.661 949.688 51.66 949.581 52.4092C951.329 50.0188 952.97 47.8602 954.504 45.9335C956.039 43.9712 957.484 42.2943 958.839 40.9028C960.195 39.5113 961.444 38.441 962.586 37.6917C963.763 36.9425 964.869 36.5678 965.904 36.5678C966.617 36.5678 967.277 36.7641 967.884 37.1565C968.526 37.5133 968.972 38.0485 969.222 38.7621C968.901 39.8324 968.366 41.1169 967.616 42.6154C966.903 44.1139 966.171 45.7016 965.422 47.3785C964.673 49.0198 963.995 50.6431 963.388 52.2487C962.817 53.8542 962.532 55.2992 962.532 56.5837C962.532 57.3329 962.639 57.8324 962.853 58.0822C963.067 58.2963 963.371 58.4033 963.763 58.4033C964.191 58.4033 964.584 58.3319 964.94 58.1892C965.333 58.0108 965.618 57.9216 965.797 57.9216C966.011 58.0643 966.136 58.2427 966.171 58.4568C966.207 58.6709 966.225 58.8671 966.225 59.0455C965.511 59.6164 964.78 60.0802 964.031 60.437C963.281 60.8295 962.443 61.0257 961.515 61.0257C960.659 61.0257 959.945 60.883 959.374 60.5975C958.839 60.3121 958.393 59.9196 958.037 59.4201C957.68 58.9206 957.43 58.3498 957.287 57.7076C957.145 57.0653 957.073 56.3696 957.073 55.6203C957.073 54.4073 957.234 53.212 957.555 52.0346C957.876 50.8215 958.251 49.6798 958.679 48.6094C959.143 47.5034 959.624 46.4866 960.124 45.5589C960.623 44.5956 961.051 43.7393 961.408 42.99Z" fill="#FAFAFA"/>
<path d="M913.166 61.2934C911.133 61.0793 909.509 60.1873 908.296 58.6175C907.083 57.0476 906.477 55.0496 906.477 52.6234C906.477 51.1963 906.691 49.7156 907.119 48.1814C907.547 46.6472 908.154 45.1665 908.939 43.7394C909.723 42.2765 910.651 40.9029 911.721 39.6185C912.792 38.334 913.951 37.228 915.2 36.3003C917.162 34.8375 919 34.1061 920.713 34.1061C921.854 34.7126 922.978 35.9792 924.084 37.9059C924.263 37.9059 924.423 37.9059 924.566 37.9059C924.709 37.8702 924.869 37.8524 925.048 37.8524C926.938 37.8524 927.884 39.5293 927.884 42.8831C927.884 45.1308 927.509 47.2716 926.76 49.3053C926.046 51.3033 925.03 53.1229 923.71 54.7641C922.425 56.4054 920.873 57.7968 919.053 58.9386C917.27 60.0446 915.307 60.8295 913.166 61.2934ZM915.896 44.4351C915.289 45.2557 914.718 46.1477 914.183 47.111C913.648 48.0744 913.184 49.0555 912.792 50.0545C912.399 51.0179 912.096 51.9634 911.882 52.891C911.668 53.783 911.561 54.5857 911.561 55.2993C911.561 56.1556 911.704 56.9762 911.989 57.7612C912.274 58.5461 912.596 58.9921 912.952 59.0991C914.558 58.7423 916.021 58.0823 917.341 57.1189C918.697 56.1199 919.856 54.889 920.82 53.4262C921.819 51.9634 922.586 50.3043 923.121 48.449C923.692 46.5937 923.977 44.6135 923.977 42.5085C923.977 41.5808 923.924 40.8494 923.817 40.3142C923.71 39.779 923.531 39.3152 923.281 38.9227C921.712 39.3865 920.302 40.1358 919.053 41.1705C917.84 42.2052 916.788 43.2934 915.896 44.4351Z" fill="#FAFAFA"/>
<path d="M902.619 56.3697C903.511 57.9038 903.957 59.3845 903.957 60.8117C903.957 61.1328 903.921 61.4182 903.85 61.668C903.814 61.9534 903.761 62.2388 903.69 62.5243C903.083 62.4529 902.441 62.3994 901.763 62.3637C901.121 62.328 900.443 62.3102 899.729 62.3102C898.873 62.3102 897.999 62.328 897.107 62.3637C896.25 62.4351 895.287 62.5243 894.217 62.6313C893.146 62.7383 891.951 62.881 890.631 63.0594C889.311 63.2378 887.777 63.4697 886.028 63.7552C885.208 63.4697 884.387 62.8989 883.567 62.0426C882.746 61.222 881.979 60.223 881.265 59.0456C881.622 58.2606 882.068 57.2973 882.603 56.1556C883.139 54.9782 883.763 53.5689 884.476 51.9276C885.19 50.2507 885.975 48.3062 886.831 46.0941C887.723 43.8464 888.669 41.2597 889.668 38.334C890.31 36.4073 890.863 34.7126 891.327 33.2497C891.791 31.7869 892.201 30.3776 892.558 29.0218C892.95 27.6303 893.325 26.1853 893.682 24.6868C894.038 23.1883 894.431 21.4579 894.859 19.4955C896.286 19.781 897.517 20.3162 898.552 21.1011C899.622 21.8504 900.639 22.9386 901.602 24.3657C901.317 24.8295 900.942 25.5788 900.478 26.6135C900.015 27.6482 899.462 28.9148 898.819 30.4133C898.213 31.8761 897.535 33.553 896.786 35.444C896.036 37.2993 895.251 39.2973 894.431 41.438C893.646 43.5431 892.879 45.5233 892.13 47.3786C891.38 49.2339 890.702 50.9108 890.096 52.4093C889.525 53.9078 889.061 55.1922 888.704 56.2626C888.348 57.333 888.169 58.1358 888.169 58.6709C888.74 58.6353 889.257 58.5996 889.721 58.5639C890.185 58.5282 890.667 58.4747 891.166 58.4033C891.666 58.2963 892.201 58.1893 892.772 58.0822C893.378 57.9395 894.092 57.7611 894.913 57.5471C895.626 57.3687 896.286 57.2259 896.893 57.1189C897.499 56.9762 898.088 56.8692 898.659 56.7978C899.265 56.6908 899.872 56.6194 900.478 56.5837C901.121 56.5124 901.834 56.441 902.619 56.3697Z" fill="#FAFAFA"/>
<path d="M844.29 55.995C844.29 54.4252 844.665 52.2309 845.414 49.4123C846.163 46.558 847.216 43.2398 848.572 39.4579C850.784 33.4281 852.853 28.4153 854.78 24.4192C856.742 20.3875 858.651 17.2478 860.506 15C860.934 15.0714 861.452 15.2498 862.058 15.5352C862.7 15.8206 863.325 16.1417 863.931 16.4985C864.538 16.8196 865.073 17.1586 865.537 17.5154C866.036 17.8721 866.357 18.1576 866.5 18.3717C863.717 21.6541 861.273 25.1863 859.168 28.9683C857.063 32.7502 855.136 37.0852 853.388 41.9732C851.89 46.1833 850.748 49.9831 849.963 53.3726C849.178 56.7264 848.786 59.5272 848.786 61.775C848.786 62.3815 848.786 62.7562 848.786 62.8989C848.786 63.0416 848.803 63.1843 848.839 63.327C848.34 63.2557 847.911 63.1308 847.555 62.9524C847.198 62.774 846.966 62.5599 846.859 62.3102C846.788 62.1318 846.591 61.8642 846.27 61.5074C845.949 61.1863 845.664 60.9365 845.414 60.7581C845.093 60.5441 844.825 59.991 844.611 59.0991C844.397 58.1714 844.29 57.1367 844.29 55.995Z" fill="#FAFAFA"/>
<path d="M837.668 37.7988C838.025 37.7988 838.436 37.8702 838.899 38.0129C839.399 38.1199 839.845 38.2805 840.237 38.4945C840.63 38.6729 840.951 38.8692 841.201 39.0832C841.486 39.2973 841.629 39.4935 841.629 39.6719C840.915 41.1705 840.255 42.6868 839.649 44.221C839.042 45.7195 838.525 47.1645 838.097 48.556C837.668 49.9475 837.329 51.2497 837.08 52.4628C836.866 53.6759 836.759 54.7284 836.759 55.6204C836.759 56.6194 836.866 57.4579 837.08 58.1358C837.294 58.778 837.651 59.2418 838.15 59.5272C837.722 59.8127 837.169 60.0446 836.491 60.223C835.813 60.4014 835.207 60.4906 834.671 60.4906C832.745 60.4906 831.781 59.1704 831.781 56.5302C831.781 54.4965 832.459 51.7136 833.815 48.1813C833.102 49.8226 832.281 51.3746 831.353 52.8374C830.426 54.2646 829.48 55.5312 828.517 56.6372C827.553 57.7433 826.572 58.6531 825.573 59.3667C824.61 60.0446 823.718 60.4549 822.897 60.5976C821.577 60.5262 820.507 59.9019 819.686 58.7245C818.866 57.5114 818.455 55.9772 818.455 54.1219C818.455 52.1239 818.883 50.0188 819.74 47.8067C820.596 45.5946 821.684 43.5431 823.004 41.6521C824.36 39.7611 825.823 38.1913 827.393 36.9425C828.963 35.6581 830.479 34.9802 831.942 34.9088C832.299 35.0159 832.691 35.2299 833.119 35.551C833.583 35.8721 834.011 36.2468 834.404 36.6749C834.832 37.1031 835.189 37.549 835.474 38.0129C835.76 38.441 835.92 38.8156 835.956 39.1368C834.529 39.3508 833.048 40.0466 831.514 41.224C830.015 42.4014 828.642 43.8285 827.393 45.5054C826.18 47.1467 825.181 48.9128 824.396 50.8037C823.611 52.6947 823.218 54.4608 823.218 56.1021C823.218 56.78 823.468 57.2081 823.968 57.3865C825.002 57.1724 826.198 56.2983 827.553 54.7641C828.909 53.1942 830.55 50.7859 832.477 47.5391C832.834 46.8969 833.226 46.1833 833.655 45.3984C834.118 44.6135 834.582 43.7929 835.046 42.9366C835.51 42.0803 835.956 41.224 836.384 40.3677C836.848 39.4757 837.276 38.6194 837.668 37.7988Z" fill="#FAFAFA"/>
<path d="M796.335 58.3498C796.514 57.3151 796.817 55.9593 797.245 54.2824C797.709 52.5698 798.244 50.768 798.851 48.8771C799.457 46.9504 800.099 45.0237 800.777 43.0971C801.455 41.1704 802.115 39.44 802.757 37.9058C803.221 36.7998 803.631 35.9435 803.988 35.3369C804.345 34.6947 804.738 34.1595 805.166 33.7314C805.665 33.8027 806.183 33.9276 806.718 34.106C807.253 34.2844 807.77 34.4985 808.27 34.7482C808.769 34.998 809.215 35.2656 809.608 35.551C810 35.8008 810.303 36.0505 810.517 36.3003C809.554 37.442 808.698 38.7443 807.949 40.2071C807.235 41.6699 806.504 43.5431 805.754 45.8265C807.681 44.1139 809.376 42.4727 810.839 40.9028C812.337 39.333 813.729 37.5847 815.013 35.658C815.227 35.4796 815.602 35.3905 816.137 35.3905C816.636 35.3905 817.118 35.4796 817.582 35.658C818.046 35.8008 818.367 36.0148 818.545 36.3003C817.903 38.0128 817.582 39.7076 817.582 41.3845C817.582 42.9544 817.814 44.1318 818.278 44.9167C818.242 45.1308 817.992 45.5411 817.528 46.1476C817.1 46.7542 816.619 47.325 816.083 47.8602C815.12 47.3607 814.264 46.6828 813.515 45.8265C812.765 44.9345 812.212 43.9712 811.855 42.9365C810.179 44.1139 808.751 45.2735 807.574 46.4152C806.397 47.5213 805.38 48.77 804.523 50.1615C803.703 51.5173 802.989 53.0872 802.383 54.8711C801.812 56.6551 801.259 58.7779 800.724 61.2398C800.403 61.2041 800.01 61.0792 799.546 60.8652C799.118 60.6868 798.672 60.4549 798.208 60.1694C797.78 59.884 797.388 59.5807 797.031 59.2596C796.674 58.9385 796.442 58.6352 796.335 58.3498Z" fill="#FAFAFA"/>
<path d="M762.715 75.3686C762.715 75.1545 762.787 74.9583 762.929 74.7799C763.072 74.6015 763.233 74.4231 763.411 74.2447C763.839 74.6372 764.214 74.9405 764.535 75.1545C764.82 75.3686 765.106 75.547 765.391 75.6897C765.641 75.8324 765.908 75.9216 766.194 75.9573C766.479 75.993 766.818 76.0108 767.211 76.0108C769.066 76.0108 770.832 75.5113 772.509 74.5123C774.186 73.549 775.756 72.1397 777.219 70.2844C778.717 68.4291 780.073 66.1635 781.286 63.4876C782.499 60.8116 783.57 57.7789 784.497 54.3894C784.069 54.8176 783.534 55.2993 782.892 55.8344C782.285 56.3339 781.643 56.8156 780.965 57.2794C780.287 57.7433 779.609 58.1714 778.931 58.5639C778.289 58.9563 777.736 59.2418 777.272 59.4202C776.666 59.3131 776.095 59.0634 775.56 58.6709C775.06 58.2428 774.614 57.7254 774.222 57.1189C773.829 56.5123 773.526 55.8344 773.312 55.0852C773.098 54.3002 772.991 53.4796 772.991 52.6233C772.991 51.2319 773.24 49.8047 773.74 48.3419C774.275 46.879 774.971 45.4519 775.827 44.0604C776.683 42.6333 777.682 41.2953 778.824 40.0465C780.002 38.7978 781.233 37.7096 782.517 36.7819C783.837 35.8543 785.157 35.1229 786.477 34.5877C787.833 34.0168 789.153 33.7314 790.438 33.7314C791.686 33.7314 792.614 33.999 793.221 34.5342C793.863 35.0337 794.327 35.9078 794.612 37.1566C794.22 36.9425 793.72 36.8354 793.114 36.8354C792.257 36.8354 791.258 37.1744 790.117 37.8523C789.011 38.5302 787.869 39.4222 786.691 40.5282C785.55 41.5986 784.408 42.8473 783.266 44.2745C782.125 45.666 781.108 47.0931 780.216 48.556C779.359 50.0188 778.646 51.4459 778.075 52.8374C777.54 54.2289 777.272 55.4777 777.272 56.5837C777.272 56.8335 777.29 56.994 777.326 57.0654C777.361 57.101 777.415 57.1189 777.486 57.1189C777.807 57.1189 778.236 56.9405 778.771 56.5837C779.342 56.2269 779.966 55.7809 780.644 55.2457C781.357 54.6749 782.089 54.0327 782.838 53.3191C783.587 52.5698 784.301 51.8206 784.979 51.0713C786.513 49.3587 787.904 47.4499 789.153 45.3449C790.438 43.2041 791.455 41.1347 792.204 39.1367C793.167 39.2081 794.023 39.3686 794.773 39.6184C795.522 39.8681 796.039 40.1357 796.325 40.4212C795.112 43.2041 794.13 45.5411 793.381 47.4321C792.668 49.323 792.043 51 791.508 52.4628C790.545 55.0317 789.635 57.3686 788.779 59.4737C787.958 61.6144 787.102 63.5768 786.21 65.3607C785.353 67.1803 784.408 68.8572 783.373 70.3914C782.374 71.9613 781.233 73.4598 779.948 74.887C779.342 75.5649 778.646 76.1536 777.861 76.6531C777.112 77.1882 776.327 77.6342 775.506 77.991C774.721 78.3478 773.936 78.6154 773.151 78.7938C772.402 78.9722 771.706 79.0614 771.064 79.0614C770.208 79.0614 769.334 78.9543 768.442 78.7403C767.55 78.5619 766.729 78.2943 765.98 77.9375C765.195 77.6164 764.517 77.2239 763.946 76.7601C763.375 76.332 762.965 75.8681 762.715 75.3686Z" fill="#FAFAFA"/>
<path d="M771.048 37.2636C770.905 39.4757 770.513 41.3845 769.871 42.9901C769.229 44.5599 768.301 45.9514 767.088 47.1645C765.91 48.3419 764.465 49.4123 762.753 50.3756C761.04 51.3389 759.042 52.2666 756.759 53.1586C756.759 53.3726 756.741 53.6045 756.705 53.8543C756.705 54.0684 756.705 54.3003 756.705 54.55C756.705 55.0139 756.741 55.4955 756.812 55.995C756.884 56.4945 757.009 56.9583 757.187 57.3865C757.365 57.8146 757.615 58.1714 757.936 58.4569C758.257 58.7066 758.668 58.8315 759.167 58.8315C760.13 58.8315 761.076 58.6174 762.004 58.1893C762.931 57.7611 763.805 57.2438 764.626 56.6372C765.482 55.995 766.267 55.3171 766.981 54.6035C767.73 53.8543 768.39 53.1764 768.961 52.5698C769.318 52.891 769.621 53.1942 769.871 53.4797C768.265 55.6204 766.499 57.4043 764.572 58.8315C762.681 60.223 760.88 61.1149 759.167 61.5074C756.705 61.222 754.779 60.33 753.387 58.8315C752.031 57.2973 751.353 55.4598 751.353 53.3191C751.353 51.8563 751.55 50.3756 751.942 48.8771C752.37 47.3429 752.941 45.8801 753.655 44.4886C754.404 43.0614 755.26 41.7235 756.224 40.4747C757.223 39.226 758.275 38.1377 759.381 37.2101C760.523 36.2824 761.682 35.551 762.86 35.0158C764.073 34.4807 765.268 34.2131 766.446 34.2131C768.087 34.4271 769.621 35.444 771.048 37.2636ZM767.355 39.0297C766.392 39.1724 765.393 39.5649 764.358 40.2071C763.324 40.8493 762.343 41.7056 761.415 42.776C760.523 43.8464 759.702 45.0951 758.953 46.5223C758.204 47.9494 757.615 49.4836 757.187 51.1249C760.041 49.6977 762.414 47.9494 764.305 45.8801C766.196 43.775 767.213 41.4916 767.355 39.0297Z" fill="#FAFAFA"/>
<path d="M736.231 38.9227C736.053 38.7086 735.892 38.2626 735.75 37.5847C735.607 36.8711 735.535 36.2646 735.535 35.7651C736.463 35.8365 737.355 35.9078 738.211 35.9792C739.068 36.0148 739.853 36.0505 740.566 36.0862C741.101 35.0158 741.672 33.9633 742.279 32.9286C742.921 31.8583 743.527 30.8949 744.098 30.0386C744.705 29.1467 745.258 28.3974 745.757 27.7909C746.293 27.1843 746.703 26.7919 746.988 26.6135C747.345 26.6135 747.791 26.6848 748.326 26.8275C748.897 26.9346 749.468 27.0951 750.039 27.3092C750.61 27.4876 751.127 27.6838 751.591 27.8979C752.055 28.112 752.376 28.3261 752.554 28.5401C751.484 29.8959 750.556 31.1625 749.771 32.3399C749.022 33.4816 748.201 34.8018 747.309 36.3003C748.023 36.3003 748.737 36.2824 749.45 36.2468C750.199 36.2111 750.949 36.1576 751.698 36.0862C751.876 36.2646 752.019 36.4965 752.126 36.7819C752.233 37.0317 752.287 37.2993 752.287 37.5847C750.538 38.2269 748.415 38.5837 745.918 38.6551C745.026 40.3677 744.223 42.0803 743.51 43.7928C742.832 45.4697 742.243 47.0931 741.744 48.663C741.28 50.2329 740.905 51.7135 740.62 53.105C740.37 54.4965 740.245 55.7453 740.245 56.8513C740.245 58.4212 740.834 59.2953 742.011 59.4737C743.082 59.331 744.098 59.0634 745.062 58.6709C746.025 58.2785 746.881 57.779 747.631 57.1724C747.845 57.4935 747.97 57.7611 748.005 57.9752C747.791 58.2963 747.416 58.6709 746.881 59.0991C746.382 59.5272 745.829 59.9375 745.222 60.33C744.616 60.7581 744.027 61.1149 743.456 61.4004C742.885 61.6858 742.457 61.8463 742.172 61.882C741.28 61.8463 740.388 61.6501 739.496 61.2933C738.604 60.9365 737.783 60.4905 737.034 59.9554C736.32 59.4202 735.732 58.8315 735.268 58.1893C734.804 57.5114 734.572 56.8513 734.572 56.2091C734.572 55.3528 734.679 54.2824 734.893 52.998C735.143 51.6779 735.482 50.2507 735.91 48.7165C736.338 47.1823 736.838 45.5768 737.409 43.8999C737.979 42.223 738.604 40.5639 739.282 38.9227H736.231Z" fill="#FAFAFA"/>
<path d="M712.842 33.4638C713.769 33.7492 714.643 34.3915 715.464 35.3905C716.285 36.3538 716.891 37.4242 717.284 38.6016C716.891 39.5649 716.285 40.7245 715.464 42.0803C714.643 43.436 713.823 44.8275 713.002 46.2547C712.182 47.6462 711.432 48.9841 710.754 50.2686C710.112 51.5173 709.738 52.552 709.63 53.3726C710.201 52.7661 710.826 52.0703 711.504 51.2854C712.217 50.4648 712.895 49.662 713.537 48.8771C714.215 48.0565 714.84 47.325 715.41 46.6828C715.981 46.0049 716.427 45.5054 716.748 45.1843C717.426 44.4707 718.229 43.6501 719.157 42.7225C720.084 41.7591 721.048 40.8672 722.047 40.0466C723.081 39.1903 724.116 38.4767 725.151 37.9058C726.185 37.2993 727.131 36.996 727.987 36.996C728.915 36.996 729.682 37.3171 730.289 37.9593C730.931 38.5659 731.43 39.2081 731.787 39.886C731.787 39.9574 731.644 40.0644 731.359 40.2071C731.109 40.3141 730.735 40.6531 730.235 41.224C729.736 41.8662 729.165 42.7581 728.522 43.8999C727.916 45.0059 727.309 46.219 726.703 47.5391C726.132 48.8236 725.65 50.1437 725.258 51.4995C724.865 52.8553 724.669 54.0862 724.669 55.1922C724.669 56.0842 724.776 56.6551 724.99 56.9048C725.24 57.1546 725.579 57.2794 726.007 57.2794C726.4 57.2794 726.81 57.1903 727.238 57.0119C727.666 56.8335 728.005 56.7443 728.255 56.7443C728.398 56.8156 728.505 56.9762 728.576 57.2259C728.683 57.44 728.737 57.6362 728.737 57.8146C728.451 58.0644 728.112 58.3141 727.72 58.5639C727.327 58.8136 726.917 59.0456 726.489 59.2596C726.061 59.4737 725.632 59.6521 725.204 59.7948C724.812 59.9375 724.455 60.0089 724.134 60.0089C723.099 60.0089 722.243 59.8483 721.565 59.5272C720.923 59.2418 720.406 58.8493 720.013 58.3498C719.656 57.8503 719.407 57.2616 719.264 56.5837C719.121 55.8701 719.05 55.1209 719.05 54.3359C719.05 53.9078 719.085 53.4261 719.157 52.8909C719.228 52.3558 719.371 51.7314 719.585 51.0178C719.799 50.2686 720.102 49.3944 720.495 48.3954C720.887 47.3607 721.387 46.1298 721.993 44.7026C721.922 44.7026 721.44 44.9524 720.548 45.4519C719.656 45.9514 718.693 46.7185 717.658 47.7532C715.981 49.3587 714.465 50.9464 713.109 52.5163C711.789 54.0862 710.433 55.8345 709.042 57.7611C708.257 58.8672 707.561 59.7948 706.955 60.5441C706.384 61.329 705.884 61.8463 705.456 62.0961C704.707 61.668 704.154 61.0614 703.797 60.2765C703.44 59.5272 703.173 58.7423 702.994 57.9217C702.994 57.2438 703.083 56.3875 703.262 55.3528C703.476 54.3181 703.743 53.1764 704.065 51.9276C704.421 50.6432 704.85 49.3052 705.349 47.9137C705.849 46.5223 706.402 45.1308 707.008 43.7393C708.364 40.5996 709.595 38.1377 710.701 36.3538C711.843 34.5698 712.556 33.6065 712.842 33.4638Z" fill="#FAFAFA"/>
<path d="M689.998 56.3697C689.998 55.0852 690.195 53.4261 690.587 51.3925C691.015 49.3231 691.551 47.111 692.193 44.7562C692.871 42.3657 693.638 39.9395 694.494 37.4777C695.35 34.9802 696.224 32.6432 697.116 30.4668C698.008 28.2904 698.883 26.3816 699.739 24.7403C700.595 23.0991 701.362 21.9217 702.04 21.2081C702.397 21.2438 702.861 21.3865 703.432 21.6363C704.038 21.8504 704.645 22.1179 705.251 22.4391C705.858 22.7602 706.411 23.117 706.91 23.5094C707.41 23.8662 707.731 24.2052 707.874 24.5263C706.839 25.4539 705.804 26.8632 704.77 28.7542C703.771 30.6095 702.789 32.7324 701.826 35.1229C700.898 37.5134 700.024 40.0466 699.204 42.7225C698.383 45.3627 697.669 47.9316 697.063 50.4291C696.456 52.9266 695.975 55.2458 695.618 57.3865C695.297 59.5272 695.136 61.2577 695.136 62.5778C695.136 63.1843 695.19 63.5589 695.297 63.7017C694.512 63.666 693.941 63.5233 693.584 63.2735C693.227 63.0594 692.942 62.8097 692.728 62.5243C692.55 62.2745 692.371 62.0069 692.193 61.7215C692.05 61.4717 691.818 61.2755 691.497 61.1328C691.247 61.0257 691.033 60.776 690.855 60.3835C690.676 59.9911 690.516 59.5629 690.373 59.0991C690.266 58.5996 690.177 58.1001 690.106 57.6006C690.034 57.1011 689.998 56.6908 689.998 56.3697Z" fill="#FAFAFA"/>
<path d="M668.751 37.7988C669.108 37.7988 669.518 37.8702 669.982 38.0129C670.482 38.1199 670.928 38.2805 671.32 38.4945C671.713 38.6729 672.034 38.8692 672.284 39.0832C672.569 39.2973 672.712 39.4935 672.712 39.6719C671.998 41.1705 671.338 42.6868 670.732 44.221C670.125 45.7195 669.608 47.1645 669.179 48.556C668.751 49.9475 668.412 51.2497 668.163 52.4628C667.949 53.6759 667.842 54.7284 667.842 55.6204C667.842 56.6194 667.949 57.4579 668.163 58.1358C668.377 58.778 668.733 59.2418 669.233 59.5272C668.805 59.8127 668.252 60.0446 667.574 60.223C666.896 60.4014 666.289 60.4906 665.754 60.4906C663.828 60.4906 662.864 59.1704 662.864 56.5302C662.864 54.4965 663.542 51.7136 664.898 48.1813C664.184 49.8226 663.364 51.3746 662.436 52.8374C661.509 54.2646 660.563 55.5312 659.6 56.6372C658.636 57.7433 657.655 58.6531 656.656 59.3667C655.693 60.0446 654.801 60.4549 653.98 60.5976C652.66 60.5262 651.59 59.9019 650.769 58.7245C649.949 57.5114 649.538 55.9772 649.538 54.1219C649.538 52.1239 649.966 50.0188 650.823 47.8067C651.679 45.5946 652.767 43.5431 654.087 41.6521C655.443 39.7611 656.906 38.1913 658.476 36.9425C660.046 35.6581 661.562 34.9802 663.025 34.9088C663.382 35.0159 663.774 35.2299 664.202 35.551C664.666 35.8721 665.094 36.2468 665.487 36.6749C665.915 37.1031 666.272 37.549 666.557 38.0129C666.843 38.441 667.003 38.8156 667.039 39.1368C665.612 39.3508 664.131 40.0466 662.597 41.224C661.098 42.4014 659.725 43.8285 658.476 45.5054C657.263 47.1467 656.264 48.9128 655.479 50.8037C654.694 52.6947 654.301 54.4608 654.301 56.1021C654.301 56.78 654.551 57.2081 655.051 57.3865C656.085 57.1724 657.281 56.2983 658.636 54.7641C659.992 53.1942 661.633 50.7859 663.56 47.5391C663.917 46.8969 664.309 46.1833 664.737 45.3984C665.201 44.6135 665.665 43.7929 666.129 42.9366C666.593 42.0803 667.039 41.224 667.467 40.3677C667.931 39.4757 668.359 38.6194 668.751 37.7988Z" fill="#FAFAFA"/>
<path d="M623.379 58.671C623.379 58.1001 623.878 57.1903 624.877 55.9415C625.876 54.6571 627.196 53.2121 628.838 51.6065C630.514 49.9653 632.423 48.2527 634.564 46.4688C636.74 44.6492 638.988 42.9009 641.307 41.224C639.809 40.9029 638.614 40.671 637.722 40.5283C636.865 40.3855 636.17 40.3142 635.634 40.3142C634.6 40.3142 633.672 40.4569 632.851 40.7423C632.031 41.0278 631.228 41.4916 630.443 42.1338C628.802 40.7066 627.981 39.0654 627.981 37.2101C627.981 36.6393 627.999 36.3003 628.035 36.1933C628.641 35.5867 629.355 35.1229 630.175 34.8018C631.032 34.4807 631.924 34.3201 632.851 34.3201C633.85 34.3201 634.867 34.4807 635.902 34.8018C636.937 35.1229 637.953 35.4797 638.952 35.8722C639.951 36.2289 640.879 36.5679 641.735 36.889C642.627 37.2101 643.412 37.3707 644.09 37.3707C644.483 37.3707 644.911 37.3172 645.375 37.2101C645.874 37.1031 646.284 36.9604 646.606 36.782C646.927 37.0317 647.212 37.5312 647.462 38.2805C647.747 39.0297 647.89 39.7612 647.89 40.4747C646.784 40.9029 645.446 41.6521 643.876 42.7225C642.342 43.7929 640.772 45.0238 639.167 46.4153C637.561 47.8067 635.991 49.2874 634.457 50.8573C632.958 52.4272 631.71 53.9078 630.711 55.2993C631.46 55.6204 632.477 55.781 633.761 55.781C634.582 55.781 635.42 55.7096 636.277 55.5669C637.133 55.4242 637.953 55.2279 638.738 54.9782C639.559 54.7284 640.308 54.443 640.986 54.1219C641.664 53.7651 642.235 53.3905 642.699 52.998C644.376 54.0684 645.214 55.6383 645.214 57.7076C645.214 57.9931 645.196 58.225 645.161 58.4034C645.161 58.5818 645.143 58.7958 645.107 59.0456C643.466 60.0803 641.682 60.5976 639.755 60.5976C638.792 60.5976 637.829 60.4906 636.865 60.2765C635.902 60.0981 634.956 59.9019 634.029 59.6878C633.137 59.4737 632.281 59.2775 631.46 59.0991C630.675 58.885 629.944 58.778 629.266 58.778C627.553 58.778 626.162 59.5808 625.091 61.1863C624.627 61.0079 624.235 60.6868 623.914 60.223C623.628 59.7592 623.45 59.2418 623.379 58.671Z" fill="#FAFAFA"/>
<path d="M622.828 37.2636C622.685 39.4757 622.292 41.3845 621.65 42.9901C621.008 44.5599 620.08 45.9514 618.867 47.1645C617.69 48.3419 616.245 49.4123 614.532 50.3756C612.82 51.3389 610.822 52.2666 608.538 53.1586C608.538 53.3726 608.52 53.6045 608.485 53.8543C608.485 54.0684 608.485 54.3003 608.485 54.55C608.485 55.0139 608.52 55.4955 608.592 55.995C608.663 56.4945 608.788 56.9583 608.966 57.3865C609.145 57.8146 609.394 58.1714 609.716 58.4569C610.037 58.7066 610.447 58.8315 610.947 58.8315C611.91 58.8315 612.855 58.6174 613.783 58.1893C614.711 57.7611 615.585 57.2438 616.405 56.6372C617.262 55.995 618.047 55.3171 618.76 54.6035C619.509 53.8543 620.17 53.1764 620.74 52.5698C621.097 52.891 621.4 53.1942 621.65 53.4797C620.045 55.6204 618.279 57.4043 616.352 58.8315C614.461 60.223 612.659 61.1149 610.947 61.5074C608.485 61.222 606.558 60.33 605.167 58.8315C603.811 57.2973 603.133 55.4598 603.133 53.3191C603.133 51.8563 603.329 50.3756 603.722 48.8771C604.15 47.3429 604.721 45.8801 605.434 44.4886C606.183 43.0614 607.04 41.7235 608.003 40.4747C609.002 39.226 610.055 38.1377 611.161 37.2101C612.302 36.2824 613.462 35.551 614.639 35.0158C615.852 34.4807 617.048 34.2131 618.225 34.2131C619.866 34.4271 621.4 35.444 622.828 37.2636ZM619.135 39.0297C618.171 39.1724 617.172 39.5649 616.138 40.2071C615.103 40.8493 614.122 41.7056 613.194 42.776C612.302 43.8464 611.482 45.0951 610.732 46.5223C609.983 47.9494 609.394 49.4836 608.966 51.1249C611.821 49.6977 614.193 47.9494 616.084 45.8801C617.975 43.775 618.992 41.4916 619.135 39.0297Z" fill="#FAFAFA"/>
<path d="M591.074 55.8345C591.074 55.5133 591.092 55.1209 591.127 54.6571C591.199 54.1576 591.306 53.5153 591.448 52.7304C591.591 51.9098 591.769 50.9286 591.983 49.7869C592.233 48.6452 592.537 47.2715 592.893 45.666C592.965 45.3092 593.125 44.7383 593.375 43.9534C593.625 43.1685 593.946 42.3478 594.338 41.4916C594.766 40.5996 595.266 39.7433 595.837 38.9227C596.443 38.1021 597.157 37.4955 597.978 37.1031C598.584 37.2458 599.387 37.6204 600.386 38.2269C601.385 38.7978 602.241 39.6006 602.955 40.6353C602.134 41.5629 601.438 42.4906 600.868 43.4182C600.332 44.3459 599.833 45.3092 599.369 46.3082C598.941 47.3072 598.531 48.3419 598.138 49.4123C597.781 50.4826 597.371 51.6065 596.907 52.7839C596.515 53.7829 596.158 54.8176 595.837 55.888C595.516 56.9227 595.337 57.8325 595.302 58.6174C595.302 59.2596 595.284 59.7056 595.248 59.9554C595.248 60.2408 595.159 60.3835 594.981 60.3835C594.838 60.3835 594.552 60.2943 594.124 60.1159C593.696 59.9375 593.25 59.6699 592.786 59.3131C592.358 58.9207 591.966 58.439 591.609 57.8682C591.252 57.2973 591.074 56.6194 591.074 55.8345ZM601.296 32.6075C601.296 32.3934 601.349 32.0723 601.456 31.6442C601.278 31.4658 601.117 31.1982 600.975 30.8414C600.868 30.4846 600.814 30.1635 600.814 29.8781C600.814 29.557 600.85 29.1288 600.921 28.5936C601.028 28.0228 601.153 27.4162 601.296 26.774C601.438 26.1318 601.617 25.4717 601.831 24.7938C602.045 24.0803 602.259 23.438 602.473 22.8672C602.901 22.8672 603.419 22.9921 604.025 23.2418C604.667 23.4559 605.31 23.7592 605.952 24.1516C606.594 24.5084 607.183 24.9187 607.718 25.3825C608.253 25.8107 608.663 26.221 608.949 26.6135C608.556 27.0059 608.039 27.559 607.397 28.2725C606.755 28.9504 606.13 29.6818 605.524 30.4668C604.917 31.216 604.364 31.9296 603.865 32.6075C603.365 33.2854 603.044 33.7671 602.901 34.0525C602.473 33.9812 602.098 33.8028 601.777 33.5173C601.456 33.1962 601.296 32.8929 601.296 32.6075Z" fill="#FAFAFA"/>
<path d="M560.459 77.1347C559.959 76.992 559.674 76.4568 559.602 75.5292C559.46 75.0654 559.353 74.5123 559.281 73.8701C559.246 73.2279 559.228 72.4965 559.228 71.6759C559.228 70.9266 559.353 69.8919 559.602 68.5718C559.852 67.2874 560.191 65.8245 560.619 64.1833C561.083 62.5421 561.636 60.776 562.278 58.885C562.921 56.9583 563.634 55.0138 564.419 53.0515C565.382 50.5897 566.221 48.4668 566.934 46.6828C567.648 44.8632 568.237 43.2933 568.701 41.9732C569.2 40.6531 569.592 39.5649 569.878 38.7086C570.199 37.8523 570.449 37.1209 570.627 36.5144C570.77 36.0862 570.984 35.5689 571.269 34.9623C571.555 34.3558 571.876 33.7492 572.233 33.1427C572.625 32.5005 573.018 31.9118 573.41 31.3766C573.803 30.8057 574.159 30.3776 574.48 30.0922C575.729 30.2706 576.907 30.5917 578.013 31.0555C579.119 31.5193 579.797 31.9653 580.046 32.3935C579.547 32.8573 578.976 33.5887 578.334 34.5877C577.692 35.551 577.067 36.6214 576.461 37.7988C575.854 38.9405 575.301 40.1179 574.802 41.331C574.302 42.5441 573.927 43.6145 573.678 44.5421C574.035 43.9356 574.498 43.2755 575.069 42.5619C575.64 41.8483 576.514 40.8672 577.692 39.6184C579.012 38.2626 580.243 37.2279 581.384 36.5144C582.562 35.7651 583.579 35.3905 584.435 35.3905C585.791 35.3905 586.897 35.7651 587.753 36.5144C588.645 37.2636 589.091 38.2269 589.091 39.4043C589.091 41.9732 588.663 44.5243 587.807 47.0575C586.95 49.555 585.719 51.8206 584.114 53.8543C583.507 54.6392 582.794 55.3885 581.973 56.1021C581.152 56.8156 580.296 57.4579 579.404 58.0287C578.512 58.5639 577.638 58.992 576.782 59.3132C575.925 59.6343 575.158 59.7948 574.48 59.7948C573.838 59.7948 573.267 59.6699 572.768 59.4202C572.304 59.1348 571.983 58.7958 571.805 58.4033C573.196 57.5827 574.552 56.441 575.872 54.9782C577.192 53.5153 578.405 51.8384 579.511 49.9475C580.653 48.0208 581.634 45.9514 582.455 43.7393C583.311 41.5272 583.953 39.2795 584.381 36.996C583.026 37.7096 581.795 38.4945 580.689 39.3508C579.618 40.1714 578.548 41.2596 577.478 42.6154C576.193 44.1853 575.176 45.4519 574.427 46.4152C573.678 47.3786 573.053 48.1992 572.554 48.8771C572.09 49.555 571.698 50.1972 571.376 50.8037C571.091 51.3746 570.77 52.0882 570.413 52.9445C569.914 54.0862 569.325 55.6026 568.647 57.4935C568.005 59.3488 567.327 61.436 566.613 63.7552C565.935 66.0743 565.24 68.5361 564.526 71.1407C563.848 73.7809 563.188 76.4033 562.546 79.0079C562.153 78.9365 561.815 78.6511 561.529 78.1516C561.244 77.8305 561.03 77.5986 560.887 77.4559C560.78 77.3131 560.637 77.2061 560.459 77.1347Z" fill="#FAFAFA"/>
<path d="M554.376 42.99C553.806 43.0257 553.11 43.4003 552.289 44.1139C551.469 44.7918 550.577 45.6838 549.613 46.7898C548.686 47.8602 547.704 49.0554 546.67 50.3756C545.671 51.6957 544.69 53.0158 543.726 54.3359C542.799 55.6203 541.925 56.8334 541.104 57.9751C540.283 59.1169 539.588 60.0267 539.017 60.7046C538.232 60.3835 537.554 59.9196 536.983 59.3131C536.412 58.6709 536.002 57.886 535.752 56.9583C535.93 55.8523 536.18 54.7105 536.501 53.5331C536.822 52.3201 537.233 51.0713 537.732 49.7869C538.267 48.5024 538.91 47.1645 539.659 45.773C540.444 44.3458 541.389 42.8473 542.495 41.2774C541.96 41.3131 541.229 41.7056 540.301 42.4548C539.373 43.1684 538.374 44.1139 537.304 45.2913C536.234 46.433 535.128 47.7353 533.986 49.1981C532.844 50.6253 531.774 52.0346 530.775 53.4261C529.455 55.2814 528.349 56.9048 527.457 58.2963C526.6 59.6877 525.976 60.5083 525.584 60.7581C524.656 60.0802 524.014 59.3488 523.657 58.5638C523.3 57.7789 523.033 56.9048 522.854 55.9415C522.89 55.0852 523.015 54.0148 523.229 52.7304C523.479 51.4459 523.817 50.1258 524.246 48.77C525.066 46.1654 526.119 43.5787 527.403 41.0098C528.723 38.441 529.99 36.0862 531.203 33.9454C532.202 34.1595 533.094 34.4985 533.879 34.9623C534.7 35.4261 535.556 36.104 536.448 36.996C536.091 38.102 535.538 39.2794 534.789 40.5282C534.039 41.7413 533.255 43.0257 532.434 44.3815C531.613 45.7373 530.864 47.1288 530.186 48.5559C529.508 49.9831 529.062 51.4281 528.848 52.8909C529.847 51.4638 531.025 49.8225 532.38 47.9672C533.772 46.1119 535.181 44.3637 536.608 42.7224C538.071 41.0812 539.516 39.6897 540.943 38.548C542.37 37.4063 543.655 36.8354 544.797 36.8354C545.225 36.8354 545.689 36.9068 546.188 37.0495C546.688 37.1922 547.151 37.3706 547.58 37.5847C548.008 37.7988 548.365 38.0128 548.65 38.2269C548.935 38.4053 549.096 38.548 549.132 38.655C548.953 39.3686 548.525 40.3498 547.847 41.5985C547.205 42.8116 546.509 44.0961 545.76 45.4519C545.011 46.8077 544.315 48.1278 543.673 49.4122C543.031 50.661 542.656 51.66 542.549 52.4092C544.297 50.0188 545.938 47.8602 547.473 45.9335C549.007 43.9712 550.452 42.2943 551.808 40.9028C553.163 39.5113 554.412 38.441 555.554 37.6917C556.731 36.9425 557.837 36.5678 558.872 36.5678C559.586 36.5678 560.246 36.7641 560.852 37.1565C561.494 37.5133 561.94 38.0485 562.19 38.7621C561.869 39.8324 561.334 41.1169 560.585 42.6154C559.871 44.1139 559.14 45.7016 558.39 47.3785C557.641 49.0198 556.963 50.6431 556.357 52.2487C555.786 53.8542 555.5 55.2992 555.5 56.5837C555.5 57.3329 555.607 57.8324 555.821 58.0822C556.035 58.2963 556.339 58.4033 556.731 58.4033C557.159 58.4033 557.552 58.3319 557.909 58.1892C558.301 58.0108 558.587 57.9216 558.765 57.9216C558.979 58.0643 559.104 58.2427 559.14 58.4568C559.175 58.6709 559.193 58.8671 559.193 59.0455C558.48 59.6164 557.748 60.0802 556.999 60.437C556.25 60.8295 555.411 61.0257 554.483 61.0257C553.627 61.0257 552.914 60.883 552.343 60.5975C551.808 60.3121 551.362 59.9196 551.005 59.4201C550.648 58.9206 550.398 58.3498 550.256 57.7076C550.113 57.0653 550.041 56.3696 550.041 55.6203C550.041 54.4073 550.202 53.212 550.523 52.0346C550.844 50.8215 551.219 49.6798 551.647 48.6094C552.111 47.5034 552.592 46.4866 553.092 45.5589C553.592 44.5956 554.02 43.7393 554.376 42.99Z" fill="#FAFAFA"/>
<path d="M510.848 55.8345C510.848 55.5133 510.866 55.1209 510.902 54.6571C510.973 54.1576 511.08 53.5153 511.223 52.7304C511.366 51.9098 511.544 50.9286 511.758 49.7869C512.008 48.6452 512.311 47.2715 512.668 45.666C512.739 45.3092 512.9 44.7383 513.15 43.9534C513.4 43.1685 513.721 42.3478 514.113 41.4916C514.541 40.5996 515.041 39.7433 515.612 38.9227C516.218 38.1021 516.932 37.4955 517.752 37.1031C518.359 37.2458 519.162 37.6204 520.161 38.2269C521.16 38.7978 522.016 39.6006 522.73 40.6353C521.909 41.5629 521.213 42.4906 520.642 43.4182C520.107 44.3459 519.608 45.3092 519.144 46.3082C518.716 47.3072 518.305 48.3419 517.913 49.4123C517.556 50.4826 517.146 51.6065 516.682 52.7839C516.29 53.7829 515.933 54.8176 515.612 55.888C515.291 56.9227 515.112 57.8325 515.076 58.6174C515.076 59.2596 515.059 59.7056 515.023 59.9554C515.023 60.2408 514.934 60.3835 514.755 60.3835C514.613 60.3835 514.327 60.2943 513.899 60.1159C513.471 59.9375 513.025 59.6699 512.561 59.3131C512.133 58.9207 511.74 58.439 511.384 57.8682C511.027 57.2973 510.848 56.6194 510.848 55.8345ZM521.07 32.6075C521.07 32.3934 521.124 32.0723 521.231 31.6442C521.053 31.4658 520.892 31.1982 520.749 30.8414C520.642 30.4846 520.589 30.1635 520.589 29.8781C520.589 29.557 520.624 29.1288 520.696 28.5936C520.803 28.0228 520.928 27.4162 521.07 26.774C521.213 26.1318 521.392 25.4717 521.606 24.7938C521.82 24.0803 522.034 23.438 522.248 22.8672C522.676 22.8672 523.193 22.9921 523.8 23.2418C524.442 23.4559 525.084 23.7592 525.727 24.1516C526.369 24.5084 526.957 24.9187 527.493 25.3825C528.028 25.8107 528.438 26.221 528.724 26.6135C528.331 27.0059 527.814 27.559 527.172 28.2725C526.529 28.9504 525.905 29.6818 525.298 30.4668C524.692 31.216 524.139 31.9296 523.639 32.6075C523.14 33.2854 522.819 33.7671 522.676 34.0525C522.248 33.9812 521.873 33.8028 521.552 33.5173C521.231 33.1962 521.07 32.8929 521.07 32.6075Z" fill="#FAFAFA"/>
<path d="M506.354 56.3697C507.246 57.9038 507.692 59.3845 507.692 60.8117C507.692 61.1328 507.656 61.4182 507.585 61.668C507.549 61.9534 507.496 62.2388 507.424 62.5243C506.818 62.4529 506.175 62.3994 505.498 62.3637C504.855 62.328 504.177 62.3102 503.464 62.3102C502.608 62.3102 501.733 62.328 500.841 62.3637C499.985 62.4351 499.022 62.5243 497.951 62.6313C496.881 62.7383 495.686 62.881 494.366 63.0594C493.046 63.2378 491.511 63.4697 489.763 63.7552C488.943 63.4697 488.122 62.8989 487.301 62.0426C486.481 61.222 485.714 60.223 485 59.0456C485.357 58.2606 485.803 57.2973 486.338 56.1556C486.873 54.9782 487.498 53.5689 488.211 51.9276C488.925 50.2507 489.71 48.3062 490.566 46.0941C491.458 43.8464 492.403 41.2597 493.402 38.334C494.045 36.4073 494.598 34.7126 495.061 33.2497C495.525 31.7869 495.936 30.3776 496.292 29.0218C496.685 27.6303 497.059 26.1853 497.416 24.6868C497.773 23.1883 498.165 21.4579 498.594 19.4955C500.021 19.781 501.252 20.3162 502.286 21.1011C503.357 21.8504 504.374 22.9386 505.337 24.3657C505.052 24.8295 504.677 25.5788 504.213 26.6135C503.749 27.6482 503.196 28.9148 502.554 30.4133C501.947 31.8761 501.27 33.553 500.52 35.444C499.771 37.2993 498.986 39.2973 498.165 41.438C497.381 43.5431 496.613 45.5233 495.864 47.3786C495.115 49.2339 494.437 50.9108 493.831 52.4093C493.26 53.9078 492.796 55.1922 492.439 56.2626C492.082 57.333 491.904 58.1358 491.904 58.6709C492.475 58.6353 492.992 58.5996 493.456 58.5639C493.92 58.5282 494.401 58.4747 494.901 58.4033C495.4 58.2963 495.936 58.1893 496.506 58.0822C497.113 57.9395 497.827 57.7611 498.647 57.5471C499.361 57.3687 500.021 57.2259 500.627 57.1189C501.234 56.9762 501.823 56.8692 502.393 56.7978C503 56.6908 503.607 56.6194 504.213 56.5837C504.855 56.5124 505.569 56.441 506.354 56.3697Z" fill="#FAFAFA"/>
</svg>
